<svg xmlns="http://www.w3.org/2000/svg" xmlns:xlink="http://www.w3.org/1999/xlink" width="108" height="108" viewBox="0 0 108 108">
  <defs>
    <filter id="Trazado_904820" x="0" y="0" width="108" height="108" filterUnits="userSpaceOnUse">
      <feOffset dy="3" input="SourceAlpha"/>
      <feGaussianBlur stdDeviation="3" result="blur"/>
      <feFlood flood-opacity="0.161"/>
      <feComposite operator="in" in2="blur"/>
      <feComposite in="SourceGraphic"/>
    </filter>
  </defs>
  <g id="Grupo_1220408" data-name="Grupo 1220408" transform="translate(-197 -6694.175)">
    <g id="Grupo_1219941" data-name="Grupo 1219941" transform="translate(0 -423.658)">
      <g id="Grupo_1211333" data-name="Grupo 1211333" transform="translate(206 7123.833)">
        <g id="Grupo_1207774" data-name="Grupo 1207774" transform="translate(0 0)">
          <g id="Grupo_1206630" data-name="Grupo 1206630" transform="translate(0 0)">
            <g id="Grupo_1185091" data-name="Grupo 1185091">
              <g id="Grupo_1179560" data-name="Grupo 1179560">
                <g id="Grupo_1173787" data-name="Grupo 1173787">
                  <g id="Grupo_1171910" data-name="Grupo 1171910">
                    <g id="Grupo_1167341" data-name="Grupo 1167341">
                      <g id="Grupo_1166792" data-name="Grupo 1166792">
                        <g transform="matrix(1, 0, 0, 1, -9, -6)" filter="url(#Trazado_904820)">
                          <g id="Trazado_904820-2" data-name="Trazado 904820" transform="translate(9 6)" fill="#fbf3fb">
                            <path d="M 44.99999618530273 88.50014495849609 C 39.12687301635742 88.50014495849609 33.43022155761719 87.3502197265625 28.06829643249512 85.08231353759766 C 22.88852119445801 82.89144897460938 18.23629570007324 79.75472259521484 14.24085903167725 75.75926971435547 C 10.24540901184082 71.76382446289062 7.108683586120605 67.11158752441406 4.917821407318115 61.93180847167969 C 2.649921178817749 56.56987380981445 1.499996185302734 50.87321090698242 1.499996185302734 45.00007247924805 C 1.499996185302734 39.12693405151367 2.649921178817749 33.4302864074707 4.917821407318115 28.0683479309082 C 7.108683586120605 22.88855934143066 10.24540901184082 18.23633575439453 14.24085903167725 14.24087238311768 C 18.23629570007324 10.24542236328125 22.88852119445801 7.108697414398193 28.06829643249512 4.917834758758545 C 33.43022155761719 2.649922370910645 39.12687301635742 1.499997496604919 44.99999618530273 1.499997496604919 C 50.87311935424805 1.499997496604919 56.56977081298828 2.649922370910645 61.93169784545898 4.917834758758545 C 67.11147308349609 7.108697414398193 71.76369476318359 10.24542236328125 75.75913238525391 14.24087238311768 C 79.75458526611328 18.23633575439453 82.89131164550781 22.88855934143066 85.08216857910156 28.0683479309082 C 87.35007476806641 33.4302864074707 88.5 39.12693405151367 88.5 45.00007247924805 C 88.5 50.87321090698242 87.35007476806641 56.56987380981445 85.08216857910156 61.93180847167969 C 82.89131164550781 67.11158752441406 79.75458526611328 71.76382446289062 75.75913238525391 75.75926971435547 C 71.76369476318359 79.75472259521484 67.11147308349609 82.89144897460938 61.93169784545898 85.08231353759766 C 56.56977081298828 87.3502197265625 50.87311935424805 88.50014495849609 44.99999618530273 88.50014495849609 Z" stroke="none"/>
                            <path d="M 44.99999618530273 3 C 39.32870864868164 3 33.82866668701172 4.110061645507812 28.65262603759766 6.299346923828125 C 23.65165710449219 8.414588928222656 19.15968322753906 11.443359375 15.301513671875 15.30154418945312 C 11.44333648681641 19.15971374511719 8.414566040039062 23.65168762207031 6.299339294433594 28.65267181396484 C 4.110054016113281 33.82871627807617 2.999992370605469 39.32877349853516 2.999992370605469 45.00007247924805 C 2.999992370605469 50.67137145996094 4.110054016113281 56.17142868041992 6.299339294433594 61.34747314453125 C 8.414566040039062 66.34845733642578 11.44333648681641 70.84043121337891 15.301513671875 74.69861602783203 C 19.15968322753906 78.55678558349609 23.65165710449219 81.5855712890625 28.65262603759766 83.70079803466797 C 33.82865142822266 85.89008331298828 39.32870864868164 87.00014495849609 44.99999618530273 87.00014495849609 C 50.67128372192383 87.00014495849609 56.17134094238281 85.89008331298828 61.34736633300781 83.70079803466797 C 66.34834289550781 81.5855712890625 70.84030914306641 78.55678558349609 74.69847869873047 74.69861602783203 C 78.55665588378906 70.84043121337891 81.58542633056641 66.34845733642578 83.70065307617188 61.34747314453125 C 85.88993835449219 56.17142868041992 87 50.67137145996094 87 45.00007247924805 C 87 39.32877349853516 85.88993835449219 33.82871627807617 83.70065307617188 28.65267181396484 C 81.58542633056641 23.65168762207031 78.55665588378906 19.15971374511719 74.69847869873047 15.30154418945312 C 70.84030914306641 11.443359375 66.34834289550781 8.414588928222656 61.34736633300781 6.299346923828125 C 56.17132568359375 4.110061645507812 50.67128372192383 3 44.99999618530273 3 M 44.99999618530273 0 C 69.85281372070312 0 90 20.14723205566406 90 45.00007247924805 C 90 69.85292816162109 69.85281372070312 90.00014495849609 44.99999618530273 90.00014495849609 C 20.14717864990234 90.00014495849609 -7.62939453125e-06 69.85292816162109 -7.62939453125e-06 45.00007247924805 C -7.62939453125e-06 20.14723205566406 20.14717864990234 0 44.99999618530273 0 Z" stroke="none" fill="#df93dd"/>
                          </g>
                        </g>
                      </g>
                    </g>
                  </g>
                </g>
              </g>
            </g>
          </g>
        </g>
      </g>
    </g>
    <g id="_x33_7_Open_Mind" transform="translate(212.714 6711.308)">
      <g id="Grupo_1220407" data-name="Grupo 1220407" transform="translate(3.162 3.189)">
        <path id="Trazado_1169233" data-name="Trazado 1169233" d="M85.7,47.4c4.709,6.112,5.328,13.062,3.1,20.6a3.7,3.7,0,0,0,3.531,4.77h17.663a3.691,3.691,0,0,0,3.621-2.968c.353-1.769.786-3.838,1.043-4.725a2.1,2.1,0,0,1,1.563-1.411,3.689,3.689,0,0,1,1.658-.054,67.329,67.329,0,0,0,8.614,1.058,4.536,4.536,0,0,0,4.759-5.049,29.491,29.491,0,0,0-.645-3.565,1.5,1.5,0,0,1,.422-1.438,3.642,3.642,0,0,0,.6-.75,1.51,1.51,0,0,0,.039-1.445l-.05-.1a1.538,1.538,0,0,1,.246-1.747,1.556,1.556,0,0,0,.182-1.858c-1.039-1.785-.4-3.236,2-4.34a2.349,2.349,0,0,0,1.3-1.58,2.477,2.477,0,0,0-.714-2.052c-4.511-4.123-5.917-8.34-5.71-12.7a19.442,19.442,0,0,0-.792-5.875C123.6,8.528,109.941,5.958,96.111,10.546,81.1,15.524,75.275,32.669,85.7,47.4Z" transform="translate(-70.386 -7.771)" fill="#e8f1f8"/>
        <path id="Trazado_1169234" data-name="Trazado 1169234" d="M190.445,75.685a2.392,2.392,0,0,1-1.3,1.584c-2.4,1.1-3.045,2.553-2.007,4.336a1.632,1.632,0,0,1,.231.83,1.521,1.521,0,0,1-.407,1.03,1.537,1.537,0,0,0-.246,1.745l.046.1a1.507,1.507,0,0,1-.038,1.445,3.688,3.688,0,0,1-.6.754,1.494,1.494,0,0,0-.423,1.438,28.742,28.742,0,0,1,.646,3.56,4.535,4.535,0,0,1-4.759,5.052,66.571,66.571,0,0,1-8.612-1.061,3.781,3.781,0,0,0-1.661.054,2.11,2.11,0,0,0-1.561,1.415c-.261.884-.692,2.952-1.046,4.721a3.689,3.689,0,0,1-3.621,2.968H147.426a3.693,3.693,0,0,1-3.552-4.675A41.417,41.417,0,0,0,177.628,46.26a19.825,19.825,0,0,1,5.6,8.8,19.484,19.484,0,0,1,.792,5.874c-.208,4.367,1.2,8.581,5.713,12.7A2.5,2.5,0,0,1,190.445,75.685Z" transform="translate(-125.482 -40.665)" opacity="0.12"/>
        <path id="Trazado_1169235" data-name="Trazado 1169235" d="M186.708,202.612A11.551,11.551,0,0,0,197.92,214.16a19.1,19.1,0,0,1-3.863-11.548" transform="translate(-162.866 -176.708)" fill="#fdcf17" stroke="#f78721" stroke-miterlimit="10" stroke-width="1"/>
        <path id="Trazado_1169236" data-name="Trazado 1169236" d="M51.544,29.108a4.739,4.739,0,0,1-4.278,4.722,5.6,5.6,0,0,1-8.313,2.653,5.58,5.58,0,0,1-9.077-2.37,5.507,5.507,0,0,1-3.726,1.426,5.581,5.581,0,0,1-4.959-3.013,5.585,5.585,0,0,1-9.148-1.991,4.768,4.768,0,0,1-2.968-7.028,4.683,4.683,0,0,1-.623-2.345A4.755,4.755,0,0,1,13.2,16.4a3.514,3.514,0,0,1,.642.051,3.331,3.331,0,0,1-.026-.437,4.744,4.744,0,0,1,4.741-4.754,4.679,4.679,0,0,1,2.57.758A4.735,4.735,0,0,1,29.5,10.35a4.687,4.687,0,0,1,3.514-1.574A4.736,4.736,0,0,1,37.6,12.329a4.749,4.749,0,0,1,8.178,4.465,4.743,4.743,0,0,1,2.75,7.889,4.747,4.747,0,0,1,3.013,4.426Z" transform="translate(-7.742 -7.771)" fill="#fdcf17" stroke="#f78721" stroke-miterlimit="10" stroke-width="1"/>
        <path id="Trazado_1169237" data-name="Trazado 1169237" d="M51.544,91.718a4.739,4.739,0,0,1-4.278,4.722,5.6,5.6,0,0,1-8.313,2.653,5.58,5.58,0,0,1-9.077-2.37,5.507,5.507,0,0,1-3.726,1.426,5.581,5.581,0,0,1-4.959-3.013,5.585,5.585,0,0,1-9.148-1.991,4.768,4.768,0,0,1-2.968-7.028,4.91,4.91,0,0,1-.4-.9,25.223,25.223,0,0,0,39.36-4.805,4.747,4.747,0,0,1,.495,6.88,4.747,4.747,0,0,1,3.013,4.426Z" transform="translate(-7.742 -70.381)" opacity="0.12"/>
        <path id="Trazado_1169238" data-name="Trazado 1169238" d="M6.978,26.524a6.287,6.287,0,0,0,5.708,3.716l.031,0a28.418,28.418,0,0,0,5.211,12.994c4.327,5.606,5.3,12.144,2.992,19.987a4.383,4.383,0,0,0,4.186,5.647H42.77a4.383,4.383,0,0,0,4.29-3.519c.482-2.4.83-3.975,1.033-4.67.273-.94,1.482-1.149,2.442-.983a68.156,68.156,0,0,0,8.7,1.071,5.217,5.217,0,0,0,5.471-5.814,29.613,29.613,0,0,0-.659-3.648.81.81,0,0,1,.244-.787A4.567,4.567,0,0,0,65,49.63a2.226,2.226,0,0,0,.011-2.2.847.847,0,0,1,.135-.972,2.194,2.194,0,0,0,.587-1.5,2.336,2.336,0,0,0-.318-1.17,2.015,2.015,0,0,1-.319-1.634c.2-.632.88-1.217,2.06-1.76a2.836,2.836,0,0,0,.715-4.738c-3.968-3.631-5.71-7.5-5.484-12.169a20.361,20.361,0,0,0-.828-6.116C57.638,5.57,46.143.648,31.516,4.474a5.385,5.385,0,0,0-6.549.309,5.355,5.355,0,0,0-3.828-1.593A5.416,5.416,0,0,0,16.161,6.46a5.41,5.41,0,0,0-7.594,4.678,5.414,5.414,0,0,0-4.833,7.784,5.422,5.422,0,0,0,3.244,7.6ZM60.257,17.8a19.05,19.05,0,0,1,.76,5.622c-.244,5.037,1.694,9.369,5.931,13.245a1.466,1.466,0,0,1-.408,2.5,4.594,4.594,0,0,0-2.75,2.568,3.333,3.333,0,0,0,.439,2.736.969.969,0,0,1,.133.484.826.826,0,0,1-.218.564,2.223,2.223,0,0,0-.368,2.5.921.921,0,0,1,.047.907,3.2,3.2,0,0,1-.486.608,2.173,2.173,0,0,0-.617,2.1,28.184,28.184,0,0,1,.628,3.481A3.849,3.849,0,0,1,59.307,59.4a66.928,66.928,0,0,1-8.532-1.051c-1.7-.295-3.512.294-4,1.946-.217.743-.564,2.308-1.061,4.786A3.012,3.012,0,0,1,42.77,67.5H25.105a3.015,3.015,0,0,1-2.874-3.891c2.446-8.294,1.393-15.232-3.2-21.187a27.039,27.039,0,0,1-4.954-12.339,6.167,6.167,0,0,0,2.37-1.1A6.263,6.263,0,0,0,25,30.614a6.216,6.216,0,0,0,1.931,2.268,12.19,12.19,0,0,0,11.259,8.442h.019a.684.684,0,0,0,.547-1.1A18.489,18.489,0,0,1,35.5,33.192a6.273,6.273,0,0,0,1.966.325,6.206,6.206,0,0,0,5.677-3.644A5.43,5.43,0,0,0,45,19.858,5.423,5.423,0,0,0,42.021,11.7,5.421,5.421,0,0,0,33.3,6.534a5.4,5.4,0,0,0-.594-.95C46.355,2.294,56.607,6.81,60.257,17.8Zm-31.5,15.98A6.245,6.245,0,0,0,34.065,33a19.765,19.765,0,0,0,2.749,6.818,10.826,10.826,0,0,1-8.058-6.043ZM8.619,15.864a5.463,5.463,0,0,0-3.941,1.7,4.033,4.033,0,0,1-.122-.982,4.06,4.06,0,0,1,8.1-.382.684.684,0,0,0,1.363-.123,5.452,5.452,0,0,0-4.1-4.773,4.058,4.058,0,0,1,8.113.132.684.684,0,0,0,1.368,0,5.4,5.4,0,0,0-2.053-4.249A4.05,4.05,0,0,1,25.2,8.627a.684.684,0,0,0,1.368,0A5.369,5.369,0,0,0,25.8,5.868a4.017,4.017,0,0,1,2.641-.99A4.075,4.075,0,0,1,32.5,8.955a.684.684,0,1,0,1.368,0,5.235,5.235,0,0,0-.1-1,4.051,4.051,0,0,1,6.909,3.518c-.074,0-.146-.009-.223-.009a.684.684,0,1,0,0,1.368A4.043,4.043,0,0,1,43.708,19.3a5.41,5.41,0,0,0-1.491-.208.684.684,0,0,0,0,1.368,4.058,4.058,0,0,1,1.432,7.857,6.3,6.3,0,0,0,.094-1.07.684.684,0,1,0-1.368,0,4.9,4.9,0,0,1-6.9,4.474,6.278,6.278,0,0,0,1.4-3.935.684.684,0,0,0-1.368,0,4.89,4.89,0,0,1-9.4,1.909,6.267,6.267,0,0,0,1.742-4.325.684.684,0,0,0-1.368,0,4.9,4.9,0,0,1-9.013,2.661,6.2,6.2,0,0,0,1.5-4.062.684.684,0,0,0-1.368,0,4.893,4.893,0,0,1-8.91,2.8.679.679,0,0,0-.061-1.356,4.092,4.092,0,0,1,0-8.184.684.684,0,1,0,0-1.368Z" transform="translate(-3.162 -3.189)"/>
      </g>
    </g>
  </g>
</svg>
