<svg xmlns="http://www.w3.org/2000/svg" xmlns:xlink="http://www.w3.org/1999/xlink" width="110" height="110" viewBox="0 0 110 110">
  <defs>
    <filter id="Trazado_982547" x="0" y="0" width="110" height="110" filterUnits="userSpaceOnUse">
      <feOffset dy="3" input="SourceAlpha"/>
      <feGaussianBlur stdDeviation="3" result="blur"/>
      <feFlood flood-opacity="0.161"/>
      <feComposite operator="in" in2="blur"/>
      <feComposite in="SourceGraphic"/>
    </filter>
  </defs>
  <g id="Grupo_1220413" data-name="Grupo 1220413" transform="translate(-799 -7808.023)">
    <g id="Grupo_1220001" data-name="Grupo 1220001" transform="translate(808 7814.023)">
      <g id="Grupo_1211701" data-name="Grupo 1211701" transform="translate(0 0)">
        <g id="Grupo_1200150" data-name="Grupo 1200150">
          <g id="Grupo_1185951" data-name="Grupo 1185951" transform="translate(0 0)">
            <g id="Grupo_1184083" data-name="Grupo 1184083" transform="translate(0 0)">
              <g id="Grupo_1183743" data-name="Grupo 1183743" transform="translate(0 0)">
                <g id="Grupo_1181545" data-name="Grupo 1181545">
                  <g id="Grupo_1177562" data-name="Grupo 1177562">
                    <g id="Grupo_1173147" data-name="Grupo 1173147" transform="translate(0 0)">
                      <g id="Grupo_1163801" data-name="Grupo 1163801" transform="translate(0 0)">
                        <g id="Grupo_1163014" data-name="Grupo 1163014" transform="translate(0 0)">
                          <g id="Grupo_1157015" data-name="Grupo 1157015" transform="translate(0 0)">
                            <g id="Grupo_1155792" data-name="Grupo 1155792">
                              <g id="Grupo_1154703" data-name="Grupo 1154703">
                                <g id="Grupo_1150789" data-name="Grupo 1150789">
                                  <g id="Grupo_1154212" data-name="Grupo 1154212">
                                    <g id="Grupo_1152583" data-name="Grupo 1152583">
                                      <g id="Grupo_1146973" data-name="Grupo 1146973">
                                        <g id="Grupo_1146954" data-name="Grupo 1146954">
                                          <g transform="matrix(1, 0, 0, 1, -9, -6)" filter="url(#Trazado_982547)">
                                            <g id="Trazado_982547-2" data-name="Trazado 982547" transform="translate(9 6)" fill="#e2f7f7">
                                              <path d="M 46.00000381469727 90.49986267089844 C 39.99188232421875 90.49986267089844 34.16427230834961 89.32350158691406 28.67905807495117 87.00344848632812 C 23.38020324707031 84.76223754882812 18.62104415893555 81.55341339111328 14.53375053405762 77.46613311767578 C 10.44647026062012 73.37885284423828 7.237643718719482 68.61968994140625 4.996417045593262 63.32085037231445 C 2.676363706588745 57.83565139770508 1.500003814697266 52.00805282592773 1.500003814697266 45.99993133544922 C 1.500003814697266 39.99182510375977 2.676363706588745 34.16422653198242 4.996417045593262 28.67901039123535 C 7.237643718719482 23.38017082214355 10.44647026062012 18.62101173400879 14.53375053405762 14.53373146057129 C 18.62104415893555 10.44645118713379 23.38020324707031 7.237624645233154 28.67905807495117 4.996411323547363 C 34.16427230834961 2.676357984542847 39.99188232421875 1.499997973442078 46.00000381469727 1.499997973442078 C 52.00812530517578 1.499997973442078 57.83573532104492 2.676357984542847 63.32094955444336 4.996411323547363 C 68.61980438232422 7.237624645233154 73.37896728515625 10.44645118713379 77.46625518798828 14.53373146057129 C 81.55353546142578 18.62101173400879 84.76236724853516 23.38017082214355 87.00359344482422 28.67901039123535 C 89.32364654541016 34.16422653198242 90.5 39.99182510375977 90.5 45.99993133544922 C 90.5 52.00805282592773 89.32364654541016 57.83565139770508 87.00359344482422 63.32085037231445 C 84.76236724853516 68.61968994140625 81.55353546142578 73.37885284423828 77.46625518798828 77.46613311767578 C 73.37896728515625 81.55341339111328 68.61980438232422 84.76223754882812 63.32094955444336 87.00344848632812 C 57.83573532104492 89.32350158691406 52.00812530517578 90.49986267089844 46.00000381469727 90.49986267089844 Z" stroke="none"/>
                                              <path d="M 46.00000381469727 3 C 40.19371795654297 3 34.56270217895508 4.136505126953125 29.26337432861328 6.377914428710938 C 24.14333343505859 8.54351806640625 19.54441833496094 11.64438629150391 15.59440612792969 15.59439086914062 C 11.64440155029297 19.54440307617188 8.54351806640625 24.14330291748047 6.377914428710938 29.26334381103516 C 4.136505126953125 34.56266021728516 3.000007629394531 40.19366073608398 3.000007629394531 45.99993133544922 C 3.000007629394531 51.80620193481445 4.136505126953125 57.43720245361328 6.377914428710938 62.73651885986328 C 8.54351806640625 67.85655975341797 11.64440155029297 72.45545959472656 15.59440612792969 76.40547180175781 C 19.54441833496094 80.35547637939453 24.14333343505859 83.45634460449219 29.26337432861328 85.6219482421875 C 34.56270217895508 87.86335754394531 40.19371795654297 88.99986267089844 46.00000381469727 88.99986267089844 C 51.80628967285156 88.99986267089844 57.43730545043945 87.86335754394531 62.73661804199219 85.6219482421875 C 67.85667419433594 83.45634460449219 72.45557403564453 80.35547637939453 76.40558624267578 76.40547180175781 C 80.35560607910156 72.45545959472656 83.45647430419922 67.85655975341797 85.62207794189453 62.73651885986328 C 87.86350250244141 57.43720245361328 89 51.80620193481445 89 45.99993133544922 C 89 40.19366073608398 87.86350250244141 34.56266021728516 85.62207794189453 29.26334381103516 C 83.45647430419922 24.14330291748047 80.35560607910156 19.54440307617188 76.40558624267578 15.59439086914062 C 72.45557403564453 11.64438629150391 67.85667419433594 8.54351806640625 62.73661804199219 6.377914428710938 C 57.43730545043945 4.136505126953125 51.80628967285156 3 46.00000381469727 3 M 46.00000381469727 0 C 71.40509033203125 0 92 20.59487152099609 92 45.99993133544922 C 92 71.40499114990234 71.40509033203125 91.99986267089844 46.00000381469727 91.99986267089844 C 20.59490203857422 91.99986267089844 7.62939453125e-06 71.40499114990234 7.62939453125e-06 45.99993133544922 C 7.62939453125e-06 20.59487152099609 20.59490203857422 0 46.00000381469727 0 Z" stroke="none" fill="#75dad9"/>
                                            </g>
                                          </g>
                                        </g>
                                      </g>
                                    </g>
                                  </g>
                                </g>
                              </g>
                            </g>
                          </g>
                        </g>
                      </g>
                    </g>
                  </g>
                </g>
              </g>
            </g>
          </g>
        </g>
      </g>
    </g>
    <g id="XMLID_1_" transform="translate(814.061 7827.146)">
      <g id="XMLID_4049_" transform="translate(0.77 0.77)">
        <path id="XMLID_1352_" d="M256,135.9h17.07a4.5,4.5,0,0,0,0-9H256Z" transform="translate(-217.331 -108.12)" fill="#ef937e"/>
        <path id="XMLID_1349_" d="M137.568,135.9H120.5a4.5,4.5,0,0,1,0-9h17.07Z" transform="translate(-98.899 -108.12)" fill="#ef937e"/>
        <path id="XMLID_1359_" d="M175.043,77.8A14.744,14.744,0,0,1,160.3,63.055V40.1h29.471V63.055A14.721,14.721,0,0,1,175.043,77.8Z" transform="translate(-136.375 -34.693)" fill="#f7c8a9"/>
        <path id="XMLID_731_" d="M189.771,63.7H160.3v9.752h6.363a4.606,4.606,0,0,0,3.821-2.034l4.56-6.779L179.6,71.4a4.606,4.606,0,0,0,3.821,2.034h6.347Z" transform="translate(-136.375 -54.657)" fill="#ef937e"/>
        <path id="XMLID_923_" d="M189.856,192.6l-14.728,4.714L160.4,192.6a14.737,14.737,0,0,0,29.456,0Z" transform="translate(-136.459 -163.699)" fill="#ef937e"/>
        <g id="XMLID_1358_" transform="translate(30.35 20.49)">
          <path id="XMLID_869_" d="M202,138h4.776v1.541H202Z" transform="translate(-202 -138)" fill="#323d2c"/>
        </g>
        <g id="XMLID_1357_" transform="translate(34.355 24.187)">
          <path id="XMLID_868_" d="M228,162h1.541v3.389H228Z" transform="translate(-228 -162)" fill="#323d2c"/>
        </g>
        <g id="XMLID_1356_" transform="translate(42.212 20.49)">
          <path id="XMLID_866_" d="M279,138h4.776v1.541H279Z" transform="translate(-279 -138)" fill="#323d2c"/>
        </g>
        <g id="XMLID_1355_" transform="translate(41.442 24.187)">
          <path id="XMLID_865_" d="M274,162h1.541v3.389H274Z" transform="translate(-274 -162)" fill="#323d2c"/>
        </g>
        <path id="XMLID_1346_" d="M154.884,8.543A7.374,7.374,0,0,0,148.583,5h-.308A11.8,11.8,0,0,0,136.8,19.543l1.017,4.237h5.469a4.329,4.329,0,0,0,3.975-2.619l1.725-4.021a4.315,4.315,0,0,1,5.9-2.157,4.331,4.331,0,0,1,5.916,2.172l1.725,4.021A4.329,4.329,0,0,0,166.5,23.8h5.469l1.017-4.237A11.828,11.828,0,0,0,161.493,5h-.308A7.374,7.374,0,0,0,154.884,8.543Z" transform="translate(-116.215 -5)" fill="#323d2c"/>
        <g id="XMLID_1345_" transform="translate(20.49 22.493)">
          <path id="XMLID_831_" d="M138,151h1.541v1.541H138Z" transform="translate(-138 -151)" fill="#e67368"/>
        </g>
        <g id="XMLID_1344_" transform="translate(55.307 22.493)">
          <path id="XMLID_830_" d="M364,151h1.541v1.541H364Z" transform="translate(-364 -151)" fill="#e67368"/>
        </g>
        <path id="XMLID_1400_" d="M57.114,232.069,30,223.134V185.851L36.933,182l27.885,8.935L92.7,182l6.933,3.851v37.282L72.52,232.069Z" transform="translate(-26.149 -154.732)" fill="#9ad2fc"/>
        <path id="XMLID_1399_" d="M74.9,283.538l-19.2-6.332V250.8l19.2,6.316Z" transform="translate(-47.889 -212.932)" fill="#c075ac"/>
        <path id="XMLID_1397_" d="M206,265h15.406v37.282H206Z" transform="translate(-175.034 -224.945)" fill="#f37787"/>
        <path id="XMLID_800_" d="M206,265h15.406v37.282H206Z" transform="translate(-175.034 -224.945)" fill="#68a1d6"/>
        <path id="XMLID_1395_" d="M36.933,182,30,185.851l27.114,8.935,7.7-3.851Z" transform="translate(-26.149 -154.732)" fill="#ebeadf"/>
        <path id="XMLID_932_" d="M46.5,192.217l27.592,8.843,1.972-.986L48.349,191.2Z" transform="translate(-40.107 -162.514)" fill="#c4c1ab"/>
        <path id="XMLID_1394_" d="M283.885,182l6.933,3.851L263.7,194.787l-7.7-3.851Z" transform="translate(-217.331 -154.732)" fill="#ebeadf"/>
        <path id="XMLID_864_" d="M275.572,201.06l27.592-8.843-1.849-1.017L273.6,200.074Z" transform="translate(-232.22 -162.514)" fill="#c4c1ab"/>
        <path id="XMLID_1396_" d="M215.806,240h-4.021a6.109,6.109,0,0,0-5.685,3.851h15.406A6.161,6.161,0,0,0,215.806,240Z" transform="translate(-175.119 -203.796)" fill="#3179af"/>
        <path id="XMLID_1393_" d="M231,295h7.7v7.7H231Z" transform="translate(-196.183 -250.323)" fill="#b23998"/>
        <g id="XMLID_1392_" transform="translate(35.588 55.769)">
          <path id="XMLID_829_" d="M236,367h1.541v16.946H236Z" transform="translate(-236 -367)" fill="#3179af"/>
        </g>
        <g id="XMLID_1391_" transform="translate(40.209 55.769)">
          <path id="XMLID_828_" d="M266,367h1.541v16.946H266Z" transform="translate(-266 -367)" fill="#3179af"/>
        </g>
        <path id="XMLID_1390_" d="M6.957,360.314l3.312.955a1.9,1.9,0,0,0,2.434-1.833v-7.318a3.3,3.3,0,0,0-2.373-3.158l-1.864-.539A2.722,2.722,0,0,0,5,351.039v6.671a2.722,2.722,0,0,0,1.957,2.6Z" transform="translate(-5 -295.424)" fill="#f7c8a9"/>
        <g id="Grupo_1220411" data-name="Grupo 1220411" transform="translate(3.05 55.43)">
          <path id="XMLID_925_" d="M24.8,366.279l4.653,1.356v-1.6L25.231,364.8Z" transform="translate(-24.8 -364.8)" fill="#ef937e"/>
          <path id="XMLID_863_" d="M24.8,387.279l4.653,1.356v-1.6L25.231,385.8Z" transform="translate(-24.8 -382.565)" fill="#ef937e"/>
          <path id="XMLID_842_" d="M25.231,406.8l-.431,1.479,4.529,1.31a2.029,2.029,0,0,0,.123-.678v-.878Z" transform="translate(-24.8 -400.33)" fill="#ef937e"/>
        </g>
        <path id="XMLID_1386_" d="M462.746,360.286l-3.312.955A1.9,1.9,0,0,1,457,359.408V352.09a3.3,3.3,0,0,1,2.372-3.158l1.864-.539A2.708,2.708,0,0,1,464.7,351v6.671A2.727,2.727,0,0,1,462.746,360.286Z" transform="translate(-387.366 -295.397)" fill="#f7c8a9"/>
        <path id="XMLID_938_" d="M461.653,366.279l-.431-1.479L457,366.032v1.6Z" transform="translate(-387.366 -309.37)" fill="#ef937e"/>
        <path id="XMLID_929_" d="M457,387.032v1.6l4.653-1.356-.431-1.479Z" transform="translate(-387.366 -327.134)" fill="#ef937e"/>
        <path id="XMLID_845_" d="M461.221,406.8,457,408.032v.878a1.9,1.9,0,0,0,.123.678l4.529-1.31Z" transform="translate(-387.366 -344.899)" fill="#ef937e"/>
        <g id="XMLID_1380_" transform="translate(51.745 37.495)">
          <path id="XMLID_822_" d="M0,0H1.541V16.7H0Z" transform="translate(15.865 0) rotate(71.764)" fill="#3179af"/>
        </g>
        <g id="XMLID_1379_" transform="translate(51.743 42.733)">
          <path id="XMLID_807_" d="M0,0H1.541V16.7H0Z" transform="translate(15.865 0) rotate(71.764)" fill="#3179af"/>
        </g>
        <g id="XMLID_1378_" transform="translate(51.739 49.735)">
          <path id="XMLID_806_" d="M0,0H1.541V11.077H0Z" transform="translate(10.523 0) rotate(71.764)" fill="#3179af"/>
        </g>
        <ellipse id="XMLID_1377_" cx="5.192" cy="9.706" rx="5.192" ry="9.706" transform="translate(12.217 44.523)" fill="#b23998"/>
        <path id="XMLID_922_" d="M256,16.083a4.322,4.322,0,0,1,4.622.478V6.3A7.379,7.379,0,0,0,256,9.643Z" transform="translate(-217.331 -6.1)" fill="#1c2617"/>
      </g>
      <g id="XMLID_3711_" transform="translate(0 0)">
        <g id="XMLID_549_" transform="translate(7.811 37.861)">
          <path id="XMLID_3183_" d="M70.666,280.043A.7.7,0,0,1,70.42,280l-19.2-6.332a.778.778,0,0,1-.524-.724V246.536a.8.8,0,0,1,.324-.632.794.794,0,0,1,.693-.108l19.211,6.332a.778.778,0,0,1,.524.724v26.406a.8.8,0,0,1-.324.632.83.83,0,0,1-.462.154Zm-18.425-7.672,17.671,5.823V253.422L52.241,247.6Z" transform="translate(-50.7 -245.759)" fill="#060d1a"/>
        </g>
        <g id="XMLID_824_" transform="translate(30.966 40.055)">
          <path id="XMLID_3180_" d="M217.176,298.823H201.77a.763.763,0,0,1-.77-.77V260.77a.763.763,0,0,1,.77-.77h15.406a.763.763,0,0,1,.77.77v37.282A.763.763,0,0,1,217.176,298.823Zm-14.636-1.541h13.865V261.541H202.541Z" transform="translate(-201 -260)" fill="#060d1a"/>
        </g>
        <g id="XMLID_826_" transform="translate(30.975 36.204)">
          <path id="XMLID_3176_" d="M217.224,240.392H201.819a.736.736,0,0,1-.632-.339.8.8,0,0,1-.077-.724A6.86,6.86,0,0,1,207.519,235h4.021a6.875,6.875,0,0,1,6.409,4.329.807.807,0,0,1-.077.724A.783.783,0,0,1,217.224,240.392ZM203.1,238.851h12.848a5.336,5.336,0,0,0-4.406-2.311h-4.021A5.343,5.343,0,0,0,203.1,238.851Z" transform="translate(-201.057 -235)" fill="#060d1a"/>
        </g>
        <g id="XMLID_832_" transform="translate(34.817 44.677)">
          <path id="XMLID_3171_" d="M234.473,299.244h-7.7a.763.763,0,0,1-.77-.77v-7.7a.763.763,0,0,1,.77-.77h7.7a.763.763,0,0,1,.77.77v7.7A.763.763,0,0,1,234.473,299.244Zm-6.933-1.541H233.7v-6.162h-6.162Z" transform="translate(-226 -290)" fill="#060d1a"/>
        </g>
        <g id="XMLID_840_" transform="translate(36.358 56.54)">
          <path id="XMLID_3170_" d="M236,367h1.541v16.946H236Z" transform="translate(-236 -367)" fill="#060d1a"/>
        </g>
        <g id="XMLID_531_" transform="translate(40.98 56.54)">
          <path id="XMLID_3169_" d="M266,367h1.541v16.946H266Z" transform="translate(-266 -367)" fill="#060d1a"/>
        </g>
        <g id="XMLID_530_" transform="translate(0 52.901)">
          <path id="XMLID_3166_" d="M6.578,357.944a2.556,2.556,0,0,1-.755-.108l-3.312-.955A3.5,3.5,0,0,1,0,353.538v-6.671a3.472,3.472,0,0,1,4.452-3.343l1.864.539a4.063,4.063,0,0,1,2.927,3.9v7.318a2.656,2.656,0,0,1-1.063,2.141,2.765,2.765,0,0,1-1.6.524ZM2.943,355.4l3.312.955A1.131,1.131,0,0,0,7.7,355.263v-7.318a2.523,2.523,0,0,0-1.818-2.419l-1.864-.539a1.931,1.931,0,0,0-2.48,1.864v6.671A1.964,1.964,0,0,0,2.943,355.4Z" transform="translate(0 -343.382)" fill="#060d1a"/>
        </g>
        <g id="XMLID_535_" transform="translate(3.792 56.182)">
          <path id="XMLID_3165_" d="M0,0H4.622V1.541H0Z" transform="translate(0.43 0) rotate(16.205)" fill="#060d1a"/>
        </g>
        <g id="XMLID_536_" transform="translate(3.791 59.416)">
          <path id="XMLID_3164_" d="M0,0H4.622V1.541H0Z" transform="translate(0.43 0) rotate(16.205)" fill="#060d1a"/>
        </g>
        <g id="XMLID_538_" transform="translate(3.789 62.649)">
          <path id="XMLID_3163_" d="M0,0H4.622V1.541H0Z" transform="translate(0.43 0) rotate(16.205)" fill="#060d1a"/>
        </g>
        <g id="XMLID_547_" transform="translate(69.635 52.886)">
          <path id="XMLID_3160_" d="M454.665,357.859A2.673,2.673,0,0,1,452,355.178v-7.318a4.091,4.091,0,0,1,2.927-3.9l1.864-.539a3.469,3.469,0,0,1,3.066.555,3.423,3.423,0,0,1,1.387,2.788v6.671a3.5,3.5,0,0,1-2.511,3.343l-3.312.955A2.1,2.1,0,0,1,454.665,357.859Zm3.1-13.033a2.291,2.291,0,0,0-.555.077l-1.864.539a2.528,2.528,0,0,0-1.818,2.419v7.318a1.131,1.131,0,0,0,1.448,1.094l3.312-.955a1.946,1.946,0,0,0,1.4-1.864v-6.671a1.926,1.926,0,0,0-.77-1.556A1.879,1.879,0,0,0,457.762,344.826Z" transform="translate(-452 -343.282)" fill="#060d1a"/>
        </g>
        <g id="XMLID_546_" transform="translate(70.255 56.2)">
          <path id="XMLID_3157_" d="M0,0H1.541V4.622H0Z" transform="translate(4.437 0) rotate(73.795)" fill="#060d1a"/>
        </g>
        <g id="XMLID_539_" transform="translate(70.256 59.437)">
          <path id="XMLID_3156_" d="M0,0H1.541V4.622H0Z" transform="translate(4.437 0) rotate(73.795)" fill="#060d1a"/>
        </g>
        <g id="XMLID_533_" transform="translate(70.258 62.674)">
          <path id="XMLID_3155_" d="M0,0H1.541V4.622H0Z" transform="translate(4.437 0) rotate(73.795)" fill="#060d1a"/>
        </g>
        <g id="XMLID_548_" transform="translate(7.854 29.218)">
          <path id="XMLID_3154_" d="M0,0H26.96V1.541H0Z" transform="matrix(0.952, 0.305, -0.305, 0.952, 0.47, 0)" fill="#060d1a"/>
        </g>
        <g id="XMLID_532_" transform="translate(44.885 29.214)">
          <path id="XMLID_3153_" d="M0,0H1.541V26.96H0Z" transform="matrix(0.305, 0.952, -0.952, 0.305, 25.666, 0)" fill="#060d1a"/>
        </g>
        <g id="XMLID_720_" transform="translate(52.515 38.265)">
          <path id="XMLID_3152_" d="M0,0H1.541V16.7H0Z" transform="translate(15.865 0) rotate(71.764)" fill="#060d1a"/>
        </g>
        <g id="XMLID_721_" transform="translate(52.514 43.503)">
          <path id="XMLID_3150_" d="M0,0H1.541V16.7H0Z" transform="translate(15.865 0) rotate(71.764)" fill="#060d1a"/>
        </g>
        <g id="XMLID_722_" transform="translate(52.51 50.505)">
          <path id="XMLID_3149_" d="M0,0H1.541V11.077H0Z" transform="translate(10.523 0) rotate(71.764)" fill="#060d1a"/>
        </g>
        <g id="XMLID_550_" transform="translate(12.217 44.523)">
          <path id="XMLID_3129_" d="M85.262,309.952c-3.343,0-5.962-4.606-5.962-10.476S81.919,289,85.262,289s5.962,4.606,5.962,10.476S88.605,309.952,85.262,309.952Zm0-19.411c-2.388,0-4.421,4.1-4.421,8.935s2.018,8.935,4.421,8.935,4.421-4.1,4.421-8.935S87.65,290.541,85.262,290.541Z" transform="translate(-79.3 -289)" fill="#060d1a"/>
        </g>
        <g id="XMLID_620_" transform="translate(17.085)">
          <g id="XMLID_1337_" transform="translate(6.84 19.565)">
            <path id="XMLID_3144_" d="M155.67,139.972a15.646,15.646,0,0,1-.37-3.389V127h1.541v9.582a13.515,13.515,0,0,0,.339,3.05Z" transform="translate(-155.3 -127)" fill="#060d1a"/>
          </g>
          <g id="XMLID_2586_" transform="translate(36.327 19.565)">
            <path id="XMLID_3143_" d="M346.7,127h1.541v8.982H346.7Z" transform="translate(-346.7 -127)" fill="#060d1a"/>
          </g>
          <g id="XMLID_1296_" transform="translate(14.035 21.26)">
            <path id="XMLID_3142_" d="M202,138h4.776v1.541H202Z" transform="translate(-202 -138)" fill="#060d1a"/>
          </g>
          <g id="XMLID_1292_" transform="translate(18.04 24.958)">
            <path id="XMLID_3141_" d="M228,162h1.541v3.389H228Z" transform="translate(-228 -162)" fill="#060d1a"/>
          </g>
          <g id="XMLID_1254_" transform="translate(25.897 21.26)">
            <path id="XMLID_3140_" d="M279,138h4.776v1.541H279Z" transform="translate(-279 -138)" fill="#060d1a"/>
          </g>
          <g id="XMLID_1250_" transform="translate(25.127 24.958)">
            <path id="XMLID_3139_" d="M274,162h1.541v3.389H274Z" transform="translate(-274 -162)" fill="#060d1a"/>
          </g>
          <g id="XMLID_1232_" transform="translate(36.312 18.795)">
            <path id="XMLID_3136_" d="M349.712,132.522H347.37a.763.763,0,0,1-.77-.77V122.77a.763.763,0,0,1,.77-.77h2.342a5.261,5.261,0,1,1,0,10.522Zm-1.556-1.541h1.571a3.721,3.721,0,1,0-.015-7.441h-1.571v7.441Z" transform="translate(-346.6 -122)" fill="#060d1a"/>
          </g>
          <g id="XMLID_1227_" transform="translate(0 18.78)">
            <path id="XMLID_3133_" d="M118.511,132.438h-2.342a5.269,5.269,0,0,1,0-10.538h2.342a.763.763,0,0,1,.77.77v8.982A.766.766,0,0,1,118.511,132.438Zm-2.326-8.982a3.728,3.728,0,0,0,0,7.456h1.571v-7.456Z" transform="translate(-110.9 -121.9)" fill="#060d1a"/>
          </g>
          <g id="XMLID_779_" transform="translate(3.15)">
            <path id="XMLID_3130_" d="M167.62,20.336h-5.469a5.091,5.091,0,0,1-4.683-3.081l-1.725-4.021a3.488,3.488,0,0,0-2.049-1.941,3.592,3.592,0,0,0-2.819.154.783.783,0,0,1-.693,0,3.57,3.57,0,0,0-4.868,1.787l-1.695,4.006a5.082,5.082,0,0,1-4.683,3.081h-5.469a.79.79,0,0,1-.755-.585L131.694,15.5A12.579,12.579,0,0,1,143.941,0h.308a8.206,8.206,0,0,1,6.3,2.989A8.206,8.206,0,0,1,156.852,0h.308a12.579,12.579,0,0,1,12.232,15.5l-1.017,4.237a.774.774,0,0,1-.755.6ZM152.476,9.521a5.338,5.338,0,0,1,1.756.308A5.085,5.085,0,0,1,157.16,12.6l1.725,4.021a3.55,3.55,0,0,0,3.266,2.157H167l.878-3.651A11.015,11.015,0,0,0,157.16,1.541h-.308a6.626,6.626,0,0,0-5.639,3.174.778.778,0,0,1-1.325,0,6.626,6.626,0,0,0-5.639-3.174h-.308a11.035,11.035,0,0,0-10.722,13.6L134.1,18.8h4.853a3.55,3.55,0,0,0,3.266-2.157l1.71-4.021a5.078,5.078,0,0,1,6.609-2.7A5.092,5.092,0,0,1,152.476,9.521Z" transform="translate(-131.347 0)" fill="#060d1a"/>
          </g>
          <g id="XMLID_551_" transform="translate(4.175 23.263)">
            <path id="XMLID_3128_" d="M138,151h1.541v1.541H138Z" transform="translate(-138 -151)" fill="#060d1a"/>
          </g>
          <g id="XMLID_718_" transform="translate(38.992 23.263)">
            <path id="XMLID_3127_" d="M364,151h1.541v1.541H364Z" transform="translate(-364 -151)" fill="#060d1a"/>
          </g>
          <g id="XMLID_611_" transform="translate(21.584 4.314)">
            <path id="XMLID_3113_" d="M251,28h1.541v6.47H251Z" transform="translate(-251 -28)" fill="#060d1a"/>
          </g>
        </g>
        <g id="XMLID_827_" transform="translate(3.851 31.114)">
          <path id="XMLID_2880_" d="M52.885,249.724a.7.7,0,0,1-.246-.046l-27.114-8.935a.778.778,0,0,1-.524-.724v-2.973h1.541v2.4l25.574,8.427V212.226L26.541,203.8v17.794H25V202.736a.8.8,0,0,1,.324-.632.794.794,0,0,1,.693-.108l27.114,8.935a.778.778,0,0,1,.524.724v37.282a.8.8,0,0,1-.324.632A.686.686,0,0,1,52.885,249.724Z" transform="translate(-25 -201.959)" fill="#060d1a"/>
        </g>
        <g id="XMLID_823_" transform="translate(46.372 31.129)">
          <path id="XMLID_2879_" d="M301.77,249.808a.762.762,0,0,1-.77-.77V211.756a.749.749,0,0,1,.524-.724l27.114-8.935a.794.794,0,0,1,.693.108.76.76,0,0,1,.323.632V224.82h-1.541V203.883l-25.574,8.427v35.665l25.574-8.427v-2.4h1.541V240.1a.749.749,0,0,1-.524.724l-27.114,8.935A.7.7,0,0,1,301.77,249.808Z" transform="translate(-301 -202.059)" fill="#060d1a"/>
        </g>
        <g id="XMLID_803_" transform="translate(3.848 27.263)">
          <path id="XMLID_966_" d="M52.617,191.253,25.5,182.317a.764.764,0,0,1-.524-.662.736.736,0,0,1,.4-.739l6.933-3.851a.777.777,0,0,1,.616-.062l27.885,8.935-.478,1.464-27.561-8.828-5.1,2.835,25.451,8.381Z" transform="translate(-24.975 -176.966)" fill="#060d1a"/>
        </g>
        <g id="XMLID_801_" transform="translate(39.223 27.263)">
          <path id="XMLID_961_" d="M262.765,191.253l-.478-1.464,25.45-8.381-5.1-2.835L255.078,187.4l-.478-1.464L282.485,177a.789.789,0,0,1,.616.062l6.933,3.851a.819.819,0,0,1,.4.739.764.764,0,0,1-.524.662Z" transform="translate(-254.6 -176.966)" fill="#060d1a"/>
        </g>
      </g>
    </g>
  </g>
</svg>
