<svg xmlns="http://www.w3.org/2000/svg" xmlns:xlink="http://www.w3.org/1999/xlink" width="110" height="110" viewBox="0 0 110 110">
  <defs>
    <filter id="Trazado_982547" x="0" y="0" width="110" height="110" filterUnits="userSpaceOnUse">
      <feOffset dy="3" input="SourceAlpha"/>
      <feGaussianBlur stdDeviation="3" result="blur"/>
      <feFlood flood-opacity="0.161"/>
      <feComposite operator="in" in2="blur"/>
      <feComposite in="SourceGraphic"/>
    </filter>
  </defs>
  <g id="Grupo_1220450" data-name="Grupo 1220450" transform="translate(1266 -7876.023)">
    <g id="Grupo_1220005" data-name="Grupo 1220005" transform="translate(-1643 3730.498)">
      <g id="Grupo_1211701" data-name="Grupo 1211701" transform="translate(0 -1927.754)">
        <g id="Grupo_1200150" data-name="Grupo 1200150" transform="translate(386 6079.28)">
          <g id="Grupo_1185951" data-name="Grupo 1185951" transform="translate(0 0)">
            <g id="Grupo_1184083" data-name="Grupo 1184083" transform="translate(0 0)">
              <g id="Grupo_1183743" data-name="Grupo 1183743" transform="translate(0 0)">
                <g id="Grupo_1181545" data-name="Grupo 1181545">
                  <g id="Grupo_1177562" data-name="Grupo 1177562">
                    <g id="Grupo_1173147" data-name="Grupo 1173147" transform="translate(0 0)">
                      <g id="Grupo_1163801" data-name="Grupo 1163801" transform="translate(0 0)">
                        <g id="Grupo_1163014" data-name="Grupo 1163014" transform="translate(0 0)">
                          <g id="Grupo_1157015" data-name="Grupo 1157015" transform="translate(0 0)">
                            <g id="Grupo_1155792" data-name="Grupo 1155792" transform="translate(0 0)">
                              <g id="Grupo_1154703" data-name="Grupo 1154703" transform="translate(0 0)">
                                <g id="Grupo_1150789" data-name="Grupo 1150789">
                                  <g id="Grupo_1154212" data-name="Grupo 1154212">
                                    <g id="Grupo_1152583" data-name="Grupo 1152583">
                                      <g id="Grupo_1146973" data-name="Grupo 1146973">
                                        <g id="Grupo_1146954" data-name="Grupo 1146954">
                                          <g transform="matrix(1, 0, 0, 1, -9, -6)" filter="url(#Trazado_982547)">
                                            <g id="Trazado_982547-2" data-name="Trazado 982547" transform="translate(9 6)" fill="#e2f7f7">
                                              <path d="M 46.00000762939453 90.49988555908203 C 39.99188613891602 90.49988555908203 34.16427612304688 89.32352447509766 28.67906188964844 87.00347137451172 C 23.38020706176758 84.76226043701172 18.62104797363281 81.55342864990234 14.53375434875488 77.46615600585938 C 10.44647407531738 73.37887573242188 7.237647533416748 68.61971282958984 4.996420860290527 63.32085800170898 C 2.676367521286011 57.83565902709961 1.500007629394531 52.00806045532227 1.500007629394531 45.99993896484375 C 1.500007629394531 39.99181747436523 2.676367521286011 34.16421890258789 4.996420860290527 28.67901802062988 C 7.237647533416748 23.38017845153809 10.44647407531738 18.62101936340332 14.53375434875488 14.53373908996582 C 18.62104797363281 10.44645881652832 23.38020706176758 7.237632274627686 28.67906188964844 4.996418952941895 C 34.16427612304688 2.676365613937378 39.99188613891602 1.500005602836609 46.00000762939453 1.500005602836609 C 52.00812911987305 1.500005602836609 57.83573913574219 2.676365613937378 63.32095336914062 4.996418952941895 C 68.61980438232422 7.237632274627686 73.37896728515625 10.44645881652832 77.46626281738281 14.53373908996582 C 81.55354309082031 18.62101936340332 84.76236724853516 23.38017845153809 87.00359344482422 28.67901802062988 C 89.32364654541016 34.16421890258789 90.50000762939453 39.99181747436523 90.50000762939453 45.99993896484375 C 90.50000762939453 52.00806045532227 89.32364654541016 57.83565902709961 87.00359344482422 63.32085800170898 C 84.76236724853516 68.61971282958984 81.55354309082031 73.37887573242188 77.46626281738281 77.46615600585938 C 73.37896728515625 81.55342864990234 68.61980438232422 84.76226043701172 63.32095336914062 87.00347137451172 C 57.83573913574219 89.32352447509766 52.00812911987305 90.49988555908203 46.00000762939453 90.49988555908203 Z" stroke="none"/>
                                              <path d="M 46.00000762939453 2.999992370605469 C 40.19372177124023 2.999992370605469 34.56270599365234 4.136497497558594 29.26339340209961 6.377906799316406 C 24.14333343505859 8.543510437011719 19.54441833496094 11.64437866210938 15.59440612792969 15.59439849853516 C 11.6444091796875 19.54439544677734 8.543525695800781 24.14329528808594 6.377922058105469 29.26335144042969 C 4.136505126953125 34.56266784667969 3.000007629394531 40.19366836547852 3.000007629394531 45.99993896484375 C 3.000007629394531 51.80620956420898 4.136505126953125 57.43722534179688 6.377922058105469 62.73654174804688 C 8.543525695800781 67.85658264160156 11.6444091796875 72.45548248291016 15.59440612792969 76.40549468994141 C 19.54441833496094 80.35549926757812 24.14333343505859 83.45636749267578 29.26337814331055 85.62196350097656 C 34.56270599365234 87.86338043212891 40.19372177124023 88.9998779296875 46.00000762939453 88.9998779296875 C 51.80629348754883 88.9998779296875 57.43730926513672 87.86338043212891 62.73662185668945 85.62196350097656 C 67.85668182373047 83.45636749267578 72.45558166503906 80.35549926757812 76.40559387207031 76.40549468994141 C 80.35560607910156 72.45548248291016 83.45648193359375 67.85658264160156 85.62207794189453 62.73654174804688 C 87.86351013183594 57.43722534179688 89.00000762939453 51.80620956420898 89.00000762939453 45.99993896484375 C 89.00000762939453 40.19366836547852 87.86351013183594 34.56266784667969 85.62207794189453 29.26335144042969 C 83.45648193359375 24.14329528808594 80.35560607910156 19.54439544677734 76.40559387207031 15.59439849853516 C 72.45558166503906 11.64437866210938 67.85668182373047 8.543510437011719 62.73662185668945 6.377906799316406 C 57.43729400634766 4.136497497558594 51.80629348754883 2.999992370605469 46.00000762939453 2.999992370605469 M 46.00000762939453 -7.62939453125e-06 C 71.40509033203125 -7.62939453125e-06 92.00000762939453 20.59487915039062 92.00000762939453 45.99993896484375 C 92.00000762939453 71.40501403808594 71.40509033203125 91.99988555908203 46.00000762939453 91.99988555908203 C 20.59490966796875 91.99988555908203 7.62939453125e-06 71.40501403808594 7.62939453125e-06 45.99993896484375 C 7.62939453125e-06 20.59487915039062 20.59490966796875 -7.62939453125e-06 46.00000762939453 -7.62939453125e-06 Z" stroke="none" fill="#75dad9"/>
                                            </g>
                                          </g>
                                        </g>
                                      </g>
                                    </g>
                                  </g>
                                </g>
                              </g>
                            </g>
                          </g>
                        </g>
                      </g>
                    </g>
                  </g>
                </g>
              </g>
            </g>
          </g>
        </g>
      </g>
    </g>
    <g id="driving_4633247" transform="translate(-1246 7904.422)">
      <g id="Grupo_1220448" data-name="Grupo 1220448" transform="translate(1.123 1.123)">
        <g id="Grupo_1220429" data-name="Grupo 1220429">
          <path id="Trazado_1169259" data-name="Trazado 1169259" d="M57.13,5.49v6.432a13.5,13.5,0,0,0-4.49-1.706v-3.6A1.126,1.126,0,0,0,51.517,5.49H13.068A1.118,1.118,0,0,0,11.99,6.3L5.681,27.942H28.593a1.227,1.227,0,0,0,.056.191,3.343,3.343,0,0,0,.157,4.3H4.929A3.933,3.933,0,0,1,1,28.5a4.071,4.071,0,0,1,.157-1.1L7.915,4.233A4.486,4.486,0,0,1,12.226,1H52.639a4.489,4.489,0,0,1,4.49,4.49Z" transform="translate(-1 -1)" fill="#ffeaa7"/>
        </g>
        <g id="Grupo_1220430" data-name="Grupo 1220430" transform="translate(4.681 4.49)">
          <path id="Trazado_1169260" data-name="Trazado 1169260" d="M52.128,6.123v3.6a13.74,13.74,0,0,0-2.56-.236H41.217A13.788,13.788,0,0,0,27.431,23.276a14.086,14.086,0,0,0,.651,4.176H5.17L11.479,5.808A1.118,1.118,0,0,1,12.557,5H51.006a1.126,1.126,0,0,1,1.123,1.123Z" transform="translate(-5.17 -5)" fill="#69d6f4"/>
        </g>
        <g id="Grupo_1220431" data-name="Grupo 1220431" transform="translate(26.942 8.981)">
          <path id="Trazado_1169261" data-name="Trazado 1169261" d="M34.991,20.226h-1.01a4.489,4.489,0,0,0-4.49,4.49v1.123H28.368a3.36,3.36,0,0,0-2.38.988l-.281.326a1.226,1.226,0,0,1-.056-.191A14.086,14.086,0,0,1,25,22.785,13.788,13.788,0,0,1,38.785,9h8.352a13.74,13.74,0,0,1,2.56.236,13.5,13.5,0,0,1,4.49,1.706,13.735,13.735,0,0,1,6.736,11.843v.46a13.537,13.537,0,0,1-.606,4.03,3.37,3.37,0,0,0-2.762-1.437H56.433a31.972,31.972,0,0,0-14.268-3.368H39.481a5.625,5.625,0,0,1-4.49-2.245Z" transform="translate(-25 -9)" fill="#b27946"/>
        </g>
        <g id="Grupo_1220432" data-name="Grupo 1220432" transform="translate(58.375 42.659)">
          <path id="Trazado_1169262" data-name="Trazado 1169262" d="M61.981,41.245V63.7H53V39.46A6.66,6.66,0,0,1,55.436,39h4.3A2.252,2.252,0,0,1,61.981,41.245Z" transform="translate(-53 -39)" fill="#969faa"/>
        </g>
        <g id="Grupo_1220433" data-name="Grupo 1220433" transform="translate(58.375 20.207)">
          <path id="Trazado_1169263" data-name="Trazado 1169263" d="M57.49,21.56A13.74,13.74,0,0,0,57.255,19h2.481a2.252,2.252,0,0,1,2.245,2.245V39.207a2.252,2.252,0,0,1-2.245,2.245h-4.49A2.252,2.252,0,0,1,53,39.207V31.349h1.123a3.373,3.373,0,0,0,3.368-3.368,3.308,3.308,0,0,0-.606-1.92V26.05a13.537,13.537,0,0,0,.606-4.03Z" transform="translate(-53 -19)" fill="#969faa"/>
        </g>
        <g id="Grupo_1220434" data-name="Grupo 1220434" transform="translate(51.426 43.119)">
          <path id="Trazado_1169264" data-name="Trazado 1169264" d="M47.023,46.146a4.425,4.425,0,0,0-.213-1.4l5.074-4.232a6.586,6.586,0,0,1,1.875-1.1V63.647H47.023v-17.5Z" transform="translate(-46.81 -39.41)" fill="#aab2bd"/>
        </g>
        <g id="Grupo_1220435" data-name="Grupo 1220435" transform="translate(46.857 49.854)">
          <path id="Trazado_1169265" data-name="Trazado 1169265" d="M47.522,45.41V59.847a46.41,46.41,0,0,1-4.782-5.591,15.808,15.808,0,0,0,4.6-7.544,4.674,4.674,0,0,0,.18-1.3Z" transform="translate(-42.74 -45.41)" fill="#b4dd7f"/>
        </g>
        <g id="Grupo_1220436" data-name="Grupo 1220436" transform="translate(40.133 44.612)">
          <path id="Trazado_1169266" data-name="Trazado 1169266" d="M48.043,44.579a4.425,4.425,0,0,1,.213,1.4,4.674,4.674,0,0,1-.18,1.3,15.808,15.808,0,0,1-4.6,7.544A40.357,40.357,0,0,1,36.75,40.74a11.03,11.03,0,0,0,2.526.292h4.03A4.927,4.927,0,0,1,48.043,44.579Z" transform="translate(-36.75 -40.74)" fill="#b4dd7f"/>
        </g>
        <g id="Grupo_1220437" data-name="Grupo 1220437" transform="translate(33.678 61.249)">
          <path id="Trazado_1169267" data-name="Trazado 1169267" d="M45.661,61.667H31v-4.49h2.458a15.845,15.845,0,0,0,6.994-1.617h.011a50.626,50.626,0,0,0,5.2,6.107Z" transform="translate(-31 -55.56)" fill="#b4dd7f"/>
        </g>
        <g id="Grupo_1220438" data-name="Grupo 1220438" transform="translate(26.942 52.481)">
          <path id="Trazado_1169268" data-name="Trazado 1169268" d="M41.2,56.517h-.011a15.845,15.845,0,0,1-6.994,1.617H27.245A2.252,2.252,0,0,1,25,55.889V50.276a1.126,1.126,0,0,1,1.123-1.123h5.31a8.507,8.507,0,0,0,4.692-1.4h.011A47.085,47.085,0,0,0,41.2,56.517Z" transform="translate(-25 -47.75)" fill="#b4dd7f"/>
        </g>
        <g id="Grupo_1220439" data-name="Grupo 1220439" transform="translate(35.059 41.94)">
          <path id="Trazado_1169269" data-name="Trazado 1169269" d="M48.811,60.711v3.065h-3.3a50.626,50.626,0,0,1-5.2-6.107A47.086,47.086,0,0,1,35.25,48.9,39.521,39.521,0,0,1,32.23,38.36,11.14,11.14,0,0,0,37.3,41.032,40.356,40.356,0,0,0,44.028,55.12,46.409,46.409,0,0,0,48.811,60.711Z" transform="translate(-32.23 -38.36)" fill="#ccd1d9"/>
        </g>
        <g id="Grupo_1220440" data-name="Grupo 1220440" transform="translate(6.736 55.007)">
          <path id="Trazado_1169270" data-name="Trazado 1169270" d="M16.374,50l1.28,4.49H7V50Z" transform="translate(-7 -50)" fill="#ccd1d9"/>
        </g>
        <g id="Grupo_1220441" data-name="Grupo 1220441" transform="translate(0 47.149)">
          <path id="Trazado_1169271" data-name="Trazado 1169271" d="M7.736,55.349v7.858H1V43H7.736V55.349Z" transform="translate(-1 -43)" fill="#aab2bd"/>
        </g>
        <g id="Grupo_1220442" data-name="Grupo 1220442" transform="translate(14.591 47.149)">
          <path id="Trazado_1169272" data-name="Trazado 1169272" d="M21.713,56.224l1.212,4.221a2.266,2.266,0,0,1-1.673,2.705,2.792,2.792,0,0,1-.516.056,2.245,2.245,0,0,1-2.189-1.729L16.8,55.349l-1.28-4.49-1.459-5.1a2.266,2.266,0,0,1,1.673-2.705A2.792,2.792,0,0,1,16.245,43a2.245,2.245,0,0,1,2.189,1.729l1.819,6.4a3.325,3.325,0,0,0-.64,1.976,3.383,3.383,0,0,0,2.1,3.121Z" transform="translate(-13.998 -43)" fill="#aab2bd"/>
        </g>
        <g id="Grupo_1220443" data-name="Grupo 1220443" transform="translate(20.207 53.885)">
          <path id="Trazado_1169273" data-name="Trazado 1169273" d="M22.368,49h4.49a1.126,1.126,0,0,0-1.123,1.123v5.613H22.368a3.342,3.342,0,0,1-2.38-.988A3.36,3.36,0,0,1,19,52.368a3.325,3.325,0,0,1,.64-1.976A3.359,3.359,0,0,1,22.368,49Z" transform="translate(-19 -49)" fill="#f0d0b4"/>
        </g>
        <g id="Grupo_1220444" data-name="Grupo 1220444" transform="translate(58.375 25.82)">
          <path id="Trazado_1169274" data-name="Trazado 1169274" d="M56.884,25.448a3.308,3.308,0,0,1,.606,1.92,3.373,3.373,0,0,1-3.368,3.368H53V24h1.123a3.37,3.37,0,0,1,2.762,1.437Z" transform="translate(-53 -24)" fill="#f0d0b4"/>
        </g>
        <g id="Grupo_1220445" data-name="Grupo 1220445" transform="translate(31.433 20.207)">
          <path id="Trazado_1169275" data-name="Trazado 1169275" d="M55.942,24.613v7.858A11.23,11.23,0,0,1,44.716,43.7h-4.49a11.03,11.03,0,0,1-2.526-.292A11.214,11.214,0,0,1,29,32.471V23.49A4.489,4.489,0,0,1,33.49,19H34.5a5.625,5.625,0,0,0,4.49,2.245h2.683A31.972,31.972,0,0,1,55.942,24.613Z" transform="translate(-29 -19)" fill="#f0d0b4"/>
        </g>
        <g id="Grupo_1220446" data-name="Grupo 1220446" transform="translate(26.942 25.82)">
          <path id="Trazado_1169276" data-name="Trazado 1169276" d="M29.49,24v6.736H28.368A3.38,3.38,0,0,1,25,27.368a3.344,3.344,0,0,1,.707-2.054l.281-.326A3.36,3.36,0,0,1,28.368,24Z" transform="translate(-25 -24)" fill="#f0d0b4"/>
        </g>
        <g id="Grupo_1220447" data-name="Grupo 1220447" transform="translate(40.413 35.923)">
          <path id="Trazado_1169277" data-name="Trazado 1169277" d="M37,33h8.981A4.49,4.49,0,1,1,37,33Z" transform="translate(-37 -33)" fill="#ff826e"/>
        </g>
      </g>
      <g id="Grupo_1220449" data-name="Grupo 1220449" transform="translate(0 0)">
        <path id="Trazado_1169278" data-name="Trazado 1169278" d="M36,33.121a5.613,5.613,0,1,0,11.226,0V32H36Zm8.789,1.123a3.369,3.369,0,0,1-6.352,0Z" transform="translate(4.413 3.923)"/>
        <path id="Trazado_1169279" data-name="Trazado 1169279" d="M45.245,27.367a1.123,1.123,0,1,1,2.245,0v1.123h2.245V27.367a3.368,3.368,0,1,0-6.736,0v1.123h2.245Z" transform="translate(5.272 2.942)"/>
        <path id="Trazado_1169280" data-name="Trazado 1169280" d="M35.245,27.367a1.123,1.123,0,0,1,2.245,0v1.123h2.245V27.367a3.368,3.368,0,1,0-6.736,0v1.123h2.245Z" transform="translate(4.046 2.942)"/>
        <path id="Trazado_1169281" data-name="Trazado 1169281" d="M69.6,23.575a3.372,3.372,0,0,0-3.368-3.368h-1.6a14.945,14.945,0,0,0-6.256-8.771V5.613A5.619,5.619,0,0,0,52.762,0H12.349A5.641,5.641,0,0,0,6.96,4.041L.2,27.212a5.052,5.052,0,0,0,4.85,6.466H28.5A4.449,4.449,0,0,0,31.433,34.8a12.269,12.269,0,0,0,3.617,8.732c.028.028.058.052.086.079a40.241,40.241,0,0,0,2.649,9.5,7.392,7.392,0,0,1-3.288.779H24.7a4.438,4.438,0,0,0-2.115.553L21.24,49.743a3.367,3.367,0,1,0-6.542,1.6l1.047,3.668H8.981V47.149H0V69.6H69.6V46.026a3.346,3.346,0,0,0-.876-2.245,3.341,3.341,0,0,0,.876-2.245Zm-3.368-1.123a1.124,1.124,0,0,1,1.123,1.123V41.536a1.124,1.124,0,0,1-1.123,1.123h-4.49a1.124,1.124,0,0,1-1.123-1.123V34.8a4.5,4.5,0,0,0,4.49-4.49,4.429,4.429,0,0,0-.528-2.066,14.88,14.88,0,0,0,.528-3.891v-.461c0-.485-.027-.964-.073-1.438h1.2Zm-18.422,24.7A3.827,3.827,0,0,1,51.5,51.983a14.735,14.735,0,0,1-3.368,6.091A39.55,39.55,0,0,1,42.789,47.1c.329.026.659.048.992.048h3.227v0Zm3.828,10.027v5.4c-.669-.758-1.4-1.639-2.167-2.644A17.066,17.066,0,0,0,51.639,57.176Zm2.245-6.659h-.024c-.013-.177-.036-.351-.064-.524L58.342,46.2c.01-.009.022-.015.033-.022V67.356h-4.49Zm3.021-6.037-3.947,3.289a6.133,6.133,0,0,0-.976-1.194,12.4,12.4,0,0,0,6.422-4.74,3.331,3.331,0,0,0,.483,1.466,7.853,7.853,0,0,0-1.983,1.179Zm5.96-14.171a2.247,2.247,0,0,1-2.245,2.245v-4.49a2.247,2.247,0,0,1,2.245,2.245ZM2.245,28.626a2.829,2.829,0,0,1,.112-.786L9.115,4.67a3.385,3.385,0,0,1,3.233-2.425H52.762A3.372,3.372,0,0,1,56.13,5.613v4.6a14.786,14.786,0,0,0-2.245-.758V6.736A2.247,2.247,0,0,0,51.639,4.49H13.191a2.258,2.258,0,0,0-2.155,1.617L4.723,27.751A1.123,1.123,0,0,0,5.8,29.187H27.1a4.019,4.019,0,0,0,0,2.245H5.052A2.81,2.81,0,0,1,2.245,28.626ZM51.639,9.054c-.474-.046-.953-.073-1.438-.073h-8.35A14.857,14.857,0,0,0,27.27,26.942H7.3L13.191,6.736H51.639ZM29.187,30.309a2.247,2.247,0,0,1,2.245-2.245v4.49A2.247,2.247,0,0,1,29.187,30.309Zm2.245-4.49a4.427,4.427,0,0,0-2,.493A12.623,12.623,0,0,1,41.852,11.226H50.2A12.679,12.679,0,0,1,62.865,23.89v.461a12.574,12.574,0,0,1-.164,2,4.428,4.428,0,0,0-2.081-.535h-.07A10.263,10.263,0,0,0,51.8,16.851l-.163,1.11-.08,1.123a7.988,7.988,0,0,1,6.593,6,33.22,33.22,0,0,0-12.921-2.634H42.546a4.486,4.486,0,0,1-4.356-3.4l-.625-2.489-2.177.547.625,2.489a6.535,6.535,0,0,0,.235.684,5.605,5.605,0,0,0-4.816,5.533Zm2.245,8.98V25.817a3.372,3.372,0,0,1,3.368-3.368h.485A6.721,6.721,0,0,0,42.546,24.7h2.685a30.938,30.938,0,0,1,13.143,2.961V34.8a10.115,10.115,0,0,1-10.1,10.1h-4.49a10.1,10.1,0,0,1-10.1-10.1Zm6.665,11.859c2.472,9.375,8.462,16.334,11.3,19.215v1.483h-1.7c-3.227-3.278-9.88-11.1-12.166-21.774a12.269,12.269,0,0,0,2.572,1.075ZM25.718,65.41l-.727-2.545h2.159a3.363,3.363,0,0,0,3.161,2.245h3.368v2.245H25.612A3.442,3.442,0,0,0,25.718,65.41Zm10.206-.3h1.335a17.089,17.089,0,0,0,6.631-1.375c1.055,1.407,2.069,2.619,2.969,3.62H35.923ZM30.31,56.13H34.5a9.61,9.61,0,0,0,4.2-.969,49.172,49.172,0,0,0,3.856,6.708,14.612,14.612,0,0,1-5.293,1H30.31a1.124,1.124,0,0,1-1.123-1.123V56.13Zm-5.613,0h2.245v4.49H24.7a2.245,2.245,0,1,1,0-4.49Zm-7-6.7a1.13,1.13,0,0,1,1.373.883l1.7,5.941a4.409,4.409,0,0,0,1.715,6.007l1.063,3.717a1.125,1.125,0,0,1-.823,1.349,1.111,1.111,0,0,1-1.376-.883L16.868,50.775a1.124,1.124,0,0,1,.827-1.349Zm-1.309,7.827.642,2.245H8.981V57.252Zm-9.651,10.1H2.245V49.394h4.49Zm2.245-5.613H17.67l1.5,5.263a3.647,3.647,0,0,0,.115.35H8.981Zm58.375,5.613H60.62V45.081a5.577,5.577,0,0,1,1.316-.177h4.3a1.124,1.124,0,0,1,1.123,1.123Z" transform="translate(0 0)"/>
      </g>
    </g>
  </g>
</svg>
