<svg xmlns="http://www.w3.org/2000/svg" xmlns:xlink="http://www.w3.org/1999/xlink" width="110" height="110" viewBox="0 0 110 110">
  <defs>
    <filter id="Trazado_982547" x="0" y="0" width="110" height="110" filterUnits="userSpaceOnUse">
      <feOffset dy="3" input="SourceAlpha"/>
      <feGaussianBlur stdDeviation="3" result="blur"/>
      <feFlood flood-opacity="0.161"/>
      <feComposite operator="in" in2="blur"/>
      <feComposite in="SourceGraphic"/>
    </filter>
  </defs>
  <g id="Grupo_1220454" data-name="Grupo 1220454" transform="translate(951 -8265.023)">
    <g id="Grupo_1220007" data-name="Grupo 1220007" transform="translate(-1328 4119.498)">
      <g id="Grupo_1211701" data-name="Grupo 1211701" transform="translate(0 -1927.754)">
        <g id="Grupo_1200150" data-name="Grupo 1200150" transform="translate(386 6079.28)">
          <g id="Grupo_1185951" data-name="Grupo 1185951" transform="translate(0 0)">
            <g id="Grupo_1184083" data-name="Grupo 1184083" transform="translate(0 0)">
              <g id="Grupo_1183743" data-name="Grupo 1183743" transform="translate(0 0)">
                <g id="Grupo_1181545" data-name="Grupo 1181545">
                  <g id="Grupo_1177562" data-name="Grupo 1177562">
                    <g id="Grupo_1173147" data-name="Grupo 1173147" transform="translate(0 0)">
                      <g id="Grupo_1163801" data-name="Grupo 1163801" transform="translate(0 0)">
                        <g id="Grupo_1163014" data-name="Grupo 1163014" transform="translate(0 0)">
                          <g id="Grupo_1157015" data-name="Grupo 1157015" transform="translate(0 0)">
                            <g id="Grupo_1155792" data-name="Grupo 1155792" transform="translate(0 0)">
                              <g id="Grupo_1154703" data-name="Grupo 1154703" transform="translate(0 0)">
                                <g id="Grupo_1150789" data-name="Grupo 1150789">
                                  <g id="Grupo_1154212" data-name="Grupo 1154212">
                                    <g id="Grupo_1152583" data-name="Grupo 1152583">
                                      <g id="Grupo_1146973" data-name="Grupo 1146973">
                                        <g id="Grupo_1146954" data-name="Grupo 1146954">
                                          <g transform="matrix(1, 0, 0, 1, -9, -6)" filter="url(#Trazado_982547)">
                                            <g id="Trazado_982547-2" data-name="Trazado 982547" transform="translate(9 6)" fill="#e2f7f7">
                                              <path d="M 46.00000762939453 90.49988555908203 C 39.99188613891602 90.49988555908203 34.16427612304688 89.32352447509766 28.67906188964844 87.00347137451172 C 23.38020706176758 84.76226043701172 18.62104797363281 81.55342864990234 14.53375434875488 77.46615600585938 C 10.44647407531738 73.37887573242188 7.237647533416748 68.61971282958984 4.996420860290527 63.32085800170898 C 2.676367521286011 57.83565902709961 1.500007629394531 52.00806045532227 1.500007629394531 45.99993896484375 C 1.500007629394531 39.99181747436523 2.676367521286011 34.16421890258789 4.996420860290527 28.67901802062988 C 7.237647533416748 23.38017845153809 10.44647407531738 18.62101936340332 14.53375434875488 14.53373908996582 C 18.62104797363281 10.44645881652832 23.38020706176758 7.237632274627686 28.67906188964844 4.996418952941895 C 34.16427612304688 2.676365613937378 39.99188613891602 1.500005602836609 46.00000762939453 1.500005602836609 C 52.00812911987305 1.500005602836609 57.83573913574219 2.676365613937378 63.32095336914062 4.996418952941895 C 68.61980438232422 7.237632274627686 73.37896728515625 10.44645881652832 77.46626281738281 14.53373908996582 C 81.55354309082031 18.62101936340332 84.76236724853516 23.38017845153809 87.00359344482422 28.67901802062988 C 89.32364654541016 34.16421890258789 90.50000762939453 39.99181747436523 90.50000762939453 45.99993896484375 C 90.50000762939453 52.00806045532227 89.32364654541016 57.83565902709961 87.00359344482422 63.32085800170898 C 84.76236724853516 68.61971282958984 81.55354309082031 73.37887573242188 77.46626281738281 77.46615600585938 C 73.37896728515625 81.55342864990234 68.61980438232422 84.76226043701172 63.32095336914062 87.00347137451172 C 57.83573913574219 89.32352447509766 52.00812911987305 90.49988555908203 46.00000762939453 90.49988555908203 Z" stroke="none"/>
                                              <path d="M 46.00000762939453 2.999992370605469 C 40.19372177124023 2.999992370605469 34.56270599365234 4.136497497558594 29.26339340209961 6.377906799316406 C 24.14333343505859 8.543510437011719 19.54441833496094 11.64437866210938 15.59440612792969 15.59439849853516 C 11.6444091796875 19.54439544677734 8.543525695800781 24.14329528808594 6.377922058105469 29.26335144042969 C 4.136505126953125 34.56266784667969 3.000007629394531 40.19366836547852 3.000007629394531 45.99993896484375 C 3.000007629394531 51.80620956420898 4.136505126953125 57.43722534179688 6.377922058105469 62.73654174804688 C 8.543525695800781 67.85658264160156 11.6444091796875 72.45548248291016 15.59440612792969 76.40549468994141 C 19.54441833496094 80.35549926757812 24.14333343505859 83.45636749267578 29.26337814331055 85.62196350097656 C 34.56270599365234 87.86338043212891 40.19372177124023 88.9998779296875 46.00000762939453 88.9998779296875 C 51.80629348754883 88.9998779296875 57.43730926513672 87.86338043212891 62.73662185668945 85.62196350097656 C 67.85668182373047 83.45636749267578 72.45558166503906 80.35549926757812 76.40559387207031 76.40549468994141 C 80.35560607910156 72.45548248291016 83.45648193359375 67.85658264160156 85.62207794189453 62.73654174804688 C 87.86351013183594 57.43722534179688 89.00000762939453 51.80620956420898 89.00000762939453 45.99993896484375 C 89.00000762939453 40.19366836547852 87.86351013183594 34.56266784667969 85.62207794189453 29.26335144042969 C 83.45648193359375 24.14329528808594 80.35560607910156 19.54439544677734 76.40559387207031 15.59439849853516 C 72.45558166503906 11.64437866210938 67.85668182373047 8.543510437011719 62.73662185668945 6.377906799316406 C 57.43729400634766 4.136497497558594 51.80629348754883 2.999992370605469 46.00000762939453 2.999992370605469 M 46.00000762939453 -7.62939453125e-06 C 71.40509033203125 -7.62939453125e-06 92.00000762939453 20.59487915039062 92.00000762939453 45.99993896484375 C 92.00000762939453 71.40501403808594 71.40509033203125 91.99988555908203 46.00000762939453 91.99988555908203 C 20.59490966796875 91.99988555908203 7.62939453125e-06 71.40501403808594 7.62939453125e-06 45.99993896484375 C 7.62939453125e-06 20.59487915039062 20.59490966796875 -7.62939453125e-06 46.00000762939453 -7.62939453125e-06 Z" stroke="none" fill="#75dad9"/>
                                            </g>
                                          </g>
                                        </g>
                                      </g>
                                    </g>
                                  </g>
                                </g>
                              </g>
                            </g>
                          </g>
                        </g>
                      </g>
                    </g>
                  </g>
                </g>
              </g>
            </g>
          </g>
        </g>
      </g>
    </g>
    <g id="examen" transform="translate(-934.717 8287.65)">
      <path id="Trazado_1169297" data-name="Trazado 1169297" d="M55.786,62.8H15A4.792,4.792,0,0,1,19.8,58H50.987A4.8,4.8,0,0,1,55.786,62.8Z" transform="translate(2.794 11.376)" fill="#aab2bd"/>
      <path id="Trazado_1169298" data-name="Trazado 1169298" d="M22,52H45.991v7.2H22Z" transform="translate(4.191 10.178)" fill="#aab2bd"/>
      <path id="Trazado_1169299" data-name="Trazado 1169299" d="M13,38.081l4.57,7.761a7.217,7.217,0,0,0,6.082,3.551H70.376a3.6,3.6,0,0,1,0,7.2h-46.6a14.462,14.462,0,0,1-12.416-7.1L2.492,34.422a3.6,3.6,0,0,1,6.214-3.647Z" transform="translate(0.199 5.588)" fill="#dfb28b"/>
      <path id="Trazado_1169300" data-name="Trazado 1169300" d="M30.145,46.042a2.778,2.778,0,0,1,.048.552,2.99,2.99,0,0,1-3,3H21.856a7.217,7.217,0,0,1-6.082-3.551L11.2,38.28l-.084-.432a8.4,8.4,0,0,1,15.271-6.106l.264.4a3.968,3.968,0,0,0-.06.66,3.582,3.582,0,0,0,2.843,3.515v.012l4.055,6.07h.3Z" transform="translate(1.995 5.389)" fill="#e6e9ed"/>
      <path id="Trazado_1169301" data-name="Trazado 1169301" d="M27.5,44.2a2.778,2.778,0,0,0-.048-.552L31.1,40H61.087a3.6,3.6,0,1,1,0,7.2H24.5a2.99,2.99,0,0,0,3-3Z" transform="translate(4.69 7.783)" fill="#838f9b"/>
      <path id="Trazado_1169302" data-name="Trazado 1169302" d="M39.4,35.619a11.3,11.3,0,0,1,12.62.648L56.191,39.4l2.4,1.8H31l7.941-5.3c.144-.1.3-.192.456-.276Z" transform="translate(5.987 6.586)" fill="#838f9b"/>
      <path id="Trazado_1169303" data-name="Trazado 1169303" d="M46.95,29.966l-.36-.372h-4.8V22.4a2.406,2.406,0,0,0-2.4-2.4H22a3,3,0,0,1-3-3,2.208,2.208,0,0,1,.048-.492,2.92,2.92,0,0,1,.828-1.631A3,3,0,0,1,22,14H45.691l2.1,8.4,3.6-3.6,3.6,3.6,2.039-8.169v-.012A9.6,9.6,0,0,1,64.584,23.6v7.8a3,3,0,0,1-3,3h-12a3,3,0,0,1-2.639-4.426Z" transform="translate(3.592 2.594)" fill="#b4dd7f"/>
      <path id="Trazado_1169304" data-name="Trazado 1169304" d="M42.8,28.8a3,3,0,0,0,3,3h9v9L50.62,37.664A11.3,11.3,0,0,0,38,37.016V27h4.8l.36.372A3,3,0,0,0,42.8,28.8Z" transform="translate(7.384 5.189)" fill="#b4dd7f"/>
      <path id="Trazado_1169305" data-name="Trazado 1169305" d="M51.638,14.216v.012L49.6,22.4,46,18.8l3.827-4.786V14a9.971,9.971,0,0,1,1.811.216Z" transform="translate(8.981 2.594)" fill="#e6e9ed"/>
      <path id="Trazado_1169306" data-name="Trazado 1169306" d="M43.109,14l3.839,4.8-3.6,3.6L41.25,14Z" transform="translate(8.033 2.594)" fill="#e6e9ed"/>
      <g id="Grupo_1220453" data-name="Grupo 1220453" transform="translate(14.195 2.2)">
        <path id="Trazado_1169307" data-name="Trazado 1169307" d="M50.237,14h.228v.012L46.639,18.8,42.8,14h7.437Z" transform="translate(-5.853 0.395)" fill="#f0d0b4"/>
        <path id="Trazado_1169308" data-name="Trazado 1169308" d="M25.435,19.6a7.2,7.2,0,1,1-4.99-3.491,2.208,2.208,0,0,0-.048.492,3,3,0,0,0,3,3Z" transform="translate(-12 0.794)" fill="#f0d0b4"/>
        <circle id="Elipse_14353" data-name="Elipse 14353" cx="7.197" cy="7.197" r="7.197" transform="translate(33.588 0)" fill="#f0d0b4"/>
      </g>
      <path id="Trazado_1169309" data-name="Trazado 1169309" d="M31.2,32.6a3.594,3.594,0,0,1-3.6,3.6,4.03,4.03,0,0,1-.756-.072v-.012A3.582,3.582,0,0,1,24,32.6a3.968,3.968,0,0,1,.06-.66,3.6,3.6,0,0,1,7.137.66Z" transform="translate(4.59 5.588)" fill="#fcd770"/>
      <path id="Trazado_1169310" data-name="Trazado 1169310" d="M70.575,53.781h-.667a4.749,4.749,0,0,0,.667-2.4,4.8,4.8,0,0,0-4.8-4.8h-.8l-1.6-1.2v-7.2h1.8a4.2,4.2,0,0,0,4.2-4.2v-7.8a10.81,10.81,0,0,0-8.75-10.6,8.394,8.394,0,1,0-11.51-.2H25.591a4.2,4.2,0,0,0-3.8,2.434c-.134-.007-.266-.035-.4-.035A8.389,8.389,0,0,0,16.952,33.3a9.382,9.382,0,0,0-.874.494,9.519,9.519,0,0,0-3.975,5.64L9.933,35.753a4.8,4.8,0,0,0-8.272,4.865L10.527,55.69a15.658,15.658,0,0,0,13.441,7.688h1.023v4.8h-2.4a6,6,0,0,0-6,6v1.2H59.779v-1.2a6,6,0,0,0-6-6h-2.4v-4.8H70.575a4.8,4.8,0,1,0,0-9.6Zm-2.4-2.4a2.4,2.4,0,0,1-2.4,2.4H32.967a4.156,4.156,0,0,0,.421-1.8c0-.032-.008-.061-.01-.094l2.905-2.905H65.777A2.4,2.4,0,0,1,68.176,51.382ZM28.414,35.26a9.543,9.543,0,0,0-2.556-1.97,8.327,8.327,0,0,0,3.571-9.5H42.985a1.2,1.2,0,0,1,1.2,1.2v6H40.2l-4.949,3.535a4.725,4.725,0,0,0-6.839.735Zm3.775.528a2.4,2.4,0,1,1-2.4,2.4,2.4,2.4,0,0,1,2.4-2.4Zm4.8,2.4a4.751,4.751,0,0,0-.331-1.717l4.314-3.082h3.215v8.155l-7.561,5.041h-.5l-2.551-3.828a4.787,4.787,0,0,0,3.412-4.569Zm3.962,8.4,4.65-3.1a10.068,10.068,0,0,1,5.609-1.7,10.185,10.185,0,0,1,6.071,2.024l3.7,2.775Zm20.029-3-2.261-1.7a12.594,12.594,0,0,0-7.509-2.5,12.445,12.445,0,0,0-4.624.919V33.389h2.46a4.13,4.13,0,0,0-.061.6,4.2,4.2,0,0,0,4.2,4.2h7.8Zm-6-24.113-1.342-1.678h2.685ZM53.373,21.3l-1.341,1.341-1.1-4.389Zm5.652-3.047-1.1,4.388L56.588,21.3ZM48.983,9.4a6,6,0,1,1,6,6A6,6,0,0,1,48.983,9.4Zm-23.392,8.4H48.347l2.385,9.544,4.249-4.249,4.249,4.249,2.253-9.016a8.4,8.4,0,0,1,5.494,7.869v7.8a1.8,1.8,0,0,1-1.8,1.8h-12a1.8,1.8,0,1,1,0-3.6h10.2v-7.2h-2.4v4.8h-7.8a4.181,4.181,0,0,0-3,1.269v-.07h-3.6v-6a3.6,3.6,0,0,0-3.6-3.6H25.591a1.8,1.8,0,0,1,0-3.6Zm-10.2,8.4a6,6,0,0,1,6-6c.02,0,.041,0,.061,0a4.192,4.192,0,0,0,4.137,3.594h1.293a6,6,0,1,1-11.49,2.4ZM14.3,43.03a7.2,7.2,0,0,1,13.081-5.239l.041.061c-.007.113-.034.221-.034.335a4.789,4.789,0,0,0,3.274,4.527l3.4,5.1L32.474,49.4a4.172,4.172,0,0,0-3.284-1.617h-3.7a1.807,1.807,0,0,1-1.543-.874l-2.724-4.542L19.165,43.6l2.724,4.542a4.22,4.22,0,0,0,3.6,2.039h3.7a1.8,1.8,0,1,1,0,3.6H23.968a6.021,6.021,0,0,1-5.17-2.957l-4.453-7.571ZM57.175,72.975H19.2a3.606,3.606,0,0,1,3.394-2.4H53.781a3.606,3.606,0,0,1,3.394,2.4Zm-8.192-4.8H27.39v-4.8H48.983Zm21.592-7.2H23.968a13.245,13.245,0,0,1-11.373-6.505L3.729,39.4a2.4,2.4,0,0,1,4.137-2.434l8.865,15.07a8.43,8.43,0,0,0,7.119,4.133v.008H70.575a2.4,2.4,0,0,1,0,4.8Z" transform="translate(0 0)"/>
    </g>
  </g>
</svg>
