<svg xmlns="http://www.w3.org/2000/svg" xmlns:xlink="http://www.w3.org/1999/xlink" width="108" height="108" viewBox="0 0 108 108">
  <defs>
    <filter id="Trazado_904820" x="0" y="0" width="108" height="108" filterUnits="userSpaceOnUse">
      <feOffset dy="3" input="SourceAlpha"/>
      <feGaussianBlur stdDeviation="3" result="blur"/>
      <feFlood flood-opacity="0.161"/>
      <feComposite operator="in" in2="blur"/>
      <feComposite in="SourceGraphic"/>
    </filter>
  </defs>
  <g id="Grupo_1220514" data-name="Grupo 1220514" transform="translate(-197 -9499)">
    <g id="Grupo_1220008" data-name="Grupo 1220008" transform="translate(206 9505)">
      <g id="Grupo_1211333" data-name="Grupo 1211333" transform="translate(0 0)">
        <g id="Grupo_1207774" data-name="Grupo 1207774">
          <g id="Grupo_1206630" data-name="Grupo 1206630">
            <g id="Grupo_1185091" data-name="Grupo 1185091">
              <g id="Grupo_1179560" data-name="Grupo 1179560">
                <g id="Grupo_1173787" data-name="Grupo 1173787">
                  <g id="Grupo_1171910" data-name="Grupo 1171910">
                    <g id="Grupo_1167341" data-name="Grupo 1167341">
                      <g id="Grupo_1166792" data-name="Grupo 1166792">
                        <g transform="matrix(1, 0, 0, 1, -9, -6)" filter="url(#Trazado_904820)">
                          <g id="Trazado_904820-2" data-name="Trazado 904820" transform="translate(9 6)" fill="#fbf3fb">
                            <path d="M 44.99999618530273 88.50014495849609 C 39.12687301635742 88.50014495849609 33.43022155761719 87.3502197265625 28.06829643249512 85.08231353759766 C 22.88852119445801 82.89144897460938 18.23629570007324 79.75472259521484 14.24085903167725 75.75926971435547 C 10.24540901184082 71.76382446289062 7.108683586120605 67.11158752441406 4.917821407318115 61.93180847167969 C 2.649921178817749 56.56987380981445 1.499996185302734 50.87321090698242 1.499996185302734 45.00007247924805 C 1.499996185302734 39.12693405151367 2.649921178817749 33.4302864074707 4.917821407318115 28.0683479309082 C 7.108683586120605 22.88855934143066 10.24540901184082 18.23633575439453 14.24085903167725 14.24087238311768 C 18.23629570007324 10.24542236328125 22.88852119445801 7.108697414398193 28.06829643249512 4.917834758758545 C 33.43022155761719 2.649922370910645 39.12687301635742 1.499997496604919 44.99999618530273 1.499997496604919 C 50.87311935424805 1.499997496604919 56.56977081298828 2.649922370910645 61.93169784545898 4.917834758758545 C 67.11147308349609 7.108697414398193 71.76369476318359 10.24542236328125 75.75913238525391 14.24087238311768 C 79.75458526611328 18.23633575439453 82.89131164550781 22.88855934143066 85.08216857910156 28.0683479309082 C 87.35007476806641 33.4302864074707 88.5 39.12693405151367 88.5 45.00007247924805 C 88.5 50.87321090698242 87.35007476806641 56.56987380981445 85.08216857910156 61.93180847167969 C 82.89131164550781 67.11158752441406 79.75458526611328 71.76382446289062 75.75913238525391 75.75926971435547 C 71.76369476318359 79.75472259521484 67.11147308349609 82.89144897460938 61.93169784545898 85.08231353759766 C 56.56977081298828 87.3502197265625 50.87311935424805 88.50014495849609 44.99999618530273 88.50014495849609 Z" stroke="none"/>
                            <path d="M 44.99999618530273 3 C 39.32870864868164 3 33.82866668701172 4.110061645507812 28.65262603759766 6.299346923828125 C 23.65165710449219 8.414588928222656 19.15968322753906 11.443359375 15.301513671875 15.30154418945312 C 11.44333648681641 19.15971374511719 8.414566040039062 23.65168762207031 6.299339294433594 28.65267181396484 C 4.110054016113281 33.82871627807617 2.999992370605469 39.32877349853516 2.999992370605469 45.00007247924805 C 2.999992370605469 50.67137145996094 4.110054016113281 56.17142868041992 6.299339294433594 61.34747314453125 C 8.414566040039062 66.34845733642578 11.44333648681641 70.84043121337891 15.301513671875 74.69861602783203 C 19.15968322753906 78.55678558349609 23.65165710449219 81.5855712890625 28.65262603759766 83.70079803466797 C 33.82865142822266 85.89008331298828 39.32870864868164 87.00014495849609 44.99999618530273 87.00014495849609 C 50.67128372192383 87.00014495849609 56.17134094238281 85.89008331298828 61.34736633300781 83.70079803466797 C 66.34834289550781 81.5855712890625 70.84030914306641 78.55678558349609 74.69847869873047 74.69861602783203 C 78.55665588378906 70.84043121337891 81.58542633056641 66.34845733642578 83.70065307617188 61.34747314453125 C 85.88993835449219 56.17142868041992 87 50.67137145996094 87 45.00007247924805 C 87 39.32877349853516 85.88993835449219 33.82871627807617 83.70065307617188 28.65267181396484 C 81.58542633056641 23.65168762207031 78.55665588378906 19.15971374511719 74.69847869873047 15.30154418945312 C 70.84030914306641 11.443359375 66.34834289550781 8.414588928222656 61.34736633300781 6.299346923828125 C 56.17132568359375 4.110061645507812 50.67128372192383 3 44.99999618530273 3 M 44.99999618530273 0 C 69.85281372070312 0 90 20.14723205566406 90 45.00007247924805 C 90 69.85292816162109 69.85281372070312 90.00014495849609 44.99999618530273 90.00014495849609 C 20.14717864990234 90.00014495849609 -7.62939453125e-06 69.85292816162109 -7.62939453125e-06 45.00007247924805 C -7.62939453125e-06 20.14723205566406 20.14717864990234 0 44.99999618530273 0 Z" stroke="none" fill="#df93dd"/>
                          </g>
                        </g>
                      </g>
                    </g>
                  </g>
                </g>
              </g>
            </g>
          </g>
        </g>
      </g>
    </g>
    <g id="Page-1" transform="translate(213.288 9520.615)">
      <g id="_026---Idea" data-name="026---Idea" transform="translate(0.424)">
        <path id="Shape" d="M31.715,55.835l-.567,6.858H3.953a2.522,2.522,0,0,1-2.484-3L6.992,31.351A1.261,1.261,0,0,1,8.227,30.33h3.5l-4.2,25.24A1.271,1.271,0,0,0,9.16,56.982a43.13,43.13,0,0,1,22.555-1.147Z" transform="translate(-0.163 7.909)" fill="sienna"/>
        <path id="Shape-2" data-name="Shape" d="M62.312,62.694H35.117l-.567-6.858A43.13,43.13,0,0,1,57.1,56.982a1.271,1.271,0,0,0,1.626-1.412l-4.2-25.24h3.5a1.261,1.261,0,0,1,1.236,1.021L64.8,59.693a2.521,2.521,0,0,1-2.484,3Z" transform="translate(8.475 7.909)" fill="sienna"/>
        <path id="Shape-3" data-name="Shape" d="M60.663,59.693,55.14,31.351A1.261,1.261,0,0,0,53.9,30.33H50.4l.009.05a1.261,1.261,0,0,1,.949.971L56.88,59.693a2.521,2.521,0,0,1-2.484,3h3.782a2.521,2.521,0,0,0,2.484-3Z" transform="translate(12.607 7.909)" fill="#783e22"/>
        <path id="Shape-4" data-name="Shape" d="M64.482,57.712a43.13,43.13,0,0,0-22.555-1.147,29.188,29.188,0,0,0-5.736,1.815,29.188,29.188,0,0,0-5.736-1.815A43.13,43.13,0,0,0,7.9,57.712,1.271,1.271,0,0,1,6.273,56.3l4.2-25.24.353-2.131a1.271,1.271,0,0,1,1.059-1.046c.857-.126,1.74-.252,2.622-.353A8.993,8.993,0,0,0,22.5,32.409a9.09,9.09,0,0,0,3.114-.555,6.64,6.64,0,0,0,11.309,2.168,10.936,10.936,0,0,0,3.959.744h.076c.265,2.269,1.45,3.606,5.409,4.93a6.9,6.9,0,0,1,3.127,2.068,2.67,2.67,0,0,0,3.089.794,2.632,2.632,0,0,0,1.589-2.408,2.566,2.566,0,0,0-.126-.807,11.13,11.13,0,0,0-1.664-3.354,9.377,9.377,0,0,0,4.778-6.556,6.536,6.536,0,0,0,1.173-1.841c.731.088,1.45.177,2.168.29a1.271,1.271,0,0,1,1.059,1.046l.353,2.131,4.2,25.24a1.271,1.271,0,0,1-1.626,1.412Z" transform="translate(1.097 7.179)" fill="#f5f5f5"/>
        <path id="Shape-5" data-name="Shape" d="M55.469,56.287l-4.2-25.24-.353-2.131a1.271,1.271,0,0,0-1.059-1.046c-.719-.113-1.437-.2-2.168-.29a6.556,6.556,0,0,1-.63,1.123,1.246,1.246,0,0,1,.072.213l.353,2.131,4.2,25.24a1.22,1.22,0,0,1-.126.756c.756.2,1.513.411,2.278.657a1.271,1.271,0,0,0,1.634-1.413Z" transform="translate(11.737 7.192)" fill="#cfd8dc"/>
        <path id="Shape-6" data-name="Shape" d="M37.608,57.418c0,1.387-2.824,2.522-6.3,2.522S25,58.805,25,57.418l.567-6.858A29.188,29.188,0,0,1,31.3,52.375,29.189,29.189,0,0,1,37.04,50.56Z" transform="translate(5.984 13.184)" fill="#783e22"/>
        <path id="Shape-7" data-name="Shape" d="M57.387,29.79a6.369,6.369,0,0,1-.555,2.635,6.536,6.536,0,0,1-1.173,1.841,9.377,9.377,0,0,1-4.778,6.556,11.13,11.13,0,0,1,1.664,3.354,2.566,2.566,0,0,1,.126.807,2.632,2.632,0,0,1-1.589,2.408,2.67,2.67,0,0,1-3.089-.794,6.9,6.9,0,0,0-3.127-2.068c-3.959-1.324-5.144-2.66-5.409-4.93h-.076a10.936,10.936,0,0,1-3.959-.744,6.64,6.64,0,0,1-11.309-2.168A9.007,9.007,0,0,1,13.79,22.843a3.683,3.683,0,0,1-.227-1.286A3.927,3.927,0,0,1,16.715,17.7c-.013-.151-.025-.3-.025-.466a5.1,5.1,0,0,1,5.093-5.093,4.975,4.975,0,0,1,2.206.5A7.446,7.446,0,0,1,30.394,9a7.312,7.312,0,0,1,4.892,1.853,3.908,3.908,0,0,1,6.934.567,10.222,10.222,0,0,1,1.084-.063,9.4,9.4,0,0,1,9.355,8.624H52.7A3.908,3.908,0,0,1,56.605,23.9a4.046,4.046,0,0,1-.5,1.942,6.682,6.682,0,0,1,1.286,3.946Z" transform="translate(2.595 2.347)" fill="#e91e63"/>
        <path id="Shape-8" data-name="Shape" d="M50.99,25.844a4.046,4.046,0,0,0,.5-1.942,3.908,3.908,0,0,0-3.908-3.921h-.038a9.4,9.4,0,0,0-9.355-8.624,10.222,10.222,0,0,0-1.084.063A3.894,3.894,0,0,0,31.6,9.5a3.878,3.878,0,0,1,1.727,1.925,10.222,10.222,0,0,1,1.084-.063,9.4,9.4,0,0,1,9.355,8.624H43.8A3.908,3.908,0,0,1,47.712,23.9a4.046,4.046,0,0,1-.5,1.942,6.682,6.682,0,0,1,1.286,3.946,6.369,6.369,0,0,1-.555,2.635,6.536,6.536,0,0,1-1.173,1.841,9.377,9.377,0,0,1-4.778,6.556,11.13,11.13,0,0,1,1.664,3.354,2.566,2.566,0,0,1,.126.807,2.608,2.608,0,0,1-.734,1.778,2.6,2.6,0,0,0,4.516-1.778,2.566,2.566,0,0,0-.126-.807,11.13,11.13,0,0,0-1.664-3.354,9.377,9.377,0,0,0,4.778-6.556,6.536,6.536,0,0,0,1.173-1.841,6.369,6.369,0,0,0,.555-2.635,6.682,6.682,0,0,0-1.286-3.946Z" transform="translate(7.705 2.346)" fill="#ad1457"/>
        <path id="Shape-9" data-name="Shape" d="M42.214,25.627a1.261,1.261,0,1,0-2.253,1.135,1.877,1.877,0,0,1-.608,2.377,1.9,1.9,0,0,1-2.738-.7,1.261,1.261,0,1,0-2.255,1.128,4.393,4.393,0,0,0,7.854-3.936Z" transform="translate(8.39 6.501)" fill="#ad1457"/>
        <path id="Shape-10" data-name="Shape" d="M36.624,26.3a7.528,7.528,0,0,0,3.125-4.8,1.261,1.261,0,1,0-2.476-.474,5.025,5.025,0,0,1-2.088,3.2,5.146,5.146,0,0,1-6.637-.756,1.262,1.262,0,0,0-1.866,1.7,7.6,7.6,0,0,0,4.041,2.33,3.756,3.756,0,0,1-3.069,1.578,1.261,1.261,0,1,0,0,2.522,6.252,6.252,0,0,0,5.874-4.043,7.6,7.6,0,0,0,3.1-1.259Z" transform="translate(6.337 5.21)" fill="#ad1457"/>
        <path id="Shape-11" data-name="Shape" d="M22.145,27.86a1.891,1.891,0,0,1-2.417-1.8v-.032a1.247,1.247,0,0,0-1.261-1.244,1.273,1.273,0,0,0-1.261,1.276,4.4,4.4,0,0,0,4.39,4.4,4.473,4.473,0,0,0,1.261-.185,1.261,1.261,0,0,0-.719-2.417Z" transform="translate(3.952 6.464)" fill="#ad1457"/>
        <path id="Shape-12" data-name="Shape" d="M29.26,17.261A1.261,1.261,0,0,0,28,16a5.806,5.806,0,0,0-5.8,5.8,1.261,1.261,0,1,0,2.522,0A3.278,3.278,0,0,1,28,18.522a1.261,1.261,0,0,0,1.261-1.261Z" transform="translate(5.254 4.172)" fill="#ad1457"/>
        <g id="Grupo_1220513" data-name="Grupo 1220513" transform="translate(6.908)">
          <path id="Shape-13" data-name="Shape" d="M30.261,3.782A1.261,1.261,0,0,1,29,2.522V1.261a1.261,1.261,0,1,1,2.522,0V2.522A1.261,1.261,0,0,1,30.261,3.782Z" transform="translate(0.119)" fill="#ffdc00"/>
          <path id="Shape-14" data-name="Shape" d="M46.378,10.668a1.261,1.261,0,0,1-.891-2.152l1.261-1.261A1.261,1.261,0,1,1,48.53,9.038L47.269,10.3a1.261,1.261,0,0,1-.891.369Z" transform="translate(4.322 1.792)" fill="#ffdc00"/>
          <path id="Shape-15" data-name="Shape" d="M14.408,10.668a1.261,1.261,0,0,1-.891-.369L12.256,9.038a1.261,1.261,0,1,1,1.783-1.783L15.3,8.516a1.261,1.261,0,0,1-.891,2.152Z" transform="translate(-4.347 1.792)" fill="#ffdc00"/>
          <path id="Shape-16" data-name="Shape" d="M22.143,6.924a1.261,1.261,0,0,1-1.165-.778L19.531,2.652a1.261,1.261,0,1,1,2.329-.966l1.449,3.495a1.261,1.261,0,0,1-.682,1.649,1.278,1.278,0,0,1-.483.095Z" transform="translate(-2.378 0.23)" fill="#ffdc00"/>
          <path id="Shape-17" data-name="Shape" d="M38.68,6.924a1.278,1.278,0,0,1-.483-.1,1.261,1.261,0,0,1-.682-1.648l1.449-3.495a1.261,1.261,0,1,1,2.329.966L39.845,6.147a1.261,1.261,0,0,1-1.165.778Z" transform="translate(2.314 0.23)" fill="#ffdc00"/>
          <path id="Shape-18" data-name="Shape" d="M50.587,18.4a1.261,1.261,0,0,1-.483-2.427L53.6,14.529a1.261,1.261,0,1,1,.964,2.33l-3.494,1.447a1.261,1.261,0,0,1-.483.1Z" transform="translate(5.418 3.763)" fill="#ffdc00"/>
          <path id="Shape-19" data-name="Shape" d="M10.658,18.4a1.261,1.261,0,0,1-.483-.1L6.682,16.859a1.261,1.261,0,0,1,.964-2.33l3.495,1.447a1.261,1.261,0,0,1-.483,2.427Z" transform="translate(-5.903 3.763)" fill="#ffdc00"/>
        </g>
        <path id="Shape-20" data-name="Shape" d="M69.411,36.938a2.522,2.522,0,0,0-2.475-2.046H64.5l-.179-1.073a2.534,2.534,0,0,0-2.107-2.089c-.24-.038-.482-.063-.72-.1a7.691,7.691,0,0,0-.958-5.622,5.159,5.159,0,0,0-3.738-6.9,10.728,10.728,0,0,0-10.481-8.757c-.126,0-.238.016-.358.02A5.129,5.129,0,0,0,38.115,9.4,8.654,8.654,0,0,0,33.408,8a8.753,8.753,0,0,0-6.881,3.389A6.28,6.28,0,0,0,18.5,17.032a5.189,5.189,0,0,0-3.178,4.781,5.128,5.128,0,0,0,.126,1.075,10.147,10.147,0,0,0-1.209,8.7c-.338.047-.683.088-1.009.136a2.537,2.537,0,0,0-2.123,2.088l-.179,1.077H8.488a2.522,2.522,0,0,0-2.474,2.041L.493,65.273a3.782,3.782,0,0,0,3.72,4.5H30.506C31.549,71.5,34.722,72.3,37.712,72.3c2.959,0,6.1-.78,7.175-2.522H71.21a3.782,3.782,0,0,0,3.72-4.5ZM19.135,24.095A2.663,2.663,0,0,1,20.5,19.15a2.615,2.615,0,0,1,2.117,1.069,1.261,1.261,0,0,0,2.025-1.5A5.093,5.093,0,0,0,21.063,16.7,3.833,3.833,0,0,1,24.8,13.665a3.93,3.93,0,0,1,.459.05,8.281,8.281,0,0,0-.265.789,1.261,1.261,0,0,0,2.441.63,6.131,6.131,0,0,1,.654-1.578,6.226,6.226,0,0,1,5.318-3.035,6.123,6.123,0,0,1,3.34,1.009,5.125,5.125,0,0,0-.3,1.653,1.261,1.261,0,1,0,2.522,0,2.652,2.652,0,1,1,5.3,0,1.261,1.261,0,0,0,2.522,0c0-.1-.024-.189-.029-.286a8.184,8.184,0,0,1,7.466,6.311,5.1,5.1,0,0,0-1.63.813,1.261,1.261,0,0,0,1.513,2.017,2.658,2.658,0,0,1,3.9,3.438,2.689,2.689,0,0,1-1.194,1.1,1.261,1.261,0,0,0,.537,2.4,1.244,1.244,0,0,0,.535-.12,5.178,5.178,0,0,0,.942-.589,5.385,5.385,0,0,1-1.067,5.377l-.03.032a5.445,5.445,0,0,1-6.43,1.18,5.108,5.108,0,0,1-1.494-1.125,1.261,1.261,0,1,0-1.86,1.7,7.643,7.643,0,0,0,2.205,1.672,7.766,7.766,0,0,0,5.823.538,8.036,8.036,0,0,1-5.192,3.183,1.261,1.261,0,0,0,.2,2.505,1.342,1.342,0,0,0,.2-.015,10.361,10.361,0,0,0,2.237-.653,11.274,11.274,0,0,1,.941,2.165,1.3,1.3,0,0,1,.066.407,1.36,1.36,0,0,1-.827,1.251,1.427,1.427,0,0,1-1.628-.437,8.047,8.047,0,0,0-3.69-2.452c-2.724-.913-3.776-1.728-4.222-2.616a12.1,12.1,0,0,0,1.933-.4,1.261,1.261,0,0,0-.741-2.411,9.554,9.554,0,0,1-2.176.4,9.357,9.357,0,0,1-4.178-.63,1.261,1.261,0,0,0-1.413.352,5.4,5.4,0,0,1-8.707-6.313,1.263,1.263,0,1,0-2.166-1.3,7.809,7.809,0,0,0-1.009,5.381,7.7,7.7,0,0,1-8.717-10.551,5.082,5.082,0,0,0,.938.748,1.261,1.261,0,0,0,1.3-2.16ZM13.588,34.222c.581-.086,1.181-.161,1.778-.24a10.179,10.179,0,0,0,11.057,4.486,7.9,7.9,0,0,0,12.371,2.1,12.1,12.1,0,0,0,2.631.477c.609,2.31,2.369,3.709,6.067,4.948a5.588,5.588,0,0,1,2.567,1.691A4.015,4.015,0,0,0,53.1,49.112a3.829,3.829,0,0,0,1.5-.305,3.882,3.882,0,0,0,2.356-3.569,3.741,3.741,0,0,0-.192-1.193,13.782,13.782,0,0,0-1.115-2.566,10.628,10.628,0,0,0,4.189-6.407,7.9,7.9,0,0,0,.726-1.016c.422.054.845.1,1.27.173L66.387,61.6a43.277,43.277,0,0,0-27.414,0V45.823a1.261,1.261,0,1,0-2.522,0V61.61A43.284,43.284,0,0,0,9.037,61.6ZM3.232,66.791a1.251,1.251,0,0,1-.265-1.034L8.488,37.413H10.5L6.549,61.19A2.53,2.53,0,0,0,9.8,64.006a42.179,42.179,0,0,1,20.824-1.321l-.376,4.57H4.214a1.27,1.27,0,0,1-.982-.464Zm34.48,2.985c-3.037,0-4.78-.9-5.035-1.3l.434-5.232a26.942,26.942,0,0,1,4.057,1.36,1.272,1.272,0,0,0,.545.126,1.253,1.253,0,0,0,.546-.126,26.854,26.854,0,0,1,4.056-1.369l.434,5.24c-.256.4-2,1.3-5.035,1.3Zm34.48-2.985a1.27,1.27,0,0,1-.982.464H45.177L44.8,62.676a42.191,42.191,0,0,1,20.833,1.333,2.529,2.529,0,0,0,3.243-2.823L64.922,37.415h2.017l5.522,28.342A1.251,1.251,0,0,1,72.192,66.791Z" transform="translate(-0.424 2.086)"/>
      </g>
    </g>
  </g>
</svg>
