<svg xmlns="http://www.w3.org/2000/svg" xmlns:xlink="http://www.w3.org/1999/xlink" width="113" height="113" viewBox="0 0 113 113">
  <defs>
    <filter id="Trazado_982547" x="0" y="0" width="113" height="113" filterUnits="userSpaceOnUse">
      <feOffset dy="3" input="SourceAlpha"/>
      <feGaussianBlur stdDeviation="3" result="blur"/>
      <feFlood flood-opacity="0.161"/>
      <feComposite operator="in" in2="blur"/>
      <feComposite in="SourceGraphic"/>
    </filter>
  </defs>
  <g id="Grupo_1220381" data-name="Grupo 1220381" transform="translate(-325 -1440.695)">
    <g id="Grupo_1212632" data-name="Grupo 1212632" transform="translate(0 -6098.948)">
      <g id="Grupo_1209992" data-name="Grupo 1209992" transform="translate(0 10.835)">
        <g id="Grupo_1208705" data-name="Grupo 1208705" transform="translate(-1.454 3213.429)">
          <g id="Grupo_1148633" data-name="Grupo 1148633" transform="translate(71.408 600.047)">
            <g id="Grupo_1148525" data-name="Grupo 1148525" transform="translate(264.046 3721.333)">
              <g transform="matrix(1, 0, 0, 1, -9, -6)" filter="url(#Trazado_982547)">
                <g id="Trazado_982547-2" data-name="Trazado 982547" transform="translate(9 6)" fill="#e4f1d4">
                  <path d="M 47.5 93.5 C 41.28937149047852 93.5 35.26533508300781 92.28397369384766 29.59518623352051 89.88570404052734 C 24.11771965026855 87.56893157958984 19.19813346862793 84.25196075439453 14.97309303283691 80.02691650390625 C 10.74804019927979 75.80186462402344 7.431066513061523 70.88229370117188 5.114293098449707 65.40481567382812 C 2.716026782989502 59.73468017578125 1.5 53.71062850952148 1.5 47.5 C 1.5 41.28937149047852 2.716026782989502 35.26533508300781 5.114293098449707 29.59518623352051 C 7.431066513061523 24.11771965026855 10.74804019927979 19.19813346862793 14.97309303283691 14.97309303283691 C 19.19813346862793 10.74804019927979 24.11771965026855 7.431066513061523 29.59518623352051 5.114293098449707 C 35.26533508300781 2.716026782989502 41.28937149047852 1.5 47.5 1.5 C 53.71062850952148 1.5 59.73468017578125 2.716026782989502 65.40481567382812 5.114293098449707 C 70.88229370117188 7.431066513061523 75.80186462402344 10.74804019927979 80.02691650390625 14.97309303283691 C 84.25196075439453 19.19813346862793 87.56893157958984 24.11771965026855 89.88570404052734 29.59518623352051 C 92.28397369384766 35.26533508300781 93.5 41.28937149047852 93.5 47.5 C 93.5 53.71062850952148 92.28397369384766 59.73468017578125 89.88570404052734 65.40481567382812 C 87.56893157958984 70.88229370117188 84.25196075439453 75.80186462402344 80.02691650390625 80.02691650390625 C 75.80186462402344 84.25196075439453 70.88229370117188 87.56893157958984 65.40481567382812 89.88570404052734 C 59.73468017578125 92.28397369384766 53.71062850952148 93.5 47.5 93.5 Z" stroke="none"/>
                  <path d="M 47.5 3 C 41.49121475219727 3 35.66376876831055 4.176155090332031 30.17950439453125 6.495796203613281 C 24.88084411621094 8.736953735351562 20.12152099609375 11.94598388671875 16.03375244140625 16.03375244140625 C 11.94598388671875 20.12152099609375 8.736953735351562 24.88084411621094 6.495796203613281 30.17950439453125 C 4.176155090332031 35.66376876831055 3 41.49121475219727 3 47.5 C 3 53.50878524780273 4.176155090332031 59.33623123168945 6.495796203613281 64.82049560546875 C 8.736953735351562 70.11915588378906 11.94598388671875 74.87847900390625 16.03375244140625 78.96624755859375 C 20.12152099609375 83.05401611328125 24.88084411621094 86.26304626464844 30.17950439453125 88.50419616699219 C 35.66376876831055 90.82384490966797 41.49121475219727 92 47.5 92 C 53.50878524780273 92 59.33623123168945 90.82384490966797 64.82049560546875 88.50419616699219 C 70.11915588378906 86.26304626464844 74.87847900390625 83.05401611328125 78.96624755859375 78.96624755859375 C 83.05401611328125 74.87847900390625 86.26304626464844 70.11915588378906 88.50419616699219 64.82049560546875 C 90.82384490966797 59.33623123168945 92 53.50878524780273 92 47.5 C 92 41.49121475219727 90.82384490966797 35.66376876831055 88.50419616699219 30.17950439453125 C 86.26304626464844 24.88084411621094 83.05401611328125 20.12152099609375 78.96624755859375 16.03375244140625 C 74.87847900390625 11.94598388671875 70.11915588378906 8.736953735351562 64.82049560546875 6.495796203613281 C 59.33623123168945 4.176155090332031 53.50878524780273 3 47.5 3 M 47.5 0 C 73.7335205078125 0 95 21.2664794921875 95 47.5 C 95 73.7335205078125 73.7335205078125 95 47.5 95 C 21.2664794921875 95 0 73.7335205078125 0 47.5 C 0 21.2664794921875 21.2664794921875 0 47.5 0 Z" stroke="none" fill="#a9d373"/>
                </g>
              </g>
            </g>
          </g>
        </g>
      </g>
    </g>
    <g id="objetivo_1_" data-name="objetivo (1)" transform="translate(338.031 1449)">
      <circle id="Elipse_14347" data-name="Elipse 14347" cx="6.5" cy="6.5" r="6.5" transform="translate(21 28)" fill="#ffd681"/>
      <path id="Trazado_1169079" data-name="Trazado 1169079" d="M126.018,259.018H107v-9.509A9.509,9.509,0,0,1,116.509,240h0a9.509,9.509,0,0,1,9.509,9.509Z" transform="translate(-88.831 -199.248)" fill="#00e7ff"/>
      <path id="Trazado_1169080" data-name="Trazado 1169080" d="M150.547,240h0a9.512,9.512,0,0,0-2.547.348,9.511,9.511,0,0,1,6.962,9.161v9.509h5.094v-9.509A9.509,9.509,0,0,0,150.547,240Z" transform="translate(-122.87 -199.248)" fill="#00cae1"/>
      <circle id="Elipse_14348" data-name="Elipse 14348" cx="6.5" cy="6.5" r="6.5" transform="translate(53 28)" fill="#ffd681"/>
      <path id="Trazado_1169081" data-name="Trazado 1169081" d="M312.018,259.018H293v-9.509A9.509,9.509,0,0,1,302.509,240h0a9.509,9.509,0,0,1,9.509,9.509Z" transform="translate(-243.249 -199.248)" fill="#00e7ff"/>
      <path id="Trazado_1169082" data-name="Trazado 1169082" d="M336.547,240h0a9.512,9.512,0,0,0-2.547.348,9.511,9.511,0,0,1,6.962,9.161v9.509h5.094v-9.509A9.509,9.509,0,0,0,336.547,240Z" transform="translate(-277.287 -199.248)" fill="#00cae1"/>
      <circle id="Elipse_14349" data-name="Elipse 14349" cx="8.066" cy="8.066" r="8.066" transform="translate(35.403 21.804)" fill="#ffd681"/>
      <path id="Trazado_1169083" data-name="Trazado 1169083" d="M203.168,250.581H176V237a13.584,13.584,0,0,1,13.584-13.584h0A13.584,13.584,0,0,1,203.168,237Z" transform="translate(-146.115 -185.477)" fill="#0087d5"/>
      <path id="Trazado_1169084" data-name="Trazado 1169084" d="M243.547,223.413h0a13.639,13.639,0,0,0-2.547.242A13.586,13.586,0,0,1,252.037,237v13.584h5.094V237A13.584,13.584,0,0,0,243.547,223.413Z" transform="translate(-200.078 -185.477)" fill="#006ecb"/>
      <g id="Grupo_1220355" data-name="Grupo 1220355" transform="translate(1.274 8.15)">
        <path id="Trazado_1169085" data-name="Trazado 1169085" d="M10.047,62.6A2.547,2.547,0,0,1,7.5,60.056V53.094A5.1,5.1,0,0,1,12.594,48h6.962a2.547,2.547,0,0,1,0,5.094H12.594v6.962A2.547,2.547,0,0,1,10.047,62.6Z" transform="translate(-7.5 -48)" fill="#ff5a51"/>
        <path id="Trazado_1169086" data-name="Trazado 1169086" d="M430.556,62.6a2.547,2.547,0,0,0,2.547-2.547V53.094A5.1,5.1,0,0,0,428.009,48h-6.962a2.547,2.547,0,0,0,0,5.094h6.962v6.962A2.547,2.547,0,0,0,430.556,62.6Z" transform="translate(-348.712 -48)" fill="#ff5a51"/>
        <path id="Trazado_1169087" data-name="Trazado 1169087" d="M430.556,378a2.547,2.547,0,0,1,2.547,2.547v6.962a5.1,5.1,0,0,1-5.094,5.094h-6.962a2.547,2.547,0,0,1,0-5.094h6.962v-6.962A2.547,2.547,0,0,1,430.556,378Z" transform="translate(-348.712 -321.966)" fill="#ff5a51"/>
        <path id="Trazado_1169088" data-name="Trazado 1169088" d="M10.047,378A2.547,2.547,0,0,0,7.5,380.547v6.962a5.1,5.1,0,0,0,5.094,5.094h6.962a2.547,2.547,0,1,0,0-5.094H12.594v-6.962A2.547,2.547,0,0,0,10.047,378Z" transform="translate(-7.5 -321.966)" fill="#ff5a51"/>
      </g>
      <g id="Grupo_1220356" data-name="Grupo 1220356" transform="translate(1.274 1.274)">
        <path id="Trazado_1169089" data-name="Trazado 1169089" d="M243.547,19.386A2.547,2.547,0,0,1,241,16.839V10.047a2.547,2.547,0,1,1,5.094,0v6.792A2.547,2.547,0,0,1,243.547,19.386Z" transform="translate(-201.352 -7.5)" fill="#ff7b48"/>
        <path id="Trazado_1169090" data-name="Trazado 1169090" d="M243.547,446.386A2.547,2.547,0,0,1,241,443.839v-6.792a2.547,2.547,0,0,1,5.094,0v6.792A2.547,2.547,0,0,1,243.547,446.386Z" transform="translate(-201.352 -361.995)" fill="#ff7b48"/>
        <path id="Trazado_1169091" data-name="Trazado 1169091" d="M434.5,243.547A2.547,2.547,0,0,1,437.047,241h6.792a2.547,2.547,0,0,1,0,5.094h-6.792A2.547,2.547,0,0,1,434.5,243.547Z" transform="translate(-361.995 -201.352)" fill="#ff7b48"/>
        <path id="Trazado_1169092" data-name="Trazado 1169092" d="M7.5,243.547A2.547,2.547,0,0,1,10.047,241h6.792a2.547,2.547,0,1,1,0,5.094H10.047A2.547,2.547,0,0,1,7.5,243.547Z" transform="translate(-7.5 -201.352)" fill="#ff7b48"/>
      </g>
      <path id="Trazado_1169093" data-name="Trazado 1169093" d="M152.647,157.435a1.273,1.273,0,0,0-2.547,0v1.443h-9.169V151.9a14.776,14.776,0,0,0-2.763-8.62,8.236,8.236,0,0,1,11.932,7.361V152a1.273,1.273,0,0,0,2.547,0v-1.358a10.806,10.806,0,0,0-6.183-9.758,7.723,7.723,0,1,0-11.057-10.438c0-.065,0-.13,0-.2a9.339,9.339,0,0,0-18.678,0c0,.065,0,.13,0,.2a7.723,7.723,0,1,0-11.053,10.441,10.731,10.731,0,0,0-1.057.572,1.273,1.273,0,1,0,1.337,2.168,8.247,8.247,0,0,1,8.012-.345,14.777,14.777,0,0,0-2.763,8.62v6.977h-9.169v-8.235a8.157,8.157,0,0,1,.814-3.575,1.274,1.274,0,0,0-2.294-1.107,10.686,10.686,0,0,0-1.067,4.682v9.509a1.273,1.273,0,0,0,1.273,1.273h10.443v4.06a1.273,1.273,0,0,0,1.273,1.273h2.717a1.273,1.273,0,0,0,0-2.547h-1.443V151.9a12.311,12.311,0,1,1,24.621,0v12.311H120.668a1.273,1.273,0,0,0,0,2.547h18.989a1.273,1.273,0,0,0,1.274-1.273v-4.06h10.443a1.273,1.273,0,0,0,1.273-1.273ZM141.865,129.5a5.179,5.179,0,1,1-5.179,5.179A5.185,5.185,0,0,1,141.865,129.5Zm-15.791-6.043a6.792,6.792,0,1,1-6.792,6.792A6.8,6.8,0,0,1,126.074,123.46ZM105.1,134.682a5.179,5.179,0,1,1,5.179,5.179A5.185,5.185,0,0,1,105.1,134.682Zm10.568,6.623q-.389-.225-.793-.417A7.72,7.72,0,0,0,118,134.94a9.41,9.41,0,0,0,2.851,3.052A14.9,14.9,0,0,0,115.671,141.3Zm15.623-3.312a9.41,9.41,0,0,0,2.851-3.052,7.719,7.719,0,0,0,3.123,5.947q-.4.191-.793.417A14.9,14.9,0,0,0,131.295,137.992Z" transform="translate(-82.605 -100.382)"/>
      <path id="Trazado_1169094" data-name="Trazado 1169094" d="M3.821,57.65a3.825,3.825,0,0,0,3.821-3.821V48.141h5.688a3.821,3.821,0,1,0,0-7.641H6.368A6.375,6.375,0,0,0,0,46.868v6.962A3.825,3.825,0,0,0,3.821,57.65ZM2.547,46.868a3.825,3.825,0,0,1,3.821-3.821h6.962a1.274,1.274,0,1,1,0,2.547H6.368a1.273,1.273,0,0,0-1.274,1.274v6.962a1.274,1.274,0,1,1-2.547,0Z" transform="translate(0 -33.623)"/>
      <path id="Trazado_1169095" data-name="Trazado 1169095" d="M421.782,40.5H414.82a3.821,3.821,0,0,0,0,7.641h5.688v5.688a3.82,3.82,0,1,0,7.641,0V46.868A6.375,6.375,0,0,0,421.782,40.5Zm3.82,13.329a1.273,1.273,0,1,1-2.547,0V46.868a1.273,1.273,0,0,0-1.273-1.274H414.82a1.274,1.274,0,0,1,0-2.547h6.962a3.825,3.825,0,0,1,3.82,3.821Z" transform="translate(-341.212 -33.623)"/>
      <path id="Trazado_1169096" data-name="Trazado 1169096" d="M424.329,370.5a3.825,3.825,0,0,0-3.82,3.82v5.688H414.82a3.82,3.82,0,0,0,0,7.641h6.962a6.375,6.375,0,0,0,6.367-6.367V374.32A3.825,3.825,0,0,0,424.329,370.5Zm1.273,10.782a3.825,3.825,0,0,1-3.82,3.82H414.82a1.273,1.273,0,0,1,0-2.547h6.962a1.273,1.273,0,0,0,1.273-1.273V374.32a1.273,1.273,0,0,1,2.547,0Z" transform="translate(-341.212 -307.589)"/>
      <path id="Trazado_1169097" data-name="Trazado 1169097" d="M13.329,380.009H7.641V374.32a3.821,3.821,0,0,0-7.641,0v6.962a6.375,6.375,0,0,0,6.368,6.367h6.962a3.82,3.82,0,1,0,0-7.641Zm0,5.094H6.368a3.825,3.825,0,0,1-3.821-3.82V374.32a1.274,1.274,0,0,1,2.547,0v6.962a1.273,1.273,0,0,0,1.274,1.273h6.962a1.273,1.273,0,1,1,0,2.547Z" transform="translate(0 -307.589)"/>
      <path id="Trazado_1169098" data-name="Trazado 1169098" d="M237.321,14.433a3.825,3.825,0,0,0,3.82-3.821V3.821a3.821,3.821,0,0,0-7.641,0v6.792A3.825,3.825,0,0,0,237.321,14.433ZM236.047,3.821a1.273,1.273,0,1,1,2.547,0v6.792a1.273,1.273,0,1,1-2.547,0Z" transform="translate(-193.852)"/>
      <path id="Trazado_1169099" data-name="Trazado 1169099" d="M237.321,427a3.825,3.825,0,0,0-3.821,3.82v6.792a3.821,3.821,0,1,0,7.641,0V430.82A3.825,3.825,0,0,0,237.321,427Zm1.273,10.612a1.273,1.273,0,1,1-2.547,0V430.82a1.273,1.273,0,1,1,2.547,0Z" transform="translate(-193.852 -354.495)"/>
      <path id="Trazado_1169100" data-name="Trazado 1169100" d="M437.612,233.5H430.82a3.821,3.821,0,0,0,0,7.641h6.792a3.821,3.821,0,1,0,0-7.641Zm0,5.094H430.82a1.273,1.273,0,0,1,0-2.547h6.792a1.273,1.273,0,0,1,0,2.547Z" transform="translate(-354.495 -193.852)"/>
      <path id="Trazado_1169101" data-name="Trazado 1169101" d="M3.821,241.141h6.792a3.821,3.821,0,0,0,0-7.641H3.821a3.821,3.821,0,0,0,0,7.641Zm0-5.094h6.792a1.273,1.273,0,1,1,0,2.547H3.821a1.273,1.273,0,1,1,0-2.547Z" transform="translate(0 -193.852)"/>
      <path id="Trazado_1169102" data-name="Trazado 1169102" d="M220.554,289.377c.038,0,.077,0,.116-.005a1.274,1.274,0,0,0,.931-.542l6.365-9.169a1.274,1.274,0,0,0-2.092-1.452l-5.5,7.921-4.953-4.922a1.273,1.273,0,1,0-1.8,1.806l6.03,5.993A1.272,1.272,0,0,0,220.554,289.377Z" transform="translate(-177.041 -230.514)"/>
    </g>
  </g>
</svg>
