<svg xmlns="http://www.w3.org/2000/svg" xmlns:xlink="http://www.w3.org/1999/xlink" width="108" height="108" viewBox="0 0 108 108">
  <defs>
    <filter id="Trazado_978624" x="0" y="0" width="108" height="108" filterUnits="userSpaceOnUse">
      <feOffset dy="3" input="SourceAlpha"/>
      <feGaussianBlur stdDeviation="3" result="blur"/>
      <feFlood flood-opacity="0.161"/>
      <feComposite operator="in" in2="blur"/>
      <feComposite in="SourceGraphic"/>
    </filter>
    <filter id="Trazado_1076716" x="0" y="0" width="108" height="108" filterUnits="userSpaceOnUse">
      <feOffset dy="3" input="SourceAlpha"/>
      <feGaussianBlur stdDeviation="3" result="blur-2"/>
      <feFlood flood-opacity="0.161"/>
      <feComposite operator="in" in2="blur-2"/>
      <feComposite in="SourceGraphic"/>
    </filter>
  </defs>
  <g id="Grupo_1220384" data-name="Grupo 1220384" transform="translate(-197.188 -2501.013)">
    <g id="Grupo_1209414" data-name="Grupo 1209414" transform="translate(206.188 2507.013)">
      <g id="Grupo_1208075" data-name="Grupo 1208075" transform="translate(0)">
        <g id="Grupo_1181203" data-name="Grupo 1181203">
          <g id="Grupo_1172348" data-name="Grupo 1172348">
            <g id="Grupo_1171897" data-name="Grupo 1171897">
              <g id="Grupo_1171052" data-name="Grupo 1171052">
                <g id="Grupo_1164581" data-name="Grupo 1164581">
                  <g id="Grupo_1144123" data-name="Grupo 1144123">
                    <g transform="matrix(1, 0, 0, 1, -9, -6)" filter="url(#Trazado_978624)">
                      <g id="Trazado_978624-2" data-name="Trazado 978624" transform="translate(9 6)" fill="#fbf3fb">
                        <path d="M 45 88.5 C 39.12687683105469 88.5 33.43022537231445 87.35007476806641 28.06830024719238 85.08217620849609 C 22.88852500915527 82.89131164550781 18.23629951477051 79.75458526611328 14.2408504486084 75.75914764404297 C 10.24541282653809 71.76370239257812 7.108687400817871 67.11147308349609 4.917825222015381 61.93170166015625 C 2.649924993515015 56.56977462768555 1.5 50.87312316894531 1.5 45 C 1.5 39.12687683105469 2.649924993515015 33.43022537231445 4.917825222015381 28.06830024719238 C 7.108687400817871 22.88852500915527 10.24541282653809 18.23629951477051 14.2408504486084 14.2408504486084 C 18.23629951477051 10.24541282653809 22.88852500915527 7.108687400817871 28.06830024719238 4.917825222015381 C 33.43022537231445 2.649924993515015 39.12687683105469 1.5 45 1.5 C 50.87312316894531 1.5 56.56977462768555 2.649924993515015 61.93170166015625 4.917825222015381 C 67.11147308349609 7.108687400817871 71.76370239257812 10.24541282653809 75.75914764404297 14.2408504486084 C 79.75458526611328 18.23629951477051 82.89131164550781 22.88852500915527 85.08217620849609 28.06830024719238 C 87.35007476806641 33.43022537231445 88.5 39.12687683105469 88.5 45 C 88.5 50.87312316894531 87.35007476806641 56.56977462768555 85.08217620849609 61.93170166015625 C 82.89131164550781 67.11147308349609 79.75458526611328 71.76370239257812 75.75914764404297 75.75914764404297 C 71.76370239257812 79.75458526611328 67.11147308349609 82.89131164550781 61.93170166015625 85.08217620849609 C 56.56977462768555 87.35007476806641 50.87312316894531 88.5 45 88.5 Z" stroke="none"/>
                        <path d="M 45 3 C 39.32871246337891 3 33.82865524291992 4.110054016113281 28.65262985229492 6.299339294433594 C 23.65165710449219 8.414573669433594 19.15968322753906 11.44334411621094 15.301513671875 15.301513671875 C 11.44334411621094 19.15968322753906 8.414573669433594 23.65165710449219 6.299339294433594 28.65262985229492 C 4.110054016113281 33.82865524291992 3 39.32871246337891 3 45 C 3 50.67128753662109 4.110054016113281 56.17134475708008 6.299339294433594 61.34737396240234 C 8.414573669433594 66.34834289550781 11.44334411621094 70.84031677246094 15.301513671875 74.698486328125 C 19.15968322753906 78.55665588378906 23.65165710449219 81.58542633056641 28.65262985229492 83.70066070556641 C 33.82865524291992 85.88994598388672 39.32871246337891 87 45 87 C 50.67128753662109 87 56.17134475708008 85.88994598388672 61.34737396240234 83.70066070556641 C 66.34834289550781 81.58542633056641 70.84031677246094 78.55665588378906 74.698486328125 74.698486328125 C 78.55665588378906 70.84031677246094 81.58542633056641 66.34834289550781 83.70066070556641 61.34737396240234 C 85.88994598388672 56.17134475708008 87 50.67128753662109 87 45 C 87 39.32871246337891 85.88994598388672 33.82865524291992 83.70066070556641 28.65262985229492 C 81.58542633056641 23.65165710449219 78.55665588378906 19.15968322753906 74.698486328125 15.301513671875 C 70.84031677246094 11.44334411621094 66.34834289550781 8.414573669433594 61.34737396240234 6.299339294433594 C 56.17134475708008 4.110054016113281 50.67128753662109 3 45 3 M 45 0 C 69.85281372070312 0 90 20.14718627929688 90 45 C 90 69.85281372070312 69.85281372070312 90 45 90 C 20.14718627929688 90 0 69.85281372070312 0 45 C 0 20.14718627929688 20.14718627929688 0 45 0 Z" stroke="none" fill="#df93dd"/>
                      </g>
                    </g>
                    <g transform="matrix(1, 0, 0, 1, -9, -6)" filter="url(#Trazado_1076716)">
                      <g id="Trazado_1076716-2" data-name="Trazado 1076716" transform="translate(9 6)" fill="#fbf3fb">
                        <path d="M 45 88.5 C 39.12687683105469 88.5 33.43022537231445 87.35007476806641 28.06830024719238 85.08217620849609 C 22.88852500915527 82.89131164550781 18.23629951477051 79.75458526611328 14.2408504486084 75.75914764404297 C 10.24541282653809 71.76370239257812 7.108687400817871 67.11147308349609 4.917825222015381 61.93170166015625 C 2.649924993515015 56.56977462768555 1.5 50.87312316894531 1.5 45 C 1.5 39.12687683105469 2.649924993515015 33.43022537231445 4.917825222015381 28.06830024719238 C 7.108687400817871 22.88852500915527 10.24541282653809 18.23629951477051 14.2408504486084 14.2408504486084 C 18.23629951477051 10.24541282653809 22.88852500915527 7.108687400817871 28.06830024719238 4.917825222015381 C 33.43022537231445 2.649924993515015 39.12687683105469 1.5 45 1.5 C 50.87312316894531 1.5 56.56977462768555 2.649924993515015 61.93170166015625 4.917825222015381 C 67.11147308349609 7.108687400817871 71.76370239257812 10.24541282653809 75.75914764404297 14.2408504486084 C 79.75458526611328 18.23629951477051 82.89131164550781 22.88852500915527 85.08217620849609 28.06830024719238 C 87.35007476806641 33.43022537231445 88.5 39.12687683105469 88.5 45 C 88.5 50.87312316894531 87.35007476806641 56.56977462768555 85.08217620849609 61.93170166015625 C 82.89131164550781 67.11147308349609 79.75458526611328 71.76370239257812 75.75914764404297 75.75914764404297 C 71.76370239257812 79.75458526611328 67.11147308349609 82.89131164550781 61.93170166015625 85.08217620849609 C 56.56977462768555 87.35007476806641 50.87312316894531 88.5 45 88.5 Z" stroke="none"/>
                        <path d="M 45 3 C 39.32871246337891 3 33.82865524291992 4.110054016113281 28.65262985229492 6.299339294433594 C 23.65165710449219 8.414573669433594 19.15968322753906 11.44334411621094 15.301513671875 15.301513671875 C 11.44334411621094 19.15968322753906 8.414573669433594 23.65165710449219 6.299339294433594 28.65262985229492 C 4.110054016113281 33.82865524291992 3 39.32871246337891 3 45 C 3 50.67128753662109 4.110054016113281 56.17134475708008 6.299339294433594 61.34737396240234 C 8.414573669433594 66.34834289550781 11.44334411621094 70.84031677246094 15.301513671875 74.698486328125 C 19.15968322753906 78.55665588378906 23.65165710449219 81.58542633056641 28.65262985229492 83.70066070556641 C 33.82865524291992 85.88994598388672 39.32871246337891 87 45 87 C 50.67128753662109 87 56.17134475708008 85.88994598388672 61.34737396240234 83.70066070556641 C 66.34834289550781 81.58542633056641 70.84031677246094 78.55665588378906 74.698486328125 74.698486328125 C 78.55665588378906 70.84031677246094 81.58542633056641 66.34834289550781 83.70066070556641 61.34737396240234 C 85.88994598388672 56.17134475708008 87 50.67128753662109 87 45 C 87 39.32871246337891 85.88994598388672 33.82865524291992 83.70066070556641 28.65262985229492 C 81.58542633056641 23.65165710449219 78.55665588378906 19.15968322753906 74.698486328125 15.301513671875 C 70.84031677246094 11.44334411621094 66.34834289550781 8.414573669433594 61.34737396240234 6.299339294433594 C 56.17134475708008 4.110054016113281 50.67128753662109 3 45 3 M 45 0 C 69.85281372070312 0 90 20.14718627929688 90 45 C 90 69.85281372070312 69.85281372070312 90 45 90 C 20.14718627929688 90 0 69.85281372070312 0 45 C 0 20.14718627929688 20.14718627929688 0 45 0 Z" stroke="none" fill="#df93dd"/>
                      </g>
                    </g>
                  </g>
                </g>
              </g>
            </g>
          </g>
        </g>
      </g>
    </g>
    <g id="cerebro" transform="translate(215.175 2469.483)">
      <g id="Grupo_1220382" data-name="Grupo 1220382" transform="translate(1.186 53.539)">
        <path id="Trazado_1169176" data-name="Trazado 1169176" d="M81.873,87.938q-.16-.141-.325-.278l-.022-.018.007-.028A14.653,14.653,0,0,0,68.286,69.4l-.025,0A13.99,13.99,0,0,0,47.509,62l-.69.437,0,0A14.656,14.656,0,0,0,25.377,69.4l-.024,0A14.658,14.658,0,0,0,12.105,87.622l.005.02-.022.018q-.165.137-.325.279c-8.762,7.731-3.1,22.241,8.589,22.241H73.285c11.686,0,17.352-14.512,8.588-22.242Z" transform="translate(-7.499 -59.826)" fill="#ffb4bf"/>
        <path id="Trazado_1169177" data-name="Trazado 1169177" d="M179.331,132.936a1.686,1.686,0,0,0,1.686-1.686v-5.229a1.686,1.686,0,0,0-1.686-1.686h-6.915v-1.686a4.127,4.127,0,1,0-8.255,0v1.686h-6.915a1.686,1.686,0,0,0-1.686,1.686v5.229a1.686,1.686,0,0,0,1.686,1.686,4.127,4.127,0,0,1,0,8.255,1.686,1.686,0,0,0-1.686,1.686V148.1a1.686,1.686,0,0,0,1.686,1.686h6.915V148.1a4.127,4.127,0,0,1,8.255,0v1.686h6.915a1.686,1.686,0,0,0,1.686-1.686v-5.229a1.686,1.686,0,0,0-1.686-1.686,4.127,4.127,0,1,1,0-8.255Z" transform="translate(-132.133 -109.235)" fill="#696eb1"/>
        <path id="Trazado_1169178" data-name="Trazado 1169178" d="M317.366,268.97a1.686,1.686,0,0,0,1.686-1.686v-5.229a1.686,1.686,0,0,0-1.686-1.686h-6.915v-1.686a4.127,4.127,0,0,0-8.255,0v1.686h-6.915a1.686,1.686,0,0,0-1.686,1.686v5.229a1.686,1.686,0,0,0,1.686,1.686,4.127,4.127,0,0,1,0,8.255,1.686,1.686,0,0,0-1.686,1.686v5.229a1.686,1.686,0,0,0,1.686,1.686H302.2V284.14a4.127,4.127,0,0,1,8.255,0v1.686h6.915a1.686,1.686,0,0,0,1.686-1.686v-5.229a1.686,1.686,0,0,0-1.686-1.686,4.127,4.127,0,1,1,0-8.254Z" transform="translate(-248.327 -223.745)" fill="#ff8d9d"/>
        <path id="Trazado_1169179" data-name="Trazado 1169179" d="M22.407,94.521a38.812,38.812,0,0,1,17.578-32.51,14.658,14.658,0,0,0-14.608,9.2l-.024,0A14.658,14.658,0,0,0,12.106,89.434l.005.02-.021.018q-.165.137-.325.279c-8.762,7.731-3.1,22.241,8.589,22.241h6.2A38.685,38.685,0,0,1,22.407,94.521Z" transform="translate(-7.5 -61.638)" fill="#ff8d9d"/>
        <path id="Trazado_1169180" data-name="Trazado 1169180" d="M302.987,271.834c0-6.806,1.6-12.875,5.2-16.831a4.127,4.127,0,0,0-5.988,3.684v1.685h-6.915a1.686,1.686,0,0,0-1.686,1.686v5.229a1.686,1.686,0,0,0,1.686,1.686,4.127,4.127,0,1,1,0,8.255,1.686,1.686,0,0,0-1.686,1.685v5.229a1.685,1.685,0,0,0,1.686,1.685H302.2v-1.685a4.129,4.129,0,0,1,2.53-3.807A21.51,21.51,0,0,1,302.987,271.834Z" transform="translate(-248.328 -223.747)" fill="#e95b70"/>
        <path id="Trazado_1169181" data-name="Trazado 1169181" d="M164.951,135.8c0-6.806,1.6-12.876,5.2-16.831a4.127,4.127,0,0,0-5.988,3.684v1.685h-6.915a1.686,1.686,0,0,0-1.686,1.686v5.229a1.686,1.686,0,0,0,1.686,1.686,4.127,4.127,0,1,1,0,8.255,1.686,1.686,0,0,0-1.686,1.685v5.229a1.685,1.685,0,0,0,1.686,1.685h6.915v-1.685a4.129,4.129,0,0,1,2.53-3.807A21.509,21.509,0,0,1,164.951,135.8Z" transform="translate(-132.133 -109.236)" fill="#4c5698"/>
      </g>
      <g id="Grupo_1220383" data-name="Grupo 1220383" transform="translate(0 52.357)">
        <path id="Trazado_1169182" data-name="Trazado 1169182" d="M14.052,121.7H50.1a2.925,2.925,0,0,1-1.958.753,2.875,2.875,0,0,0-2.872,2.872v5.228a2.875,2.875,0,0,0,2.872,2.872H55.06a1.187,1.187,0,0,0,1.187-1.187V130.55a2.94,2.94,0,1,1,5.88,0v1.685a1.187,1.187,0,0,0,1.187,1.187h6.913A2.875,2.875,0,0,0,73.1,130.55v-5.228a2.875,2.875,0,0,0-2.872-2.872,2.927,2.927,0,0,1-2.019-.808,13.712,13.712,0,0,0,8.747-4.105,1.186,1.186,0,1,0-1.7-1.654A11.246,11.246,0,0,1,67.3,119.32a2.941,2.941,0,0,1,2.93-2.75A2.875,2.875,0,0,0,73.1,113.7V108.47a2.875,2.875,0,0,0-2.872-2.872H64.5v-.5a5.313,5.313,0,0,0-10.626,0v.5H51.261v-1.8a2.875,2.875,0,0,0-2.872-2.872,2.94,2.94,0,1,1,0-5.88,2.875,2.875,0,0,0,2.872-2.872V86.95a2.875,2.875,0,0,0-2.872-2.872H42.662v-.5a5.313,5.313,0,0,0-10.626,0v.5H26.31a2.875,2.875,0,0,0-2.872,2.872v5.228A2.875,2.875,0,0,0,26.31,95.05a2.94,2.94,0,1,1,0,5.88,2.875,2.875,0,0,0-2.872,2.872v5.228A2.875,2.875,0,0,0,26.31,111.9h6.913a1.187,1.187,0,0,0,1.187-1.187V109.03a2.94,2.94,0,1,1,5.88,0v1.685a1.187,1.187,0,0,0,1.187,1.187h3.8v1.8a2.879,2.879,0,0,0,2.872,2.872,2.941,2.941,0,0,1,2.931,2.754H14.052A11.211,11.211,0,0,1,5.32,115.39c1.923-2.078,4.318-2.352,6.84-2.641,2.569-.294,5.226-.6,6.787-3.12a1.187,1.187,0,0,0-2.018-1.249c-.91,1.47-2.508,1.722-5.039,2.011l-.606.07a7.97,7.97,0,0,1,.24-5.661,1.187,1.187,0,1,0-2.1-1.1,10.112,10.112,0,0,0-.5,7.145,10.046,10.046,0,0,0-4.991,2.572,12.077,12.077,0,0,1-.774-1.651A11.2,11.2,0,0,1,6.548,98.907a1.2,1.2,0,0,0,.413-1.225l0-.017a13.428,13.428,0,0,1,.786-8.856,15.237,15.237,0,0,0,3.9,2.632,8.76,8.76,0,0,0,1.7,6.613,1.186,1.186,0,0,0,1.891-1.434,6.374,6.374,0,0,1-1.3-4.325,16.541,16.541,0,0,0,4.551.618h.148a1.186,1.186,0,0,0-.019-2.373,13.143,13.143,0,0,1-9.658-3.862,13.429,13.429,0,0,1,10.175-5.755l.024,0a1.186,1.186,0,0,0,1.025-.745,13.408,13.408,0,0,1,4.612-5.926A1.186,1.186,0,0,0,23.4,72.326a15.759,15.759,0,0,0-5.139,6.291,15.8,15.8,0,0,0-11.8,7.545l-.024.04A15.788,15.788,0,0,0,4.5,97.549,13.5,13.5,0,0,0,.942,112.6a13.853,13.853,0,0,0,13.11,9.093ZM55.06,107.972a1.187,1.187,0,0,0,1.187-1.187V105.1a2.94,2.94,0,1,1,5.88,0v1.685a1.187,1.187,0,0,0,1.187,1.187h6.913a.5.5,0,0,1,.5.5V113.7a.5.5,0,0,1-.5.5,5.313,5.313,0,0,0,0,10.626.5.5,0,0,1,.5.5v5.228a.5.5,0,0,1-.5.5H64.5v-.5a5.313,5.313,0,0,0-10.626,0v.5H48.146a.5.5,0,0,1-.5-.5v-5.228a.5.5,0,0,1,.5-.5,5.313,5.313,0,0,0,0-10.626.5.5,0,0,1-.5-.5V108.47a.5.5,0,0,1,.5-.5Zm-12.4,1.557v-.5a5.313,5.313,0,0,0-10.626,0v.5H26.309a.5.5,0,0,1-.5-.5V103.8a.5.5,0,0,1,.5-.5,5.313,5.313,0,0,0,0-10.626.5.5,0,0,1-.5-.5V86.95a.5.5,0,0,1,.5-.5h6.913a1.187,1.187,0,0,0,1.187-1.187V83.579a2.94,2.94,0,1,1,5.88,0v1.685a1.187,1.187,0,0,0,1.187,1.187H48.39a.5.5,0,0,1,.5.5v5.228a.5.5,0,0,1-.5.5,5.313,5.313,0,1,0,0,10.626.5.5,0,0,1,.5.5v1.8h-.742a2.875,2.875,0,0,0-2.872,2.872v1.058Z" transform="translate(0 -68.978)"/>
        <path id="Trazado_1169183" data-name="Trazado 1169183" d="M222.462,80.928A15.837,15.837,0,0,0,208.74,62a15.174,15.174,0,0,0-22.24-7.285l-.073.046a15.846,15.846,0,0,0-12.208-1.435,1.187,1.187,0,1,0,.66,2.28A13.468,13.468,0,0,1,185.8,57.154a1.186,1.186,0,0,0,1.275,0,12.934,12.934,0,0,1,11.832-1.676,12.723,12.723,0,0,1,7.845,8.01,1.187,1.187,0,0,0,1.05.809h.023a13.421,13.421,0,0,1,8.835,4.112c-1.856,1.605-4.121,1.853-6.32,2.092-2.571.28-5.229.569-6.8,3.083a1.187,1.187,0,1,0,2.011,1.26c.918-1.465,2.517-1.708,5.05-1.984l.609-.068a7.92,7.92,0,0,1-.274,5.66,1.186,1.186,0,1,0,2.1,1.114,10.113,10.113,0,0,0,.535-7.142,10.245,10.245,0,0,0,4.583-2.162A13.424,13.424,0,0,1,220,81.037l-.007.028a1.2,1.2,0,0,0,.412,1.22,11.231,11.231,0,0,1,3.957,6.527,11.628,11.628,0,0,1-.743,6.765,1.187,1.187,0,0,0,2.186.924,13.613,13.613,0,0,0-3.346-15.573Z" transform="translate(-145.932 -52.357)"/>
      </g>
    </g>
  </g>
</svg>
