<svg xmlns="http://www.w3.org/2000/svg" xmlns:xlink="http://www.w3.org/1999/xlink" width="108" height="108" viewBox="0 0 108 108">
  <defs>
    <filter id="Trazado_978624" x="0" y="0" width="108" height="108" filterUnits="userSpaceOnUse">
      <feOffset dy="3" input="SourceAlpha"/>
      <feGaussianBlur stdDeviation="3" result="blur"/>
      <feFlood flood-opacity="0.161"/>
      <feComposite operator="in" in2="blur"/>
      <feComposite in="SourceGraphic"/>
    </filter>
    <filter id="Trazado_1076716" x="0" y="0" width="108" height="108" filterUnits="userSpaceOnUse">
      <feOffset dy="3" input="SourceAlpha"/>
      <feGaussianBlur stdDeviation="3" result="blur-2"/>
      <feFlood flood-opacity="0.161"/>
      <feComposite operator="in" in2="blur-2"/>
      <feComposite in="SourceGraphic"/>
    </filter>
  </defs>
  <g id="Grupo_1220394" data-name="Grupo 1220394" transform="translate(-617 -3812)">
    <g id="Grupo_1209415" data-name="Grupo 1209415" transform="translate(0 327)">
      <g id="Grupo_1208078" data-name="Grupo 1208078" transform="translate(1 2999)">
        <g id="Grupo_1181203" data-name="Grupo 1181203" transform="translate(625 492)">
          <g id="Grupo_1172348" data-name="Grupo 1172348" transform="translate(0)">
            <g id="Grupo_1171897" data-name="Grupo 1171897">
              <g id="Grupo_1171052" data-name="Grupo 1171052">
                <g id="Grupo_1164581" data-name="Grupo 1164581">
                  <g id="Grupo_1144123" data-name="Grupo 1144123">
                    <g transform="matrix(1, 0, 0, 1, -9, -6)" filter="url(#Trazado_978624)">
                      <g id="Trazado_978624-2" data-name="Trazado 978624" transform="translate(9 6)" fill="#f0fbfa">
                        <path d="M 45 88.5 C 39.12687683105469 88.5 33.43022537231445 87.35007476806641 28.06830024719238 85.08217620849609 C 22.88852500915527 82.89131164550781 18.23629951477051 79.75458526611328 14.2408504486084 75.75914764404297 C 10.24541282653809 71.76370239257812 7.108687400817871 67.11147308349609 4.917825222015381 61.93170166015625 C 2.649924993515015 56.56977462768555 1.5 50.87312316894531 1.5 45 C 1.5 39.12687683105469 2.649924993515015 33.43022537231445 4.917825222015381 28.06830024719238 C 7.108687400817871 22.88852500915527 10.24541282653809 18.23629951477051 14.2408504486084 14.2408504486084 C 18.23629951477051 10.24541282653809 22.88852500915527 7.108687400817871 28.06830024719238 4.917825222015381 C 33.43022537231445 2.649924993515015 39.12687683105469 1.5 45 1.5 C 50.87312316894531 1.5 56.56977462768555 2.649924993515015 61.93170166015625 4.917825222015381 C 67.11147308349609 7.108687400817871 71.76370239257812 10.24541282653809 75.75914764404297 14.2408504486084 C 79.75458526611328 18.23629951477051 82.89131164550781 22.88852500915527 85.08217620849609 28.06830024719238 C 87.35007476806641 33.43022537231445 88.5 39.12687683105469 88.5 45 C 88.5 50.87312316894531 87.35007476806641 56.56977462768555 85.08217620849609 61.93170166015625 C 82.89131164550781 67.11147308349609 79.75458526611328 71.76370239257812 75.75914764404297 75.75914764404297 C 71.76370239257812 79.75458526611328 67.11147308349609 82.89131164550781 61.93170166015625 85.08217620849609 C 56.56977462768555 87.35007476806641 50.87312316894531 88.5 45 88.5 Z" stroke="none"/>
                        <path d="M 45 3 C 39.32871246337891 3 33.82865524291992 4.110054016113281 28.65262985229492 6.299339294433594 C 23.65165710449219 8.414573669433594 19.15968322753906 11.44334411621094 15.301513671875 15.301513671875 C 11.44334411621094 19.15968322753906 8.414573669433594 23.65165710449219 6.299339294433594 28.65262985229492 C 4.110054016113281 33.82865524291992 3 39.32871246337891 3 45 C 3 50.67128753662109 4.110054016113281 56.17134475708008 6.299339294433594 61.34737396240234 C 8.414573669433594 66.34834289550781 11.44334411621094 70.84031677246094 15.301513671875 74.698486328125 C 19.15968322753906 78.55665588378906 23.65165710449219 81.58542633056641 28.65262985229492 83.70066070556641 C 33.82865524291992 85.88994598388672 39.32871246337891 87 45 87 C 50.67128753662109 87 56.17134475708008 85.88994598388672 61.34737396240234 83.70066070556641 C 66.34834289550781 81.58542633056641 70.84031677246094 78.55665588378906 74.698486328125 74.698486328125 C 78.55665588378906 70.84031677246094 81.58542633056641 66.34834289550781 83.70066070556641 61.34737396240234 C 85.88994598388672 56.17134475708008 87 50.67128753662109 87 45 C 87 39.32871246337891 85.88994598388672 33.82865524291992 83.70066070556641 28.65262985229492 C 81.58542633056641 23.65165710449219 78.55665588378906 19.15968322753906 74.698486328125 15.301513671875 C 70.84031677246094 11.44334411621094 66.34834289550781 8.414573669433594 61.34737396240234 6.299339294433594 C 56.17134475708008 4.110054016113281 50.67128753662109 3 45 3 M 45 0 C 69.85281372070312 0 90 20.14718627929688 90 45 C 90 69.85281372070312 69.85281372070312 90 45 90 C 20.14718627929688 90 0 69.85281372070312 0 45 C 0 20.14718627929688 20.14718627929688 0 45 0 Z" stroke="none" fill="#3f7776"/>
                      </g>
                    </g>
                    <g transform="matrix(1, 0, 0, 1, -9, -6)" filter="url(#Trazado_1076716)">
                      <g id="Trazado_1076716-2" data-name="Trazado 1076716" transform="translate(9 6)" fill="#f0fbfa">
                        <path d="M 45 88.5 C 39.12687683105469 88.5 33.43022537231445 87.35007476806641 28.06830024719238 85.08217620849609 C 22.88852500915527 82.89131164550781 18.23629951477051 79.75458526611328 14.2408504486084 75.75914764404297 C 10.24541282653809 71.76370239257812 7.108687400817871 67.11147308349609 4.917825222015381 61.93170166015625 C 2.649924993515015 56.56977462768555 1.5 50.87312316894531 1.5 45 C 1.5 39.12687683105469 2.649924993515015 33.43022537231445 4.917825222015381 28.06830024719238 C 7.108687400817871 22.88852500915527 10.24541282653809 18.23629951477051 14.2408504486084 14.2408504486084 C 18.23629951477051 10.24541282653809 22.88852500915527 7.108687400817871 28.06830024719238 4.917825222015381 C 33.43022537231445 2.649924993515015 39.12687683105469 1.5 45 1.5 C 50.87312316894531 1.5 56.56977462768555 2.649924993515015 61.93170166015625 4.917825222015381 C 67.11147308349609 7.108687400817871 71.76370239257812 10.24541282653809 75.75914764404297 14.2408504486084 C 79.75458526611328 18.23629951477051 82.89131164550781 22.88852500915527 85.08217620849609 28.06830024719238 C 87.35007476806641 33.43022537231445 88.5 39.12687683105469 88.5 45 C 88.5 50.87312316894531 87.35007476806641 56.56977462768555 85.08217620849609 61.93170166015625 C 82.89131164550781 67.11147308349609 79.75458526611328 71.76370239257812 75.75914764404297 75.75914764404297 C 71.76370239257812 79.75458526611328 67.11147308349609 82.89131164550781 61.93170166015625 85.08217620849609 C 56.56977462768555 87.35007476806641 50.87312316894531 88.5 45 88.5 Z" stroke="none"/>
                        <path d="M 45 3 C 39.32871246337891 3 33.82865524291992 4.110054016113281 28.65262985229492 6.299339294433594 C 23.65165710449219 8.414573669433594 19.15968322753906 11.44334411621094 15.301513671875 15.301513671875 C 11.44334411621094 19.15968322753906 8.414573669433594 23.65165710449219 6.299339294433594 28.65262985229492 C 4.110054016113281 33.82865524291992 3 39.32871246337891 3 45 C 3 50.67128753662109 4.110054016113281 56.17134475708008 6.299339294433594 61.34737396240234 C 8.414573669433594 66.34834289550781 11.44334411621094 70.84031677246094 15.301513671875 74.698486328125 C 19.15968322753906 78.55665588378906 23.65165710449219 81.58542633056641 28.65262985229492 83.70066070556641 C 33.82865524291992 85.88994598388672 39.32871246337891 87 45 87 C 50.67128753662109 87 56.17134475708008 85.88994598388672 61.34737396240234 83.70066070556641 C 66.34834289550781 81.58542633056641 70.84031677246094 78.55665588378906 74.698486328125 74.698486328125 C 78.55665588378906 70.84031677246094 81.58542633056641 66.34834289550781 83.70066070556641 61.34737396240234 C 85.88994598388672 56.17134475708008 87 50.67128753662109 87 45 C 87 39.32871246337891 85.88994598388672 33.82865524291992 83.70066070556641 28.65262985229492 C 81.58542633056641 23.65165710449219 78.55665588378906 19.15968322753906 74.698486328125 15.301513671875 C 70.84031677246094 11.44334411621094 66.34834289550781 8.414573669433594 61.34737396240234 6.299339294433594 C 56.17134475708008 4.110054016113281 50.67128753662109 3 45 3 M 45 0 C 69.85281372070312 0 90 20.14718627929688 90 45 C 90 69.85281372070312 69.85281372070312 90 45 90 C 20.14718627929688 90 0 69.85281372070312 0 45 C 0 20.14718627929688 20.14718627929688 0 45 0 Z" stroke="none" fill="#3f7776"/>
                      </g>
                    </g>
                  </g>
                </g>
              </g>
            </g>
          </g>
        </g>
      </g>
    </g>
    <g id="filosofia_2_" data-name="filosofia (2)" transform="translate(637 3828)">
      <g id="Grupo_1220392" data-name="Grupo 1220392" transform="translate(9.977 1.443)">
        <g id="Grupo_1220385" data-name="Grupo 1220385" transform="translate(42.126 42.126)">
          <path id="Trazado_1169184" data-name="Trazado 1169184" d="M49.217,39.3a4.434,4.434,0,1,1,0,8.869H47V39.3Z" transform="translate(-47 -39.302)" fill="#f0d0b4"/>
        </g>
        <g id="Grupo_1220386" data-name="Grupo 1220386" transform="translate(6.651 37.692)">
          <path id="Trazado_1169185" data-name="Trazado 1169185" d="M50.475,48.6v2.217a13.3,13.3,0,0,1-13.3,13.3H28.3A13.3,13.3,0,0,1,15,50.822V36.411A1.112,1.112,0,0,1,16.109,35.3H49.366a1.112,1.112,0,0,1,1.109,1.109V48.6Z" transform="translate(-15 -35.302)" fill="#f0d0b4"/>
        </g>
        <g id="Grupo_1220387" data-name="Grupo 1220387" transform="translate(0 42.126)">
          <path id="Trazado_1169186" data-name="Trazado 1169186" d="M15.651,44.845v3.326H13.434a4.434,4.434,0,1,1,0-8.869h2.217Z" transform="translate(-9 -39.302)" fill="#f0d0b4"/>
        </g>
        <g id="Grupo_1220388" data-name="Grupo 1220388" transform="translate(8.869 22.172)">
          <path id="Trazado_1169187" data-name="Trazado 1169187" d="M41.389,26.845h-.144a4.054,4.054,0,0,0,.144-1.109,4.434,4.434,0,1,0-8.869,0,4.434,4.434,0,1,0-8.869,0,4.054,4.054,0,0,0,.144,1.109h-.144a6.657,6.657,0,0,0-5.765,9.977H47.153a6.657,6.657,0,0,0-5.765-9.977Z" transform="translate(-17 -21.302)" fill="#dfb28b"/>
        </g>
        <g id="Grupo_1220389" data-name="Grupo 1220389" transform="translate(24.389 4.434)">
          <path id="Trazado_1169188" data-name="Trazado 1169188" d="M44.3,5.3v5.543a7.754,7.754,0,0,1-7.76,7.76H31l2.14-1.064A8.164,8.164,0,0,0,36.875,6.765a5.9,5.9,0,0,0-.61-1.053l.011-.011a8.034,8.034,0,0,1,2.483-.4Z" transform="translate(-31 -5.302)" fill="#b4dd7f"/>
        </g>
        <g id="Grupo_1220390" data-name="Grupo 1220390" transform="translate(11.086 4.434)">
          <path id="Trazado_1169189" data-name="Trazado 1169189" d="M30.163,17.541,32.3,18.6H26.76A7.754,7.754,0,0,1,19,10.845V5.3h5.543a8.034,8.034,0,0,1,2.483.4l.011.011a8.06,8.06,0,0,0-1.386,4.523,8.182,8.182,0,0,0,4.512,7.306Z" transform="translate(-19 -5.302)" fill="#b4dd7f"/>
        </g>
        <g id="Grupo_1220391" data-name="Grupo 1220391" transform="translate(17.737)">
          <path id="Trazado_1169190" data-name="Trazado 1169190" d="M31.651,19.039l-2.14-1.064A8.182,8.182,0,0,1,25,10.67a8.06,8.06,0,0,1,1.386-4.523,7.5,7.5,0,0,1,1.552-1.752L31.651,1.3l3.714,3.093a7.5,7.5,0,0,1,1.552,1.752,5.9,5.9,0,0,1,.61,1.053,8.164,8.164,0,0,1-3.736,10.775Z" transform="translate(-25 -1.302)" fill="#a0d468"/>
        </g>
      </g>
      <g id="Grupo_1220393" data-name="Grupo 1220393" transform="translate(0 0)">
        <path id="Trazado_1169191" data-name="Trazado 1169191" d="M24.434,44.736A4.439,4.439,0,0,0,28.869,40.3H26.651a2.217,2.217,0,1,1-4.434,0H20A4.439,4.439,0,0,0,24.434,44.736Z" transform="translate(2.172 4.376)"/>
        <path id="Trazado_1169192" data-name="Trazado 1169192" d="M38.434,44.736A4.439,4.439,0,0,0,42.869,40.3H40.651a2.217,2.217,0,1,1-4.434,0H34A4.439,4.439,0,0,0,38.434,44.736Z" transform="translate(3.692 4.376)"/>
        <path id="Trazado_1169193" data-name="Trazado 1169193" d="M26,55.953h6.651A6.658,6.658,0,0,0,39.3,49.3H37.086a4.439,4.439,0,0,1-4.434,4.434H26Z" transform="translate(2.823 5.353)"/>
        <path id="Trazado_1169194" data-name="Trazado 1169194" d="M53.452,42.461H52.343V40.244a2.219,2.219,0,0,0-2.217-2.217h-.335a7.714,7.714,0,0,0-6.326-9.89c0-.03.009-.058.009-.088a5.549,5.549,0,0,0-5.543-5.543,5.486,5.486,0,0,0-3.326,1.137V20.289H39.04a8.879,8.879,0,0,0,8.869-8.869V4.769H41.257a8.817,8.817,0,0,0-2.028.263,9.363,9.363,0,0,0-1.307-1.346L33.5,0,29.073,3.686a9.248,9.248,0,0,0-1.307,1.346,8.834,8.834,0,0,0-2.029-.263H19.086v6.651a8.879,8.879,0,0,0,8.869,8.869h4.434v3.355a5.486,5.486,0,0,0-3.326-1.137,5.549,5.549,0,0,0-5.543,5.543c0,.03.009.058.009.088a7.714,7.714,0,0,0-6.326,9.89h-.335a2.219,2.219,0,0,0-2.217,2.217v2.217H13.543a5.543,5.543,0,1,0,0,11.086h1.109v1.109A14.428,14.428,0,0,0,29.063,69.067h8.869A14.428,14.428,0,0,0,52.343,54.655V53.547h1.109a5.543,5.543,0,1,0,0-11.086ZM37.932,24.724A3.326,3.326,0,1,1,37.1,31.27l-.552,2.148a5.534,5.534,0,0,0,6.424-3.091,5.507,5.507,0,0,1,4.47,7.7H45.692a4.439,4.439,0,0,0-4.434-4.434v2.217a2.219,2.219,0,0,1,2.217,2.217H34.606V28.049A3.329,3.329,0,0,1,37.932,24.724ZM41.257,6.986h4.434v4.434a6.658,6.658,0,0,1-6.651,6.651H37.72a9.174,9.174,0,0,0,3.189-4.736l3.349-3.349L42.691,8.42,41.208,9.9a9.234,9.234,0,0,0-.753-2.852,6.676,6.676,0,0,1,.8-.064ZM30.493,5.39l3-2.5,3,2.5A7.053,7.053,0,0,1,35.14,17.119l-.534.268v-4.4l3-3L36.039,8.42,34.606,9.853V6.986H32.389V12.07l-1.433-1.433L29.388,12.2l3,3v2.182l-.534-.267A7.055,7.055,0,0,1,30.493,5.39ZM21.3,11.421V6.986h4.434a6.676,6.676,0,0,1,.8.064A9.266,9.266,0,0,0,25.787,9.9L24.3,8.42,22.736,9.987l3.349,3.349a9.178,9.178,0,0,0,3.189,4.736h-1.32A6.659,6.659,0,0,1,21.3,11.421ZM19.086,35.809a5.532,5.532,0,0,1,4.938-5.482,5.534,5.534,0,0,0,6.424,3.091L29.9,31.27a3.326,3.326,0,1,1,2.493-3.22v9.977H23.52a2.219,2.219,0,0,1,2.217-2.217V33.592A4.439,4.439,0,0,0,21.3,38.027H19.554a5.551,5.551,0,0,1-.468-2.217ZM13.543,51.33a3.326,3.326,0,1,1,0-6.651h1.109v2.363l-1.6-1.069L11.82,47.818l2.831,1.888V51.33Zm36.583,3.326A12.209,12.209,0,0,1,37.932,66.85H29.063A12.209,12.209,0,0,1,16.869,54.655V40.244l33.257,0Zm3.326-3.326H52.343V49.705l2.832-1.888-1.229-1.845-1.6,1.068V44.677h1.109a3.326,3.326,0,0,1,0,6.653Z" transform="translate(0.869 0)"/>
        <path id="Trazado_1169195" data-name="Trazado 1169195" d="M0,28.3H4.434v2.217H0Z" transform="translate(0 3.073)"/>
        <path id="Trazado_1169196" data-name="Trazado 1169196" d="M6,28.3h6.651v2.217H6Z" transform="translate(0.651 3.073)"/>
        <path id="Trazado_1169197" data-name="Trazado 1169197" d="M0,0H2.216V13.3H0Z" transform="matrix(0.195, -0.981, 0.981, 0.195, 0.448, 26.863)"/>
        <path id="Trazado_1169198" data-name="Trazado 1169198" d="M0,0H2.217V4.435H0Z" transform="translate(2.195 20.36) rotate(-67.486)"/>
        <path id="Trazado_1169199" data-name="Trazado 1169199" d="M0,0H2.217V6.651H0Z" transform="translate(8.343 22.903) rotate(-67.486)"/>
        <path id="Trazado_1169200" data-name="Trazado 1169200" d="M0,0H2.217V4.434H0Z" transform="translate(9.28 8.968) rotate(-45)"/>
        <path id="Trazado_1169201" data-name="Trazado 1169201" d="M0,0H2.217V6.653H0Z" transform="translate(13.982 13.67) rotate(-45)"/>
        <path id="Trazado_1169202" data-name="Trazado 1169202" d="M0,0H13.3V2.216H0Z" transform="matrix(0.981, -0.195, 0.195, 0.981, 0.441, 38.109)"/>
        <path id="Trazado_1169203" data-name="Trazado 1169203" d="M0,0H2.216V13.3H0Z" transform="matrix(0.556, -0.832, 0.832, 0.556, 5.187, 14.311)"/>
        <path id="Trazado_1169204" data-name="Trazado 1169204" d="M58,28.3h4.434v2.217H58Z" transform="translate(6.298 3.073)"/>
        <path id="Trazado_1169205" data-name="Trazado 1169205" d="M50,28.3h6.651v2.217H50Z" transform="translate(5.429 3.073)"/>
        <path id="Trazado_1169206" data-name="Trazado 1169206" d="M0,0H13.3V2.216H0Z" transform="matrix(0.981, -0.195, 0.195, 0.981, 54.818, 27.296)"/>
        <path id="Trazado_1169207" data-name="Trazado 1169207" d="M0,0H4.435V2.217H0Z" transform="translate(61.608 19.991) rotate(-22.514)"/>
        <path id="Trazado_1169208" data-name="Trazado 1169208" d="M0,0H6.651V2.217H0Z" transform="translate(53.414 23.394) rotate(-22.514)"/>
        <path id="Trazado_1169209" data-name="Trazado 1169209" d="M0,0H4.434V2.217H0Z" transform="translate(54.74 10.539) rotate(-45)"/>
        <path id="Trazado_1169210" data-name="Trazado 1169210" d="M0,0H6.653V2.217H0Z" transform="translate(48.469 16.81) rotate(-45)"/>
        <path id="Trazado_1169211" data-name="Trazado 1169211" d="M0,0H2.216V13.3H0Z" transform="matrix(0.195, -0.981, 0.981, 0.195, 54.811, 37.665)"/>
        <path id="Trazado_1169212" data-name="Trazado 1169212" d="M0,0H13.3V2.216H0Z" transform="matrix(0.832, -0.556, 0.556, 0.832, 51.298, 19.847)"/>
      </g>
    </g>
  </g>
</svg>
