<svg xmlns="http://www.w3.org/2000/svg" width="95.18" height="113" viewBox="0 0 95.18 113">
  <g id="Grupo_1220397" data-name="Grupo 1220397" transform="translate(-172 -4697)">
    <rect id="Rectángulo_420017" data-name="Rectángulo 420017" width="66" height="113" transform="translate(172 4697)" fill="#cdcde2"/>
    <g id="Grupo_1220396" data-name="Grupo 1220396" transform="translate(181.017 4713.93)">
      <path id="Trazado_1169213" data-name="Trazado 1169213" d="M83.99,16a37.466,37.466,0,0,1,37.465,37.221.972.972,0,0,0,.113.461L131.3,72.5a3.05,3.05,0,0,1-.33,3.4,4.334,4.334,0,0,1-3.533,1.625h-4.966a1.018,1.018,0,0,0-1.016,1.016v12.11a9.685,9.685,0,0,1-9.666,9.666h-3.421c-2.366,0-3.949,1.956-4.3,4.3l-1.2,8.072a1.011,1.011,0,0,1-1.005.867H63.349a1.016,1.016,0,0,1-1.012-1.1l1.57-18.092c.471-5.428-1.993-10.137-5.915-13.918A37.464,37.464,0,0,1,83.99,16Z" transform="translate(-46.525 -18)" fill="#ffdec2" fill-rule="evenodd"/>
      <g id="Grupo_1220395" data-name="Grupo 1220395" transform="translate(12.08 9.307)">
        <path id="Trazado_1169214" data-name="Trazado 1169214" d="M235.631,81.8a2.623,2.623,0,1,1,2.623-2.623A2.629,2.629,0,0,1,235.631,81.8Z" transform="translate(-203.088 -76.557)" fill="#f79595" fill-rule="evenodd"/>
        <path id="Trazado_1169215" data-name="Trazado 1169215" d="M193.069,276.361a2.623,2.623,0,1,0-3.584.96A2.624,2.624,0,0,0,193.069,276.361Z" transform="translate(-149.142 -232.618)" fill="#dbd2fd" fill-rule="evenodd"/>
        <path id="Trazado_1169216" data-name="Trazado 1169216" d="M380.57,217.252a2.623,2.623,0,1,0,.96-3.584A2.623,2.623,0,0,0,380.57,217.252Z" transform="translate(-380.218 -185.522)" fill="#a6e7f0" fill-rule="evenodd"/>
        <path id="Trazado_1169217" data-name="Trazado 1169217" d="M255.036,180.9a6.657,6.657,0,1,1,6.657-6.657A6.669,6.669,0,0,1,255.036,180.9Z" transform="translate(-229.65 -149.088)" fill="#fdba53" fill-rule="evenodd"/>
      </g>
    </g>
    <path id="Trazado_1169218" data-name="Trazado 1169218" d="M74.363,49.481a5.641,5.641,0,1,1,5.642,5.642A5.647,5.647,0,0,1,74.363,49.481Zm-2.032,0a7.673,7.673,0,1,0,7.674-7.672,7.683,7.683,0,0,0-7.674,7.672ZM63.537,65.744c-3.477,0-5.94-.919-6.926-2.628a5.816,5.816,0,0,1-.015-4.794,3.7,3.7,0,0,0,.653.059A3.64,3.64,0,0,0,60.4,52.922a3.983,3.983,0,0,0-.285-.417q.637-.78,1.352-1.559a56.1,56.1,0,0,0,6.622,5.546,55.966,55.966,0,0,0,1.5,8.518,28.423,28.423,0,0,1-6.043.734Zm8.565.723A55.95,55.95,0,0,0,80.229,63.5a56.366,56.366,0,0,0,8.123,2.959c-2.044,6.475-5.148,10.29-8.125,10.29S74.146,72.939,72.1,66.467ZM90.876,65a55.816,55.816,0,0,0,1.494-8.508,56.4,56.4,0,0,0,6.618-5.547q.981,1.067,1.815,2.136c3.223,4.138,4.331,7.8,3.038,10.036A5.821,5.821,0,0,1,99.7,65.525a3.636,3.636,0,0,0-6.573-.59,3.393,3.393,0,0,0-.217.455C92.242,65.283,91.565,65.151,90.876,65Zm4.006.953a1.607,1.607,0,1,0,2.2-.587,1.593,1.593,0,0,0-.8-.215,1.609,1.609,0,0,0-1.394.8ZM100.8,45.884q-.833,1.067-1.815,2.136a56.426,56.426,0,0,0-6.62-5.548,56.5,56.5,0,0,0-1.5-8.518c6.629-1.467,11.483-.687,12.973,1.894C105.134,38.087,104.026,41.743,100.8,45.884ZM88.338,32.5a56.15,56.15,0,0,0-8.111,2.959A56.238,56.238,0,0,0,72.1,32.5c2.044-6.471,5.146-10.284,8.125-10.284A5.823,5.823,0,0,1,84.385,24.6a3.635,3.635,0,0,0,2.776,5.988,3.429,3.429,0,0,0,.5-.039q.359.942.674,1.953Zm.431-5.552a1.608,1.608,0,1,0-1.608,1.606,1.609,1.609,0,0,0,1.608-1.606ZM67.736,49.481q0-2.2.13-4.317a52.476,52.476,0,0,0-5,4.325,51.858,51.858,0,0,0,5,4.323q-.128-2.115-.13-4.331Zm6.246-10.816Q75.9,37.558,77.8,36.612a51.916,51.916,0,0,0-6.256-2.173,51.827,51.827,0,0,0-1.244,6.5q1.779-1.177,3.685-2.278Zm12.488,0q1.9,1.095,3.673,2.272A52.266,52.266,0,0,0,88.9,34.443a51.62,51.62,0,0,0-6.241,2.169Q84.552,37.56,86.47,38.664Zm6.246,10.816q0,2.207-.13,4.319a52.145,52.145,0,0,0,4.991-4.319,52.834,52.834,0,0,0-4.991-4.317c.087,1.417.13,2.86.13,4.317ZM86.47,60.3q-1.908,1.1-3.8,2.044a52.242,52.242,0,0,0,6.245,2.167,51.639,51.639,0,0,0,1.242-6.491Q88.374,59.2,86.47,60.3Zm-12.488,0q-1.915-1.107-3.685-2.278a51.726,51.726,0,0,0,1.244,6.5A51.575,51.575,0,0,0,77.8,62.35C76.522,61.716,75.247,61.031,73.982,60.3Zm-3.967-4.922c1.543,1.075,3.2,2.134,4.983,3.162,1.742,1,3.493,1.914,5.238,2.729,1.7-.8,3.443-1.705,5.219-2.729q2.614-1.509,4.985-3.171c.159-1.87.244-3.835.244-5.888,0-2.008-.087-3.979-.251-5.892-1.575-1.1-3.24-2.16-4.978-3.164-1.778-1.026-3.526-1.937-5.227-2.736q-2.555,1.2-5.229,2.736c-1.742,1.006-3.408,2.067-4.983,3.168q-.241,2.808-.246,5.888c0,2.055.085,4.024.246,5.9ZM69.58,33.953a56.227,56.227,0,0,0-1.5,8.52,56.378,56.378,0,0,0-6.626,5.552c-4.586-5.006-6.335-9.6-4.845-12.178S62.952,32.488,69.58,33.953ZM57.659,53.19a1.638,1.638,0,0,0-.418-.055,1.609,1.609,0,1,0,.418.055Zm5.867,14.58a30.621,30.621,0,0,0,6.611-.813c2.254,7.219,5.9,11.827,10.09,11.827s7.836-4.609,10.091-11.829q1.213.274,2.38.459a3.64,3.64,0,0,0,7.126.151c2.75-.457,4.739-1.632,5.778-3.433,1.754-3.036.618-7.406-3.194-12.3q-.919-1.174-2-2.349,1.083-1.171,2-2.35c3.813-4.9,4.948-9.264,3.194-12.3-2.1-3.63-7.908-4.484-15.288-2.825q-.369-1.189-.792-2.292a3.637,3.637,0,0,0-3.432-6.244c-1.77-2.154-3.785-3.29-5.862-3.29-4.191,0-7.836,4.608-10.09,11.826-7.378-1.658-13.191-.8-15.286,2.825s.071,9.089,5.2,14.652q-.844.915-1.59,1.831c-.089-.03-.181-.063-.272-.087a3.639,3.639,0,0,0-4.095,5.335,3.576,3.576,0,0,0,.679.848c-.982,2.609-.958,4.922.081,6.723,1.415,2.451,4.528,3.638,8.675,3.638Zm-22-18.29A38.163,38.163,0,0,0,53.3,77.188c4.073,3.925,6.012,8.455,5.61,13.1l-1.666,19.2a1.015,1.015,0,1,0,2.023.175l1.667-19.194c.46-5.278-1.693-10.373-6.221-14.739A36.447,36.447,0,0,1,80.005,13.032,36.624,36.624,0,0,1,116.448,48.8a3.927,3.927,0,0,0,.451,1.793l9.513,18.391a2.046,2.046,0,0,1-.233,2.315,3.328,3.328,0,0,1-2.728,1.229H119.5a3.051,3.051,0,0,0-3.049,3.047V86.669a8.659,8.659,0,0,1-8.65,8.649h-3.421c-2.713,0-4.843,2.075-5.3,5.164l-1.326,8.938a1.016,1.016,0,0,0,.856,1.154,1.2,1.2,0,0,0,.15.011,1.017,1.017,0,0,0,1-.868l1.326-8.938c.251-1.705,1.368-3.429,3.29-3.429H107.8a10.694,10.694,0,0,0,10.682-10.682V75.574a1.017,1.017,0,0,1,1.017-1.014h3.948a5.318,5.318,0,0,0,4.339-2.022,4.065,4.065,0,0,0,.427-4.487L118.706,49.66a1.911,1.911,0,0,1-.226-.9,38.482,38.482,0,0,0-76.958.719Z" transform="translate(138.478 4698.914)" fill-rule="evenodd"/>
  </g>
</svg>
