<svg xmlns="http://www.w3.org/2000/svg" xmlns:xlink="http://www.w3.org/1999/xlink" width="797.901" height="429.345" viewBox="0 0 797.901 429.345">
  <defs>
    <clipPath id="clip-path">
      <path id="Trazado_1168859" data-name="Trazado 1168859" d="M422.064,276.786h-.009a20.779,20.779,0,0,0-.046-4.224,356.715,356.715,0,0,1-1.187-35.924,13.44,13.44,0,0,0,5.537-4.9c2.776,3.569,7.347,11.442,11.268,14.571,10.882,12.2,15.573,20.942,26.909,28.827,5.823,6.967,13.823,12.567,21.735,17.221,7.56,4.447,15.75,8.643,22.947,13.823,2.327,1.852,4.413,3.535,6.143,4.943a45.913,45.913,0,0,1,7.613,8.8c3.657-1.747,7.8-2.345,11.683-3.5-.9-16.288-12.412-30.044-25-40.417-8.037-6.622-16.8-12.48-24.8-19.109-4.089-4.812-6.695-8-6.695-8s-9.881-14.615-16.472-25.34c-2.97-4.834-5.625-10.4-8.766-15.854-3.495-8.555-7.557-17.427-15.194-24.068-11.356-9.875-30.142-11.356-30.142-11.356-5.175,8.661-27.132,8.661-32.307,0,0,0-18.111,1.481-29.467,11.356S331,208.326,325.566,219.683s-13.727,26.927-13.727,26.927-2.257,3.441-5.82,8.654c-7.264,7.432-15.363,14.174-22.663,21.6-11.435,11.635-21.439,26.521-20.632,42.814,3.985.741,8.165.9,11.986,2.256a45.871,45.871,0,0,1,6.649-9.554c1.573-1.583,3.471-3.474,5.591-5.559,6.613-5.905,14.32-10.937,21.373-16.151,7.381-5.458,14.75-11.866,19.812-19.4,12.379-10.7,17.14-25.106,31.269-42.327.964,2.99,1.863,6.8,5.508,8.7.5,11.17,1.282,21.271.123,32.392a25.033,25.033,0,0,0-.073,6.748h-.208s-73.807,23.22-89.618,45.1-15.089,39.742-9.2,49.565,42.274,21.881,87.607,19.647,76.591-5.264,95.792.271,23.667,6.075,24.113,0-4.912-12.773-4.912-12.773,24.282.894,42.283-7.144,24.311-20.094,21.7-37.062S484.992,291.523,422.064,276.786Z" transform="translate(-262.077 -172.282)"/>
    </clipPath>
    <clipPath id="clip-path-8">
      <path id="Trazado_1168880" data-name="Trazado 1168880" d="M382.857,163.8h-5.034a32.94,32.94,0,0,1-32.94-32.94v-30.2a32.94,32.94,0,0,1,32.94-32.94h5.034a32.94,32.94,0,0,1,32.94,32.94v30.2A32.94,32.94,0,0,1,382.857,163.8Z" transform="translate(-344.883 -67.723)" opacity="0.5"/>
    </clipPath>
    <filter id="Trazado_1171135" x="617.326" y="76.174" width="32" height="32" filterUnits="userSpaceOnUse">
      <feOffset dy="3" input="SourceAlpha"/>
      <feGaussianBlur stdDeviation="3" result="blur"/>
      <feFlood flood-opacity="0.161"/>
      <feComposite operator="in" in2="blur"/>
      <feComposite in="SourceGraphic"/>
    </filter>
    <filter id="Trazado_1171138" x="617.326" y="214.174" width="32" height="32" filterUnits="userSpaceOnUse">
      <feOffset dy="3" input="SourceAlpha"/>
      <feGaussianBlur stdDeviation="3" result="blur-2"/>
      <feFlood flood-opacity="0.161"/>
      <feComposite operator="in" in2="blur-2"/>
      <feComposite in="SourceGraphic"/>
    </filter>
    <filter id="Trazado_1171141" x="215.575" y="214.174" width="32" height="32" filterUnits="userSpaceOnUse">
      <feOffset dy="3" input="SourceAlpha"/>
      <feGaussianBlur stdDeviation="3" result="blur-3"/>
      <feFlood flood-opacity="0.161"/>
      <feComposite operator="in" in2="blur-3"/>
      <feComposite in="SourceGraphic"/>
    </filter>
    <filter id="Trazado_1171144" x="215.575" y="76.174" width="32" height="32" filterUnits="userSpaceOnUse">
      <feOffset dy="3" input="SourceAlpha"/>
      <feGaussianBlur stdDeviation="3" result="blur-4"/>
      <feFlood flood-opacity="0.161"/>
      <feComposite operator="in" in2="blur-4"/>
      <feComposite in="SourceGraphic"/>
    </filter>
  </defs>
  <g id="Grupo_1221024" data-name="Grupo 1221024" transform="translate(-402 -7075)">
    <path id="Trazado_1171134" data-name="Trazado 1171134" d="M207.663,0C322.352,0,415.326,92.974,415.326,207.663S322.352,415.326,207.663,415.326,0,322.352,0,207.663,92.974,0,207.663,0Z" transform="translate(643.575 7075)" fill="#f5def4"/>
    <g id="Grupo_1220192" data-name="Grupo 1220192" transform="translate(705.512 7128.021)">
      <g id="Grupo_1220191" data-name="Grupo 1220191" transform="translate(0 0)">
        <g id="Grupo_1220190" data-name="Grupo 1220190" transform="translate(0 0)">
          <g id="Grupo_1220188" data-name="Grupo 1220188" transform="translate(0 25.844)">
            <path id="Trazado_1168855" data-name="Trazado 1168855" d="M436.215,127.807c-.663-10.132-1.213-19.378-1.405-24.737V99.848c0-38.834-40.7-42.263-49.615-42.549v-.023s-.3-.006-.856,0c-.553-.008-.856,0-.856,0V57.3c-8.912.285-49.615,3.714-49.615,42.549,0,.729-.022,1.7-.061,2.855l-.247-.021c-2.145,25.025-7.269,66.211-11.889,70.2l2.166,2.509c1.594-1.377,3.889-5.306,6.779-21.791-.881,12.366-1.6,21.9-1.6,21.9s17.552.669,22.466.013l2.057.687,1.616-4.834,4.792,5.574,3.35-2.88-2.338-2.72h21.8l1.573-73.868,1.573,73.868h21.345l-1.078,3.7,3.182.928,1.348-4.624h6.3v4.16c4.77.679,22.575,0,22.575,0s-.685-9.12-1.54-21.09c2.5,10.506,5.368,19.076,8.343,21.1l1.865-2.739C445.97,171.215,441.113,157.578,436.215,127.807Z" transform="translate(-246.798 -57.274)" fill="#7129a3"/>
            <path id="Trazado_1168856" data-name="Trazado 1168856" d="M382.857,163.8h-5.034a32.94,32.94,0,0,1-32.94-32.94v-30.2a32.94,32.94,0,0,1,32.94-32.94h5.034a32.94,32.94,0,0,1,32.94,32.94v30.2A32.94,32.94,0,0,1,382.857,163.8Z" transform="translate(-244.37 -56.181)" fill="#ffcae3"/>
            <rect id="Rectángulo_418620" data-name="Rectángulo 418620" width="32.307" height="78.69" transform="translate(122.244 82.723)" fill="#ffcae3"/>
            <path id="Trazado_1168857" data-name="Trazado 1168857" d="M422.064,276.786h-.009a20.779,20.779,0,0,0-.046-4.224,356.715,356.715,0,0,1-1.187-35.924,13.44,13.44,0,0,0,5.537-4.9c2.776,3.569,7.347,11.442,11.268,14.571,10.882,12.2,15.573,20.942,26.909,28.827,5.823,6.967,13.823,12.567,21.735,17.221,7.56,4.447,15.75,8.643,22.947,13.823,2.327,1.852,4.413,3.535,6.143,4.943a45.913,45.913,0,0,1,7.613,8.8c3.657-1.747,7.8-2.345,11.683-3.5-.9-16.288-12.412-30.044-25-40.417-8.037-6.622-16.8-12.48-24.8-19.109-4.089-4.812-6.695-8-6.695-8s-9.881-14.615-16.472-25.34c-2.97-4.834-5.625-10.4-8.766-15.854-3.495-8.555-7.557-17.427-15.194-24.068-11.356-9.875-30.142-11.356-30.142-11.356-5.175,8.661-6.3,15.58-5.668,21.864h-20.3c.631-6.284-1.168-13.2-6.343-21.864,0,0-18.111,1.481-29.467,11.356S331,208.326,325.566,219.683s-13.727,26.927-13.727,26.927-2.257,3.441-5.82,8.654c-7.264,7.432-15.363,14.174-22.663,21.6-11.435,11.635-21.439,26.521-20.632,42.814,3.985.741,8.165.9,11.986,2.256a45.872,45.872,0,0,1,6.649-9.554c1.573-1.583,3.471-3.474,5.591-5.559,6.613-5.905,14.32-10.937,21.373-16.151,7.381-5.458,14.75-11.866,19.812-19.4,12.379-10.7,17.14-25.106,31.269-42.327.964,2.99,1.863,6.8,5.507,8.7.5,11.17,1.282,21.271.123,32.392a25.032,25.032,0,0,0-.073,6.748h-.208s-73.807,23.22-89.618,45.1-15.089,39.742-9.2,49.565,42.274,21.881,87.607,19.647,76.591-5.264,95.792.271,23.667,6.075,24.113,0-4.912-12.773-4.912-12.773,24.282.894,42.283-7.144,24.311-20.094,21.7-37.062S484.992,291.523,422.064,276.786Z" transform="translate(-253.031 -45.245)" fill="#ffcae3"/>
            <g id="Grupo_1220179" data-name="Grupo 1220179" transform="translate(9.046 127.037)">
              <g id="Grupo_1220172" data-name="Grupo 1220172" clip-path="url(#clip-path)">
                <path id="Trazado_1168858" data-name="Trazado 1168858" d="M365.585,266.891h-26l-70.261,46.774L254.1,378.7l55.742,17.518,44.534-10.389s-6.372-24.393,4.405-57.839c0,0-17.838-1.858-31.959-.371,0,0,5.574-1.487,12.263-8.547s12.635-9.291,18.953-5.2,23.783,12.263,45.337,7.8,28.986-7.433,28.986-7.433,10.776,18.953,5.2,33.817a57.309,57.309,0,0,1,18.953,9.291A118.26,118.26,0,0,1,469.37,368.7l15.76,13.918,58.343-31.587-13.317-35.741-21.987-17.4-58.716-31H365.585Z" transform="translate(-262.911 -162.387)" fill="#442faf"/>
              </g>
              <g id="Grupo_1220173" data-name="Grupo 1220173" clip-path="url(#clip-path)">
                <path id="Trazado_1168860" data-name="Trazado 1168860" d="M358.019,223.578s-13.8,8.408-29.863,27.64S280.6,294.794,275.282,313.18L285,306.2l59.056-39.087Z" transform="translate(-260.695 -166.917)" fill="#231f20" opacity="0.5"/>
              </g>
              <g id="Grupo_1220174" data-name="Grupo 1220174" clip-path="url(#clip-path)">
                <path id="Trazado_1168862" data-name="Trazado 1168862" d="M410.8,226.106s12.418,5.615,28.481,24.848,58.972,32.983,65.763,59.418l-13.357-9.23-68.306-34.3Z" transform="translate(-246.521 -166.652)" fill="#231f20" opacity="0.5"/>
              </g>
              <g id="Grupo_1220175" data-name="Grupo 1220175" clip-path="url(#clip-path)">
                <path id="Trazado_1168864" data-name="Trazado 1168864" d="M344.174,172.282s40.629,22.256,92.654,7.392l21.305,38.647s-17.468,21.305-39.205,20.315l-2.394,38.15a51.644,51.644,0,0,1-27.521,8.109c-16.1,0-29.792-8.109-29.792-8.109l-6.8-40.628s-25.091-7.928-37.478-26.261C314.941,209.9,334.76,174.8,344.174,172.282Z" transform="translate(-256.547 -172.282)" fill="#ff83d3"/>
              </g>
              <g id="Grupo_1220176" data-name="Grupo 1220176" clip-path="url(#clip-path)">
                <path id="Trazado_1168866" data-name="Trazado 1168866" d="M340.406,176.282s44.279,23.335,92.654,7.392" transform="translate(-253.884 -171.864)" fill="none" stroke="#db35a8" stroke-miterlimit="10" stroke-width="8"/>
              </g>
              <g id="Grupo_1220177" data-name="Grupo 1220177" clip-path="url(#clip-path)">
                <path id="Trazado_1168868" data-name="Trazado 1168868" d="M379.461,231.258a49.049,49.049,0,0,1-13.351,23.059" transform="translate(-251.196 -166.114)" fill="none" stroke="#db35a8" stroke-miterlimit="10" stroke-width="3"/>
              </g>
              <g id="Grupo_1220178" data-name="Grupo 1220178" clip-path="url(#clip-path)">
                <path id="Trazado_1168870" data-name="Trazado 1168870" d="M382.375,239.47a199.8,199.8,0,0,0-3.835,24.414" transform="translate(-249.895 -165.255)" fill="none" stroke="#db35a8" stroke-miterlimit="10" stroke-width="3"/>
              </g>
            </g>
            <circle id="Elipse_14318" data-name="Elipse 14318" cx="7.969" cy="7.969" r="7.969" transform="translate(92.407 60.644)" fill="#ffcae3"/>
            <circle id="Elipse_14319" data-name="Elipse 14319" cx="7.969" cy="7.969" r="7.969" transform="translate(163.458 60.644)" fill="#ffcae3"/>
            <g id="Grupo_1220180" data-name="Grupo 1220180" transform="translate(115.017 56.771)">
              <path id="Trazado_1168872" data-name="Trazado 1168872" d="M358.064,108.67c1.071.842,1.964,1.572,2.828,2.193a11.22,11.22,0,0,0,2.483,1.4,8.187,8.187,0,0,0,2.688.589c.127.01.257.032.39.051l.4-.008c.273,0,.558.009.855.025a17.112,17.112,0,0,1,1.909.014,7.265,7.265,0,0,1-1.337,1.509c-.272.192-.558.379-.854.552a3.344,3.344,0,0,1-.948.427,6.014,6.014,0,0,1-4.328-.081,6.6,6.6,0,0,1-3.224-2.779A6.1,6.1,0,0,1,358.064,108.67Z" transform="translate(-358.013 -108.67)" fill="#160b82"/>
            </g>
            <g id="Grupo_1220181" data-name="Grupo 1220181" transform="translate(144.855 56.917)">
              <path id="Trazado_1168873" data-name="Trazado 1168873" d="M396.58,108.8a6.6,6.6,0,0,1-1.182,3.673,7.591,7.591,0,0,1-3.024,2.634,6.118,6.118,0,0,1-4.21.382,5.12,5.12,0,0,1-3.138-2.426,21.113,21.113,0,0,0,3.389-.168,9.677,9.677,0,0,0,2.564-.793,25.474,25.474,0,0,0,2.57-1.453C394.46,110.083,395.415,109.459,396.58,108.8Z" transform="translate(-385.026 -108.802)" fill="#160b82"/>
            </g>
            <g id="Grupo_1220182" data-name="Grupo 1220182" transform="translate(149.977 41.771)">
              <path id="Trazado_1168874" data-name="Trazado 1168874" d="M389.663,95.945a6.414,6.414,0,0,1,4.579-.727,9.234,9.234,0,0,1,4.277,2.064,10.324,10.324,0,0,1,2.759,3.742,9.037,9.037,0,0,1,.758,4.48c-1.134-1.076-2.036-2.118-2.951-3.074a35.644,35.644,0,0,0-2.716-2.629,20.765,20.765,0,0,0-6.7-3.857Z" transform="translate(-389.663 -95.09)" fill="#7129a3"/>
            </g>
            <g id="Grupo_1220183" data-name="Grupo 1220183" transform="translate(110.013 42.499)">
              <path id="Trazado_1168875" data-name="Trazado 1168875" d="M364.869,95.823c-1.291,1.075-2.409,2.018-3.435,3.02a33.788,33.788,0,0,0-2.824,3.082,34.713,34.713,0,0,0-2.425,3.4c-.765,1.212-1.457,2.5-2.246,3.986a8.514,8.514,0,0,1-.168-4.967,11.773,11.773,0,0,1,6.206-7.655A8.566,8.566,0,0,1,364.869,95.823Z" transform="translate(-353.483 -95.749)" fill="#7129a3"/>
            </g>
            <path id="Trazado_1168876" data-name="Trazado 1168876" d="M348.87,322.207s22.571,1.68,37.959,11.869,25,11.3,40.823,8.2" transform="translate(-243.953 -29.565)" fill="none" stroke="#ea83a8" stroke-miterlimit="10" stroke-width="2"/>
            <path id="Trazado_1168877" data-name="Trazado 1168877" d="M461.145,301.076s-17.782,0-45.663,9.591" transform="translate(-236.986 -31.775)" fill="none" stroke="#442faf" stroke-miterlimit="10" stroke-width="2"/>
            <path id="Trazado_1168878" data-name="Trazado 1168878" d="M303.6,322.345s26.223-3.291,50.008,0" transform="translate(-248.688 -29.703)" fill="none" stroke="#442faf" stroke-miterlimit="10" stroke-width="2"/>
            <path id="Trazado_1168879" data-name="Trazado 1168879" d="M364.556,153.14s17.295,6.695,32.307-2.227v10.326s-10.81,10.046-32.307,0Z" transform="translate(-242.312 -47.48)" fill="#ea83a8" opacity="0.5"/>
            <g id="Grupo_1220186" data-name="Grupo 1220186" transform="translate(100.513 11.542)" opacity="0.5">
              <g id="Grupo_1220184" data-name="Grupo 1220184" clip-path="url(#clip-path-8)">
                <circle id="Elipse_14320" data-name="Elipse 14320" cx="14.522" cy="14.522" r="14.522" transform="translate(47.41 50.23)" fill="#ea83a8"/>
              </g>
              <g id="Grupo_1220185" data-name="Grupo 1220185" clip-path="url(#clip-path-8)">
                <circle id="Elipse_14321" data-name="Elipse 14321" cx="14.522" cy="14.522" r="14.522" transform="translate(-5.263 50.23)" fill="#ea83a8"/>
              </g>
            </g>
            <path id="Trazado_1168882" data-name="Trazado 1168882" d="M376.348,104.8l.7,14.076s6.16-.7,6.861,4.9-6.861,6.656-6.861,6.656" transform="translate(-241.079 -52.304)" fill="none" stroke="#ea83a8" stroke-miterlimit="10" stroke-width="2"/>
            <path id="Trazado_1168883" data-name="Trazado 1168883" d="M392.473,126.6s-1.523,12.283-15.742,11.725" transform="translate(-241.039 -50.024)" fill="none" stroke="#ea83a8" stroke-miterlimit="10" stroke-width="2"/>
            <path id="Trazado_1168884" data-name="Trazado 1168884" d="M444.9,365.258a28.43,28.43,0,0,0,8.681,1.073" transform="translate(-233.909 -25.062)" fill="none" stroke="#ea83a8" stroke-miterlimit="10" stroke-width="2"/>
            <path id="Trazado_1168885" data-name="Trazado 1168885" d="M444.888,369.852a54.3,54.3,0,0,0,8.683,1.235" transform="translate(-233.91 -24.581)" fill="none" stroke="#ea83a8" stroke-miterlimit="10" stroke-width="2"/>
            <path id="Trazado_1168886" data-name="Trazado 1168886" d="M280.386,322.958c-.6-3.544-1.907-6.937-2.515-10.478a27.171,27.171,0,0,1-.1-8.534l-4.58-16.394a47.259,47.259,0,0,0-6.656,7.522l-.467-1.189a67.172,67.172,0,0,1-4.966,9.594,54.685,54.685,0,0,0-6.692,17.094c-1.079,6.053-.558,12.53,2.347,17.95.71,1.324,2.511,2.682,3.476,1.53a2.39,2.39,0,0,0,.416-1.339c.05-.525.081-1.05.112-1.576a22.006,22.006,0,0,0,2.225,3.38c1.437,1.793,3.9,3.454,5.871,2.28a3.874,3.874,0,0,0,1.578-3.632,18.105,18.105,0,0,0-1.047-4.024,22.132,22.132,0,0,1,.431-13.067,18.815,18.815,0,0,1,2.6,4.868c.919,2.576,1.536,5.691,3.989,6.9a1.794,1.794,0,0,0,1.439.171,2.006,2.006,0,0,0,.8-.718C280.776,330.41,280.984,326.5,280.386,322.958Z" transform="translate(-253.887 -33.189)" fill="#ffcae3"/>
            <path id="Trazado_1168887" data-name="Trazado 1168887" d="M493.78,322.958c.6-3.544,1.907-6.937,2.515-10.478a27.172,27.172,0,0,0,.1-8.534l4.58-16.394a47.262,47.262,0,0,1,6.656,7.522l.467-1.189a67.185,67.185,0,0,0,4.966,9.594,54.711,54.711,0,0,1,6.692,17.094c1.079,6.053.558,12.53-2.347,17.95-.71,1.324-2.511,2.682-3.476,1.53a2.389,2.389,0,0,1-.416-1.339c-.05-.525-.081-1.05-.112-1.576a22.013,22.013,0,0,1-2.225,3.38c-1.437,1.793-3.9,3.454-5.87,2.28a3.874,3.874,0,0,1-1.578-3.632,18.105,18.105,0,0,1,1.047-4.024,22.132,22.132,0,0,0-.431-13.067,18.814,18.814,0,0,0-2.6,4.868c-.919,2.576-1.536,5.691-3.989,6.9a1.794,1.794,0,0,1-1.439.171,2.006,2.006,0,0,1-.8-.718C493.389,330.41,493.182,326.5,493.78,322.958Z" transform="translate(-228.827 -33.189)" fill="#ffcae3"/>
            <path id="Trazado_1168888" data-name="Trazado 1168888" d="M264.308,338.362a19.153,19.153,0,0,1-5.248-16.1" transform="translate(-253.368 -29.559)" fill="none" stroke="#ea83a8" stroke-miterlimit="10" stroke-width="2"/>
            <path id="Trazado_1168889" data-name="Trazado 1168889" d="M508.563,338.322a19.114,19.114,0,0,0,4.238-8.372,57.173,57.173,0,0,0,1.289-9.384" transform="translate(-227.25 -29.736)" fill="none" stroke="#ea83a8" stroke-miterlimit="10" stroke-width="2"/>
            <path id="Trazado_1168890" data-name="Trazado 1168890" d="M391.961,86.2l3.665,10.564a86.144,86.144,0,0,0,22.931-4.944s-8.449-29.571-39.288-29.571-39.288,29.571-39.288,29.571,23.762,6.263,49.042,5.353Z" transform="translate(-244.883 -56.754)" fill="#7129a3"/>
            <g id="Grupo_1220187" data-name="Grupo 1220187" transform="translate(120.334 13.756)">
              <path id="Trazado_1168891" data-name="Trazado 1168891" d="M366.954,72.216a57.789,57.789,0,0,0-4.127,15.144" transform="translate(-362.827 -69.468)" fill="none" stroke="#8e54c6" stroke-miterlimit="10" stroke-width="3"/>
              <path id="Trazado_1168892" data-name="Trazado 1168892" d="M375.269,69.728a87.01,87.01,0,0,0-3.851,18.96" transform="translate(-361.928 -69.728)" fill="none" stroke="#8e54c6" stroke-miterlimit="10" stroke-width="3"/>
              <path id="Trazado_1168893" data-name="Trazado 1168893" d="M392.736,73.521a68.557,68.557,0,0,1,5.182,13.728" transform="translate(-359.699 -69.331)" fill="none" stroke="#8e54c6" stroke-miterlimit="10" stroke-width="3"/>
            </g>
          </g>
          <g id="Grupo_1220189" data-name="Grupo 1220189" transform="translate(9.528)">
            <path id="Trazado_1168894" data-name="Trazado 1168894" d="M310.24,63.045a5.77,5.77,0,1,1-5.77-5.77A5.771,5.771,0,0,1,310.24,63.045Z" transform="translate(-258.728 -31.43)" fill="#ff83d3"/>
            <circle id="Elipse_14322" data-name="Elipse 14322" cx="2.761" cy="2.761" r="2.761" transform="translate(88.086)" fill="#442faf"/>
            <circle id="Elipse_14323" data-name="Elipse 14323" cx="2.761" cy="2.761" r="2.761" transform="translate(258.144 28.854)" fill="#d7d0f6"/>
            <circle id="Elipse_14324" data-name="Elipse 14324" cx="3.866" cy="3.866" r="3.866" transform="translate(218.451 4.666)" fill="#7129a3"/>
            <circle id="Elipse_14325" data-name="Elipse 14325" cx="5.77" cy="5.77" r="5.77" transform="translate(168.402 8.533)" fill="#ff83d3"/>
            <circle id="Elipse_14326" data-name="Elipse 14326" cx="5.77" cy="5.77" r="5.77" transform="translate(204.363 67.452)" fill="#442faf"/>
            <circle id="Elipse_14327" data-name="Elipse 14327" cx="3.866" cy="3.866" r="3.866" transform="translate(0 16.208)" fill="#7129a3"/>
            <path id="Trazado_1168895" data-name="Trazado 1168895" d="M315.465,99.187a5.771,5.771,0,1,1-5.772-5.77A5.771,5.771,0,0,1,315.465,99.187Z" transform="translate(-258.182 -27.65)" fill="#d7d0f6"/>
          </g>
        </g>
      </g>
    </g>
    <path id="Trazado_1047731" data-name="Trazado 1047731" d="M3061.57,2302.422H3001.4l-54.587,61.209" transform="translate(-2031.17 4862.175)" fill="none" stroke="#5b5ba1" stroke-linecap="round" stroke-width="3" stroke-dasharray="5 8"/>
    <g transform="matrix(1, 0, 0, 1, 402, 7075)" filter="url(#Trazado_1171135)">
      <path id="Trazado_1171135-2" data-name="Trazado 1171135" d="M7,0A7,7,0,1,1,0,7,7,7,0,0,1,7,0Z" transform="translate(626.33 82.17)" fill="#5b5ba1"/>
    </g>
    <g id="Trazado_1171136" data-name="Trazado 1171136" transform="translate(1073.901 7149)" fill="#fff">
      <path d="M 110 31.5 L 16 31.5 C 11.85980033874512 31.5 7.967416763305664 29.88771629333496 5.039850234985352 26.96014976501465 C 2.112283229827881 24.03258323669434 0.5 20.14019966125488 0.5 16 C 0.5 11.85980033874512 2.112283229827881 7.967416763305664 5.039850234985352 5.039850234985352 C 7.967416763305664 2.112283229827881 11.85980033874512 0.5 16 0.5 L 110 0.5 C 114.1401977539062 0.5 118.032585144043 2.112283229827881 120.9601516723633 5.039850234985352 C 123.8877182006836 7.967416763305664 125.5 11.85980033874512 125.5 16 C 125.5 20.14019966125488 123.8877182006836 24.03258323669434 120.9601516723633 26.96014976501465 C 118.032585144043 29.88771629333496 114.1401977539062 31.5 110 31.5 Z" stroke="none"/>
      <path d="M 16 1 C 11.99334716796875 1 8.226531982421875 2.560266494750977 5.393402099609375 5.393400192260742 C 2.560264587402344 8.226533889770508 1 11.99334907531738 1 16 C 1 20.00664901733398 2.560264587402344 23.77346801757812 5.393402099609375 26.60659980773926 C 8.226531982421875 29.43973350524902 11.99334716796875 31 16 31 L 110 31 C 114.0066528320312 31 117.7734680175781 29.43973350524902 120.6065979003906 26.60659980773926 C 123.4397354125977 23.77346801757812 125 20.00664901733398 125 16 C 125 11.99334907531738 123.4397354125977 8.226533889770508 120.6065979003906 5.393400192260742 C 117.7734680175781 2.560266494750977 114.0066528320312 1 110 1 L 16 1 M 16 0 L 110 0 C 118.8365478515625 0 126 7.163450241088867 126 16 C 126 24.83654975891113 118.8365478515625 32 110 32 L 16 32 C 7.1634521484375 32 0 24.83654975891113 0 16 C 0 7.163450241088867 7.1634521484375 0 16 0 Z" stroke="none" fill="#5b5ba1"/>
    </g>
    <path id="Trazado_1171137" data-name="Trazado 1171137" d="M14.047,0H11.555V-6.7q0-1.086.094-2.4h-.062a11.8,11.8,0,0,1-.352,1.484L8.609,0H6.547L3.875-7.539A14.67,14.67,0,0,1,3.523-9.1h-.07q.1,1.656.1,2.906V0H1.281V-11.2h3.7L7.266-4.562a9.35,9.35,0,0,1,.4,1.6h.047a16.126,16.126,0,0,1,.445-1.617L10.445-11.2h3.6Zm6.117.2A4.3,4.3,0,0,1,17.02-.926a4.064,4.064,0,0,1-1.145-3.043,4.065,4.065,0,0,1,1.188-3.105A4.487,4.487,0,0,1,20.273-8.2,4.249,4.249,0,0,1,23.4-7.074a3.985,3.985,0,0,1,1.133,2.965A4.23,4.23,0,0,1,23.363-.961,4.348,4.348,0,0,1,20.164.2Zm.063-6.5a1.647,1.647,0,0,0-1.359.6A2.653,2.653,0,0,0,18.383-4q0,2.3,1.859,2.3,1.773,0,1.773-2.367Q22.016-6.3,20.227-6.3ZM30.969-.094A3.649,3.649,0,0,1,29.32.2q-2.609,0-2.609-2.711V-6.18h-1.3V-8h1.3V-9.727l2.461-.7V-8h1.8v1.82h-1.8v3.234q0,1.25.992,1.25a1.673,1.673,0,0,0,.8-.227Zm2.641-9.172a1.442,1.442,0,0,1-1.023-.371,1.2,1.2,0,0,1-.4-.91,1.153,1.153,0,0,1,.4-.906,1.49,1.49,0,0,1,1.023-.352,1.486,1.486,0,0,1,1.027.352,1.158,1.158,0,0,1,.395.906,1.191,1.191,0,0,1-.395.922A1.466,1.466,0,0,1,33.609-9.266ZM34.828,0H32.359V-8h2.469Zm9.7-8L41.547,0H38.734L35.9-8h2.641L39.93-3.07A7.2,7.2,0,0,1,40.2-1.648h.031a8.069,8.069,0,0,1,.289-1.375L41.945-8Zm7.469,8H49.656V-1.148h-.031A2.607,2.607,0,0,1,47.242.2a2.492,2.492,0,0,1-1.832-.66,2.366,2.366,0,0,1-.668-1.762q0-2.328,2.758-2.687L49.672-5.2q0-1.312-1.422-1.312a4.853,4.853,0,0,0-2.719.852V-7.523a6.116,6.116,0,0,1,1.41-.469,7.413,7.413,0,0,1,1.629-.2q3.422,0,3.422,3.414Zm-2.32-3.25v-.539L48.219-3.6q-1.2.156-1.2,1.086a.9.9,0,0,0,.293.691,1.126,1.126,0,0,0,.793.27,1.462,1.462,0,0,0,1.133-.48A1.735,1.735,0,0,0,49.672-3.25ZM60.008-.289A4.881,4.881,0,0,1,57.594.2,4.083,4.083,0,0,1,54.609-.922,3.859,3.859,0,0,1,53.469-3.8,4.251,4.251,0,0,1,54.691-7.02,4.518,4.518,0,0,1,57.961-8.2a4.2,4.2,0,0,1,2.047.375v2.094A2.814,2.814,0,0,0,58.281-6.3a2.275,2.275,0,0,0-1.684.621,2.317,2.317,0,0,0-.621,1.715A2.28,2.28,0,0,0,56.57-2.3,2.182,2.182,0,0,0,58.2-1.7a3.258,3.258,0,0,0,1.8-.578Zm2.867-8.977a1.442,1.442,0,0,1-1.023-.371,1.2,1.2,0,0,1-.4-.91,1.153,1.153,0,0,1,.4-.906,1.49,1.49,0,0,1,1.023-.352,1.486,1.486,0,0,1,1.027.352,1.158,1.158,0,0,1,.395.906,1.191,1.191,0,0,1-.395.922A1.466,1.466,0,0,1,62.875-9.266ZM64.094,0H61.625V-8h2.469Zm5.891.2A4.3,4.3,0,0,1,66.84-.926,4.064,4.064,0,0,1,65.7-3.969a4.065,4.065,0,0,1,1.188-3.105A4.487,4.487,0,0,1,70.094-8.2a4.249,4.249,0,0,1,3.125,1.121,3.985,3.985,0,0,1,1.133,2.965A4.23,4.23,0,0,1,73.184-.961,4.348,4.348,0,0,1,69.984.2Zm.063-6.5a1.647,1.647,0,0,0-1.359.6A2.653,2.653,0,0,0,68.2-4q0,2.3,1.859,2.3,1.773,0,1.773-2.367Q71.836-6.3,70.047-6.3ZM72.7-11.789,70.25-9.266H68.469L70.5-11.789ZM83.672,0H81.211V-4.445q0-1.859-1.328-1.859a1.318,1.318,0,0,0-1.055.492,1.875,1.875,0,0,0-.414,1.25V0H75.945V-8h2.469v1.266h.031A2.829,2.829,0,0,1,81.016-8.2q2.656,0,2.656,3.3Z" transform="translate(1104.326 7171)" fill="#212429"/>
    <g id="Trazado_1082200" data-name="Trazado 1082200" transform="translate(1047.326 7140.174)" fill="#fff">
      <path d="M 24 47.5 C 20.82729911804199 47.5 17.74976921081543 46.87873077392578 14.85289001464844 45.65346145629883 C 12.05459022521973 44.46987915039062 9.541350364685059 42.77537155151367 7.382989883422852 40.61700820922852 C 5.224629878997803 38.45864868164062 3.530119895935059 35.94541168212891 2.346539974212646 33.14710998535156 C 1.121269941329956 30.25023078918457 0.5 27.17270088195801 0.5 24 C 0.5 20.82729911804199 1.121269941329956 17.74976921081543 2.346539974212646 14.85289001464844 C 3.530119895935059 12.05459022521973 5.224629878997803 9.541350364685059 7.382989883422852 7.382989883422852 C 9.541350364685059 5.224629878997803 12.05459022521973 3.530119895935059 14.85289001464844 2.346539974212646 C 17.74976921081543 1.121269941329956 20.82729911804199 0.5 24 0.5 C 27.17270088195801 0.5 30.25023078918457 1.121269941329956 33.14710998535156 2.346539974212646 C 35.94541168212891 3.530119895935059 38.45864868164062 5.224629878997803 40.61700820922852 7.382989883422852 C 42.77537155151367 9.541350364685059 44.46987915039062 12.05459022521973 45.65346145629883 14.85289001464844 C 46.87873077392578 17.74976921081543 47.5 20.82729911804199 47.5 24 C 47.5 27.17270088195801 46.87873077392578 30.25023078918457 45.65346145629883 33.14710998535156 C 44.46987915039062 35.94541168212891 42.77537155151367 38.45864868164062 40.61700820922852 40.61700820922852 C 38.45864868164062 42.77537155151367 35.94541168212891 44.46987915039062 33.14710998535156 45.65346145629883 C 30.25023078918457 46.87873077392578 27.17270088195801 47.5 24 47.5 Z" stroke="none"/>
      <path d="M 24 1 C 20.89458084106445 1 17.8825798034668 1.607978820800781 15.04766845703125 2.807041168212891 C 12.3089714050293 3.965419769287109 9.849151611328125 5.623939514160156 7.736549377441406 7.736549377441406 C 5.623939514160156 9.849151611328125 3.965419769287109 12.3089714050293 2.807041168212891 15.04766845703125 C 1.607978820800781 17.8825798034668 1 20.89458084106445 1 24 C 1 27.10541915893555 1.607978820800781 30.1174201965332 2.807041168212891 32.95233154296875 C 3.965419769287109 35.6910285949707 5.623939514160156 38.15084838867188 7.736549377441406 40.26345062255859 C 9.849151611328125 42.37606048583984 12.3089714050293 44.03458023071289 15.04766845703125 45.19295883178711 C 17.8825798034668 46.39202117919922 20.89458084106445 47 24 47 C 27.10541915893555 47 30.1174201965332 46.39202117919922 32.95233154296875 45.19295883178711 C 35.6910285949707 44.03458023071289 38.15084838867188 42.37606048583984 40.26345062255859 40.26345062255859 C 42.37606048583984 38.15084838867188 44.03458023071289 35.6910285949707 45.19295883178711 32.95233154296875 C 46.39202117919922 30.1174201965332 47 27.10541915893555 47 24 C 47 20.89458084106445 46.39202117919922 17.8825798034668 45.19295883178711 15.04766845703125 C 44.03458023071289 12.3089714050293 42.37606048583984 9.849151611328125 40.26345062255859 7.736549377441406 C 38.15084838867188 5.623939514160156 35.6910285949707 3.965419769287109 32.95233154296875 2.807041168212891 C 30.1174201965332 1.607978820800781 27.10541915893555 1 24 1 M 24 0 C 37.25482940673828 0 48 10.74517059326172 48 24 C 48 37.25482940673828 37.25482940673828 48 24 48 C 10.74517059326172 48 0 37.25482940673828 0 24 C 0 10.74517059326172 10.74517059326172 0 24 0 Z" stroke="none" fill="#5b5ba1"/>
    </g>
    <path id="Trazado_1047731-2" data-name="Trazado 1047731" d="M3061.57,2302.422H3001.4l-56.345,68.637" transform="translate(-2031.17 5000.175)" fill="none" stroke="#5b5ba1" stroke-linecap="round" stroke-width="3" stroke-dasharray="5 8"/>
    <g transform="matrix(1, 0, 0, 1, 402, 7075)" filter="url(#Trazado_1171138)">
      <path id="Trazado_1171138-2" data-name="Trazado 1171138" d="M7,0A7,7,0,1,1,0,7,7,7,0,0,1,7,0Z" transform="translate(626.33 220.17)" fill="#5b5ba1"/>
    </g>
    <g id="Trazado_1171139" data-name="Trazado 1171139" transform="translate(1073.901 7287)" fill="#fff">
      <path d="M 110 31.5 L 16 31.5 C 11.85980033874512 31.5 7.967416763305664 29.88771629333496 5.039850234985352 26.96014976501465 C 2.112283229827881 24.03258323669434 0.5 20.14019966125488 0.5 16 C 0.5 11.85980033874512 2.112283229827881 7.967416763305664 5.039850234985352 5.039850234985352 C 7.967416763305664 2.112283229827881 11.85980033874512 0.5 16 0.5 L 110 0.5 C 114.1401977539062 0.5 118.032585144043 2.112283229827881 120.9601516723633 5.039850234985352 C 123.8877182006836 7.967416763305664 125.5 11.85980033874512 125.5 16 C 125.5 20.14019966125488 123.8877182006836 24.03258323669434 120.9601516723633 26.96014976501465 C 118.032585144043 29.88771629333496 114.1401977539062 31.5 110 31.5 Z" stroke="none"/>
      <path d="M 16 1 C 11.99334716796875 1 8.226531982421875 2.560266494750977 5.393402099609375 5.393400192260742 C 2.560264587402344 8.226533889770508 1 11.99334907531738 1 16 C 1 20.00664901733398 2.560264587402344 23.77346801757812 5.393402099609375 26.60659980773926 C 8.226531982421875 29.43973350524902 11.99334716796875 31 16 31 L 110 31 C 114.0066528320312 31 117.7734680175781 29.43973350524902 120.6065979003906 26.60659980773926 C 123.4397354125977 23.77346801757812 125 20.00664901733398 125 16 C 125 11.99334907531738 123.4397354125977 8.226533889770508 120.6065979003906 5.393400192260742 C 117.7734680175781 2.560266494750977 114.0066528320312 1 110 1 L 16 1 M 16 0 L 110 0 C 118.8365478515625 0 126 7.163450241088867 126 16 C 126 24.83654975891113 118.8365478515625 32 110 32 L 16 32 C 7.1634521484375 32 0 24.83654975891113 0 16 C 0 7.163450241088867 7.1634521484375 0 16 0 Z" stroke="none" fill="#5b5ba1"/>
    </g>
    <path id="Trazado_1171140" data-name="Trazado 1171140" d="M8,0H1.281V-11.2H7.742v2.055H3.8v2.492H7.469v2.047H3.8v2.563H8ZM22.258,0H19.8V-4.562Q19.8-6.3,18.516-6.3a1.177,1.177,0,0,0-.992.523,2.151,2.151,0,0,0-.383,1.3V0H14.672V-4.609q0-1.7-1.258-1.7a1.206,1.206,0,0,0-1.012.5,2.2,2.2,0,0,0-.379,1.359V0H9.555V-8h2.469v1.25h.031a2.952,2.952,0,0,1,1.074-1.043,2.952,2.952,0,0,1,1.512-.4A2.3,2.3,0,0,1,16.961-6.7,2.959,2.959,0,0,1,19.648-8.2q2.609,0,2.609,3.219Zm5.766.2A4.3,4.3,0,0,1,24.879-.926a4.064,4.064,0,0,1-1.145-3.043,4.065,4.065,0,0,1,1.188-3.105A4.487,4.487,0,0,1,28.133-8.2a4.249,4.249,0,0,1,3.125,1.121,3.985,3.985,0,0,1,1.133,2.965A4.23,4.23,0,0,1,31.223-.961,4.348,4.348,0,0,1,28.023.2Zm.063-6.5a1.647,1.647,0,0,0-1.359.6A2.653,2.653,0,0,0,26.242-4q0,2.3,1.859,2.3,1.773,0,1.773-2.367Q29.875-6.3,28.086-6.3ZM40.055-.289A4.881,4.881,0,0,1,37.641.2,4.083,4.083,0,0,1,34.656-.922,3.859,3.859,0,0,1,33.516-3.8,4.251,4.251,0,0,1,34.738-7.02,4.518,4.518,0,0,1,38.008-8.2a4.2,4.2,0,0,1,2.047.375v2.094A2.814,2.814,0,0,0,38.328-6.3a2.275,2.275,0,0,0-1.684.621,2.317,2.317,0,0,0-.621,1.715A2.28,2.28,0,0,0,36.617-2.3,2.182,2.182,0,0,0,38.25-1.7a3.258,3.258,0,0,0,1.8-.578Zm2.867-8.977A1.442,1.442,0,0,1,41.9-9.637a1.2,1.2,0,0,1-.4-.91,1.153,1.153,0,0,1,.4-.906,1.49,1.49,0,0,1,1.023-.352,1.486,1.486,0,0,1,1.027.352,1.158,1.158,0,0,1,.395.906,1.191,1.191,0,0,1-.395.922A1.466,1.466,0,0,1,42.922-9.266ZM44.141,0H41.672V-8h2.469Zm5.891.2A4.3,4.3,0,0,1,46.887-.926a4.064,4.064,0,0,1-1.145-3.043A4.065,4.065,0,0,1,46.93-7.074,4.487,4.487,0,0,1,50.141-8.2a4.249,4.249,0,0,1,3.125,1.121A3.985,3.985,0,0,1,54.4-4.109,4.23,4.23,0,0,1,53.23-.961,4.348,4.348,0,0,1,50.031.2Zm.063-6.5a1.647,1.647,0,0,0-1.359.6A2.653,2.653,0,0,0,48.25-4q0,2.3,1.859,2.3,1.773,0,1.773-2.367Q51.883-6.3,50.094-6.3ZM63.727,0H61.266V-4.445q0-1.859-1.328-1.859a1.318,1.318,0,0,0-1.055.492,1.875,1.875,0,0,0-.414,1.25V0H56V-8h2.469v1.266H58.5A2.829,2.829,0,0,1,61.07-8.2q2.656,0,2.656,3.3Zm9.141-3.3H67.648q.125,1.742,2.2,1.742a4.286,4.286,0,0,0,2.32-.625V-.4A6.1,6.1,0,0,1,69.281.2,4.058,4.058,0,0,1,66.273-.879a4.058,4.058,0,0,1-1.07-3,4.281,4.281,0,0,1,1.156-3.156A3.852,3.852,0,0,1,69.2-8.2,3.5,3.5,0,0,1,71.91-7.156a4,4,0,0,1,.957,2.82ZM70.578-4.812q0-1.719-1.391-1.719a1.328,1.328,0,0,0-1.027.492,2.234,2.234,0,0,0-.527,1.227Zm3.234,4.6v-2a5.256,5.256,0,0,0,1.215.547,4.028,4.028,0,0,0,1.145.18,2.455,2.455,0,0,0,1.035-.18.581.581,0,0,0,.379-.547.506.506,0,0,0-.172-.391,1.6,1.6,0,0,0-.441-.273,5.009,5.009,0,0,0-.59-.211q-.32-.094-.617-.211a5.913,5.913,0,0,1-.84-.387,2.427,2.427,0,0,1-.609-.48,1.889,1.889,0,0,1-.375-.633,2.525,2.525,0,0,1-.129-.852A2.192,2.192,0,0,1,74.105-6.8a2.393,2.393,0,0,1,.781-.793A3.57,3.57,0,0,1,76-8.051,5.825,5.825,0,0,1,77.313-8.2a7.261,7.261,0,0,1,1.078.082,8.047,8.047,0,0,1,1.078.238v1.906a3.9,3.9,0,0,0-1-.41,4.235,4.235,0,0,0-1.051-.137,2.328,2.328,0,0,0-.457.043,1.505,1.505,0,0,0-.379.125.7.7,0,0,0-.258.211.486.486,0,0,0-.094.293.541.541,0,0,0,.141.375,1.221,1.221,0,0,0,.367.27,3.625,3.625,0,0,0,.5.2q.277.09.551.184a7.161,7.161,0,0,1,.891.375,2.848,2.848,0,0,1,.684.477,1.872,1.872,0,0,1,.438.641,2.277,2.277,0,0,1,.152.875,2.282,2.282,0,0,1-.309,1.215,2.471,2.471,0,0,1-.82.82,3.72,3.72,0,0,1-1.18.461A6.54,6.54,0,0,1,76.258.2,7.149,7.149,0,0,1,73.813-.211Z" transform="translate(1104.326 7309)" fill="#212429"/>
    <g id="Trazado_1168896" data-name="Trazado 1168896" transform="translate(1047.326 7278.174)" fill="#fff">
      <path d="M 24 47.5 C 20.82729911804199 47.5 17.74976921081543 46.87873077392578 14.85289001464844 45.65346145629883 C 12.05459022521973 44.46987915039062 9.541350364685059 42.77537155151367 7.382989883422852 40.61700820922852 C 5.224629878997803 38.45864868164062 3.530119895935059 35.94541168212891 2.346539974212646 33.14710998535156 C 1.121269941329956 30.25023078918457 0.5 27.17270088195801 0.5 24 C 0.5 20.82729911804199 1.121269941329956 17.74976921081543 2.346539974212646 14.85289001464844 C 3.530119895935059 12.05459022521973 5.224629878997803 9.541350364685059 7.382989883422852 7.382989883422852 C 9.541350364685059 5.224629878997803 12.05459022521973 3.530119895935059 14.85289001464844 2.346539974212646 C 17.74976921081543 1.121269941329956 20.82729911804199 0.5 24 0.5 C 27.17270088195801 0.5 30.25023078918457 1.121269941329956 33.14710998535156 2.346539974212646 C 35.94541168212891 3.530119895935059 38.45864868164062 5.224629878997803 40.61700820922852 7.382989883422852 C 42.77537155151367 9.541350364685059 44.46987915039062 12.05459022521973 45.65346145629883 14.85289001464844 C 46.87873077392578 17.74976921081543 47.5 20.82729911804199 47.5 24 C 47.5 27.17270088195801 46.87873077392578 30.25023078918457 45.65346145629883 33.14710998535156 C 44.46987915039062 35.94541168212891 42.77537155151367 38.45864868164062 40.61700820922852 40.61700820922852 C 38.45864868164062 42.77537155151367 35.94541168212891 44.46987915039062 33.14710998535156 45.65346145629883 C 30.25023078918457 46.87873077392578 27.17270088195801 47.5 24 47.5 Z" stroke="none"/>
      <path d="M 24 1 C 20.89458084106445 1 17.8825798034668 1.607978820800781 15.04766845703125 2.807041168212891 C 12.3089714050293 3.965419769287109 9.849151611328125 5.623939514160156 7.736549377441406 7.736549377441406 C 5.623939514160156 9.849151611328125 3.965419769287109 12.3089714050293 2.807041168212891 15.04766845703125 C 1.607978820800781 17.8825798034668 1 20.89458084106445 1 24 C 1 27.10541915893555 1.607978820800781 30.1174201965332 2.807041168212891 32.95233154296875 C 3.965419769287109 35.6910285949707 5.623939514160156 38.15084838867188 7.736549377441406 40.26345062255859 C 9.849151611328125 42.37606048583984 12.3089714050293 44.03458023071289 15.04766845703125 45.19295883178711 C 17.8825798034668 46.39202117919922 20.89458084106445 47 24 47 C 27.10541915893555 47 30.1174201965332 46.39202117919922 32.95233154296875 45.19295883178711 C 35.6910285949707 44.03458023071289 38.15084838867188 42.37606048583984 40.26345062255859 40.26345062255859 C 42.37606048583984 38.15084838867188 44.03458023071289 35.6910285949707 45.19295883178711 32.95233154296875 C 46.39202117919922 30.1174201965332 47 27.10541915893555 47 24 C 47 20.89458084106445 46.39202117919922 17.8825798034668 45.19295883178711 15.04766845703125 C 44.03458023071289 12.3089714050293 42.37606048583984 9.849151611328125 40.26345062255859 7.736549377441406 C 38.15084838867188 5.623939514160156 35.6910285949707 3.965419769287109 32.95233154296875 2.807041168212891 C 30.1174201965332 1.607978820800781 27.10541915893555 1 24 1 M 24 0 C 37.25482940673828 0 48 10.74517059326172 48 24 C 48 37.25482940673828 37.25482940673828 48 24 48 C 10.74517059326172 48 0 37.25482940673828 0 24 C 0 10.74517059326172 10.74517059326172 0 24 0 Z" stroke="none" fill="#5b5ba1"/>
    </g>
    <path id="Trazado_1047731-3" data-name="Trazado 1047731" d="M2966.17,2302.422h60.171l74.467,76.045" transform="translate(-2327.668 5000.175)" fill="none" stroke="#5b5ba1" stroke-linecap="round" stroke-width="3" stroke-dasharray="5 8"/>
    <g transform="matrix(1, 0, 0, 1, 402, 7075)" filter="url(#Trazado_1171141)">
      <path id="Trazado_1171141-2" data-name="Trazado 1171141" d="M7,0A7,7,0,1,1,0,7,7,7,0,0,1,7,0Z" transform="translate(224.58 220.17)" fill="#5b5ba1"/>
    </g>
    <g id="Trazado_1171142" data-name="Trazado 1171142" transform="translate(405 7287)" fill="#fff">
      <path d="M 174 31.5 L 16 31.5 C 11.85980987548828 31.5 7.967404842376709 29.88771438598633 5.039856910705566 26.96014213562012 C 2.112285614013672 24.03259468078613 0.5 20.14019012451172 0.5 16 C 0.5 11.85980987548828 2.112285614013672 7.967404842376709 5.039856910705566 5.039856910705566 C 7.967404842376709 2.112285614013672 11.85980987548828 0.5 16 0.5 L 174 0.5 C 178.1402130126953 0.5 182.0325927734375 2.112285614013672 184.9601593017578 5.039856910705566 C 187.8877105712891 7.967404842376709 189.5 11.85980987548828 189.5 16 C 189.5 20.14019012451172 187.8877105712891 24.03259468078613 184.9601593017578 26.96014213562012 C 182.0325927734375 29.88771438598633 178.1402130126953 31.5 174 31.5 Z" stroke="none"/>
      <path d="M 16 1 C 11.99334716796875 1 8.226531982421875 2.560274124145508 5.393402099609375 5.393400192260742 C 2.560272216796875 8.226524353027344 1 11.99334907531738 1 16 C 1 20.00664901733398 2.560272216796875 23.77347564697266 5.393402099609375 26.60659980773926 C 8.226531982421875 29.43972396850586 11.99334716796875 31 16 31 L 174 31 C 178.0066528320312 31 181.7734680175781 29.43972396850586 184.6065979003906 26.60659980773926 C 187.4397277832031 23.77347564697266 189 20.00664901733398 189 16 C 189 11.99334907531738 187.4397277832031 8.226524353027344 184.6065979003906 5.393400192260742 C 181.7734680175781 2.560274124145508 178.0066528320312 1 174 1 L 16 1 M 16 0 L 174 0 C 182.8365478515625 0 190 7.163450241088867 190 16 C 190 24.83654975891113 182.8365478515625 32 174 32 L 16 32 C 7.163421630859375 32 0 24.83654975891113 0 16 C 0 7.163450241088867 7.163421630859375 0 16 0 Z" stroke="none" fill="#5b5ba1"/>
    </g>
    <path id="Trazado_1171143" data-name="Trazado 1171143" d="M8,0H1.281V-11.2H7.742v2.055H3.8v2.492H7.469v2.047H3.8v2.563H8Zm9.281-8L14.641-4.125,17.266,0H14.422L13.266-2.156q-.141-.258-.336-.727H12.9a5.073,5.073,0,0,1-.32.7L11.414,0H8.578l2.7-3.984L8.742-8H11.6l1.141,2.242a4.917,4.917,0,0,1,.32.75h.031a5.285,5.285,0,0,1,.336-.766L14.594-8ZM20.891-.93h-.031V3.68H18.391V-8h2.469v1.2h.031a2.9,2.9,0,0,1,2.57-1.4,2.892,2.892,0,0,1,2.4,1.066,4.54,4.54,0,0,1,.848,2.9,4.922,4.922,0,0,1-.988,3.211A3.222,3.222,0,0,1,23.094.2,2.491,2.491,0,0,1,20.891-.93Zm-.07-3.281v.641a2.037,2.037,0,0,0,.438,1.352,1.424,1.424,0,0,0,1.148.523,1.514,1.514,0,0,0,1.309-.652A3.15,3.15,0,0,0,24.18-4.2q0-2.109-1.641-2.109A1.541,1.541,0,0,0,21.3-5.73,2.29,2.29,0,0,0,20.82-4.211ZM35.5-3.3H30.281q.125,1.742,2.2,1.742A4.286,4.286,0,0,0,34.8-2.18V-.4A6.1,6.1,0,0,1,31.914.2,4.058,4.058,0,0,1,28.906-.879a4.058,4.058,0,0,1-1.07-3,4.281,4.281,0,0,1,1.156-3.156A3.852,3.852,0,0,1,31.836-8.2a3.5,3.5,0,0,1,2.707,1.039,4,4,0,0,1,.957,2.82ZM33.211-4.812q0-1.719-1.391-1.719a1.328,1.328,0,0,0-1.027.492,2.234,2.234,0,0,0-.527,1.227Zm8.977-.961a2.142,2.142,0,0,0-1.039-.242,1.5,1.5,0,0,0-1.258.59,2.573,2.573,0,0,0-.453,1.605V0H36.969V-8h2.469v1.484h.031a2.136,2.136,0,0,1,2.109-1.625,1.59,1.59,0,0,1,.609.094Zm2.461-3.492a1.442,1.442,0,0,1-1.023-.371,1.2,1.2,0,0,1-.4-.91,1.153,1.153,0,0,1,.4-.906,1.49,1.49,0,0,1,1.023-.352,1.486,1.486,0,0,1,1.027.352,1.158,1.158,0,0,1,.395.906,1.191,1.191,0,0,1-.395.922A1.466,1.466,0,0,1,44.648-9.266ZM45.867,0H43.4V-8h2.469Zm9.266-3.3H49.914q.125,1.742,2.2,1.742a4.286,4.286,0,0,0,2.32-.625V-.4A6.1,6.1,0,0,1,51.547.2,4.058,4.058,0,0,1,48.539-.879a4.058,4.058,0,0,1-1.07-3,4.281,4.281,0,0,1,1.156-3.156A3.852,3.852,0,0,1,51.469-8.2a3.5,3.5,0,0,1,2.707,1.039,4,4,0,0,1,.957,2.82ZM52.844-4.812q0-1.719-1.391-1.719a1.328,1.328,0,0,0-1.027.492A2.234,2.234,0,0,0,49.9-4.812ZM64.328,0H61.867V-4.445q0-1.859-1.328-1.859a1.318,1.318,0,0,0-1.055.492,1.875,1.875,0,0,0-.414,1.25V0H56.6V-8H59.07v1.266H59.1A2.829,2.829,0,0,1,61.672-8.2q2.656,0,2.656,3.3Zm8.016-.289A4.881,4.881,0,0,1,69.93.2,4.083,4.083,0,0,1,66.945-.922,3.859,3.859,0,0,1,65.8-3.8,4.251,4.251,0,0,1,67.027-7.02,4.518,4.518,0,0,1,70.3-8.2a4.2,4.2,0,0,1,2.047.375v2.094A2.814,2.814,0,0,0,70.617-6.3a2.275,2.275,0,0,0-1.684.621,2.317,2.317,0,0,0-.621,1.715A2.28,2.28,0,0,0,68.906-2.3a2.182,2.182,0,0,0,1.633.605,3.258,3.258,0,0,0,1.8-.578Zm2.867-8.977a1.442,1.442,0,0,1-1.023-.371,1.2,1.2,0,0,1-.4-.91,1.153,1.153,0,0,1,.4-.906,1.49,1.49,0,0,1,1.023-.352,1.486,1.486,0,0,1,1.027.352,1.158,1.158,0,0,1,.395.906,1.191,1.191,0,0,1-.395.922A1.466,1.466,0,0,1,75.211-9.266ZM76.43,0H73.961V-8H76.43Zm8.734,0H82.828V-1.148H82.8A2.607,2.607,0,0,1,80.414.2a2.492,2.492,0,0,1-1.832-.66,2.366,2.366,0,0,1-.668-1.762q0-2.328,2.758-2.687L82.844-5.2q0-1.312-1.422-1.312a4.853,4.853,0,0,0-2.719.852V-7.523a6.116,6.116,0,0,1,1.41-.469,7.413,7.413,0,0,1,1.629-.2q3.422,0,3.422,3.414Zm-2.32-3.25v-.539L81.391-3.6q-1.2.156-1.2,1.086a.9.9,0,0,0,.293.691,1.126,1.126,0,0,0,.793.27,1.462,1.462,0,0,0,1.133-.48A1.735,1.735,0,0,0,82.844-3.25ZM94.031-.93H94V3.68H91.531V-8H94v1.2h.031A2.9,2.9,0,0,1,96.6-8.2,2.892,2.892,0,0,1,99-7.129a4.54,4.54,0,0,1,.848,2.9,4.922,4.922,0,0,1-.988,3.211A3.222,3.222,0,0,1,96.234.2,2.491,2.491,0,0,1,94.031-.93Zm-.07-3.281v.641A2.037,2.037,0,0,0,94.4-2.219a1.424,1.424,0,0,0,1.148.523,1.514,1.514,0,0,0,1.309-.652A3.15,3.15,0,0,0,97.32-4.2Q97.32-6.3,95.68-6.3a1.541,1.541,0,0,0-1.238.574A2.29,2.29,0,0,0,93.961-4.211Zm12.711-1.562a2.142,2.142,0,0,0-1.039-.242,1.5,1.5,0,0,0-1.258.59,2.573,2.573,0,0,0-.453,1.605V0h-2.469V-8h2.469v1.484h.031a2.136,2.136,0,0,1,2.109-1.625,1.59,1.59,0,0,1,.609.094ZM114.945-3.3h-5.219q.125,1.742,2.2,1.742a4.286,4.286,0,0,0,2.32-.625V-.4A6.1,6.1,0,0,1,111.359.2a4.058,4.058,0,0,1-3.008-1.074,4.058,4.058,0,0,1-1.07-3,4.281,4.281,0,0,1,1.156-3.156A3.852,3.852,0,0,1,111.281-8.2a3.5,3.5,0,0,1,2.707,1.039,4,4,0,0,1,.957,2.82Zm-2.289-1.516q0-1.719-1.391-1.719a1.328,1.328,0,0,0-1.027.492,2.234,2.234,0,0,0-.527,1.227ZM124.031-8l-2.977,8h-2.812l-2.836-8h2.641l1.391,4.93a7.2,7.2,0,0,1,.273,1.422h.031a8.069,8.069,0,0,1,.289-1.375L121.453-8Zm2.3-1.266a1.442,1.442,0,0,1-1.023-.371,1.2,1.2,0,0,1-.4-.91,1.153,1.153,0,0,1,.4-.906,1.49,1.49,0,0,1,1.023-.352,1.486,1.486,0,0,1,1.027.352,1.158,1.158,0,0,1,.395.906,1.191,1.191,0,0,1-.395.922A1.466,1.466,0,0,1,126.336-9.266ZM127.555,0h-2.469V-8h2.469Zm8.734,0h-2.336V-1.148h-.031A2.607,2.607,0,0,1,131.539.2a2.492,2.492,0,0,1-1.832-.66,2.366,2.366,0,0,1-.668-1.762q0-2.328,2.758-2.687l2.172-.289q0-1.312-1.422-1.312a4.853,4.853,0,0,0-2.719.852V-7.523a6.116,6.116,0,0,1,1.41-.469,7.413,7.413,0,0,1,1.629-.2q3.422,0,3.422,3.414Zm-2.32-3.25v-.539l-1.453.188q-1.2.156-1.2,1.086a.9.9,0,0,0,.293.691,1.126,1.126,0,0,0,.793.27,1.462,1.462,0,0,0,1.133-.48A1.735,1.735,0,0,0,133.969-3.25Z" transform="translate(422.575 7309)" fill="#212429"/>
    <g id="Trazado_1168897" data-name="Trazado 1168897" transform="translate(573.575 7278.174)" fill="#fff">
      <path d="M 24 47.5 C 20.82729911804199 47.5 17.74976921081543 46.87873077392578 14.85289001464844 45.65346145629883 C 12.05459022521973 44.46987915039062 9.541350364685059 42.77537155151367 7.382989883422852 40.61700820922852 C 5.224629878997803 38.45864868164062 3.530119895935059 35.94541168212891 2.346539974212646 33.14710998535156 C 1.121269941329956 30.25023078918457 0.5 27.17270088195801 0.5 24 C 0.5 20.82729911804199 1.121269941329956 17.74976921081543 2.346539974212646 14.85289001464844 C 3.530119895935059 12.05459022521973 5.224629878997803 9.541350364685059 7.382989883422852 7.382989883422852 C 9.541350364685059 5.224629878997803 12.05459022521973 3.530119895935059 14.85289001464844 2.346539974212646 C 17.74976921081543 1.121269941329956 20.82729911804199 0.5 24 0.5 C 27.17270088195801 0.5 30.25023078918457 1.121269941329956 33.14710998535156 2.346539974212646 C 35.94541168212891 3.530119895935059 38.45864868164062 5.224629878997803 40.61700820922852 7.382989883422852 C 42.77537155151367 9.541350364685059 44.46987915039062 12.05459022521973 45.65346145629883 14.85289001464844 C 46.87873077392578 17.74976921081543 47.5 20.82729911804199 47.5 24 C 47.5 27.17270088195801 46.87873077392578 30.25023078918457 45.65346145629883 33.14710998535156 C 44.46987915039062 35.94541168212891 42.77537155151367 38.45864868164062 40.61700820922852 40.61700820922852 C 38.45864868164062 42.77537155151367 35.94541168212891 44.46987915039062 33.14710998535156 45.65346145629883 C 30.25023078918457 46.87873077392578 27.17270088195801 47.5 24 47.5 Z" stroke="none"/>
      <path d="M 24 1 C 20.89458084106445 1 17.8825798034668 1.607978820800781 15.04766845703125 2.807041168212891 C 12.3089714050293 3.965419769287109 9.849151611328125 5.623939514160156 7.736549377441406 7.736549377441406 C 5.623939514160156 9.849151611328125 3.965419769287109 12.3089714050293 2.807041168212891 15.04766845703125 C 1.607978820800781 17.8825798034668 1 20.89458084106445 1 24 C 1 27.10541915893555 1.607978820800781 30.1174201965332 2.807041168212891 32.95233154296875 C 3.965419769287109 35.6910285949707 5.623939514160156 38.15084838867188 7.736549377441406 40.26345062255859 C 9.849151611328125 42.37606048583984 12.3089714050293 44.03458023071289 15.04766845703125 45.19295883178711 C 17.8825798034668 46.39202117919922 20.89458084106445 47 24 47 C 27.10541915893555 47 30.1174201965332 46.39202117919922 32.95233154296875 45.19295883178711 C 35.6910285949707 44.03458023071289 38.15084838867188 42.37606048583984 40.26345062255859 40.26345062255859 C 42.37606048583984 38.15084838867188 44.03458023071289 35.6910285949707 45.19295883178711 32.95233154296875 C 46.39202117919922 30.1174201965332 47 27.10541915893555 47 24 C 47 20.89458084106445 46.39202117919922 17.8825798034668 45.19295883178711 15.04766845703125 C 44.03458023071289 12.3089714050293 42.37606048583984 9.849151611328125 40.26345062255859 7.736549377441406 C 38.15084838867188 5.623939514160156 35.6910285949707 3.965419769287109 32.95233154296875 2.807041168212891 C 30.1174201965332 1.607978820800781 27.10541915893555 1 24 1 M 24 0 C 37.25482940673828 0 48 10.74517059326172 48 24 C 48 37.25482940673828 37.25482940673828 48 24 48 C 10.74517059326172 48 0 37.25482940673828 0 24 C 0 10.74517059326172 10.74517059326172 0 24 0 Z" stroke="none" fill="#5b5ba1"/>
    </g>
    <path id="Trazado_1047731-4" data-name="Trazado 1047731" d="M2966.17,2302.422h60.171l70.114,60.835" transform="translate(-2327.668 4862.175)" fill="none" stroke="#5b5ba1" stroke-linecap="round" stroke-width="3" stroke-dasharray="5 8"/>
    <g transform="matrix(1, 0, 0, 1, 402, 7075)" filter="url(#Trazado_1171144)">
      <path id="Trazado_1171144-2" data-name="Trazado 1171144" d="M7,0A7,7,0,1,1,0,7,7,7,0,0,1,7,0Z" transform="translate(224.58 82.17)" fill="#5b5ba1"/>
    </g>
    <g id="Trazado_1171145" data-name="Trazado 1171145" transform="translate(402 7149)" fill="#fff">
      <path d="M 177 31.5 L 16 31.5 C 11.85980987548828 31.5 7.967404842376709 29.88771438598633 5.039856910705566 26.96014213562012 C 2.112285614013672 24.03259468078613 0.5 20.14019012451172 0.5 16 C 0.5 11.85980987548828 2.112285614013672 7.967404842376709 5.039856910705566 5.039856910705566 C 7.967404842376709 2.112285614013672 11.85980987548828 0.5 16 0.5 L 177 0.5 C 181.1402130126953 0.5 185.0325927734375 2.112285614013672 187.9601593017578 5.039856910705566 C 190.8877105712891 7.967404842376709 192.5 11.85980987548828 192.5 16 C 192.5 20.14019012451172 190.8877105712891 24.03259468078613 187.9601593017578 26.96014213562012 C 185.0325927734375 29.88771438598633 181.1402130126953 31.5 177 31.5 Z" stroke="none"/>
      <path d="M 16 1 C 11.99334716796875 1 8.226531982421875 2.560274124145508 5.393402099609375 5.393400192260742 C 2.560272216796875 8.226524353027344 1 11.99334907531738 1 16 C 1 20.00664901733398 2.560272216796875 23.77347564697266 5.393402099609375 26.60659980773926 C 8.226531982421875 29.43972396850586 11.99334716796875 31 16 31 L 177 31 C 181.0066528320312 31 184.7734680175781 29.43972396850586 187.6065979003906 26.60659980773926 C 190.4397277832031 23.77347564697266 192 20.00664901733398 192 16 C 192 11.99334907531738 190.4397277832031 8.226524353027344 187.6065979003906 5.393400192260742 C 184.7734680175781 2.560274124145508 181.0066528320312 1 177 1 L 16 1 M 16 0 L 177 0 C 185.8365478515625 0 193 7.163450241088867 193 16 C 193 24.83654975891113 185.8365478515625 32 177 32 L 16 32 C 7.163421630859375 32 0 24.83654975891113 0 16 C 0 7.163450241088867 7.163421630859375 0 16 0 Z" stroke="none" fill="#5b5ba1"/>
    </g>
    <path id="Trazado_1171146" data-name="Trazado 1171146" d="M9.313-.4A7.388,7.388,0,0,1,6.109.2,5.4,5.4,0,0,1,2.055-1.32,5.54,5.54,0,0,1,.578-5.359a5.919,5.919,0,0,1,1.66-4.359,5.807,5.807,0,0,1,4.309-1.672,8.058,8.058,0,0,1,2.766.414v2.43A4.9,4.9,0,0,0,6.75-9.219,3.4,3.4,0,0,0,4.2-8.227a3.682,3.682,0,0,0-.969,2.688,3.611,3.611,0,0,0,.914,2.59,3.229,3.229,0,0,0,2.461.965,5.249,5.249,0,0,0,2.7-.719ZM14.836.2A4.3,4.3,0,0,1,11.691-.926a4.064,4.064,0,0,1-1.145-3.043,4.065,4.065,0,0,1,1.188-3.105A4.487,4.487,0,0,1,14.945-8.2,4.249,4.249,0,0,1,18.07-7.074,3.985,3.985,0,0,1,19.2-4.109,4.23,4.23,0,0,1,18.035-.961,4.348,4.348,0,0,1,14.836.2ZM14.9-6.3a1.647,1.647,0,0,0-1.359.6A2.653,2.653,0,0,0,13.055-4q0,2.3,1.859,2.3,1.773,0,1.773-2.367Q16.688-6.3,14.9-6.3ZM28.531,0H26.07V-4.445q0-1.859-1.328-1.859a1.318,1.318,0,0,0-1.055.492,1.875,1.875,0,0,0-.414,1.25V0H20.8V-8h2.469v1.266H23.3A2.829,2.829,0,0,1,25.875-8.2q2.656,0,2.656,3.3ZM35.32-.094A3.649,3.649,0,0,1,33.672.2q-2.609,0-2.609-2.711V-6.18h-1.3V-8h1.3V-9.727l2.461-.7V-8h1.8v1.82h-1.8v3.234q0,1.25.992,1.25a1.673,1.673,0,0,0,.8-.227Zm8.516-3.2H38.617q.125,1.742,2.2,1.742a4.286,4.286,0,0,0,2.32-.625V-.4A6.1,6.1,0,0,1,40.25.2,4.058,4.058,0,0,1,37.242-.879a4.058,4.058,0,0,1-1.07-3,4.281,4.281,0,0,1,1.156-3.156A3.852,3.852,0,0,1,40.172-8.2a3.5,3.5,0,0,1,2.707,1.039,4,4,0,0,1,.957,2.82ZM41.547-4.812q0-1.719-1.391-1.719a1.328,1.328,0,0,0-1.027.492A2.234,2.234,0,0,0,38.6-4.812ZM53.031-8,50.391-4.125,53.016,0H50.172L49.016-2.156q-.141-.258-.336-.727h-.031a5.073,5.073,0,0,1-.32.7L47.164,0H44.328l2.7-3.984L44.492-8h2.859l1.141,2.242a4.917,4.917,0,0,1,.32.75h.031a5.285,5.285,0,0,1,.336-.766L50.344-8ZM58.977-.094A3.649,3.649,0,0,1,57.328.2q-2.609,0-2.609-2.711V-6.18h-1.3V-8h1.3V-9.727l2.461-.7V-8h1.8v1.82h-1.8v3.234q0,1.25.992,1.25a1.673,1.673,0,0,0,.8-.227ZM64.117.2A4.3,4.3,0,0,1,60.973-.926a4.064,4.064,0,0,1-1.145-3.043,4.065,4.065,0,0,1,1.188-3.105A4.487,4.487,0,0,1,64.227-8.2a4.249,4.249,0,0,1,3.125,1.121,3.985,3.985,0,0,1,1.133,2.965A4.23,4.23,0,0,1,67.316-.961,4.348,4.348,0,0,1,64.117.2Zm.063-6.5a1.647,1.647,0,0,0-1.359.6A2.653,2.653,0,0,0,62.336-4q0,2.3,1.859,2.3,1.773,0,1.773-2.367Q65.969-6.3,64.18-6.3ZM81.156,0H78.82V-1.148h-.031A2.607,2.607,0,0,1,76.406.2a2.492,2.492,0,0,1-1.832-.66,2.366,2.366,0,0,1-.668-1.762q0-2.328,2.758-2.687L78.836-5.2q0-1.312-1.422-1.312a4.853,4.853,0,0,0-2.719.852V-7.523a6.116,6.116,0,0,1,1.41-.469,7.413,7.413,0,0,1,1.629-.2q3.422,0,3.422,3.414Zm-2.32-3.25v-.539L77.383-3.6q-1.2.156-1.2,1.086a.9.9,0,0,0,.293.691,1.126,1.126,0,0,0,.793.27,1.462,1.462,0,0,0,1.133-.48A1.735,1.735,0,0,0,78.836-3.25ZM95.813,0H93.352V-4.562q0-1.742-1.281-1.742a1.177,1.177,0,0,0-.992.523,2.151,2.151,0,0,0-.383,1.3V0H88.227V-4.609q0-1.7-1.258-1.7a1.206,1.206,0,0,0-1.012.5,2.2,2.2,0,0,0-.379,1.359V0H83.109V-8h2.469v1.25h.031a2.952,2.952,0,0,1,1.074-1.043A2.952,2.952,0,0,1,88.2-8.2,2.3,2.3,0,0,1,90.516-6.7,2.959,2.959,0,0,1,93.2-8.2q2.609,0,2.609,3.219Zm4.453-.93h-.031V0H97.766V-11.844h2.469V-6.8h.031a2.929,2.929,0,0,1,2.6-1.4,2.855,2.855,0,0,1,2.383,1.063,4.582,4.582,0,0,1,.836,2.906,4.962,4.962,0,0,1-.977,3.211A3.181,3.181,0,0,1,102.5.2,2.521,2.521,0,0,1,100.266-.93ZM100.2-4.3v.82a1.872,1.872,0,0,0,.445,1.281,1.449,1.449,0,0,0,1.141.508,1.514,1.514,0,0,0,1.309-.652,3.15,3.15,0,0,0,.465-1.848,2.506,2.506,0,0,0-.426-1.551,1.437,1.437,0,0,0-1.215-.559,1.569,1.569,0,0,0-1.23.555A2.107,2.107,0,0,0,100.2-4.3Zm8.742-4.961a1.442,1.442,0,0,1-1.023-.371,1.2,1.2,0,0,1-.4-.91,1.153,1.153,0,0,1,.4-.906,1.49,1.49,0,0,1,1.023-.352,1.486,1.486,0,0,1,1.027.352,1.158,1.158,0,0,1,.395.906,1.191,1.191,0,0,1-.395.922A1.466,1.466,0,0,1,108.938-9.266ZM110.156,0h-2.469V-8h2.469Zm9.266-3.3H114.2q.125,1.742,2.2,1.742a4.286,4.286,0,0,0,2.32-.625V-.4A6.1,6.1,0,0,1,115.836.2a4.058,4.058,0,0,1-3.008-1.074,4.058,4.058,0,0,1-1.07-3,4.281,4.281,0,0,1,1.156-3.156A3.852,3.852,0,0,1,115.758-8.2a3.5,3.5,0,0,1,2.707,1.039,4,4,0,0,1,.957,2.82Zm-2.289-1.516q0-1.719-1.391-1.719a1.328,1.328,0,0,0-1.027.492,2.234,2.234,0,0,0-.527,1.227ZM128.617,0h-2.461V-4.445q0-1.859-1.328-1.859a1.318,1.318,0,0,0-1.055.492,1.875,1.875,0,0,0-.414,1.25V0h-2.469V-8h2.469v1.266h.031a2.829,2.829,0,0,1,2.57-1.461q2.656,0,2.656,3.3Zm6.789-.094A3.649,3.649,0,0,1,133.758.2q-2.609,0-2.609-2.711V-6.18h-1.3V-8h1.3V-9.727l2.461-.7V-8h1.8v1.82h-1.8v3.234q0,1.25.992,1.25a1.673,1.673,0,0,0,.8-.227ZM143.453,0h-2.336V-1.148h-.031A2.607,2.607,0,0,1,138.7.2a2.492,2.492,0,0,1-1.832-.66,2.366,2.366,0,0,1-.668-1.762q0-2.328,2.758-2.687l2.172-.289q0-1.312-1.422-1.312a4.853,4.853,0,0,0-2.719.852V-7.523a6.116,6.116,0,0,1,1.41-.469,7.413,7.413,0,0,1,1.629-.2q3.422,0,3.422,3.414Zm-2.32-3.25v-.539L139.68-3.6q-1.2.156-1.2,1.086a.9.9,0,0,0,.293.691,1.126,1.126,0,0,0,.793.27,1.462,1.462,0,0,0,1.133-.48A1.735,1.735,0,0,0,141.133-3.25ZM147.875,0h-2.469V-11.844h2.469Z" transform="translate(413.575 7171)" fill="#212429"/>
    <g id="Trazado_1168898" data-name="Trazado 1168898" transform="translate(573.575 7140.174)" fill="#fff">
      <path d="M 24 47.5 C 20.82729911804199 47.5 17.74976921081543 46.87873077392578 14.85289001464844 45.65346145629883 C 12.05459022521973 44.46987915039062 9.541350364685059 42.77537155151367 7.382989883422852 40.61700820922852 C 5.224629878997803 38.45864868164062 3.530119895935059 35.94541168212891 2.346539974212646 33.14710998535156 C 1.121269941329956 30.25023078918457 0.5 27.17270088195801 0.5 24 C 0.5 20.82729911804199 1.121269941329956 17.74976921081543 2.346539974212646 14.85289001464844 C 3.530119895935059 12.05459022521973 5.224629878997803 9.541350364685059 7.382989883422852 7.382989883422852 C 9.541350364685059 5.224629878997803 12.05459022521973 3.530119895935059 14.85289001464844 2.346539974212646 C 17.74976921081543 1.121269941329956 20.82729911804199 0.5 24 0.5 C 27.17270088195801 0.5 30.25023078918457 1.121269941329956 33.14710998535156 2.346539974212646 C 35.94541168212891 3.530119895935059 38.45864868164062 5.224629878997803 40.61700820922852 7.382989883422852 C 42.77537155151367 9.541350364685059 44.46987915039062 12.05459022521973 45.65346145629883 14.85289001464844 C 46.87873077392578 17.74976921081543 47.5 20.82729911804199 47.5 24 C 47.5 27.17270088195801 46.87873077392578 30.25023078918457 45.65346145629883 33.14710998535156 C 44.46987915039062 35.94541168212891 42.77537155151367 38.45864868164062 40.61700820922852 40.61700820922852 C 38.45864868164062 42.77537155151367 35.94541168212891 44.46987915039062 33.14710998535156 45.65346145629883 C 30.25023078918457 46.87873077392578 27.17270088195801 47.5 24 47.5 Z" stroke="none"/>
      <path d="M 24 1 C 20.89458084106445 1 17.8825798034668 1.607978820800781 15.04766845703125 2.807041168212891 C 12.3089714050293 3.965419769287109 9.849151611328125 5.623939514160156 7.736549377441406 7.736549377441406 C 5.623939514160156 9.849151611328125 3.965419769287109 12.3089714050293 2.807041168212891 15.04766845703125 C 1.607978820800781 17.8825798034668 1 20.89458084106445 1 24 C 1 27.10541915893555 1.607978820800781 30.1174201965332 2.807041168212891 32.95233154296875 C 3.965419769287109 35.6910285949707 5.623939514160156 38.15084838867188 7.736549377441406 40.26345062255859 C 9.849151611328125 42.37606048583984 12.3089714050293 44.03458023071289 15.04766845703125 45.19295883178711 C 17.8825798034668 46.39202117919922 20.89458084106445 47 24 47 C 27.10541915893555 47 30.1174201965332 46.39202117919922 32.95233154296875 45.19295883178711 C 35.6910285949707 44.03458023071289 38.15084838867188 42.37606048583984 40.26345062255859 40.26345062255859 C 42.37606048583984 38.15084838867188 44.03458023071289 35.6910285949707 45.19295883178711 32.95233154296875 C 46.39202117919922 30.1174201965332 47 27.10541915893555 47 24 C 47 20.89458084106445 46.39202117919922 17.8825798034668 45.19295883178711 15.04766845703125 C 44.03458023071289 12.3089714050293 42.37606048583984 9.849151611328125 40.26345062255859 7.736549377441406 C 38.15084838867188 5.623939514160156 35.6910285949707 3.965419769287109 32.95233154296875 2.807041168212891 C 30.1174201965332 1.607978820800781 27.10541915893555 1 24 1 M 24 0 C 37.25482940673828 0 48 10.74517059326172 48 24 C 48 37.25482940673828 37.25482940673828 48 24 48 C 10.74517059326172 48 0 37.25482940673828 0 24 C 0 10.74517059326172 10.74517059326172 0 24 0 Z" stroke="none" fill="#5b5ba1"/>
    </g>
  </g>
</svg>
