<svg xmlns="http://www.w3.org/2000/svg" xmlns:xlink="http://www.w3.org/1999/xlink" width="110" height="110" viewBox="0 0 110 110">
  <defs>
    <filter id="Trazado_982547" x="0" y="0" width="110" height="110" filterUnits="userSpaceOnUse">
      <feOffset dy="3" input="SourceAlpha"/>
      <feGaussianBlur stdDeviation="3" result="blur"/>
      <feFlood flood-opacity="0.161"/>
      <feComposite operator="in" in2="blur"/>
      <feComposite in="SourceGraphic"/>
    </filter>
  </defs>
  <g id="Grupo_1220428" data-name="Grupo 1220428" transform="translate(-799 -7808.023)">
    <g id="Grupo_1220412" data-name="Grupo 1220412">
      <g id="Grupo_1220001" data-name="Grupo 1220001" transform="translate(808 7814.023)">
        <g id="Grupo_1211701" data-name="Grupo 1211701" transform="translate(0 0)">
          <g id="Grupo_1200150" data-name="Grupo 1200150">
            <g id="Grupo_1185951" data-name="Grupo 1185951" transform="translate(0 0)">
              <g id="Grupo_1184083" data-name="Grupo 1184083" transform="translate(0 0)">
                <g id="Grupo_1183743" data-name="Grupo 1183743" transform="translate(0 0)">
                  <g id="Grupo_1181545" data-name="Grupo 1181545">
                    <g id="Grupo_1177562" data-name="Grupo 1177562">
                      <g id="Grupo_1173147" data-name="Grupo 1173147" transform="translate(0 0)">
                        <g id="Grupo_1163801" data-name="Grupo 1163801" transform="translate(0 0)">
                          <g id="Grupo_1163014" data-name="Grupo 1163014" transform="translate(0 0)">
                            <g id="Grupo_1157015" data-name="Grupo 1157015" transform="translate(0 0)">
                              <g id="Grupo_1155792" data-name="Grupo 1155792">
                                <g id="Grupo_1154703" data-name="Grupo 1154703">
                                  <g id="Grupo_1150789" data-name="Grupo 1150789">
                                    <g id="Grupo_1154212" data-name="Grupo 1154212">
                                      <g id="Grupo_1152583" data-name="Grupo 1152583">
                                        <g id="Grupo_1146973" data-name="Grupo 1146973">
                                          <g id="Grupo_1146954" data-name="Grupo 1146954">
                                            <g transform="matrix(1, 0, 0, 1, -9, -6)" filter="url(#Trazado_982547)">
                                              <g id="Trazado_982547-2" data-name="Trazado 982547" transform="translate(9 6)" fill="#e2f7f7">
                                                <path d="M 46.00000381469727 90.49986267089844 C 39.99188232421875 90.49986267089844 34.16427230834961 89.32350158691406 28.67905807495117 87.00344848632812 C 23.38020324707031 84.76223754882812 18.62104415893555 81.55341339111328 14.53375053405762 77.46613311767578 C 10.44647026062012 73.37885284423828 7.237643718719482 68.61968994140625 4.996417045593262 63.32085037231445 C 2.676363706588745 57.83565139770508 1.500003814697266 52.00805282592773 1.500003814697266 45.99993133544922 C 1.500003814697266 39.99182510375977 2.676363706588745 34.16422653198242 4.996417045593262 28.67901039123535 C 7.237643718719482 23.38017082214355 10.44647026062012 18.62101173400879 14.53375053405762 14.53373146057129 C 18.62104415893555 10.44645118713379 23.38020324707031 7.237624645233154 28.67905807495117 4.996411323547363 C 34.16427230834961 2.676357984542847 39.99188232421875 1.499997973442078 46.00000381469727 1.499997973442078 C 52.00812530517578 1.499997973442078 57.83573532104492 2.676357984542847 63.32094955444336 4.996411323547363 C 68.61980438232422 7.237624645233154 73.37896728515625 10.44645118713379 77.46625518798828 14.53373146057129 C 81.55353546142578 18.62101173400879 84.76236724853516 23.38017082214355 87.00359344482422 28.67901039123535 C 89.32364654541016 34.16422653198242 90.5 39.99182510375977 90.5 45.99993133544922 C 90.5 52.00805282592773 89.32364654541016 57.83565139770508 87.00359344482422 63.32085037231445 C 84.76236724853516 68.61968994140625 81.55353546142578 73.37885284423828 77.46625518798828 77.46613311767578 C 73.37896728515625 81.55341339111328 68.61980438232422 84.76223754882812 63.32094955444336 87.00344848632812 C 57.83573532104492 89.32350158691406 52.00812530517578 90.49986267089844 46.00000381469727 90.49986267089844 Z" stroke="none"/>
                                                <path d="M 46.00000381469727 3 C 40.19371795654297 3 34.56270217895508 4.136505126953125 29.26337432861328 6.377914428710938 C 24.14333343505859 8.54351806640625 19.54441833496094 11.64438629150391 15.59440612792969 15.59439086914062 C 11.64440155029297 19.54440307617188 8.54351806640625 24.14330291748047 6.377914428710938 29.26334381103516 C 4.136505126953125 34.56266021728516 3.000007629394531 40.19366073608398 3.000007629394531 45.99993133544922 C 3.000007629394531 51.80620193481445 4.136505126953125 57.43720245361328 6.377914428710938 62.73651885986328 C 8.54351806640625 67.85655975341797 11.64440155029297 72.45545959472656 15.59440612792969 76.40547180175781 C 19.54441833496094 80.35547637939453 24.14333343505859 83.45634460449219 29.26337432861328 85.6219482421875 C 34.56270217895508 87.86335754394531 40.19371795654297 88.99986267089844 46.00000381469727 88.99986267089844 C 51.80628967285156 88.99986267089844 57.43730545043945 87.86335754394531 62.73661804199219 85.6219482421875 C 67.85667419433594 83.45634460449219 72.45557403564453 80.35547637939453 76.40558624267578 76.40547180175781 C 80.35560607910156 72.45545959472656 83.45647430419922 67.85655975341797 85.62207794189453 62.73651885986328 C 87.86350250244141 57.43720245361328 89 51.80620193481445 89 45.99993133544922 C 89 40.19366073608398 87.86350250244141 34.56266021728516 85.62207794189453 29.26334381103516 C 83.45647430419922 24.14330291748047 80.35560607910156 19.54440307617188 76.40558624267578 15.59439086914062 C 72.45557403564453 11.64438629150391 67.85667419433594 8.54351806640625 62.73661804199219 6.377914428710938 C 57.43730545043945 4.136505126953125 51.80628967285156 3 46.00000381469727 3 M 46.00000381469727 0 C 71.40509033203125 0 92 20.59487152099609 92 45.99993133544922 C 92 71.40499114990234 71.40509033203125 91.99986267089844 46.00000381469727 91.99986267089844 C 20.59490203857422 91.99986267089844 7.62939453125e-06 71.40499114990234 7.62939453125e-06 45.99993133544922 C 7.62939453125e-06 20.59487152099609 20.59490203857422 0 46.00000381469727 0 Z" stroke="none" fill="#75dad9"/>
                                              </g>
                                            </g>
                                          </g>
                                        </g>
                                      </g>
                                    </g>
                                  </g>
                                </g>
                              </g>
                            </g>
                          </g>
                        </g>
                      </g>
                    </g>
                  </g>
                </g>
              </g>
            </g>
          </g>
        </g>
      </g>
    </g>
    <g id="auriculoterapia" transform="translate(766.083 7823.579)">
      <g id="Grupo_1220414" data-name="Grupo 1220414" transform="translate(63.595 57.167)">
        <path id="Trazado_1169240" data-name="Trazado 1169240" d="M120.386,375.552H84.728v-8.431a16.963,16.963,0,0,1,16.963-16.963h1.732a16.963,16.963,0,0,1,16.963,16.963v8.431Z" transform="translate(-84.728 -350.158)" fill="#fe7ab6"/>
      </g>
      <g id="Grupo_1220415" data-name="Grupo 1220415" transform="translate(79.799 57.168)">
        <path id="Trazado_1169241" data-name="Trazado 1169241" d="M203.435,367.124v8.431h-3.251v-8.431a16.96,16.96,0,0,0-16.2-16.945c.251-.013.5-.018.759-.018h1.732A16.962,16.962,0,0,1,203.435,367.124Z" transform="translate(-183.981 -350.161)" fill="#fe5ca7"/>
      </g>
      <g id="Grupo_1220416" data-name="Grupo 1220416" transform="translate(78.011 53.322)">
        <path id="Trazado_1169242" data-name="Trazado 1169242" d="M179.855,332.034v-5.427h-6.826v5.427a3.413,3.413,0,0,0,6.826,0Z" transform="translate(-173.029 -326.607)" fill="#ffcebf"/>
      </g>
      <g id="Grupo_1220417" data-name="Grupo 1220417" transform="translate(65.722 22.668)">
        <path id="Trazado_1169243" data-name="Trazado 1169243" d="M129.159,146.046v9.009a15.7,15.7,0,0,1-31.4,0V142.084l16.078-3.238Z" transform="translate(-97.754 -138.846)" fill="#ffcebf"/>
      </g>
      <g id="Grupo_1220418" data-name="Grupo 1220418" transform="translate(79.66 29.806)">
        <path id="Trazado_1169244" data-name="Trazado 1169244" d="M200.594,182.63v9.01a15.708,15.708,0,0,1-17.467,15.6c7.862-.9,13.979-7.915,13.979-16.428v-8.248Z" transform="translate(-183.127 -182.568)" fill="#ffb09e"/>
      </g>
      <g id="Grupo_1220419" data-name="Grupo 1220419" transform="translate(60.696 33.302)">
        <path id="Trazado_1169245" data-name="Trazado 1169245" d="M72,210.077H70.021a3.049,3.049,0,1,1,0-6.1H72Z" transform="translate(-66.972 -203.979)" fill="#ffcebf"/>
      </g>
      <g id="Grupo_1220420" data-name="Grupo 1220420" transform="translate(97.127 33.302)">
        <path id="Trazado_1169246" data-name="Trazado 1169246" d="M290.114,210.077h1.977a3.049,3.049,0,0,0,0-6.1h-1.977Z" transform="translate(-290.114 -203.979)" fill="#ffcebf"/>
      </g>
      <g id="Grupo_1220421" data-name="Grupo 1220421" transform="translate(65.722 13.192)">
        <path id="Trazado_1169247" data-name="Trazado 1169247" d="M125.6,86.64a17.03,17.03,0,0,0-9.024-5.49,14.248,14.248,0,0,0-6.234,0,17.03,17.03,0,0,0-9.024,5.49,14.928,14.928,0,0,0-3.562,9.6v4.6c7.321-.623,10.967-4.907,15.374-9.543a.454.454,0,0,1,.657,0c4.407,4.636,8.053,8.92,15.374,9.543v-4.6a14.928,14.928,0,0,0-3.562-9.6Z" transform="translate(-97.754 -80.804)" fill="#596c76"/>
      </g>
      <g id="Grupo_1220422" data-name="Grupo 1220422" transform="translate(79.709 13.192)">
        <path id="Trazado_1169248" data-name="Trazado 1169248" d="M200.846,96.236v4.6a18.078,18.078,0,0,1-3.432-.618V96.236a14.926,14.926,0,0,0-3.562-9.6,17.036,17.036,0,0,0-9.024-5.491,12.51,12.51,0,0,0-1.4-.252,13.088,13.088,0,0,1,1.716-.093,12.747,12.747,0,0,1,3.116.345,17.043,17.043,0,0,1,9.024,5.491A14.926,14.926,0,0,1,200.846,96.236Z" transform="translate(-183.427 -80.802)" fill="#465a61"/>
      </g>
      <g id="Grupo_1220423" data-name="Grupo 1220423" transform="translate(75.664 1.224)">
        <path id="Trazado_1169249" data-name="Trazado 1169249" d="M169.847,11.269c-1.645-5.019-9.227-5.035-10.877,0a7.237,7.237,0,0,0,2.912,8.119h5.054A7.237,7.237,0,0,0,169.847,11.269Z" transform="translate(-158.648 -7.499)" fill="#596c76"/>
      </g>
      <g id="Grupo_1220424" data-name="Grupo 1220424" transform="translate(79.702 1.224)">
        <path id="Trazado_1169250" data-name="Trazado 1169250" d="M187.634,19.387H184.2a7.238,7.238,0,0,0,2.912-8.12,5.374,5.374,0,0,0-3.729-3.532,5.75,5.75,0,0,1,7.161,3.532A7.238,7.238,0,0,1,187.634,19.387Z" transform="translate(-183.385 -7.498)" fill="#465a61"/>
      </g>
      <g id="Grupo_1220425" data-name="Grupo 1220425" transform="translate(74.288 9.405)">
        <path id="Trazado_1169251" data-name="Trazado 1169251" d="M164.462,58.806a1.3,1.3,0,0,0-1.291-1.2h-11.62a1.3,1.3,0,0,0-1.291,1.2,7.808,7.808,0,0,0,.469,3.656,1.3,1.3,0,0,0,1.185.77h10.894a1.3,1.3,0,0,0,1.185-.77A7.81,7.81,0,0,0,164.462,58.806Z" transform="translate(-150.225 -57.607)" fill="#8ac9fe"/>
      </g>
      <g id="Grupo_1220426" data-name="Grupo 1220426" transform="translate(83.273 9.406)">
        <path id="Trazado_1169252" data-name="Trazado 1169252" d="M210.039,62.465a1.3,1.3,0,0,1-1.184.77h-3.6a1.3,1.3,0,0,0,1.184-.77,7.794,7.794,0,0,0,.468-3.655,1.3,1.3,0,0,0-1.29-1.2h3.6a1.3,1.3,0,0,1,1.29,1.2A7.793,7.793,0,0,1,210.039,62.465Z" transform="translate(-205.257 -57.61)" fill="#60b7ff"/>
      </g>
      <g id="Grupo_1220427" data-name="Grupo 1220427" transform="translate(59.472 0)">
        <path id="Trazado_1169253" data-name="Trazado 1169253" d="M392.277,137.9a1.224,1.224,0,1,0-1.08,2.2,12.847,12.847,0,0,1,0,23.067,1.224,1.224,0,1,0,1.08,2.2,15.3,15.3,0,0,0,0-27.463Z" transform="translate(-336.466 -115.284)"/>
        <path id="Trazado_1169254" data-name="Trazado 1169254" d="M376.478,179.392a9.025,9.025,0,0,0-5.079-8.151,1.224,1.224,0,1,0-1.08,2.2,6.632,6.632,0,0,1,0,11.907,1.224,1.224,0,1,0,1.08,2.2A9.024,9.024,0,0,0,376.478,179.392Z" transform="translate(-318.996 -143.179)"/>
        <path id="Trazado_1169255" data-name="Trazado 1169255" d="M345.674,199.1a1.224,1.224,0,0,0-1.08,2.2,1.719,1.719,0,0,1,0,3.086,1.224,1.224,0,1,0,1.08,2.2,4.168,4.168,0,0,0,0-7.482Z" transform="translate(-297.471 -166.485)"/>
        <path id="Trazado_1169256" data-name="Trazado 1169256" d="M99.1,32.077h-.752V29.7a1.224,1.224,0,1,0-2.449,0v2.14c-5.6-.9-8.827-4.314-12.518-8.218q-.369-.391-.744-.786a1.685,1.685,0,0,0-1.216-.521h0a1.684,1.684,0,0,0-1.215.521q-.375.395-.744.786c-3.691,3.9-6.915,7.314-12.518,8.218V28.626a13.707,13.707,0,0,1,3.273-8.808A15.4,15.4,0,0,1,75,16.056a2.5,2.5,0,0,0,.974.2H86.872a2.5,2.5,0,0,0,.976-.2,15.406,15.406,0,0,1,4.782,3.763,13.912,13.912,0,0,1,2.611,4.675,1.224,1.224,0,0,0,2.328-.759A16.346,16.346,0,0,0,94.5,18.239a17.8,17.8,0,0,0-5.084-4.122,9.779,9.779,0,0,0,.329-3.609h0A2.537,2.537,0,0,0,88.3,8.422a8.049,8.049,0,0,0-.271-3.809h0a7.03,7.03,0,0,0-13.2,0,8.045,8.045,0,0,0-.27,3.809A2.537,2.537,0,0,0,73.1,10.508a9.781,9.781,0,0,0,.329,3.608,17.8,17.8,0,0,0-5.084,4.123A16.158,16.158,0,0,0,64.5,28.626v3.452h-.752a4.273,4.273,0,0,0,0,8.547h.842a16.97,16.97,0,0,0,12.2,14.534v1.18A18.218,18.218,0,0,0,62.371,74.13v8.431A1.224,1.224,0,0,0,63.6,83.786H76.189a1.224,1.224,0,0,0,0-2.449H72.72v-7.39a1.224,1.224,0,1,0-2.449,0v7.39H64.82V74.13A15.763,15.763,0,0,1,76.79,58.853a4.636,4.636,0,0,0,9.27,0A15.763,15.763,0,0,1,98.029,74.13v7.207H92.577v-7.39a1.224,1.224,0,1,0-2.449,0v7.39H81.773a1.224,1.224,0,0,0,0,2.449h17.48a1.224,1.224,0,0,0,1.224-1.224V74.13A18.218,18.218,0,0,0,86.062,56.338v-1.18a16.97,16.97,0,0,0,12.2-14.534H99.1a4.273,4.273,0,0,0,0-8.547ZM77.15,5.376a4.323,4.323,0,0,1,4.271-2.927A4.386,4.386,0,0,1,85.7,5.376a5.627,5.627,0,0,1,.151,2.8H77A5.625,5.625,0,0,1,77.15,5.376ZM75.544,10.7a.073.073,0,0,1,.07-.071h11.62a.073.073,0,0,1,.07.071,6.516,6.516,0,0,1-.364,3.055.079.079,0,0,1-.069.05H75.977a.079.079,0,0,1-.069-.05A6.515,6.515,0,0,1,75.544,10.7ZM64.5,38.175h-.752a1.825,1.825,0,0,1,0-3.649H64.5ZM83.613,58.75a2.189,2.189,0,1,1-4.377,0V55.662a16.932,16.932,0,0,0,4.377,0ZM95.9,38.877a14.478,14.478,0,0,1-28.956.025V34.315c6.657-.932,10.375-4.861,14.3-9.011l.18-.191.181.191c3.923,4.149,7.641,8.078,14.3,9.01v4.563Zm3.2-.7h-.752V34.526H99.1a1.825,1.825,0,0,1,0,3.649Z" transform="translate(-59.472 0)"/>
        <path id="Trazado_1169257" data-name="Trazado 1169257" d="M153.346,214.048a1.224,1.224,0,0,0-1.224,1.224v2.454a1.224,1.224,0,0,0,2.449,0v-2.454A1.224,1.224,0,0,0,153.346,214.048Z" transform="translate(-136.996 -179.102)"/>
        <path id="Trazado_1169258" data-name="Trazado 1169258" d="M221.972,218.951a1.224,1.224,0,0,0,1.224-1.224v-2.454a1.224,1.224,0,1,0-2.449,0v2.454A1.224,1.224,0,0,0,221.972,218.951Z" transform="translate(-194.418 -179.102)"/>
      </g>
    </g>
  </g>
</svg>
