<svg xmlns="http://www.w3.org/2000/svg" xmlns:xlink="http://www.w3.org/1999/xlink" width="110" height="110" viewBox="0 0 110 110">
  <defs>
    <filter id="Trazado_982547" x="0" y="0" width="110" height="110" filterUnits="userSpaceOnUse">
      <feOffset dy="3" input="SourceAlpha"/>
      <feGaussianBlur stdDeviation="3" result="blur"/>
      <feFlood flood-opacity="0.161"/>
      <feComposite operator="in" in2="blur"/>
      <feComposite in="SourceGraphic"/>
    </filter>
  </defs>
  <g id="Grupo_1220452" data-name="Grupo 1220452" transform="translate(951 -7877.023)">
    <g id="Grupo_1220006" data-name="Grupo 1220006" transform="translate(-1643 3730.498)">
      <g id="Grupo_1211702" data-name="Grupo 1211702" transform="translate(0 -1927.754)">
        <g id="Grupo_1200151" data-name="Grupo 1200151" transform="translate(701 6080.28)">
          <g id="Grupo_1185952" data-name="Grupo 1185952" transform="translate(0 0)">
            <g id="Grupo_1184115" data-name="Grupo 1184115">
              <g id="Grupo_1183744" data-name="Grupo 1183744" transform="translate(0 0)">
                <g id="Grupo_1181546" data-name="Grupo 1181546">
                  <g id="Grupo_1177563" data-name="Grupo 1177563">
                    <g id="Grupo_1173148" data-name="Grupo 1173148" transform="translate(0 0)">
                      <g id="Grupo_1163803" data-name="Grupo 1163803" transform="translate(0 0)">
                        <g id="Grupo_1163015" data-name="Grupo 1163015" transform="translate(0 0)">
                          <g id="Grupo_1157017" data-name="Grupo 1157017" transform="translate(0 0)">
                            <g id="Grupo_1155793" data-name="Grupo 1155793" transform="translate(0 0)">
                              <g id="Grupo_1154704" data-name="Grupo 1154704" transform="translate(0 0)">
                                <g id="Grupo_1150790" data-name="Grupo 1150790">
                                  <g id="Grupo_1154214" data-name="Grupo 1154214">
                                    <g id="Grupo_1152583" data-name="Grupo 1152583">
                                      <g id="Grupo_1146973" data-name="Grupo 1146973">
                                        <g id="Grupo_1146954" data-name="Grupo 1146954">
                                          <g transform="matrix(1, 0, 0, 1, -9, -6)" filter="url(#Trazado_982547)">
                                            <g id="Trazado_982547-2" data-name="Trazado 982547" transform="translate(9 6)" fill="#e2f7f7">
                                              <path d="M 46.00000762939453 90.49988555908203 C 39.99188613891602 90.49988555908203 34.16427612304688 89.32352447509766 28.67906188964844 87.00347137451172 C 23.38020706176758 84.76226043701172 18.62104797363281 81.55342864990234 14.53375434875488 77.46615600585938 C 10.44647407531738 73.37887573242188 7.237647533416748 68.61971282958984 4.996420860290527 63.32085800170898 C 2.676367521286011 57.83565902709961 1.500007629394531 52.00806045532227 1.500007629394531 45.99993896484375 C 1.500007629394531 39.99181747436523 2.676367521286011 34.16421890258789 4.996420860290527 28.67901802062988 C 7.237647533416748 23.38017845153809 10.44647407531738 18.62101936340332 14.53375434875488 14.53373908996582 C 18.62104797363281 10.44645881652832 23.38020706176758 7.237632274627686 28.67906188964844 4.996418952941895 C 34.16427612304688 2.676365613937378 39.99188613891602 1.500005602836609 46.00000762939453 1.500005602836609 C 52.00812911987305 1.500005602836609 57.83573913574219 2.676365613937378 63.32095336914062 4.996418952941895 C 68.61980438232422 7.237632274627686 73.37896728515625 10.44645881652832 77.46626281738281 14.53373908996582 C 81.55354309082031 18.62101936340332 84.76236724853516 23.38017845153809 87.00359344482422 28.67901802062988 C 89.32364654541016 34.16421890258789 90.50000762939453 39.99181747436523 90.50000762939453 45.99993896484375 C 90.50000762939453 52.00806045532227 89.32364654541016 57.83565902709961 87.00359344482422 63.32085800170898 C 84.76236724853516 68.61971282958984 81.55354309082031 73.37887573242188 77.46626281738281 77.46615600585938 C 73.37896728515625 81.55342864990234 68.61980438232422 84.76226043701172 63.32095336914062 87.00347137451172 C 57.83573913574219 89.32352447509766 52.00812911987305 90.49988555908203 46.00000762939453 90.49988555908203 Z" stroke="none"/>
                                              <path d="M 46.00000762939453 2.999992370605469 C 40.19372177124023 2.999992370605469 34.56270599365234 4.136497497558594 29.26339340209961 6.377906799316406 C 24.14333343505859 8.543510437011719 19.54441833496094 11.64437866210938 15.59440612792969 15.59439849853516 C 11.6444091796875 19.54439544677734 8.543525695800781 24.14329528808594 6.377922058105469 29.26335144042969 C 4.136505126953125 34.56266784667969 3.000007629394531 40.19366836547852 3.000007629394531 45.99993896484375 C 3.000007629394531 51.80620956420898 4.136505126953125 57.43722534179688 6.377922058105469 62.73654174804688 C 8.543525695800781 67.85658264160156 11.6444091796875 72.45548248291016 15.59440612792969 76.40549468994141 C 19.54441833496094 80.35549926757812 24.14333343505859 83.45636749267578 29.26337814331055 85.62196350097656 C 34.56270599365234 87.86338043212891 40.19372177124023 88.9998779296875 46.00000762939453 88.9998779296875 C 51.80629348754883 88.9998779296875 57.43730926513672 87.86338043212891 62.73662185668945 85.62196350097656 C 67.85668182373047 83.45636749267578 72.45558166503906 80.35549926757812 76.40559387207031 76.40549468994141 C 80.35560607910156 72.45548248291016 83.45648193359375 67.85658264160156 85.62207794189453 62.73654174804688 C 87.86351013183594 57.43722534179688 89.00000762939453 51.80620956420898 89.00000762939453 45.99993896484375 C 89.00000762939453 40.19366836547852 87.86351013183594 34.56266784667969 85.62207794189453 29.26335144042969 C 83.45648193359375 24.14329528808594 80.35560607910156 19.54439544677734 76.40559387207031 15.59439849853516 C 72.45558166503906 11.64437866210938 67.85668182373047 8.543510437011719 62.73662185668945 6.377906799316406 C 57.43729400634766 4.136497497558594 51.80629348754883 2.999992370605469 46.00000762939453 2.999992370605469 M 46.00000762939453 -7.62939453125e-06 C 71.40509033203125 -7.62939453125e-06 92.00000762939453 20.59487915039062 92.00000762939453 45.99993896484375 C 92.00000762939453 71.40501403808594 71.40509033203125 91.99988555908203 46.00000762939453 91.99988555908203 C 20.59490966796875 91.99988555908203 7.62939453125e-06 71.40501403808594 7.62939453125e-06 45.99993896484375 C 7.62939453125e-06 20.59487915039062 20.59490966796875 -7.62939453125e-06 46.00000762939453 -7.62939453125e-06 Z" stroke="none" fill="#75dad9"/>
                                            </g>
                                          </g>
                                        </g>
                                      </g>
                                    </g>
                                  </g>
                                </g>
                              </g>
                            </g>
                          </g>
                        </g>
                      </g>
                    </g>
                  </g>
                </g>
              </g>
            </g>
          </g>
        </g>
      </g>
    </g>
    <g id="_x31__1_" transform="translate(-934.74 7898.629)">
      <g id="Grupo_1220451" data-name="Grupo 1220451" transform="translate(5.194 3.223)">
        <path id="Trazado_1169282" data-name="Trazado 1169282" d="M71.034,58.457c0-8.56-4.891-14.674-7.337-17.12A22.356,22.356,0,0,0,46.577,34l-8.56,4.891L29.457,34a22.356,22.356,0,0,0-17.12,7.337C9.891,43.783,5,49.9,5,58.457Z" transform="translate(-4.971 3.908)" fill="#c8a9f1"/>
        <path id="Trazado_1169283" data-name="Trazado 1169283" d="M32.642,35.824a3.648,3.648,0,0,1-3.179,1.847,18.975,18.975,0,0,0-14.65,6.4,21.193,21.193,0,0,0-6.1,13.354l-.024.734a2.456,2.456,0,0,0,1.639,2.617,8.956,8.956,0,0,0,2.3.135H19.68a1.834,1.834,0,0,1,0,3.669H12.624c-5.809.538-8.5-3.73-7.41-9.11C6.852,43.821,17.442,33.611,29.462,34Z" transform="translate(-4.976 3.906)" fill="#b18ae3"/>
        <path id="Trazado_1169284" data-name="Trazado 1169284" d="M18.446,25.56h4.891V17H18.446A2.445,2.445,0,0,0,16,19.446v3.669A2.445,2.445,0,0,0,18.446,25.56Z" transform="translate(-2.519 0.12)" fill="#c8a9f1"/>
        <path id="Trazado_1169285" data-name="Trazado 1169285" d="M46.891,25.56H42V17h4.891a2.445,2.445,0,0,1,2.446,2.446v3.669A2.445,2.445,0,0,1,46.891,25.56Z" transform="translate(3.275 0.12)" fill="#c8a9f1"/>
        <path id="Trazado_1169286" data-name="Trazado 1169286" d="M34.229,7A12.228,12.228,0,0,0,22,19.229v7.337a10.987,10.987,0,0,0,5.12,9.289c-.018-.012-.039-.02-.057-.032l-1.394,4.194,8.56,4.891,8.56-4.891-1.394-4.194c-.018.012-.039.02-.057.032a10.987,10.987,0,0,0,5.12-9.289V19.229A12.228,12.228,0,0,0,34.229,7Z" transform="translate(-1.182 -2.109)" fill="#ffdbce"/>
        <path id="Trazado_1169287" data-name="Trazado 1169287" d="M36.075,8.842a1.832,1.832,0,0,1-1.834,1.834,8.688,8.688,0,0,0-8.56,9.306v1.174c.037,1.8-.086,5.148.086,6.493a7.353,7.353,0,0,0,3.289,5.1,3.676,3.676,0,0,1,1.492,4.243s-1.382,4.182-1.382,4.194a3.239,3.239,0,0,1-.306.66l-3.179-1.822c0-.012,1.382-4.158,1.382-4.194-4.317-2.617-5.429-7.618-5.05-12.339-.208-4.635.012-9.734,3.742-13.048,1.565-1.981,9.966-5.772,10.321-1.6Z" transform="translate(-1.195 -2.117)" fill="#fecabd"/>
        <path id="Trazado_1169288" data-name="Trazado 1169288" d="M46.457,19.229H35.451a4.89,4.89,0,0,1-4.891-4.891,4.89,4.89,0,0,1-4.891,4.891H22a12.229,12.229,0,0,1,24.457,0Z" transform="translate(-1.182 -2.109)" fill="#696eb1"/>
        <path id="Trazado_1169289" data-name="Trazado 1169289" d="M36.061,8.842a1.832,1.832,0,0,1-1.834,1.834,8.687,8.687,0,0,0-8.584,8.56H22.01c.232-3.289,1.125-6.481,3.73-8.792C27.3,8.463,35.706,4.672,36.061,8.842Z" transform="translate(-1.18 -2.117)" fill="#4c5698"/>
        <path id="Trazado_1169290" data-name="Trazado 1169290" d="M51.24,65.234H19.446A2.445,2.445,0,0,1,17,62.788V44.446A2.445,2.445,0,0,1,19.446,42H51.24a2.445,2.445,0,0,1,2.446,2.446V62.788A2.445,2.445,0,0,1,51.24,65.234Z" transform="translate(-2.297 5.691)" fill="#696eb1"/>
        <path id="Trazado_1169291" data-name="Trazado 1169291" d="M20.669,61.566V42H19.446A2.445,2.445,0,0,0,17,44.446V62.788a2.445,2.445,0,0,0,2.446,2.446H51.24a2.445,2.445,0,0,0,2.446-2.446V61.566Z" transform="translate(-2.297 5.691)" fill="#4c5698"/>
        <path id="Trazado_1169292" data-name="Trazado 1169292" d="M47,61.229h8.56A6.114,6.114,0,0,0,55.56,49H47Z" transform="translate(4.389 7.251)" fill="#ffdbce"/>
        <path id="Trazado_1169293" data-name="Trazado 1169293" d="M19.674,61.229h-8.56a6.114,6.114,0,0,1,0-12.229h8.56Z" transform="translate(-4.971 7.251)" fill="#ffdbce"/>
        <path id="Trazado_1169294" data-name="Trazado 1169294" d="M11.114,61.193h8.56V57.524H12.618a8.956,8.956,0,0,1-2.3-.135,2.456,2.456,0,0,1-1.639-2.617l.024-.734a18.751,18.751,0,0,1,.946-4.879,6.1,6.1,0,0,0,1.463,12.033Z" transform="translate(-4.971 7.287)" fill="#fecabd"/>
        <circle id="Elipse_14351" data-name="Elipse 14351" cx="4.28" cy="4.28" r="4.28" transform="translate(28.766 55.028)" fill="#fbe29f"/>
        <circle id="Elipse_14352" data-name="Elipse 14352" cx="4.28" cy="4.28" r="4.28" transform="translate(28.766 55.028)" fill="#fbe29f"/>
        <path id="Trazado_1169295" data-name="Trazado 1169295" d="M29.753,55.184a4.281,4.281,0,0,1,0-6.053l.05-.049a1.835,1.835,0,1,1,2.586,2.6l-.042.04a.616.616,0,0,0,0,.865,1.835,1.835,0,0,1-2.5,2.684l-.035-.034Z" transform="translate(0.266 7.151)" fill="#ffcd71"/>
        <path id="Trazado_1169296" data-name="Trazado 1169296" d="M52.24,20.12H47.348a12.229,12.229,0,1,0-24.457,0H18a17.12,17.12,0,1,1,34.24,0Z" transform="translate(-2.074 -3)" fill="#c8a9f1"/>
      </g>
      <path id="_x31_" d="M40.686,26.457V25.234a1.223,1.223,0,0,1,2.446,0v1.223a1.223,1.223,0,1,1-2.446,0ZM72.48,65.588a7.344,7.344,0,0,1-7.337,7.337H57.58a3.664,3.664,0,0,1-3.444,2.446H22.343A3.664,3.664,0,0,1,18.9,72.925H11.337A7.344,7.344,0,0,1,4,65.588,26.021,26.021,0,0,1,11.7,47.6,23.548,23.548,0,0,1,28.79,39.937l.844-2.533a12.253,12.253,0,0,1-4.58-7.278H21.12a3.673,3.673,0,0,1-3.669-3.669V22.788a3.662,3.662,0,0,1,2.5-3.459,18.318,18.318,0,0,1,36.583,0,3.662,3.662,0,0,1,2.5,3.459v3.669a3.673,3.673,0,0,1-3.669,3.669H51.426a12.238,12.238,0,0,1-4.58,7.278l.844,2.533A23.548,23.548,0,0,1,64.784,47.6,26.021,26.021,0,0,1,72.48,65.588ZM55.36,21.566H51.691V27.68H55.36a1.225,1.225,0,0,0,1.223-1.223V22.788A1.225,1.225,0,0,0,55.36,21.566ZM22.405,19.12h2.446a13.444,13.444,0,0,1,26.778,0h2.446a15.881,15.881,0,0,0-31.669,0ZM38.24,9.337A11.019,11.019,0,0,0,27.306,19.12H29.68a3.673,3.673,0,0,0,3.669-3.669,1.223,1.223,0,0,1,2.446,0,3.673,3.673,0,0,0,3.669,3.669h9.711A11.019,11.019,0,0,0,38.24,9.337ZM24.788,27.68V21.566H21.12A1.225,1.225,0,0,0,19.9,22.788v3.669A1.225,1.225,0,0,0,21.12,27.68Zm12.229,9.783h2.446a9.794,9.794,0,0,0,9.783-9.783V21.566H39.463a6.11,6.11,0,0,1-4.891-2.449,6.11,6.11,0,0,1-4.891,2.449H27.234V27.68A9.794,9.794,0,0,0,37.017,37.463ZM44.7,38.711a12.13,12.13,0,0,1-5.241,1.2H37.017a12.13,12.13,0,0,1-5.241-1.2l-.619,1.855,7.083,4.048,7.083-4.048ZM7.36,59.431a7.286,7.286,0,0,1,3.977-1.18h7.337V53.36a3.673,3.673,0,0,1,3.669-3.669H54.137a3.673,3.673,0,0,1,3.669,3.669v4.891h7.337a7.286,7.286,0,0,1,3.977,1.18,24.743,24.743,0,0,0-6.064-10.1,21.04,21.04,0,0,0-15.934-6.978l-8.275,4.729a1.22,1.22,0,0,1-1.213,0l-8.275-4.729a21.032,21.032,0,0,0-15.934,6.978,24.743,24.743,0,0,0-6.064,10.1ZM11.337,70.48h7.337V60.7H11.337a4.891,4.891,0,1,0,0,9.783ZM55.36,71.7V53.36a1.225,1.225,0,0,0-1.223-1.223H22.343A1.225,1.225,0,0,0,21.12,53.36V71.7a1.225,1.225,0,0,0,1.223,1.223H54.137A1.225,1.225,0,0,0,55.36,71.7Zm14.674-6.114A4.9,4.9,0,0,0,65.143,60.7H57.805V70.48h7.337A4.9,4.9,0,0,0,70.034,65.588ZM43.743,62.531a5.5,5.5,0,1,1-5.5-5.5A5.51,5.51,0,0,1,43.743,62.531Zm-2.446,0a3.057,3.057,0,1,0-3.057,3.057A3.061,3.061,0,0,0,41.3,62.531ZM34.571,27.68a1.223,1.223,0,0,0,1.223-1.223V25.234a1.223,1.223,0,0,0-2.446,0v1.223A1.223,1.223,0,0,0,34.571,27.68Z" transform="translate(0 0)"/>
    </g>
  </g>
</svg>
