<svg xmlns="http://www.w3.org/2000/svg" xmlns:xlink="http://www.w3.org/1999/xlink" width="108" height="108" viewBox="0 0 108 108">
  <defs>
    <filter id="Trazado_978624" x="0" y="0" width="108" height="108" filterUnits="userSpaceOnUse">
      <feOffset dy="3" input="SourceAlpha"/>
      <feGaussianBlur stdDeviation="3" result="blur"/>
      <feFlood flood-opacity="0.161"/>
      <feComposite operator="in" in2="blur"/>
      <feComposite in="SourceGraphic"/>
    </filter>
    <filter id="Trazado_1076716" x="0" y="0" width="108" height="108" filterUnits="userSpaceOnUse">
      <feOffset dy="3" input="SourceAlpha"/>
      <feGaussianBlur stdDeviation="3" result="blur-2"/>
      <feFlood flood-opacity="0.161"/>
      <feComposite operator="in" in2="blur-2"/>
      <feComposite in="SourceGraphic"/>
    </filter>
  </defs>
  <g id="Grupo_1220553" data-name="Grupo 1220553" transform="translate(-617 -911.302)">
    <g id="Grupo_1220010" data-name="Grupo 1220010" transform="translate(0 -2573.698)">
      <g id="Grupo_1208078" data-name="Grupo 1208078" transform="translate(1 2999)">
        <g id="Grupo_1181203" data-name="Grupo 1181203" transform="translate(625 492)">
          <g id="Grupo_1172348" data-name="Grupo 1172348" transform="translate(0)">
            <g id="Grupo_1171897" data-name="Grupo 1171897">
              <g id="Grupo_1171052" data-name="Grupo 1171052">
                <g id="Grupo_1164581" data-name="Grupo 1164581">
                  <g id="Grupo_1144123" data-name="Grupo 1144123">
                    <g transform="matrix(1, 0, 0, 1, -9, -6)" filter="url(#Trazado_978624)">
                      <g id="Trazado_978624-2" data-name="Trazado 978624" transform="translate(9 6)" fill="#f0fbfa">
                        <path d="M 45 88.5 C 39.12687683105469 88.5 33.43022537231445 87.35007476806641 28.06830024719238 85.08217620849609 C 22.88852500915527 82.89131164550781 18.23629951477051 79.75458526611328 14.2408504486084 75.75914764404297 C 10.24541282653809 71.76370239257812 7.108687400817871 67.11147308349609 4.917825222015381 61.93170166015625 C 2.649924993515015 56.56977462768555 1.5 50.87312316894531 1.5 45 C 1.5 39.12687683105469 2.649924993515015 33.43022537231445 4.917825222015381 28.06830024719238 C 7.108687400817871 22.88852500915527 10.24541282653809 18.23629951477051 14.2408504486084 14.2408504486084 C 18.23629951477051 10.24541282653809 22.88852500915527 7.108687400817871 28.06830024719238 4.917825222015381 C 33.43022537231445 2.649924993515015 39.12687683105469 1.5 45 1.5 C 50.87312316894531 1.5 56.56977462768555 2.649924993515015 61.93170166015625 4.917825222015381 C 67.11147308349609 7.108687400817871 71.76370239257812 10.24541282653809 75.75914764404297 14.2408504486084 C 79.75458526611328 18.23629951477051 82.89131164550781 22.88852500915527 85.08217620849609 28.06830024719238 C 87.35007476806641 33.43022537231445 88.5 39.12687683105469 88.5 45 C 88.5 50.87312316894531 87.35007476806641 56.56977462768555 85.08217620849609 61.93170166015625 C 82.89131164550781 67.11147308349609 79.75458526611328 71.76370239257812 75.75914764404297 75.75914764404297 C 71.76370239257812 79.75458526611328 67.11147308349609 82.89131164550781 61.93170166015625 85.08217620849609 C 56.56977462768555 87.35007476806641 50.87312316894531 88.5 45 88.5 Z" stroke="none"/>
                        <path d="M 45 3 C 39.32871246337891 3 33.82865524291992 4.110054016113281 28.65262985229492 6.299339294433594 C 23.65165710449219 8.414573669433594 19.15968322753906 11.44334411621094 15.301513671875 15.301513671875 C 11.44334411621094 19.15968322753906 8.414573669433594 23.65165710449219 6.299339294433594 28.65262985229492 C 4.110054016113281 33.82865524291992 3 39.32871246337891 3 45 C 3 50.67128753662109 4.110054016113281 56.17134475708008 6.299339294433594 61.34737396240234 C 8.414573669433594 66.34834289550781 11.44334411621094 70.84031677246094 15.301513671875 74.698486328125 C 19.15968322753906 78.55665588378906 23.65165710449219 81.58542633056641 28.65262985229492 83.70066070556641 C 33.82865524291992 85.88994598388672 39.32871246337891 87 45 87 C 50.67128753662109 87 56.17134475708008 85.88994598388672 61.34737396240234 83.70066070556641 C 66.34834289550781 81.58542633056641 70.84031677246094 78.55665588378906 74.698486328125 74.698486328125 C 78.55665588378906 70.84031677246094 81.58542633056641 66.34834289550781 83.70066070556641 61.34737396240234 C 85.88994598388672 56.17134475708008 87 50.67128753662109 87 45 C 87 39.32871246337891 85.88994598388672 33.82865524291992 83.70066070556641 28.65262985229492 C 81.58542633056641 23.65165710449219 78.55665588378906 19.15968322753906 74.698486328125 15.301513671875 C 70.84031677246094 11.44334411621094 66.34834289550781 8.414573669433594 61.34737396240234 6.299339294433594 C 56.17134475708008 4.110054016113281 50.67128753662109 3 45 3 M 45 0 C 69.85281372070312 0 90 20.14718627929688 90 45 C 90 69.85281372070312 69.85281372070312 90 45 90 C 20.14718627929688 90 0 69.85281372070312 0 45 C 0 20.14718627929688 20.14718627929688 0 45 0 Z" stroke="none" fill="#3f7776"/>
                      </g>
                    </g>
                    <g transform="matrix(1, 0, 0, 1, -9, -6)" filter="url(#Trazado_1076716)">
                      <g id="Trazado_1076716-2" data-name="Trazado 1076716" transform="translate(9 6)" fill="#f0fbfa">
                        <path d="M 45 88.5 C 39.12687683105469 88.5 33.43022537231445 87.35007476806641 28.06830024719238 85.08217620849609 C 22.88852500915527 82.89131164550781 18.23629951477051 79.75458526611328 14.2408504486084 75.75914764404297 C 10.24541282653809 71.76370239257812 7.108687400817871 67.11147308349609 4.917825222015381 61.93170166015625 C 2.649924993515015 56.56977462768555 1.5 50.87312316894531 1.5 45 C 1.5 39.12687683105469 2.649924993515015 33.43022537231445 4.917825222015381 28.06830024719238 C 7.108687400817871 22.88852500915527 10.24541282653809 18.23629951477051 14.2408504486084 14.2408504486084 C 18.23629951477051 10.24541282653809 22.88852500915527 7.108687400817871 28.06830024719238 4.917825222015381 C 33.43022537231445 2.649924993515015 39.12687683105469 1.5 45 1.5 C 50.87312316894531 1.5 56.56977462768555 2.649924993515015 61.93170166015625 4.917825222015381 C 67.11147308349609 7.108687400817871 71.76370239257812 10.24541282653809 75.75914764404297 14.2408504486084 C 79.75458526611328 18.23629951477051 82.89131164550781 22.88852500915527 85.08217620849609 28.06830024719238 C 87.35007476806641 33.43022537231445 88.5 39.12687683105469 88.5 45 C 88.5 50.87312316894531 87.35007476806641 56.56977462768555 85.08217620849609 61.93170166015625 C 82.89131164550781 67.11147308349609 79.75458526611328 71.76370239257812 75.75914764404297 75.75914764404297 C 71.76370239257812 79.75458526611328 67.11147308349609 82.89131164550781 61.93170166015625 85.08217620849609 C 56.56977462768555 87.35007476806641 50.87312316894531 88.5 45 88.5 Z" stroke="none"/>
                        <path d="M 45 3 C 39.32871246337891 3 33.82865524291992 4.110054016113281 28.65262985229492 6.299339294433594 C 23.65165710449219 8.414573669433594 19.15968322753906 11.44334411621094 15.301513671875 15.301513671875 C 11.44334411621094 19.15968322753906 8.414573669433594 23.65165710449219 6.299339294433594 28.65262985229492 C 4.110054016113281 33.82865524291992 3 39.32871246337891 3 45 C 3 50.67128753662109 4.110054016113281 56.17134475708008 6.299339294433594 61.34737396240234 C 8.414573669433594 66.34834289550781 11.44334411621094 70.84031677246094 15.301513671875 74.698486328125 C 19.15968322753906 78.55665588378906 23.65165710449219 81.58542633056641 28.65262985229492 83.70066070556641 C 33.82865524291992 85.88994598388672 39.32871246337891 87 45 87 C 50.67128753662109 87 56.17134475708008 85.88994598388672 61.34737396240234 83.70066070556641 C 66.34834289550781 81.58542633056641 70.84031677246094 78.55665588378906 74.698486328125 74.698486328125 C 78.55665588378906 70.84031677246094 81.58542633056641 66.34834289550781 83.70066070556641 61.34737396240234 C 85.88994598388672 56.17134475708008 87 50.67128753662109 87 45 C 87 39.32871246337891 85.88994598388672 33.82865524291992 83.70066070556641 28.65262985229492 C 81.58542633056641 23.65165710449219 78.55665588378906 19.15968322753906 74.698486328125 15.301513671875 C 70.84031677246094 11.44334411621094 66.34834289550781 8.414573669433594 61.34737396240234 6.299339294433594 C 56.17134475708008 4.110054016113281 50.67128753662109 3 45 3 M 45 0 C 69.85281372070312 0 90 20.14718627929688 90 45 C 90 69.85281372070312 69.85281372070312 90 45 90 C 20.14718627929688 90 0 69.85281372070312 0 45 C 0 20.14718627929688 20.14718627929688 0 45 0 Z" stroke="none" fill="#3f7776"/>
                      </g>
                    </g>
                  </g>
                </g>
              </g>
            </g>
          </g>
        </g>
      </g>
    </g>
    <g id="cerebro_1_" data-name="cerebro (1)" transform="translate(620.059 917.302)">
      <path id="Trazado_1169708" data-name="Trazado 1169708" d="M84.452,102.518a8.54,8.54,0,0,1,.678,3.325,8.644,8.644,0,0,1-16.5,3.577c-3.59,1.716-4.774,5.439-4.774,9.575v6.13H57.2V114.486a7.979,7.979,0,0,0-7.979-7.979H33.267a7.979,7.979,0,0,1-7.979-7.766,7.5,7.5,0,0,1,1.17-4.2H18.639a10.639,10.639,0,1,1,0-21.277,11.28,11.28,0,0,1,1.516.106v-.106a9.844,9.844,0,0,1-.186-1.995,9.974,9.974,0,0,1,9.974-9.974,9.523,9.523,0,0,1,4.256.971,10.638,10.638,0,0,1,19.827,1.051A11.3,11.3,0,1,1,71.074,78.035a.251.251,0,0,1,0,.093,9.2,9.2,0,0,1,6.077-2.208A9.308,9.308,0,0,1,86.46,85.23a9.164,9.164,0,0,1-2.42,6.25A7.978,7.978,0,0,1,86.46,97.2a7.887,7.887,0,0,1-2.008,5.319Zm0,0" transform="translate(-6.67 -46.665)" fill="#ff9ab3"/>
      <path id="Trazado_1169709" data-name="Trazado 1169709" d="M79.112,84.926a10.639,10.639,0,0,0-8.631-16.849,10.363,10.363,0,0,0-2.314.266,12.788,12.788,0,0,0,.984-4.921,12.607,12.607,0,0,0-21.41-9.056,11.969,11.969,0,0,0-20.812-.306,10.821,10.821,0,0,0-3.657-.612,11.317,11.317,0,0,0-11.3,11.3v.665a11.968,11.968,0,0,0,0,23.937h5.758a8.644,8.644,0,0,0-.439,2.912,9.309,9.309,0,0,0,9.309,9.056H42.555a6.649,6.649,0,0,1,6.649,6.649v10.639a1.33,1.33,0,0,0,1.33,1.33h6.649a1.33,1.33,0,0,0,1.33-1.33v-6.13c0-3.657,1-6.25,2.953-7.713A9.974,9.974,0,0,0,79.79,99.328a9.764,9.764,0,0,0-.505-3.112,9.309,9.309,0,0,0,1.835-5.532,9.4,9.4,0,0,0-2.008-5.758Zm-9.3,21.716a7.274,7.274,0,0,1-6.649-4.3,7.138,7.138,0,0,1-.665-3.019h-2.66a9.85,9.85,0,0,0,.466,2.992c-2.221,1.463-4.455,4.322-4.455,10.16v4.8H51.863v-9.309a9.308,9.308,0,0,0-9.309-9.309H26.6a6.649,6.649,0,0,1-6.649-6.476,6.265,6.265,0,0,1,.971-3.471,7.126,7.126,0,0,1,2.819-2.58,8.136,8.136,0,0,0,.784-.319,6.84,6.84,0,0,1,2.407-.452H38.565a7.979,7.979,0,0,0,7.979-7.979h-2.66a5.32,5.32,0,0,1-5.319,5.319H26.929a9.86,9.86,0,0,0-4.242.984,6.5,6.5,0,0,1-2.1.345,6.651,6.651,0,0,1-4.947-2.221L13.644,83.6A9.311,9.311,0,0,0,19.2,86.575l-.08.119H11.969a9.309,9.309,0,1,1,5.16-17.035A9.841,9.841,0,0,0,18.192,78.1l2.234-1.436a7.341,7.341,0,0,1,0-7.872l-1.489-.958.079-.106a11.524,11.524,0,0,0-4.322-1.982,8.254,8.254,0,0,1-.066-1,8.657,8.657,0,0,1,8.644-8.644A8.184,8.184,0,0,1,27,56.973h.094a8.394,8.394,0,0,1,3.67,3.431l2.314-1.33a11.2,11.2,0,0,0-3.817-3.843,9.309,9.309,0,0,1,16.557,1.436,12.152,12.152,0,0,0-1.782,4.521l2.66.479a9.974,9.974,0,1,1,16.783,8.9l.2.2-.918.918a7.024,7.024,0,0,1,.6.652l.08.119a7.741,7.741,0,0,1,1.729,4.934,7.979,7.979,0,0,1-7.979,7.979v2.66a10.639,10.639,0,0,0,9.122-16.091,7.875,7.875,0,0,1,4.176-1.2,7.979,7.979,0,0,1,7.979,7.979,7.818,7.818,0,0,1-1.33,4.349,9.2,9.2,0,0,0-5.319-1.689v2.66a6.543,6.543,0,0,1,4.628,1.888,6.649,6.649,0,0,1-4.628,11.41v2.66a9.308,9.308,0,0,0,5.226-1.623,7.774,7.774,0,0,1,.093.958,7.327,7.327,0,0,1-7.314,7.314Zm0,0" transform="translate(0 -40.151)" fill="#eb7f9a"/>
      <path id="Trazado_1169710" data-name="Trazado 1169710" d="M175.958,304H160v2.66h15.958a13.3,13.3,0,0,1,11.716,7.008l2.34-1.25A15.957,15.957,0,0,0,175.958,304Zm0,0" transform="translate(-133.403 -253.466)" fill="#eb7f9a"/>
      <path id="Trazado_1169711" data-name="Trazado 1169711" d="M398.649,288A6.65,6.65,0,0,0,392,294.649h2.66a3.99,3.99,0,0,1,3.989-3.99Zm0,0" transform="translate(-326.838 -240.126)" fill="#eb7f9a"/>
      <path id="Trazado_1169712" data-name="Trazado 1169712" d="M181.244,62.523a14.627,14.627,0,0,1-8.578,13.3h-12.1a14.628,14.628,0,1,1,20.679-13.3Zm0,0" transform="translate(-126.721 -39.916)" fill="#fce013"/>
      <path id="Trazado_1169713" data-name="Trazado 1169713" d="M197.3,130.618h-2.66V119.979h-2.66v10.639h-2.66V119.979h-1.33a3.989,3.989,0,1,1,3.99-3.989v1.33h2.66v-1.33a3.989,3.989,0,1,1,3.989,3.989H197.3Zm0-13.3h1.33a1.33,1.33,0,1,0-1.33-1.33Zm-9.309-2.66a1.33,1.33,0,0,0,0,2.66h1.33v-1.33A1.33,1.33,0,0,0,187.989,114.66Zm0,0" transform="translate(-153.414 -93.382)" fill="#f95925"/>
      <path id="Trazado_1169714" data-name="Trazado 1169714" d="M215.7,216a7.162,7.162,0,0,1-.731.319v6.33H204.332v-6.33A7.159,7.159,0,0,1,203.6,216Zm0,0" transform="translate(-169.757 -180.095)" fill="#3dcde7"/>
      <g id="Grupo_1220552" data-name="Grupo 1220552" transform="translate(14.628)">
        <path id="Trazado_1169715" data-name="Trazado 1169715" d="M216,256h7.979v1.33a3.989,3.989,0,0,1-7.979,0Zm0,0" transform="translate(-194.723 -213.445)" fill="#f95925"/>
        <path id="Trazado_1169716" data-name="Trazado 1169716" d="M332.98,187.393l1.33-2.3,3.455,1.994-1.329,2.3Zm0,0" transform="translate(-292.257 -154.322)" fill="#f95925"/>
        <path id="Trazado_1169717" data-name="Trazado 1169717" d="M118.273,187.076l3.456-1.994,1.329,2.3L119.6,189.38Zm0,0" transform="translate(-113.241 -154.316)" fill="#f95925"/>
        <path id="Trazado_1169718" data-name="Trazado 1169718" d="M332.984,63.072l3.456-1.994,1.329,2.3-3.455,1.994Zm0,0" transform="translate(-292.261 -50.925)" fill="#f95925"/>
        <path id="Trazado_1169719" data-name="Trazado 1169719" d="M232,0h2.66V3.989H232Zm0,0" transform="translate(-208.063)" fill="#f95925"/>
        <path id="Trazado_1169720" data-name="Trazado 1169720" d="M118.254,63.3l1.33-2.3,3.455,1.994-1.329,2.3Zm0,0" transform="translate(-113.225 -50.86)" fill="#f95925"/>
        <path id="Trazado_1169721" data-name="Trazado 1169721" d="M289.063,6.146,292.386.387l2.3,1.329-3.324,5.759Zm0,0" transform="translate(-255.641 -0.323)" fill="#f95925"/>
        <path id="Trazado_1169722" data-name="Trazado 1169722" d="M157.109,234.755,160.432,229l2.3,1.33-3.324,5.759Zm0,0" transform="translate(-145.621 -190.931)" fill="#f95925"/>
        <path id="Trazado_1169723" data-name="Trazado 1169723" d="M157.1,1.72l2.3-1.33,3.325,5.758-2.3,1.33Zm0,0" transform="translate(-145.612 -0.326)" fill="#f95925"/>
        <path id="Trazado_1169724" data-name="Trazado 1169724" d="M289.094,230.369l2.3-1.33,3.325,5.758-2.3,1.33Zm0,0" transform="translate(-255.666 -190.966)" fill="#f95925"/>
        <path id="Trazado_1169725" data-name="Trazado 1169725" d="M88,128h6.649v2.66H88Zm0,0" transform="translate(-88 -106.723)" fill="#f95925"/>
        <path id="Trazado_1169726" data-name="Trazado 1169726" d="M352,128h6.649v2.66H352Zm0,0" transform="translate(-308.116 -106.723)" fill="#f95925"/>
      </g>
      <path id="Trazado_1169727" data-name="Trazado 1169727" d="M70.481,90.892a10.362,10.362,0,0,0-2.314.266,12.788,12.788,0,0,0,.984-4.921,12.581,12.581,0,0,0-5.945-10.719L61.8,77.78a9.961,9.961,0,0,1,2.566,14.628,11.04,11.04,0,0,0-1.7-1.33l-1.33,2.287a7.979,7.979,0,0,1-4.149,14.814v2.66a10.639,10.639,0,0,0,9.136-16.091,7.715,7.715,0,0,1,4.162-1.2,7.979,7.979,0,0,1,7.979,7.979,7.818,7.818,0,0,1-1.33,4.349,9.2,9.2,0,0,0-5.319-1.689v2.66a6.543,6.543,0,0,1,4.628,1.888,6.649,6.649,0,0,1-4.628,11.41v2.66a9.308,9.308,0,0,0,5.226-1.623,7.774,7.774,0,0,1,.093.958,7.314,7.314,0,0,1-14.628,0h-2.66a9.69,9.69,0,0,0,.466,2.992c-2.234,1.476-4.455,4.388-4.455,10.16v4.8H51.863v-9.309a9.308,9.308,0,0,0-9.309-9.309H26.6a6.649,6.649,0,0,1-6.649-6.463,6.781,6.781,0,0,1,4.468-6.37l-.093-.24.279-.146-1-1.729-.146-.358-.133-.24a6.649,6.649,0,0,1-8.285-1.33l-1.982,1.782a9.39,9.39,0,0,0,6.117,3.059H11.968a9.309,9.309,0,1,1,0-18.618,9.187,9.187,0,0,1,5.479,1.795l1.569-2.154a11.763,11.763,0,0,0-4.322-1.955,8.5,8.5,0,0,1-.066-.944V86.9h6.649v-2.66H15.306a8.5,8.5,0,0,1,2.78-3.591l-1.6-2.127a11.209,11.209,0,0,0-4.521,9.043v.665a11.968,11.968,0,1,0,0,23.937h5.745a8.9,8.9,0,0,0-.425,2.912,9.309,9.309,0,0,0,9.309,9.056H42.554a6.649,6.649,0,0,1,6.649,6.649v10.639a1.33,1.33,0,0,0,1.33,1.33h6.649a1.33,1.33,0,0,0,1.33-1.33V135.3c0-3.671,1-6.25,2.953-7.713a9.974,9.974,0,0,0,18.325-5.439,9.764,9.764,0,0,0-.505-3.112A9.309,9.309,0,0,0,81.12,113.5a9.4,9.4,0,0,0-2.008-5.758,10.639,10.639,0,0,0-8.631-16.849Zm0,0" transform="translate(0 -62.966)"/>
      <path id="Trazado_1169728" data-name="Trazado 1169728" d="M187.673,313.68l2.34-1.33A15.957,15.957,0,0,0,175.958,304H160v2.66h15.958A13.3,13.3,0,0,1,187.673,313.68Zm0,0" transform="translate(-133.403 -253.466)"/>
      <path id="Trazado_1169729" data-name="Trazado 1169729" d="M398.649,290.66V288A6.65,6.65,0,0,0,392,294.649h2.66A3.99,3.99,0,0,1,398.649,290.66Zm0,0" transform="translate(-326.838 -240.126)"/>
      <path id="Trazado_1169730" data-name="Trazado 1169730" d="M153.3,70.394v5.452a1.33,1.33,0,0,0,1.33,1.33,5.319,5.319,0,1,0,10.639,0,1.33,1.33,0,0,0,1.33-1.33V70.394a15.958,15.958,0,1,0-13.3,0Zm5.319.133h5.319v3.989H155.96V70.527Zm-2.66-13.3h-1.33a1.33,1.33,0,1,1,1.33-1.33Zm5.319,10.639h-2.66V59.889h2.66Zm-1.33,11.968a2.66,2.66,0,0,1-2.66-2.66h5.319A2.66,2.66,0,0,1,159.95,79.836Zm0-37.235a13.3,13.3,0,0,1,5.319,25.466v-.2h-1.33V59.889h1.33A3.989,3.989,0,1,0,161.28,55.9v1.33h-2.66V55.9a3.989,3.989,0,1,0-3.989,3.989h1.33v7.979h-1.33v.2A13.3,13.3,0,0,1,159.95,42.6Zm3.989,14.628V55.9a1.33,1.33,0,1,1,1.33,1.33Zm0,0" transform="translate(-120.055 -33.292)"/>
      <path id="Trazado_1169731" data-name="Trazado 1169731" d="M118.215,187.038l3.455-1.995,1.33,2.3-3.455,1.995Zm0,0" transform="translate(-98.564 -154.284)"/>
      <path id="Trazado_1169732" data-name="Trazado 1169732" d="M332.984,63.072l3.456-1.994,1.329,2.3-3.455,1.994Zm0,0" transform="translate(-277.633 -50.925)"/>
      <path id="Trazado_1169733" data-name="Trazado 1169733" d="M232,0h2.66V3.989H232Zm0,0" transform="translate(-193.435)"/>
      <path id="Trazado_1169734" data-name="Trazado 1169734" d="M333.016,187.378l1.33-2.3,3.455,1.995-1.33,2.3Zm0,0" transform="translate(-277.659 -154.31)"/>
      <path id="Trazado_1169735" data-name="Trazado 1169735" d="M118.254,63.3l1.33-2.3,3.455,1.994-1.329,2.3Zm0,0" transform="translate(-98.597 -50.86)"/>
      <path id="Trazado_1169736" data-name="Trazado 1169736" d="M289.105,6.1,292.43.34l2.3,1.33-3.325,5.758Zm0,0" transform="translate(-241.048 -0.283)"/>
      <path id="Trazado_1169737" data-name="Trazado 1169737" d="M157.109,234.755,160.432,229l2.3,1.33-3.324,5.759Zm0,0" transform="translate(-130.993 -190.931)"/>
      <path id="Trazado_1169738" data-name="Trazado 1169738" d="M157.1,1.72l2.3-1.33,3.325,5.758-2.3,1.33Zm0,0" transform="translate(-130.984 -0.326)"/>
      <path id="Trazado_1169739" data-name="Trazado 1169739" d="M289.094,230.369l2.3-1.33,3.325,5.758-2.3,1.33Zm0,0" transform="translate(-241.038 -190.966)"/>
      <path id="Trazado_1169740" data-name="Trazado 1169740" d="M352,128h6.649v2.66H352Zm0,0" transform="translate(-293.488 -106.723)"/>
    </g>
  </g>
</svg>
