<svg xmlns="http://www.w3.org/2000/svg" xmlns:xlink="http://www.w3.org/1999/xlink" width="110" height="110" viewBox="0 0 110 110">
  <defs>
    <filter id="Trazado_982547" x="0" y="0" width="110" height="110" filterUnits="userSpaceOnUse">
      <feOffset dy="3" input="SourceAlpha"/>
      <feGaussianBlur stdDeviation="3" result="blur"/>
      <feFlood flood-opacity="0.161"/>
      <feComposite operator="in" in2="blur"/>
      <feComposite in="SourceGraphic"/>
    </filter>
  </defs>
  <g id="Grupo_1221001" data-name="Grupo 1221001" transform="translate(-377 -5291.828)">
    <g id="Grupo_1220125" data-name="Grupo 1220125" transform="translate(0 1146.303)">
      <g id="Grupo_1211701" data-name="Grupo 1211701" transform="translate(0 -1927.754)">
        <g id="Grupo_1200150" data-name="Grupo 1200150" transform="translate(386 6079.28)">
          <g id="Grupo_1185951" data-name="Grupo 1185951" transform="translate(0 0)">
            <g id="Grupo_1184083" data-name="Grupo 1184083" transform="translate(0 0)">
              <g id="Grupo_1183743" data-name="Grupo 1183743" transform="translate(0 0)">
                <g id="Grupo_1181545" data-name="Grupo 1181545">
                  <g id="Grupo_1177562" data-name="Grupo 1177562">
                    <g id="Grupo_1173147" data-name="Grupo 1173147" transform="translate(0 0)">
                      <g id="Grupo_1163801" data-name="Grupo 1163801" transform="translate(0 0)">
                        <g id="Grupo_1163014" data-name="Grupo 1163014" transform="translate(0 0)">
                          <g id="Grupo_1157015" data-name="Grupo 1157015" transform="translate(0 0)">
                            <g id="Grupo_1155792" data-name="Grupo 1155792" transform="translate(0 0)">
                              <g id="Grupo_1154703" data-name="Grupo 1154703" transform="translate(0 0)">
                                <g id="Grupo_1150789" data-name="Grupo 1150789">
                                  <g id="Grupo_1154212" data-name="Grupo 1154212">
                                    <g id="Grupo_1152583" data-name="Grupo 1152583">
                                      <g id="Grupo_1146973" data-name="Grupo 1146973">
                                        <g id="Grupo_1146954" data-name="Grupo 1146954">
                                          <g transform="matrix(1, 0, 0, 1, -9, -6)" filter="url(#Trazado_982547)">
                                            <g id="Trazado_982547-2" data-name="Trazado 982547" transform="translate(9 6)" fill="#e2f7f7">
                                              <path d="M 46.00000762939453 90.49988555908203 C 39.99188613891602 90.49988555908203 34.16427612304688 89.32352447509766 28.67906188964844 87.00347137451172 C 23.38020706176758 84.76226043701172 18.62104797363281 81.55342864990234 14.53375434875488 77.46615600585938 C 10.44647407531738 73.37887573242188 7.237647533416748 68.61971282958984 4.996420860290527 63.32085800170898 C 2.676367521286011 57.83565902709961 1.500007629394531 52.00806045532227 1.500007629394531 45.99993896484375 C 1.500007629394531 39.99181747436523 2.676367521286011 34.16421890258789 4.996420860290527 28.67901802062988 C 7.237647533416748 23.38017845153809 10.44647407531738 18.62101936340332 14.53375434875488 14.53373908996582 C 18.62104797363281 10.44645881652832 23.38020706176758 7.237632274627686 28.67906188964844 4.996418952941895 C 34.16427612304688 2.676365613937378 39.99188613891602 1.500005602836609 46.00000762939453 1.500005602836609 C 52.00812911987305 1.500005602836609 57.83573913574219 2.676365613937378 63.32095336914062 4.996418952941895 C 68.61980438232422 7.237632274627686 73.37896728515625 10.44645881652832 77.46626281738281 14.53373908996582 C 81.55354309082031 18.62101936340332 84.76236724853516 23.38017845153809 87.00359344482422 28.67901802062988 C 89.32364654541016 34.16421890258789 90.50000762939453 39.99181747436523 90.50000762939453 45.99993896484375 C 90.50000762939453 52.00806045532227 89.32364654541016 57.83565902709961 87.00359344482422 63.32085800170898 C 84.76236724853516 68.61971282958984 81.55354309082031 73.37887573242188 77.46626281738281 77.46615600585938 C 73.37896728515625 81.55342864990234 68.61980438232422 84.76226043701172 63.32095336914062 87.00347137451172 C 57.83573913574219 89.32352447509766 52.00812911987305 90.49988555908203 46.00000762939453 90.49988555908203 Z" stroke="none"/>
                                              <path d="M 46.00000762939453 2.999992370605469 C 40.19372177124023 2.999992370605469 34.56270599365234 4.136497497558594 29.26339340209961 6.377906799316406 C 24.14333343505859 8.543510437011719 19.54441833496094 11.64437866210938 15.59440612792969 15.59439849853516 C 11.6444091796875 19.54439544677734 8.543525695800781 24.14329528808594 6.377922058105469 29.26335144042969 C 4.136505126953125 34.56266784667969 3.000007629394531 40.19366836547852 3.000007629394531 45.99993896484375 C 3.000007629394531 51.80620956420898 4.136505126953125 57.43722534179688 6.377922058105469 62.73654174804688 C 8.543525695800781 67.85658264160156 11.6444091796875 72.45548248291016 15.59440612792969 76.40549468994141 C 19.54441833496094 80.35549926757812 24.14333343505859 83.45636749267578 29.26337814331055 85.62196350097656 C 34.56270599365234 87.86338043212891 40.19372177124023 88.9998779296875 46.00000762939453 88.9998779296875 C 51.80629348754883 88.9998779296875 57.43730926513672 87.86338043212891 62.73662185668945 85.62196350097656 C 67.85668182373047 83.45636749267578 72.45558166503906 80.35549926757812 76.40559387207031 76.40549468994141 C 80.35560607910156 72.45548248291016 83.45648193359375 67.85658264160156 85.62207794189453 62.73654174804688 C 87.86351013183594 57.43722534179688 89.00000762939453 51.80620956420898 89.00000762939453 45.99993896484375 C 89.00000762939453 40.19366836547852 87.86351013183594 34.56266784667969 85.62207794189453 29.26335144042969 C 83.45648193359375 24.14329528808594 80.35560607910156 19.54439544677734 76.40559387207031 15.59439849853516 C 72.45558166503906 11.64437866210938 67.85668182373047 8.543510437011719 62.73662185668945 6.377906799316406 C 57.43729400634766 4.136497497558594 51.80629348754883 2.999992370605469 46.00000762939453 2.999992370605469 M 46.00000762939453 -7.62939453125e-06 C 71.40509033203125 -7.62939453125e-06 92.00000762939453 20.59487915039062 92.00000762939453 45.99993896484375 C 92.00000762939453 71.40501403808594 71.40509033203125 91.99988555908203 46.00000762939453 91.99988555908203 C 20.59490966796875 91.99988555908203 7.62939453125e-06 71.40501403808594 7.62939453125e-06 45.99993896484375 C 7.62939453125e-06 20.59487915039062 20.59490966796875 -7.62939453125e-06 46.00000762939453 -7.62939453125e-06 Z" stroke="none" fill="#75dad9"/>
                                            </g>
                                          </g>
                                        </g>
                                      </g>
                                    </g>
                                  </g>
                                </g>
                              </g>
                            </g>
                          </g>
                        </g>
                      </g>
                    </g>
                  </g>
                </g>
              </g>
            </g>
          </g>
        </g>
      </g>
    </g>
    <g id="pensamiento-positivo" transform="translate(368.711 5315.946)">
      <g id="Grupo_1220999" data-name="Grupo 1220999" transform="translate(27.923 1.17)">
        <path id="Trazado_1170965" data-name="Trazado 1170965" d="M89.237,66.827c-.952-5.852,3.657-10.554,6.092-15.66a28.447,28.447,0,1,0-52.5-18.8h0C41.12,41.089,37.083,44,34.968,49.135a3.561,3.561,0,0,0,3.2,4.911l3.758.1,1.979,10.1A8.724,8.724,0,0,0,52.413,71.3l3.942.023a4.972,4.972,0,0,1,4.906,4.364l.6,4.86H91.552s-1.665-9.723-2.314-13.716Z" transform="translate(-34.698 -8)" fill="#ffdcd0"/>
        <g id="Grupo_1220998" data-name="Grupo 1220998" transform="translate(0 41.798)">
          <path id="Trazado_1170966" data-name="Trazado 1170966" d="M218.2,486l.324,2.633h29.692s-.182-1.064-.449-2.633Z" transform="translate(-191.36 -457.889)" fill="#ffc7b6"/>
          <g id="Grupo_1220997" data-name="Grupo 1220997">
            <path id="Trazado_1170967" data-name="Trazado 1170967" d="M111.647,386.033a4.972,4.972,0,0,0-4.906-4.364l-4.121-.023A8.724,8.724,0,0,1,94.11,374.6h0l.516,2.632a8.724,8.724,0,0,0,8.511,7.047l3.942.023a4.971,4.971,0,0,1,4.86,4.07Z" transform="translate(-85.419 -362.781)" fill="#ffc7b6"/>
            <path id="Trazado_1170968" data-name="Trazado 1170968" d="M41.926,298.142l0,.007-.4-2.065a.732.732,0,0,0-.7-.59l-3.173-.087a3.54,3.54,0,0,1-2.886-1.615,3.564,3.564,0,0,0,3.4,4.248Z" transform="translate(-34.701 -293.791)" fill="#ffc7b6"/>
          </g>
        </g>
        <circle id="Elipse_14403" data-name="Elipse 14403" cx="18.252" cy="18.252" r="18.252" transform="translate(10.472 28.446) rotate(-45)" fill="#eef5ff"/>
        <path id="Trazado_1170969" data-name="Trazado 1170969" d="M176.267,210.427a18.253,18.253,0,0,1-18.2-16.936c-.031.435-.048.874-.048,1.316a18.252,18.252,0,0,0,36.5,0c0-.443-.017-.881-.048-1.316A18.253,18.253,0,0,1,176.267,210.427Z" transform="translate(-139.979 -166.362)" fill="#dfe9fb"/>
        <path id="Trazado_1170970" data-name="Trazado 1170970" d="M375.058,12.683h-2.489V10.194A2.194,2.194,0,0,0,370.375,8h-.882a2.194,2.194,0,0,0-2.194,2.194v2.489H364.81a2.194,2.194,0,0,0-2.194,2.194v.882a2.194,2.194,0,0,0,2.194,2.194H367.3v2.489a2.194,2.194,0,0,0,2.194,2.194h.882a2.194,2.194,0,0,0,2.194-2.194V17.953h2.489a2.194,2.194,0,0,0,2.194-2.194v-.882A2.194,2.194,0,0,0,375.058,12.683Z" transform="translate(-314.656 -8)" fill="#ff7e92"/>
        <path id="Trazado_1170971" data-name="Trazado 1170971" d="M375.058,50.355H373.3a.731.731,0,0,0-.731.731v1.758a2.194,2.194,0,0,1-2.194,2.194h-.882a2.194,2.194,0,0,1-2.194-2.194V51.086a.731.731,0,0,0-.731-.731H364.81a2.194,2.194,0,0,1-2.011-1.319,2.186,2.186,0,0,0-.183.875v.882a2.194,2.194,0,0,0,2.194,2.194H367.3v2.489a2.194,2.194,0,0,0,2.194,2.194h.882a2.194,2.194,0,0,0,2.194-2.194V52.987h2.489a2.194,2.194,0,0,0,2.194-2.194v-.882a2.183,2.183,0,0,0-.183-.875A2.193,2.193,0,0,1,375.058,50.355Z" transform="translate(-314.656 -43.034)" fill="#ff5f7a"/>
      </g>
      <g id="Grupo_1221000" data-name="Grupo 1221000" transform="translate(26.762 0)">
        <path id="Trazado_1170972" data-name="Trazado 1170972" d="M180.879,102.261a1.1,1.1,0,0,0,1.432,1.667,19.387,19.387,0,1,0-12.626,4.675,19.183,19.183,0,0,0,8.746-2.081,1.1,1.1,0,1,0-.993-1.961,17.007,17.007,0,0,1-7.753,1.844,17.188,17.188,0,1,1,11.194-4.144Z" transform="translate(-132.23 -59.617)"/>
        <path id="Trazado_1170973" data-name="Trazado 1170973" d="M244.921,223.46a6.587,6.587,0,0,0,6.486-5.6,1.1,1.1,0,1,0-2.175-.317,4.358,4.358,0,0,1-8.622,0,1.1,1.1,0,0,0-2.175.317A6.588,6.588,0,0,0,244.921,223.46Z" transform="translate(-207.466 -184.919)"/>
        <path id="Trazado_1170974" data-name="Trazado 1170974" d="M217.047,167.688a1.1,1.1,0,0,0-2.164-.383,1.063,1.063,0,0,1-2.093,0,1.1,1.1,0,0,0-2.164.383,3.261,3.261,0,0,0,6.422,0Z" transform="translate(-183.719 -142.061)"/>
        <path id="Trazado_1170975" data-name="Trazado 1170975" d="M317.394,167.688a1.1,1.1,0,0,0-2.164-.383,1.063,1.063,0,0,1-2.093,0,1.1,1.1,0,1,0-2.164.383,3.261,3.261,0,0,0,6.422,0Z" transform="translate(-269.39 -142.061)"/>
        <path id="Trazado_1170976" data-name="Trazado 1170976" d="M197.289,12.171h.2a3.3,3.3,0,0,0,3.3-3.3V7.989a3.3,3.3,0,0,0-3.3-3.3h-1.4V3.3A3.3,3.3,0,0,0,192.8,0h-.884a3.3,3.3,0,0,0-3.3,3.3v.926a29.684,29.684,0,0,0-33.632,2.146,1.1,1.1,0,1,0,1.363,1.724A27.093,27.093,0,0,1,173.585,2.2a27.441,27.441,0,0,1,12.062,2.9,3.3,3.3,0,0,0-1.72,2.895v.884a3.3,3.3,0,0,0,3.3,3.3h1.4v1.4a3.3,3.3,0,0,0,3.3,3.3h.884a3.3,3.3,0,0,0,3.234-2.653,27.492,27.492,0,0,1,.749,29.57,1.04,1.04,0,0,0-.052.1c-.656,1.376-1.505,2.771-2.327,4.12-2.273,3.732-4.623,7.591-3.869,12.221.5,3.092,1.625,9.682,2.1,12.467H165.16l-.481-3.9a6.1,6.1,0,0,0-6-5.337h-.007a1.1,1.1,0,0,0-.006,2.2,3.891,3.891,0,0,1,3.831,3.408l.6,4.869a1.1,1.1,0,0,0,1.091.965h29.75a1.1,1.1,0,0,0,1.083-1.285c-.017-.1-1.674-9.783-2.317-13.733-.623-3.827,1.417-7.178,3.577-10.725.841-1.38,1.71-2.808,2.41-4.267a29.687,29.687,0,0,0-1.4-32.7Zm-3.389-1.1v2.494a1.1,1.1,0,0,1-1.1,1.1h-.884a1.1,1.1,0,0,1-1.1-1.1V11.071a1.1,1.1,0,0,0-1.1-1.1h-2.494a1.1,1.1,0,0,1-1.1-1.1V7.989a1.1,1.1,0,0,1,1.1-1.1h2.494a1.1,1.1,0,0,0,1.1-1.1V3.3a1.1,1.1,0,0,1,1.1-1.1h.884a1.1,1.1,0,0,1,1.1,1.1V5.791a1.1,1.1,0,0,0,1.1,1.1h2.494a1.1,1.1,0,0,1,1.1,1.1v.884a1.1,1.1,0,0,1-1.1,1.1H195A1.1,1.1,0,0,0,193.9,11.071Z" transform="translate(-135.878 0)"/>
        <path id="Trazado_1170977" data-name="Trazado 1170977" d="M45.224,116.678a7.635,7.635,0,0,1-7.065-6.16L36.176,100.4a1.1,1.1,0,0,0-1.048-.887l-3.765-.1A2.469,2.469,0,0,1,29.145,96a29.979,29.979,0,0,1,2.712-4.837,31.638,31.638,0,0,0,5.216-12.11,1.112,1.112,0,0,0,.023-.115,27.219,27.219,0,0,1,7.026-14.7,1.1,1.1,0,1,0-1.612-1.495,29.4,29.4,0,0,0-7.581,15.822v0a29.365,29.365,0,0,1-4.919,11.4,31.654,31.654,0,0,0-2.9,5.191A4.667,4.667,0,0,0,31.3,101.6l2.886.08L36,110.94a9.832,9.832,0,0,0,9.1,7.933l.063,0a1.1,1.1,0,0,0,.061-2.2Z" transform="translate(-26.762 -53.27)"/>
      </g>
    </g>
  </g>
</svg>
