<svg xmlns="http://www.w3.org/2000/svg" xmlns:xlink="http://www.w3.org/1999/xlink" width="110" height="110" viewBox="0 0 110 110">
  <defs>
    <filter id="Trazado_982547" x="0" y="0" width="110" height="110" filterUnits="userSpaceOnUse">
      <feOffset dy="3" input="SourceAlpha"/>
      <feGaussianBlur stdDeviation="3" result="blur"/>
      <feFlood flood-opacity="0.161"/>
      <feComposite operator="in" in2="blur"/>
      <feComposite in="SourceGraphic"/>
    </filter>
  </defs>
  <g id="Grupo_1221005" data-name="Grupo 1221005" transform="translate(-692 -5292.828)">
    <g id="Grupo_1220126" data-name="Grupo 1220126" transform="translate(0 1146.303)">
      <g id="Grupo_1211702" data-name="Grupo 1211702" transform="translate(0 -1927.754)">
        <g id="Grupo_1200151" data-name="Grupo 1200151" transform="translate(701 6080.28)">
          <g id="Grupo_1185952" data-name="Grupo 1185952" transform="translate(0 0)">
            <g id="Grupo_1184115" data-name="Grupo 1184115">
              <g id="Grupo_1183744" data-name="Grupo 1183744" transform="translate(0 0)">
                <g id="Grupo_1181546" data-name="Grupo 1181546">
                  <g id="Grupo_1177563" data-name="Grupo 1177563">
                    <g id="Grupo_1173148" data-name="Grupo 1173148" transform="translate(0 0)">
                      <g id="Grupo_1163803" data-name="Grupo 1163803" transform="translate(0 0)">
                        <g id="Grupo_1163015" data-name="Grupo 1163015" transform="translate(0 0)">
                          <g id="Grupo_1157017" data-name="Grupo 1157017" transform="translate(0 0)">
                            <g id="Grupo_1155793" data-name="Grupo 1155793" transform="translate(0 0)">
                              <g id="Grupo_1154704" data-name="Grupo 1154704" transform="translate(0 0)">
                                <g id="Grupo_1150790" data-name="Grupo 1150790">
                                  <g id="Grupo_1154214" data-name="Grupo 1154214">
                                    <g id="Grupo_1152583" data-name="Grupo 1152583">
                                      <g id="Grupo_1146973" data-name="Grupo 1146973">
                                        <g id="Grupo_1146954" data-name="Grupo 1146954">
                                          <g transform="matrix(1, 0, 0, 1, -9, -6)" filter="url(#Trazado_982547)">
                                            <g id="Trazado_982547-2" data-name="Trazado 982547" transform="translate(9 6)" fill="#e2f7f7">
                                              <path d="M 46.00000762939453 90.49988555908203 C 39.99188613891602 90.49988555908203 34.16427612304688 89.32352447509766 28.67906188964844 87.00347137451172 C 23.38020706176758 84.76226043701172 18.62104797363281 81.55342864990234 14.53375434875488 77.46615600585938 C 10.44647407531738 73.37887573242188 7.237647533416748 68.61971282958984 4.996420860290527 63.32085800170898 C 2.676367521286011 57.83565902709961 1.500007629394531 52.00806045532227 1.500007629394531 45.99993896484375 C 1.500007629394531 39.99181747436523 2.676367521286011 34.16421890258789 4.996420860290527 28.67901802062988 C 7.237647533416748 23.38017845153809 10.44647407531738 18.62101936340332 14.53375434875488 14.53373908996582 C 18.62104797363281 10.44645881652832 23.38020706176758 7.237632274627686 28.67906188964844 4.996418952941895 C 34.16427612304688 2.676365613937378 39.99188613891602 1.500005602836609 46.00000762939453 1.500005602836609 C 52.00812911987305 1.500005602836609 57.83573913574219 2.676365613937378 63.32095336914062 4.996418952941895 C 68.61980438232422 7.237632274627686 73.37896728515625 10.44645881652832 77.46626281738281 14.53373908996582 C 81.55354309082031 18.62101936340332 84.76236724853516 23.38017845153809 87.00359344482422 28.67901802062988 C 89.32364654541016 34.16421890258789 90.50000762939453 39.99181747436523 90.50000762939453 45.99993896484375 C 90.50000762939453 52.00806045532227 89.32364654541016 57.83565902709961 87.00359344482422 63.32085800170898 C 84.76236724853516 68.61971282958984 81.55354309082031 73.37887573242188 77.46626281738281 77.46615600585938 C 73.37896728515625 81.55342864990234 68.61980438232422 84.76226043701172 63.32095336914062 87.00347137451172 C 57.83573913574219 89.32352447509766 52.00812911987305 90.49988555908203 46.00000762939453 90.49988555908203 Z" stroke="none"/>
                                              <path d="M 46.00000762939453 2.999992370605469 C 40.19372177124023 2.999992370605469 34.56270599365234 4.136497497558594 29.26339340209961 6.377906799316406 C 24.14333343505859 8.543510437011719 19.54441833496094 11.64437866210938 15.59440612792969 15.59439849853516 C 11.6444091796875 19.54439544677734 8.543525695800781 24.14329528808594 6.377922058105469 29.26335144042969 C 4.136505126953125 34.56266784667969 3.000007629394531 40.19366836547852 3.000007629394531 45.99993896484375 C 3.000007629394531 51.80620956420898 4.136505126953125 57.43722534179688 6.377922058105469 62.73654174804688 C 8.543525695800781 67.85658264160156 11.6444091796875 72.45548248291016 15.59440612792969 76.40549468994141 C 19.54441833496094 80.35549926757812 24.14333343505859 83.45636749267578 29.26337814331055 85.62196350097656 C 34.56270599365234 87.86338043212891 40.19372177124023 88.9998779296875 46.00000762939453 88.9998779296875 C 51.80629348754883 88.9998779296875 57.43730926513672 87.86338043212891 62.73662185668945 85.62196350097656 C 67.85668182373047 83.45636749267578 72.45558166503906 80.35549926757812 76.40559387207031 76.40549468994141 C 80.35560607910156 72.45548248291016 83.45648193359375 67.85658264160156 85.62207794189453 62.73654174804688 C 87.86351013183594 57.43722534179688 89.00000762939453 51.80620956420898 89.00000762939453 45.99993896484375 C 89.00000762939453 40.19366836547852 87.86351013183594 34.56266784667969 85.62207794189453 29.26335144042969 C 83.45648193359375 24.14329528808594 80.35560607910156 19.54439544677734 76.40559387207031 15.59439849853516 C 72.45558166503906 11.64437866210938 67.85668182373047 8.543510437011719 62.73662185668945 6.377906799316406 C 57.43729400634766 4.136497497558594 51.80629348754883 2.999992370605469 46.00000762939453 2.999992370605469 M 46.00000762939453 -7.62939453125e-06 C 71.40509033203125 -7.62939453125e-06 92.00000762939453 20.59487915039062 92.00000762939453 45.99993896484375 C 92.00000762939453 71.40501403808594 71.40509033203125 91.99988555908203 46.00000762939453 91.99988555908203 C 20.59490966796875 91.99988555908203 7.62939453125e-06 71.40501403808594 7.62939453125e-06 45.99993896484375 C 7.62939453125e-06 20.59487915039062 20.59490966796875 -7.62939453125e-06 46.00000762939453 -7.62939453125e-06 Z" stroke="none" fill="#75dad9"/>
                                            </g>
                                          </g>
                                        </g>
                                      </g>
                                    </g>
                                  </g>
                                </g>
                              </g>
                            </g>
                          </g>
                        </g>
                      </g>
                    </g>
                  </g>
                </g>
              </g>
            </g>
          </g>
        </g>
      </g>
    </g>
    <g id="emociones" transform="translate(705.053 5298.615)">
      <g id="Grupo_1221003" data-name="Grupo 1221003" transform="translate(1.217 25.095)">
        <circle id="Elipse_14404" data-name="Elipse 14404" cx="14.295" cy="14.295" r="14.295" transform="translate(45.711 0)" fill="#99e6fc"/>
        <circle id="Elipse_14405" data-name="Elipse 14405" cx="14.295" cy="14.295" r="14.295" transform="translate(6.323 0)" fill="#fef48b"/>
        <path id="Trazado_1170978" data-name="Trazado 1170978" d="M296.661,97.76a14.3,14.3,0,0,1,10.62-13.817,14.295,14.295,0,1,0,0,27.634,14.3,14.3,0,0,1-10.62-13.817Z" transform="translate(-243.596 -83.465)" fill="#62dbfb"/>
        <path id="Trazado_1170979" data-name="Trazado 1170979" d="M53.834,97.76A14.3,14.3,0,0,1,64.454,83.943a14.295,14.295,0,1,0,0,27.634A14.3,14.3,0,0,1,53.834,97.76Z" transform="translate(-40.157 -83.465)" fill="#fef056"/>
        <path id="Trazado_1170980" data-name="Trazado 1170980" d="M80.818,186.6a.711.711,0,0,0-.66.971,9.426,9.426,0,0,0,17.581,0,.711.711,0,0,0-.66-.971Z" transform="translate(-68.331 -169.869)" fill="#fd8087"/>
        <path id="Trazado_1170981" data-name="Trazado 1170981" d="M188.759,330.357l-15.495-23.144a.643.643,0,0,0-1.069,0L156.7,330.357v3.112h32.059Z" transform="translate(-132.499 -270.681)" fill="#e8ad8c"/>
        <g id="Grupo_1221002" data-name="Grupo 1221002" transform="translate(0 28.589)">
          <circle id="Elipse_14406" data-name="Elipse 14406" cx="3.805" cy="3.805" r="3.805" transform="translate(36.506 19.64)" fill="#dc8758"/>
          <path id="Trazado_1170982" data-name="Trazado 1170982" d="M166.3,457.6H123.45v-3.948a2.276,2.276,0,0,1,2.276-2.276h38.292a2.276,2.276,0,0,1,2.276,2.276V457.6Z" transform="translate(-104.642 -420.284)" fill="#dc8758"/>
          <path id="Trazado_1170983" data-name="Trazado 1170983" d="M86.6,267.69H8.857A1.357,1.357,0,0,1,7.5,266.333v-5.258a1.357,1.357,0,0,1,1.357-1.357H86.6a1.357,1.357,0,0,1,1.357,1.357v5.258A1.357,1.357,0,0,1,86.6,267.69Z" transform="translate(-7.5 -259.718)" fill="#dc8758"/>
        </g>
        <path id="Trazado_1170984" data-name="Trazado 1170984" d="M354.681,192.662a24.4,24.4,0,0,1-9.379,0,.767.767,0,0,1-.624-.752,5.313,5.313,0,1,1,10.626,0A.767.767,0,0,1,354.681,192.662Z" transform="translate(-289.986 -169.868)" fill="#fd8087"/>
      </g>
      <g id="Grupo_1221004" data-name="Grupo 1221004" transform="translate(0 13.794)">
        <path id="Trazado_1170985" data-name="Trazado 1170985" d="M80.32,104.554H69.554a15.511,15.511,0,1,0-16.664,0H47.925a1.217,1.217,0,1,0,0,2.433H80.32a.14.14,0,0,1,.14.14v5.258a.14.14,0,0,1-.14.14H2.573a.14.14,0,0,1-.14-.14v-5.258a.14.14,0,0,1,.14-.14H42.741a1.217,1.217,0,1,0,0-2.433H30.166A15.511,15.511,0,0,0,16,77.1a1.217,1.217,0,0,0,.916,2.254,13.1,13.1,0,1,1-4,2.558,1.217,1.217,0,1,0-1.66-1.779,15.5,15.5,0,0,0,2.25,24.418H2.573A2.576,2.576,0,0,0,0,107.128v5.258a2.576,2.576,0,0,0,2.573,2.573h36.55L24.781,135.641H22.3a3.5,3.5,0,0,0-3.493,3.493v2.732h-.863a1.217,1.217,0,0,0,0,2.433H65.13a1.217,1.217,0,1,0,0-2.433H64.086v-2.732a3.5,3.5,0,0,0-3.493-3.493h-2.48L43.771,114.959H80.32a2.576,2.576,0,0,0,2.573-2.573v-5.258A2.576,2.576,0,0,0,80.32,104.554ZM48.144,91.476a13.078,13.078,0,1,1,13.078,13.078A13.093,13.093,0,0,1,48.144,91.476Zm3.961,46.6h8.489a1.06,1.06,0,0,1,1.06,1.06v2.732H21.241v-2.732a1.06,1.06,0,0,1,1.06-1.06H46.818a1.25,1.25,0,0,0,1.267-1.179,1.217,1.217,0,0,0-1.216-1.254H27.741l13.705-19.764,13.705,19.764h-3.1a1.217,1.217,0,0,0-1.216,1.254,1.25,1.25,0,0,0,1.267,1.179Z" transform="translate(0 -65.881)"/>
        <path id="Trazado_1170986" data-name="Trazado 1170986" d="M72.949,179.936a1.931,1.931,0,0,0-.206,1.791,10.643,10.643,0,0,0,19.849,0A1.928,1.928,0,0,0,90.8,179.1H74.537A1.924,1.924,0,0,0,72.949,179.936Zm17.072,1.6a8.207,8.207,0,0,1-14.706,0Z" transform="translate(-60.833 -152.285)"/>
        <path id="Trazado_1170987" data-name="Trazado 1170987" d="M99.025,128.317v-1.091a1.217,1.217,0,1,0-2.433,0v1.091a1.217,1.217,0,0,0,2.433,0Z" transform="translate(-80.924 -107.807)"/>
        <path id="Trazado_1170988" data-name="Trazado 1170988" d="M160.055,128.317v-1.091a1.217,1.217,0,1,0-2.433,0v1.091a1.217,1.217,0,1,0,2.433,0Z" transform="translate(-132.055 -107.807)"/>
        <path id="Trazado_1170989" data-name="Trazado 1170989" d="M343.709,179.1a6.537,6.537,0,0,0-6.53,6.53,1.988,1.988,0,0,0,1.608,1.946,25.734,25.734,0,0,0,9.842,0h0a1.988,1.988,0,0,0,1.608-1.946A6.537,6.537,0,0,0,343.709,179.1Zm-4.08,6.157a4.1,4.1,0,0,1,8.159,0A23.3,23.3,0,0,1,339.629,185.255Z" transform="translate(-282.487 -152.285)"/>
        <path id="Trazado_1170990" data-name="Trazado 1170990" d="M327.533,117.047v.251a1.217,1.217,0,0,0,2.433,0v-1.412a1.222,1.222,0,0,0-.023-.233c.09-.077.181-.154.267-.235l.343-.321a1.217,1.217,0,0,0-1.664-1.775l-.343.321a5.265,5.265,0,0,1-2.36,1.274l-.915.221a1.217,1.217,0,1,0,.572,2.365l.915-.221A7.674,7.674,0,0,0,327.533,117.047Z" transform="translate(-271.731 -96.903)"/>
        <path id="Trazado_1170991" data-name="Trazado 1170991" d="M395.521,115.138l-.915-.221a5.265,5.265,0,0,1-2.36-1.274l-.343-.321a1.217,1.217,0,0,0-1.664,1.775l.343.321c.087.081.177.158.267.235a1.224,1.224,0,0,0-.023.233V117.3a1.217,1.217,0,1,0,2.433,0v-.251a7.617,7.617,0,0,0,.775.235l.915.221a1.217,1.217,0,0,0,.572-2.365Z" transform="translate(-326.618 -96.902)"/>
        <path id="Trazado_1170992" data-name="Trazado 1170992" d="M249.238,18.056a1.216,1.216,0,0,0,1.217-1.217V15.011a1.217,1.217,0,0,0-2.433,0V16.84A1.216,1.216,0,0,0,249.238,18.056Z" transform="translate(-207.791 -13.794)"/>
        <path id="Trazado_1170993" data-name="Trazado 1170993" d="M208.263,35.9l1.434,1.136a1.217,1.217,0,0,0,1.51-1.908l-1.434-1.136a1.217,1.217,0,1,0-1.51,1.908Z" transform="translate(-174.095 -30.497)"/>
        <path id="Trazado_1170994" data-name="Trazado 1170994" d="M280.616,37.3a1.211,1.211,0,0,0,.754-.263L282.8,35.9a1.217,1.217,0,1,0-1.51-1.908l-1.434,1.136a1.217,1.217,0,0,0,.756,2.17Z" transform="translate(-234.079 -30.497)"/>
        <path id="Trazado_1170995" data-name="Trazado 1170995" d="M230.083,373.3a5.022,5.022,0,1,0,5.022,5.022A5.028,5.028,0,0,0,230.083,373.3Zm0,7.611a2.589,2.589,0,1,1,2.589-2.589A2.592,2.592,0,0,1,230.083,380.911Z" transform="translate(-188.555 -314.986)"/>
      </g>
    </g>
  </g>
</svg>
