<svg xmlns="http://www.w3.org/2000/svg" xmlns:xlink="http://www.w3.org/1999/xlink" width="110" height="110" viewBox="0 0 110 110">
  <defs>
    <filter id="Trazado_982547" x="0" y="0" width="110" height="110" filterUnits="userSpaceOnUse">
      <feOffset dy="3" input="SourceAlpha"/>
      <feGaussianBlur stdDeviation="3" result="blur"/>
      <feFlood flood-opacity="0.161"/>
      <feComposite operator="in" in2="blur"/>
      <feComposite in="SourceGraphic"/>
    </filter>
  </defs>
  <g id="Grupo_1221008" data-name="Grupo 1221008" transform="translate(-1996 -5124.828)">
    <g id="Grupo_1220128" data-name="Grupo 1220128" transform="translate(1619 979.303)">
      <g id="Grupo_1211701" data-name="Grupo 1211701" transform="translate(0 -1927.754)">
        <g id="Grupo_1200150" data-name="Grupo 1200150" transform="translate(386 6079.28)">
          <g id="Grupo_1185951" data-name="Grupo 1185951" transform="translate(0 0)">
            <g id="Grupo_1184083" data-name="Grupo 1184083" transform="translate(0 0)">
              <g id="Grupo_1183743" data-name="Grupo 1183743" transform="translate(0 0)">
                <g id="Grupo_1181545" data-name="Grupo 1181545">
                  <g id="Grupo_1177562" data-name="Grupo 1177562">
                    <g id="Grupo_1173147" data-name="Grupo 1173147" transform="translate(0 0)">
                      <g id="Grupo_1163801" data-name="Grupo 1163801" transform="translate(0 0)">
                        <g id="Grupo_1163014" data-name="Grupo 1163014" transform="translate(0 0)">
                          <g id="Grupo_1157015" data-name="Grupo 1157015" transform="translate(0 0)">
                            <g id="Grupo_1155792" data-name="Grupo 1155792" transform="translate(0 0)">
                              <g id="Grupo_1154703" data-name="Grupo 1154703" transform="translate(0 0)">
                                <g id="Grupo_1150789" data-name="Grupo 1150789">
                                  <g id="Grupo_1154212" data-name="Grupo 1154212">
                                    <g id="Grupo_1152583" data-name="Grupo 1152583">
                                      <g id="Grupo_1146973" data-name="Grupo 1146973">
                                        <g id="Grupo_1146954" data-name="Grupo 1146954">
                                          <g transform="matrix(1, 0, 0, 1, -9, -6)" filter="url(#Trazado_982547)">
                                            <g id="Trazado_982547-2" data-name="Trazado 982547" transform="translate(9 6)" fill="#e2f7f7">
                                              <path d="M 46.00000762939453 90.49988555908203 C 39.99188613891602 90.49988555908203 34.16427612304688 89.32352447509766 28.67906188964844 87.00347137451172 C 23.38020706176758 84.76226043701172 18.62104797363281 81.55342864990234 14.53375434875488 77.46615600585938 C 10.44647407531738 73.37887573242188 7.237647533416748 68.61971282958984 4.996420860290527 63.32085800170898 C 2.676367521286011 57.83565902709961 1.500007629394531 52.00806045532227 1.500007629394531 45.99993896484375 C 1.500007629394531 39.99181747436523 2.676367521286011 34.16421890258789 4.996420860290527 28.67901802062988 C 7.237647533416748 23.38017845153809 10.44647407531738 18.62101936340332 14.53375434875488 14.53373908996582 C 18.62104797363281 10.44645881652832 23.38020706176758 7.237632274627686 28.67906188964844 4.996418952941895 C 34.16427612304688 2.676365613937378 39.99188613891602 1.500005602836609 46.00000762939453 1.500005602836609 C 52.00812911987305 1.500005602836609 57.83573913574219 2.676365613937378 63.32095336914062 4.996418952941895 C 68.61980438232422 7.237632274627686 73.37896728515625 10.44645881652832 77.46626281738281 14.53373908996582 C 81.55354309082031 18.62101936340332 84.76236724853516 23.38017845153809 87.00359344482422 28.67901802062988 C 89.32364654541016 34.16421890258789 90.50000762939453 39.99181747436523 90.50000762939453 45.99993896484375 C 90.50000762939453 52.00806045532227 89.32364654541016 57.83565902709961 87.00359344482422 63.32085800170898 C 84.76236724853516 68.61971282958984 81.55354309082031 73.37887573242188 77.46626281738281 77.46615600585938 C 73.37896728515625 81.55342864990234 68.61980438232422 84.76226043701172 63.32095336914062 87.00347137451172 C 57.83573913574219 89.32352447509766 52.00812911987305 90.49988555908203 46.00000762939453 90.49988555908203 Z" stroke="none"/>
                                              <path d="M 46.00000762939453 2.999992370605469 C 40.19372177124023 2.999992370605469 34.56270599365234 4.136497497558594 29.26339340209961 6.377906799316406 C 24.14333343505859 8.543510437011719 19.54441833496094 11.64437866210938 15.59440612792969 15.59439849853516 C 11.6444091796875 19.54439544677734 8.543525695800781 24.14329528808594 6.377922058105469 29.26335144042969 C 4.136505126953125 34.56266784667969 3.000007629394531 40.19366836547852 3.000007629394531 45.99993896484375 C 3.000007629394531 51.80620956420898 4.136505126953125 57.43722534179688 6.377922058105469 62.73654174804688 C 8.543525695800781 67.85658264160156 11.6444091796875 72.45548248291016 15.59440612792969 76.40549468994141 C 19.54441833496094 80.35549926757812 24.14333343505859 83.45636749267578 29.26337814331055 85.62196350097656 C 34.56270599365234 87.86338043212891 40.19372177124023 88.9998779296875 46.00000762939453 88.9998779296875 C 51.80629348754883 88.9998779296875 57.43730926513672 87.86338043212891 62.73662185668945 85.62196350097656 C 67.85668182373047 83.45636749267578 72.45558166503906 80.35549926757812 76.40559387207031 76.40549468994141 C 80.35560607910156 72.45548248291016 83.45648193359375 67.85658264160156 85.62207794189453 62.73654174804688 C 87.86351013183594 57.43722534179688 89.00000762939453 51.80620956420898 89.00000762939453 45.99993896484375 C 89.00000762939453 40.19366836547852 87.86351013183594 34.56266784667969 85.62207794189453 29.26335144042969 C 83.45648193359375 24.14329528808594 80.35560607910156 19.54439544677734 76.40559387207031 15.59439849853516 C 72.45558166503906 11.64437866210938 67.85668182373047 8.543510437011719 62.73662185668945 6.377906799316406 C 57.43729400634766 4.136497497558594 51.80629348754883 2.999992370605469 46.00000762939453 2.999992370605469 M 46.00000762939453 -7.62939453125e-06 C 71.40509033203125 -7.62939453125e-06 92.00000762939453 20.59487915039062 92.00000762939453 45.99993896484375 C 92.00000762939453 71.40501403808594 71.40509033203125 91.99988555908203 46.00000762939453 91.99988555908203 C 20.59490966796875 91.99988555908203 7.62939453125e-06 71.40501403808594 7.62939453125e-06 45.99993896484375 C 7.62939453125e-06 20.59487915039062 20.59490966796875 -7.62939453125e-06 46.00000762939453 -7.62939453125e-06 Z" stroke="none" fill="#75dad9"/>
                                            </g>
                                          </g>
                                        </g>
                                      </g>
                                    </g>
                                  </g>
                                </g>
                              </g>
                            </g>
                          </g>
                        </g>
                      </g>
                    </g>
                  </g>
                </g>
              </g>
            </g>
          </g>
        </g>
      </g>
    </g>
    <g id="empatia_1_" data-name="empatia (1)" transform="translate(2012.807 5109.487)">
      <g id="Grupo_1221006" data-name="Grupo 1221006" transform="translate(1.475 48.758)">
        <path id="Trazado_1170996" data-name="Trazado 1170996" d="M41.163,150.64l-1.72-4.295-1.674-7.551c-1.642-6.03-6.58-9-13.7-9a14.654,14.654,0,0,0-7.63,2.128,13.129,13.129,0,0,0-6.417,11.951c0,5.068,1.882,9.538,5.777,12.187a2.328,2.328,0,0,1,1.028,1.921v8.207a.77.77,0,0,0,.77.77H29.759a.771.771,0,0,0,.771-.77v-1.93a1.54,1.54,0,0,1,1.54-1.54h2.368a3.617,3.617,0,0,0,3.617-3.618v-6.024h1.459a1.776,1.776,0,0,0,1.649-2.436Z" transform="translate(-10.019 -129.794)" fill="#a0e5a5"/>
        <path id="Trazado_1170997" data-name="Trazado 1170997" d="M319.729,137.871a13.586,13.586,0,0,0-10.24-7.834,15.584,15.584,0,0,0-2.681-.243c-7.124,0-12.061,2.971-13.7,9l-1.673,7.551-1.72,4.295a1.776,1.776,0,0,0,1.649,2.436h1.459V159.1a3.617,3.617,0,0,0,3.617,3.618H298.8a1.54,1.54,0,0,1,1.54,1.54v1.93a.771.771,0,0,0,.77.77h12.165a.77.77,0,0,0,.77-.77v-8.207a2.328,2.328,0,0,1,1.028-1.921c3.9-2.649,5.777-7.12,5.777-12.187a14.925,14.925,0,0,0-1.127-6Z" transform="translate(-248.421 -129.793)" fill="#ffea60"/>
      </g>
      <g id="Grupo_1221007" data-name="Grupo 1221007" transform="translate(0 34.767)">
        <path id="Trazado_1170998" data-name="Trazado 1170998" d="M23.461,157.644v-1.93a.065.065,0,0,1,.065-.065h2.368a5.1,5.1,0,0,0,5.093-5.093v-4.549a3.251,3.251,0,0,0,3-4.459h0l-1.675-4.183-1.647-7.434c-.005-.023-.011-.046-.017-.068-1.772-6.505-7.144-10.088-15.127-10.088a16.171,16.171,0,0,0-8.4,2.343l-.041.026C2.258,125.3.007,129.486,0,135.329s2.281,10.59,6.422,13.407a.854.854,0,0,1,.383.7v8.207a2.248,2.248,0,0,0,2.245,2.245H21.216A2.248,2.248,0,0,0,23.461,157.644Zm-2.951-.705H9.756v-7.5A3.8,3.8,0,0,0,8.083,146.3c-3.309-2.251-5.132-6.146-5.132-10.966a11.7,11.7,0,0,1,5.728-10.7,13.222,13.222,0,0,1,6.843-1.9,14.854,14.854,0,0,1,8.11,2.005,9.8,9.8,0,0,1,4.161,5.875l1.666,7.516a1.473,1.473,0,0,0,.071.229l1.72,4.295a.3.3,0,0,1-.279.412H29.512a1.475,1.475,0,0,0-1.475,1.475v6.024a2.145,2.145,0,0,1-2.142,2.143H23.526a3.019,3.019,0,0,0-3.016,3.015v1.225Z" transform="translate(0 -107.258)"/>
        <path id="Trazado_1170999" data-name="Trazado 1170999" d="M312.543,128.741a1.475,1.475,0,0,0-2.707,1.175,13.434,13.434,0,0,1,1,5.414c0,4.821-1.823,8.716-5.133,10.968a3.8,3.8,0,0,0-1.672,3.14v7.5H293.281v-1.225a3.019,3.019,0,0,0-3.016-3.015H287.9a2.145,2.145,0,0,1-2.142-2.143v-6.024a1.475,1.475,0,0,0-1.475-1.475h-1.459a.3.3,0,0,1-.279-.412l1.72-4.295a1.452,1.452,0,0,0,.071-.229L286,130.605a9.8,9.8,0,0,1,4.161-5.875,14.854,14.854,0,0,1,8.11-2.005,13.386,13.386,0,0,1,2.414.219,1.475,1.475,0,1,0,.533-2.9,16.347,16.347,0,0,0-2.947-.268c-7.983,0-13.355,3.583-15.127,10.088-.006.023-.012.046-.017.068l-1.648,7.433-1.675,4.183a3.251,3.251,0,0,0,3,4.46v4.549a5.1,5.1,0,0,0,5.093,5.093h2.368a.065.065,0,0,1,.065.065v1.93a2.248,2.248,0,0,0,2.246,2.245h12.165a2.248,2.248,0,0,0,2.245-2.245v-8.207a.854.854,0,0,1,.382-.7c4.143-2.817,6.424-7.579,6.424-13.409A16.31,16.31,0,0,0,312.543,128.741Z" transform="translate(-238.406 -107.259)"/>
        <path id="Trazado_1171000" data-name="Trazado 1171000" d="M138.44,42.918a23.586,23.586,0,0,1,28-1.148,1.475,1.475,0,0,0,.989,2.749l2.768-.582a1.475,1.475,0,0,0,1.166-1.569l-.241-2.82A1.475,1.475,0,0,0,168.2,39.4a26.536,26.536,0,0,0-31.611,1.22,1.475,1.475,0,1,0,1.852,2.3Z" transform="translate(-116.008 -34.767)"/>
        <path id="Trazado_1171001" data-name="Trazado 1171001" d="M168.965,412.412a23.586,23.586,0,0,1-28,1.148,1.475,1.475,0,0,0-.989-2.749l-2.768.582a1.475,1.475,0,0,0-1.166,1.569l.241,2.82a1.475,1.475,0,0,0,1.468,1.35c.042,0,.085,0,.127-.005a1.475,1.475,0,0,0,1.323-1.2,26.542,26.542,0,0,0,14.588,4.632l.379,0a26.564,26.564,0,0,0,16.644-5.854,1.475,1.475,0,0,0-1.852-2.3Z" transform="translate(-116.01 -355.416)"/>
        <circle id="Elipse_14407" data-name="Elipse 14407" cx="1.475" cy="1.475" r="1.475" transform="translate(67.134 15.433)"/>
      </g>
    </g>
  </g>
</svg>
