<svg xmlns="http://www.w3.org/2000/svg" xmlns:xlink="http://www.w3.org/1999/xlink" width="110" height="110" viewBox="0 0 110 110">
  <defs>
    <filter id="Trazado_982547" x="0" y="0" width="110" height="110" filterUnits="userSpaceOnUse">
      <feOffset dy="3" input="SourceAlpha"/>
      <feGaussianBlur stdDeviation="3" result="blur"/>
      <feFlood flood-opacity="0.161"/>
      <feComposite operator="in" in2="blur"/>
      <feComposite in="SourceGraphic"/>
    </filter>
  </defs>
  <g id="Grupo_1221012" data-name="Grupo 1221012" transform="translate(-2311 -5125.828)">
    <g id="Grupo_1220129" data-name="Grupo 1220129" transform="translate(1619 979.303)">
      <g id="Grupo_1211702" data-name="Grupo 1211702" transform="translate(0 -1927.754)">
        <g id="Grupo_1200151" data-name="Grupo 1200151" transform="translate(701 6080.28)">
          <g id="Grupo_1185952" data-name="Grupo 1185952" transform="translate(0 0)">
            <g id="Grupo_1184115" data-name="Grupo 1184115">
              <g id="Grupo_1183744" data-name="Grupo 1183744" transform="translate(0 0)">
                <g id="Grupo_1181546" data-name="Grupo 1181546">
                  <g id="Grupo_1177563" data-name="Grupo 1177563">
                    <g id="Grupo_1173148" data-name="Grupo 1173148" transform="translate(0 0)">
                      <g id="Grupo_1163803" data-name="Grupo 1163803" transform="translate(0 0)">
                        <g id="Grupo_1163015" data-name="Grupo 1163015" transform="translate(0 0)">
                          <g id="Grupo_1157017" data-name="Grupo 1157017" transform="translate(0 0)">
                            <g id="Grupo_1155793" data-name="Grupo 1155793" transform="translate(0 0)">
                              <g id="Grupo_1154704" data-name="Grupo 1154704" transform="translate(0 0)">
                                <g id="Grupo_1150790" data-name="Grupo 1150790">
                                  <g id="Grupo_1154214" data-name="Grupo 1154214">
                                    <g id="Grupo_1152583" data-name="Grupo 1152583">
                                      <g id="Grupo_1146973" data-name="Grupo 1146973">
                                        <g id="Grupo_1146954" data-name="Grupo 1146954">
                                          <g transform="matrix(1, 0, 0, 1, -9, -6)" filter="url(#Trazado_982547)">
                                            <g id="Trazado_982547-2" data-name="Trazado 982547" transform="translate(9 6)" fill="#e2f7f7">
                                              <path d="M 46.00000762939453 90.49988555908203 C 39.99188613891602 90.49988555908203 34.16427612304688 89.32352447509766 28.67906188964844 87.00347137451172 C 23.38020706176758 84.76226043701172 18.62104797363281 81.55342864990234 14.53375434875488 77.46615600585938 C 10.44647407531738 73.37887573242188 7.237647533416748 68.61971282958984 4.996420860290527 63.32085800170898 C 2.676367521286011 57.83565902709961 1.500007629394531 52.00806045532227 1.500007629394531 45.99993896484375 C 1.500007629394531 39.99181747436523 2.676367521286011 34.16421890258789 4.996420860290527 28.67901802062988 C 7.237647533416748 23.38017845153809 10.44647407531738 18.62101936340332 14.53375434875488 14.53373908996582 C 18.62104797363281 10.44645881652832 23.38020706176758 7.237632274627686 28.67906188964844 4.996418952941895 C 34.16427612304688 2.676365613937378 39.99188613891602 1.500005602836609 46.00000762939453 1.500005602836609 C 52.00812911987305 1.500005602836609 57.83573913574219 2.676365613937378 63.32095336914062 4.996418952941895 C 68.61980438232422 7.237632274627686 73.37896728515625 10.44645881652832 77.46626281738281 14.53373908996582 C 81.55354309082031 18.62101936340332 84.76236724853516 23.38017845153809 87.00359344482422 28.67901802062988 C 89.32364654541016 34.16421890258789 90.50000762939453 39.99181747436523 90.50000762939453 45.99993896484375 C 90.50000762939453 52.00806045532227 89.32364654541016 57.83565902709961 87.00359344482422 63.32085800170898 C 84.76236724853516 68.61971282958984 81.55354309082031 73.37887573242188 77.46626281738281 77.46615600585938 C 73.37896728515625 81.55342864990234 68.61980438232422 84.76226043701172 63.32095336914062 87.00347137451172 C 57.83573913574219 89.32352447509766 52.00812911987305 90.49988555908203 46.00000762939453 90.49988555908203 Z" stroke="none"/>
                                              <path d="M 46.00000762939453 2.999992370605469 C 40.19372177124023 2.999992370605469 34.56270599365234 4.136497497558594 29.26339340209961 6.377906799316406 C 24.14333343505859 8.543510437011719 19.54441833496094 11.64437866210938 15.59440612792969 15.59439849853516 C 11.6444091796875 19.54439544677734 8.543525695800781 24.14329528808594 6.377922058105469 29.26335144042969 C 4.136505126953125 34.56266784667969 3.000007629394531 40.19366836547852 3.000007629394531 45.99993896484375 C 3.000007629394531 51.80620956420898 4.136505126953125 57.43722534179688 6.377922058105469 62.73654174804688 C 8.543525695800781 67.85658264160156 11.6444091796875 72.45548248291016 15.59440612792969 76.40549468994141 C 19.54441833496094 80.35549926757812 24.14333343505859 83.45636749267578 29.26337814331055 85.62196350097656 C 34.56270599365234 87.86338043212891 40.19372177124023 88.9998779296875 46.00000762939453 88.9998779296875 C 51.80629348754883 88.9998779296875 57.43730926513672 87.86338043212891 62.73662185668945 85.62196350097656 C 67.85668182373047 83.45636749267578 72.45558166503906 80.35549926757812 76.40559387207031 76.40549468994141 C 80.35560607910156 72.45548248291016 83.45648193359375 67.85658264160156 85.62207794189453 62.73654174804688 C 87.86351013183594 57.43722534179688 89.00000762939453 51.80620956420898 89.00000762939453 45.99993896484375 C 89.00000762939453 40.19366836547852 87.86351013183594 34.56266784667969 85.62207794189453 29.26335144042969 C 83.45648193359375 24.14329528808594 80.35560607910156 19.54439544677734 76.40559387207031 15.59439849853516 C 72.45558166503906 11.64437866210938 67.85668182373047 8.543510437011719 62.73662185668945 6.377906799316406 C 57.43729400634766 4.136497497558594 51.80629348754883 2.999992370605469 46.00000762939453 2.999992370605469 M 46.00000762939453 -7.62939453125e-06 C 71.40509033203125 -7.62939453125e-06 92.00000762939453 20.59487915039062 92.00000762939453 45.99993896484375 C 92.00000762939453 71.40501403808594 71.40509033203125 91.99988555908203 46.00000762939453 91.99988555908203 C 20.59490966796875 91.99988555908203 7.62939453125e-06 71.40501403808594 7.62939453125e-06 45.99993896484375 C 7.62939453125e-06 20.59487915039062 20.59490966796875 -7.62939453125e-06 46.00000762939453 -7.62939453125e-06 Z" stroke="none" fill="#75dad9"/>
                                            </g>
                                          </g>
                                        </g>
                                      </g>
                                    </g>
                                  </g>
                                </g>
                              </g>
                            </g>
                          </g>
                        </g>
                      </g>
                    </g>
                  </g>
                </g>
              </g>
            </g>
          </g>
        </g>
      </g>
    </g>
    <g id="discusion" transform="translate(2328.277 5140.605)">
      <g id="Grupo_1221010" data-name="Grupo 1221010" transform="translate(1.091 1.091)">
        <g id="Grupo_1221009" data-name="Grupo 1221009">
          <path id="Trazado_1171002" data-name="Trazado 1171002" d="M26.45,435.289H8.38a.88.88,0,0,1-.867-1.032l1.43-8.191a3.083,3.083,0,0,1,3.037-2.553H22.85a3.083,3.083,0,0,1,3.037,2.553l1.43,8.191A.88.88,0,0,1,26.45,435.289Z" transform="translate(-7.499 -363.025)" fill="#ffe177"/>
          <path id="Trazado_1171003" data-name="Trazado 1171003" d="M110.452,434.258l-1.43-8.191a3.083,3.083,0,0,0-3.037-2.553h-2.908a3.083,3.083,0,0,1,3.037,2.553l1.43,8.191a.88.88,0,0,1-.867,1.032h2.908A.88.88,0,0,0,110.452,434.258Z" transform="translate(-89.18 -363.025)" fill="#ffc344"/>
          <path id="Trazado_1171004" data-name="Trazado 1171004" d="M62.5,385.934a3.1,3.1,0,0,1-3.095-3.095V374.3H65.6v8.542A3.1,3.1,0,0,1,62.5,385.934Z" transform="translate(-51.862 -320.965)" fill="#f6a96c"/>
          <path id="Trazado_1171005" data-name="Trazado 1171005" d="M43.744,326.408a6.362,6.362,0,0,1-1.454-.024,6.289,6.289,0,0,1-4.832-6.118v-2.5c0-2.972,2.061-4.008,4.832-4.664.467-.11.954-1.478,1.454-1.478a6.041,6.041,0,0,1,6.141,6.141v2.5A6.041,6.041,0,0,1,43.744,326.408Z" transform="translate(-33.101 -267.409)" fill="#fed2a4"/>
          <path id="Trazado_1171006" data-name="Trazado 1171006" d="M72.149,320.63a6.3,6.3,0,0,0-1.454.171c2.445.579,4.339,1.132,4.75,3.638a6.323,6.323,0,0,1,.083,1.024v2.5a6.288,6.288,0,0,1-4.833,6.116,6.285,6.285,0,0,0,7.741-6.116v-2.5a6.264,6.264,0,0,0-.568-2.615C76.875,320.681,74.688,320.63,72.149,320.63Z" transform="translate(-61.506 -275.101)" fill="#ffbd86"/>
          <path id="Trazado_1171007" data-name="Trazado 1171007" d="M48.42,314.963c-.993-2.166-2.137-3.525-4.676-3.525a6.361,6.361,0,0,0-1.454.024,6.289,6.289,0,0,0-4.832,6.118s3.694,2.256,9.582-1.024C47.81,316.126,47.577,315.6,48.42,314.963Z" transform="translate(-33.101 -267.218)" fill="#a79ba7"/>
          <path id="Trazado_1171008" data-name="Trazado 1171008" d="M72.149,310.63a6.294,6.294,0,0,0-1.454.171,6.293,6.293,0,0,1,4.749,5.091,20.85,20.85,0,0,0,2.422-1.59A6.286,6.286,0,0,0,72.149,310.63Z" transform="translate(-61.506 -266.555)" fill="#918291"/>
          <path id="Trazado_1171009" data-name="Trazado 1171009" d="M377.06,435.289H358.99a.88.88,0,0,1-.867-1.032l1.43-8.191a3.083,3.083,0,0,1,3.037-2.553H373.46a3.083,3.083,0,0,1,3.037,2.553l1.43,8.191A.88.88,0,0,1,377.06,435.289Z" transform="translate(-307.131 -363.025)" fill="#cb97e7"/>
          <path id="Trazado_1171010" data-name="Trazado 1171010" d="M461.062,434.258l-1.43-8.191a3.083,3.083,0,0,0-3.037-2.553h-2.908a3.083,3.083,0,0,1,3.037,2.553l1.43,8.191a.88.88,0,0,1-.867,1.032h2.908A.88.88,0,0,0,461.062,434.258Z" transform="translate(-388.811 -363.025)" fill="#af66da"/>
          <path id="Trazado_1171011" data-name="Trazado 1171011" d="M413.115,385.934a3.1,3.1,0,0,1-3.095-3.095V374.3h6.19v8.542A3.1,3.1,0,0,1,413.115,385.934Z" transform="translate(-351.493 -320.965)" fill="#f6a96c"/>
          <path id="Trazado_1171012" data-name="Trazado 1171012" d="M394.354,326.408a6.362,6.362,0,0,1-1.454-.024,6.289,6.289,0,0,1-4.832-6.118v-2.5c0-2.972,2.061-4.008,4.832-4.664.467-.11.954-1.478,1.454-1.478a6.041,6.041,0,0,1,6.141,6.141v2.5A6.041,6.041,0,0,1,394.354,326.408Z" transform="translate(-332.732 -267.409)" fill="#fed2a4"/>
          <path id="Trazado_1171013" data-name="Trazado 1171013" d="M422.759,320.63a6.3,6.3,0,0,0-1.454.171c2.445.579,4.339,1.132,4.75,3.638a6.325,6.325,0,0,1,.083,1.024v2.5a6.288,6.288,0,0,1-4.833,6.116,6.285,6.285,0,0,0,7.741-6.116v-2.5a6.264,6.264,0,0,0-.568-2.615C427.485,320.681,425.3,320.63,422.759,320.63Z" transform="translate(-361.138 -275.101)" fill="#ffbd86"/>
          <path id="Trazado_1171014" data-name="Trazado 1171014" d="M399.03,314.963c-.993-2.166-2.137-3.525-4.676-3.525a6.361,6.361,0,0,0-1.454.024,6.289,6.289,0,0,0-4.832,6.118s3.694,2.256,9.582-1.024C398.42,316.126,398.187,315.6,399.03,314.963Z" transform="translate(-332.732 -267.218)" fill="#a79ba7"/>
          <path id="Trazado_1171015" data-name="Trazado 1171015" d="M422.759,310.63a6.294,6.294,0,0,0-1.454.171,6.293,6.293,0,0,1,4.749,5.091,20.848,20.848,0,0,0,2.422-1.59A6.286,6.286,0,0,0,422.759,310.63Z" transform="translate(-361.138 -266.555)" fill="#918291"/>
          <path id="Trazado_1171016" data-name="Trazado 1171016" d="M26.45,132.159H8.38a.88.88,0,0,1-.867-1.032l1.43-8.191a3.083,3.083,0,0,1,3.037-2.553H22.85a3.083,3.083,0,0,1,3.037,2.553l1.43,8.191A.88.88,0,0,1,26.45,132.159Z" transform="translate(-7.499 -103.971)" fill="#fe73c5"/>
          <path id="Trazado_1171017" data-name="Trazado 1171017" d="M110.452,131.129l-1.43-8.191a3.083,3.083,0,0,0-3.037-2.553h-2.908a3.083,3.083,0,0,1,3.037,2.553l1.43,8.191a.88.88,0,0,1-.867,1.032h2.908A.88.88,0,0,0,110.452,131.129Z" transform="translate(-89.18 -103.971)" fill="#fe2aa8"/>
          <path id="Trazado_1171018" data-name="Trazado 1171018" d="M62.5,82.805A3.1,3.1,0,0,1,59.41,79.71V71.169H65.6v8.542A3.1,3.1,0,0,1,62.5,82.805Z" transform="translate(-51.862 -61.911)" fill="#f6a96c"/>
          <path id="Trazado_1171019" data-name="Trazado 1171019" d="M43.744,23.278a6.363,6.363,0,0,1-1.454-.024,6.289,6.289,0,0,1-4.832-6.118v-2.5c0-2.972,2.061-4.008,4.832-4.664.467-.111.954-1.478,1.454-1.478a6.041,6.041,0,0,1,6.141,6.141v2.5A6.042,6.042,0,0,1,43.744,23.278Z" transform="translate(-33.101 -8.355)" fill="#fed2a4"/>
          <path id="Trazado_1171020" data-name="Trazado 1171020" d="M72.149,17.5a6.3,6.3,0,0,0-1.454.171c2.445.579,4.339,1.132,4.75,3.638a6.323,6.323,0,0,1,.083,1.024v2.5A6.288,6.288,0,0,1,70.7,30.944a6.285,6.285,0,0,0,7.741-6.116v-2.5a6.264,6.264,0,0,0-.568-2.615c-.992-2.166-3.18-2.217-5.719-2.217Z" transform="translate(-61.506 -16.046)" fill="#ffbd86"/>
          <path id="Trazado_1171021" data-name="Trazado 1171021" d="M48.42,11.834c-.993-2.166-2.137-3.525-4.676-3.525a6.363,6.363,0,0,0-1.454.024,6.289,6.289,0,0,0-4.832,6.118s3.694,2.256,9.582-1.024C47.81,13,47.577,12.471,48.42,11.834Z" transform="translate(-33.101 -8.164)" fill="#a79ba7"/>
          <path id="Trazado_1171022" data-name="Trazado 1171022" d="M72.149,7.5a6.3,6.3,0,0,0-1.454.171,6.293,6.293,0,0,1,4.749,5.091,20.874,20.874,0,0,0,2.422-1.59A6.287,6.287,0,0,0,72.149,7.5Z" transform="translate(-61.506 -7.5)" fill="#918291"/>
          <path id="Trazado_1171023" data-name="Trazado 1171023" d="M377.06,132.159H358.99a.88.88,0,0,1-.867-1.032l1.43-8.191a3.083,3.083,0,0,1,3.037-2.553H373.46a3.083,3.083,0,0,1,3.037,2.553l1.43,8.191A.88.88,0,0,1,377.06,132.159Z" transform="translate(-307.131 -103.971)" fill="#62dbfb"/>
          <path id="Trazado_1171024" data-name="Trazado 1171024" d="M461.062,131.129l-1.43-8.191a3.083,3.083,0,0,0-3.037-2.553h-2.908a3.083,3.083,0,0,1,3.037,2.553l1.43,8.191a.88.88,0,0,1-.867,1.032h2.908A.88.88,0,0,0,461.062,131.129Z" transform="translate(-388.811 -103.971)" fill="#01c0fa"/>
          <path id="Trazado_1171025" data-name="Trazado 1171025" d="M413.115,82.805a3.1,3.1,0,0,1-3.095-3.095V71.169h6.19v8.542A3.1,3.1,0,0,1,413.115,82.805Z" transform="translate(-351.493 -61.911)" fill="#f6a96c"/>
          <path id="Trazado_1171026" data-name="Trazado 1171026" d="M394.354,23.278a6.363,6.363,0,0,1-1.454-.024,6.289,6.289,0,0,1-4.832-6.118v-2.5c0-2.972,2.061-4.008,4.832-4.664.467-.111.954-1.478,1.454-1.478a6.041,6.041,0,0,1,6.141,6.141v2.5A6.042,6.042,0,0,1,394.354,23.278Z" transform="translate(-332.732 -8.355)" fill="#fed2a4"/>
          <path id="Trazado_1171027" data-name="Trazado 1171027" d="M422.759,17.5a6.3,6.3,0,0,0-1.454.171c2.445.579,4.339,1.132,4.75,3.638a6.325,6.325,0,0,1,.083,1.024v2.5a6.288,6.288,0,0,1-4.833,6.116,6.285,6.285,0,0,0,7.741-6.116v-2.5a6.264,6.264,0,0,0-.568-2.615c-.992-2.166-3.18-2.217-5.719-2.217Z" transform="translate(-361.138 -16.046)" fill="#ffbd86"/>
          <path id="Trazado_1171028" data-name="Trazado 1171028" d="M399.03,11.834c-.993-2.166-2.137-3.525-4.676-3.525a6.363,6.363,0,0,0-1.454.024,6.289,6.289,0,0,0-4.832,6.118s3.694,2.256,9.582-1.024C398.42,13,398.187,12.471,399.03,11.834Z" transform="translate(-332.732 -8.164)" fill="#a79ba7"/>
          <path id="Trazado_1171029" data-name="Trazado 1171029" d="M422.759,7.5a6.3,6.3,0,0,0-1.454.171,6.293,6.293,0,0,1,4.749,5.091,20.872,20.872,0,0,0,2.422-1.59A6.287,6.287,0,0,0,422.759,7.5Z" transform="translate(-361.138 -7.5)" fill="#918291"/>
          <path id="Trazado_1171030" data-name="Trazado 1171030" d="M202.2,177.881c0-5.914-3.329-10.565-9.237-10.587a10.647,10.647,0,0,0-3.9,20.6,1.456,1.456,0,0,1,.739.63l.94,1.628,1.551,1.625a.727.727,0,0,0,1.259,0l1.038-3.254a1.452,1.452,0,0,1,.736-.628A10.734,10.734,0,0,0,202.2,177.881Z" transform="translate(-156.785 -144.044)" fill="#bbec6c"/>
          <path id="Trazado_1171031" data-name="Trazado 1171031" d="M243.223,166.4a10.644,10.644,0,0,0-2.21.224,10.734,10.734,0,0,1,1.664,20.524,1.452,1.452,0,0,0-.736.628l-.94,1.629,1.551,2.687a.727.727,0,0,0,1.259,0l2.492-4.316a1.453,1.453,0,0,1,.736-.628,10.733,10.733,0,0,0-3.816-20.748Z" transform="translate(-207.049 -143.296)" fill="#97d729"/>
        </g>
      </g>
      <g id="Grupo_1221011" data-name="Grupo 1221011" transform="translate(0.001)">
        <path id="Trazado_1171032" data-name="Trazado 1171032" d="M72.986,63.945a4.166,4.166,0,0,0-4.111-3.456H66.9v-.47a7.373,7.373,0,0,0,3.192-6.07v-2.5A7.387,7.387,0,0,0,63.6,44.13a27.421,27.421,0,0,0,.014-13.76h8.861a1.971,1.971,0,0,0,1.941-2.31l-.571-3.269a1.091,1.091,0,0,0-2.149.375l.528,3.023H53.2l1.387-7.945a1.989,1.989,0,0,1,1.963-1.65h1.977v.3a4.185,4.185,0,0,0,8.371,0v-.3h1.977a1.989,1.989,0,0,1,1.963,1.65,1.09,1.09,0,1,0,2.148-.375,4.166,4.166,0,0,0-4.111-3.456H66.9v-.47A7.374,7.374,0,0,0,70.09,9.873v-2.5a7.377,7.377,0,0,0-14.755,0v2.5a7.374,7.374,0,0,0,3.192,6.071v.47H56.55a4.177,4.177,0,0,0-1.426.25,27.26,27.26,0,0,0-35.8,0,4.18,4.18,0,0,0-1.426-.25H15.919v-.47a7.374,7.374,0,0,0,3.192-6.071v-2.5a7.377,7.377,0,1,0-14.755,0v2.5a7.374,7.374,0,0,0,3.192,6.071v.47H5.571A4.166,4.166,0,0,0,1.46,19.869L.03,28.06a1.971,1.971,0,0,0,1.941,2.31h8.861a27.419,27.419,0,0,0,.014,13.76,7.387,7.387,0,0,0-6.49,7.322v2.5a7.373,7.373,0,0,0,3.192,6.07v.47H5.571A4.166,4.166,0,0,0,1.46,63.944L.03,72.135a1.971,1.971,0,0,0,1.941,2.31H21.5a1.971,1.971,0,0,0,1.941-2.31l-1.43-8.191A4.166,4.166,0,0,0,17.9,60.489H15.919v-.47a7.423,7.423,0,0,0,2.533-3.029A27.169,27.169,0,0,0,34.7,64.368c.034,0,.068,0,.1,0a1.091,1.091,0,0,0,.1-2.176,25.006,25.006,0,0,1-15.81-7.654c.016-.2.026-.393.026-.593v-2.5a7.389,7.389,0,0,0-5.982-7.243,25.235,25.235,0,0,1-.038-13.839h8.4a1.971,1.971,0,0,0,1.941-2.31l-1.43-8.191a4.166,4.166,0,0,0-.858-1.9,25.077,25.077,0,0,1,32.147,0,4.167,4.167,0,0,0-.858,1.9l-1.43,8.191a1.971,1.971,0,0,0,1.941,2.31h8.4a25.233,25.233,0,0,1-.038,13.839,7.389,7.389,0,0,0-5.981,7.243v2.5c0,.2.01.4.026.593A25.022,25.022,0,0,1,39.618,62.19a1.091,1.091,0,0,0,.1,2.176c.034,0,.069,0,.1,0a27.188,27.188,0,0,0,16.171-7.372,7.424,7.424,0,0,0,2.533,3.029v.47H56.55a4.166,4.166,0,0,0-4.111,3.456l-1.43,8.191a1.971,1.971,0,0,0,1.941,2.31H72.475a1.971,1.971,0,0,0,1.941-2.31ZM64.717,18.889a2,2,0,1,1-4.009,0V16.971a7.339,7.339,0,0,0,4.009,0Zm-2-16.708A5.194,5.194,0,0,1,67,4.449c-4.789,3.307-8.151,2.7-9.439,2.245a5.2,5.2,0,0,1,5.15-4.513Zm-5.2,6.765a9.57,9.57,0,0,0,2.344.282,14.494,14.494,0,0,0,7.977-2.712,5.206,5.206,0,0,1,.073.861v2.5a5.2,5.2,0,0,1-10.393,0V8.946ZM13.738,62.965a2,2,0,1,1-4.009,0V61.046a7.339,7.339,0,0,0,4.009,0Zm4.158-.3a1.989,1.989,0,0,1,1.963,1.65l1.387,7.944H2.222L3.608,64.32a1.989,1.989,0,0,1,1.963-1.65H7.548v.3a4.185,4.185,0,0,0,8.371,0v-.3H17.9Zm-.966-8.722a5.2,5.2,0,1,1-10.393,0v-.927a9.57,9.57,0,0,0,2.344.282,14.493,14.493,0,0,0,7.976-2.712,5.2,5.2,0,0,1,.073.861Zm-.907-5.424c-4.789,3.307-8.151,2.7-9.439,2.245a5.193,5.193,0,0,1,9.439-2.245ZM9.729,16.971a7.339,7.339,0,0,0,4.009,0v1.918a2,2,0,1,1-4.009,0Zm2-14.79a5.194,5.194,0,0,1,4.289,2.268c-4.789,3.307-8.151,2.7-9.439,2.245A5.2,5.2,0,0,1,11.734,2.181Zm-5.2,6.765a9.57,9.57,0,0,0,2.344.282,14.494,14.494,0,0,0,7.977-2.712,5.205,5.205,0,0,1,.073.861v2.5a5.2,5.2,0,1,1-10.393,0V8.946ZM2.222,28.189l1.387-7.945a1.989,1.989,0,0,1,1.963-1.65H7.548v.3a4.185,4.185,0,0,0,8.371,0v-.3H17.9a1.989,1.989,0,0,1,1.963,1.65l1.387,7.945ZM60.708,61.046a7.339,7.339,0,0,0,4.009,0v1.918a2,2,0,1,1-4.009,0Zm2-14.79A5.2,5.2,0,0,1,67,48.524c-4.789,3.307-8.151,2.7-9.439,2.245A5.2,5.2,0,0,1,62.713,46.256Zm-5.2,6.765a9.57,9.57,0,0,0,2.344.282,14.493,14.493,0,0,0,7.976-2.712,5.206,5.206,0,0,1,.073.861v2.5a5.2,5.2,0,1,1-10.393,0ZM53.2,72.264l1.387-7.945a1.989,1.989,0,0,1,1.963-1.65h1.977v.3a4.185,4.185,0,1,0,8.371,0v-.3h1.977a1.989,1.989,0,0,1,1.963,1.65l1.387,7.945Z" transform="translate(-0.001)"/>
        <path id="Trazado_1171033" data-name="Trazado 1171033" d="M221.457,233.807a1.09,1.09,0,1,0-1.09,1.09A1.091,1.091,0,0,0,221.457,233.807Z" transform="translate(-187.393 -198.879)"/>
        <path id="Trazado_1171034" data-name="Trazado 1171034" d="M250.681,233.807a1.09,1.09,0,1,0-1.09,1.09A1.091,1.091,0,0,0,250.681,233.807Z" transform="translate(-212.368 -198.879)"/>
        <path id="Trazado_1171035" data-name="Trazado 1171035" d="M278.815,234.9a1.09,1.09,0,1,0-1.09-1.09A1.091,1.091,0,0,0,278.815,234.9Z" transform="translate(-237.343 -198.879)"/>
        <path id="Trazado_1171036" data-name="Trazado 1171036" d="M191.994,181.914a.363.363,0,0,1,.184-.156,11.823,11.823,0,0,0-4.2-22.856h-.044a11.918,11.918,0,0,0-11.527,9.184,1.091,1.091,0,0,0,2.125.489,9.721,9.721,0,0,1,9.4-7.492h.036a9.642,9.642,0,0,1,3.428,18.64,2.551,2.551,0,0,0-1.289,1.1l-2.177,3.77-2.177-3.77a2.556,2.556,0,0,0-1.291-1.1,9.609,9.609,0,0,1-5.957-6.952,1.091,1.091,0,0,0-2.132.461,11.784,11.784,0,0,0,7.3,8.526.369.369,0,0,1,.187.157l2.492,4.316a1.8,1.8,0,0,0,1.574.909h0a1.8,1.8,0,0,0,1.574-.909Z" transform="translate(-150.706 -135.798)"/>
      </g>
    </g>
  </g>
</svg>
