<svg xmlns="http://www.w3.org/2000/svg" xmlns:xlink="http://www.w3.org/1999/xlink" width="110" height="110" viewBox="0 0 110 110">
  <defs>
    <filter id="Trazado_982547" x="0" y="0" width="110" height="110" filterUnits="userSpaceOnUse">
      <feOffset dy="3" input="SourceAlpha"/>
      <feGaussianBlur stdDeviation="3" result="blur"/>
      <feFlood flood-opacity="0.161"/>
      <feComposite operator="in" in2="blur"/>
      <feComposite in="SourceGraphic"/>
    </filter>
  </defs>
  <g id="Grupo_1221013" data-name="Grupo 1221013" transform="translate(-2311.5 -5480.828)">
    <g id="Grupo_1220130" data-name="Grupo 1220130" transform="translate(1934.5 1335.303)">
      <g id="Grupo_1211701" data-name="Grupo 1211701" transform="translate(0 -1927.754)">
        <g id="Grupo_1200150" data-name="Grupo 1200150" transform="translate(386 6079.28)">
          <g id="Grupo_1185951" data-name="Grupo 1185951" transform="translate(0 0)">
            <g id="Grupo_1184083" data-name="Grupo 1184083" transform="translate(0 0)">
              <g id="Grupo_1183743" data-name="Grupo 1183743" transform="translate(0 0)">
                <g id="Grupo_1181545" data-name="Grupo 1181545">
                  <g id="Grupo_1177562" data-name="Grupo 1177562">
                    <g id="Grupo_1173147" data-name="Grupo 1173147" transform="translate(0 0)">
                      <g id="Grupo_1163801" data-name="Grupo 1163801" transform="translate(0 0)">
                        <g id="Grupo_1163014" data-name="Grupo 1163014" transform="translate(0 0)">
                          <g id="Grupo_1157015" data-name="Grupo 1157015" transform="translate(0 0)">
                            <g id="Grupo_1155792" data-name="Grupo 1155792" transform="translate(0 0)">
                              <g id="Grupo_1154703" data-name="Grupo 1154703" transform="translate(0 0)">
                                <g id="Grupo_1150789" data-name="Grupo 1150789">
                                  <g id="Grupo_1154212" data-name="Grupo 1154212">
                                    <g id="Grupo_1152583" data-name="Grupo 1152583">
                                      <g id="Grupo_1146973" data-name="Grupo 1146973">
                                        <g id="Grupo_1146954" data-name="Grupo 1146954">
                                          <g transform="matrix(1, 0, 0, 1, -9, -6)" filter="url(#Trazado_982547)">
                                            <g id="Trazado_982547-2" data-name="Trazado 982547" transform="translate(9 6)" fill="#e2f7f7">
                                              <path d="M 46.00000762939453 90.49988555908203 C 39.99188613891602 90.49988555908203 34.16427612304688 89.32352447509766 28.67906188964844 87.00347137451172 C 23.38020706176758 84.76226043701172 18.62104797363281 81.55342864990234 14.53375434875488 77.46615600585938 C 10.44647407531738 73.37887573242188 7.237647533416748 68.61971282958984 4.996420860290527 63.32085800170898 C 2.676367521286011 57.83565902709961 1.500007629394531 52.00806045532227 1.500007629394531 45.99993896484375 C 1.500007629394531 39.99181747436523 2.676367521286011 34.16421890258789 4.996420860290527 28.67901802062988 C 7.237647533416748 23.38017845153809 10.44647407531738 18.62101936340332 14.53375434875488 14.53373908996582 C 18.62104797363281 10.44645881652832 23.38020706176758 7.237632274627686 28.67906188964844 4.996418952941895 C 34.16427612304688 2.676365613937378 39.99188613891602 1.500005602836609 46.00000762939453 1.500005602836609 C 52.00812911987305 1.500005602836609 57.83573913574219 2.676365613937378 63.32095336914062 4.996418952941895 C 68.61980438232422 7.237632274627686 73.37896728515625 10.44645881652832 77.46626281738281 14.53373908996582 C 81.55354309082031 18.62101936340332 84.76236724853516 23.38017845153809 87.00359344482422 28.67901802062988 C 89.32364654541016 34.16421890258789 90.50000762939453 39.99181747436523 90.50000762939453 45.99993896484375 C 90.50000762939453 52.00806045532227 89.32364654541016 57.83565902709961 87.00359344482422 63.32085800170898 C 84.76236724853516 68.61971282958984 81.55354309082031 73.37887573242188 77.46626281738281 77.46615600585938 C 73.37896728515625 81.55342864990234 68.61980438232422 84.76226043701172 63.32095336914062 87.00347137451172 C 57.83573913574219 89.32352447509766 52.00812911987305 90.49988555908203 46.00000762939453 90.49988555908203 Z" stroke="none"/>
                                              <path d="M 46.00000762939453 2.999992370605469 C 40.19372177124023 2.999992370605469 34.56270599365234 4.136497497558594 29.26339340209961 6.377906799316406 C 24.14333343505859 8.543510437011719 19.54441833496094 11.64437866210938 15.59440612792969 15.59439849853516 C 11.6444091796875 19.54439544677734 8.543525695800781 24.14329528808594 6.377922058105469 29.26335144042969 C 4.136505126953125 34.56266784667969 3.000007629394531 40.19366836547852 3.000007629394531 45.99993896484375 C 3.000007629394531 51.80620956420898 4.136505126953125 57.43722534179688 6.377922058105469 62.73654174804688 C 8.543525695800781 67.85658264160156 11.6444091796875 72.45548248291016 15.59440612792969 76.40549468994141 C 19.54441833496094 80.35549926757812 24.14333343505859 83.45636749267578 29.26337814331055 85.62196350097656 C 34.56270599365234 87.86338043212891 40.19372177124023 88.9998779296875 46.00000762939453 88.9998779296875 C 51.80629348754883 88.9998779296875 57.43730926513672 87.86338043212891 62.73662185668945 85.62196350097656 C 67.85668182373047 83.45636749267578 72.45558166503906 80.35549926757812 76.40559387207031 76.40549468994141 C 80.35560607910156 72.45548248291016 83.45648193359375 67.85658264160156 85.62207794189453 62.73654174804688 C 87.86351013183594 57.43722534179688 89.00000762939453 51.80620956420898 89.00000762939453 45.99993896484375 C 89.00000762939453 40.19366836547852 87.86351013183594 34.56266784667969 85.62207794189453 29.26335144042969 C 83.45648193359375 24.14329528808594 80.35560607910156 19.54439544677734 76.40559387207031 15.59439849853516 C 72.45558166503906 11.64437866210938 67.85668182373047 8.543510437011719 62.73662185668945 6.377906799316406 C 57.43729400634766 4.136497497558594 51.80629348754883 2.999992370605469 46.00000762939453 2.999992370605469 M 46.00000762939453 -7.62939453125e-06 C 71.40509033203125 -7.62939453125e-06 92.00000762939453 20.59487915039062 92.00000762939453 45.99993896484375 C 92.00000762939453 71.40501403808594 71.40509033203125 91.99988555908203 46.00000762939453 91.99988555908203 C 20.59490966796875 91.99988555908203 7.62939453125e-06 71.40501403808594 7.62939453125e-06 45.99993896484375 C 7.62939453125e-06 20.59487915039062 20.59490966796875 -7.62939453125e-06 46.00000762939453 -7.62939453125e-06 Z" stroke="none" fill="#75dad9"/>
                                            </g>
                                          </g>
                                        </g>
                                      </g>
                                    </g>
                                  </g>
                                </g>
                              </g>
                            </g>
                          </g>
                        </g>
                      </g>
                    </g>
                  </g>
                </g>
              </g>
            </g>
          </g>
        </g>
      </g>
    </g>
    <g id="motivacion_3_" data-name="motivacion (3)" transform="translate(2320.5 5462.838)">
      <path id="Trazado_1171037" data-name="Trazado 1171037" d="M26.048,334.14a2.212,2.212,0,0,1-2.276-2.126c0,.035,0,.069.006.1a1.113,1.113,0,0,1-.955.633H19.879a.8.8,0,0,1-.8-.8V318.268h-4.12v6.6H8.3a.8.8,0,0,0-.8.8v8.452a.8.8,0,0,0,.8.8h6.666v.058a2.358,2.358,0,0,0,2.342,2.369h6.784a2,2,0,0,1-.315-1.071,2.211,2.211,0,0,1,2.276-2.126Z" transform="translate(-6.306 -241.382)" fill="#fed2a4"/>
      <path id="Trazado_1171038" data-name="Trazado 1171038" d="M11.481,368.947v-8.452a.8.8,0,0,1,.8-.8H8.3a.8.8,0,0,0-.8.8v8.452a.8.8,0,0,0,.8.8h3.981A.8.8,0,0,1,11.481,368.947Z" transform="translate(-6.306 -276.214)" fill="#ffbd86"/>
      <path id="Trazado_1171039" data-name="Trazado 1171039" d="M81.025,333.544a.8.8,0,0,1-.8-.8v11.38a.8.8,0,0,0,.8.8H83.97a1.113,1.113,0,0,0,.955-.633c0-.034-.006-.068-.006-.1a2.007,2.007,0,0,1,.358-1.137l.415-1.524a2.064,2.064,0,0,1-.773-1.59,2.171,2.171,0,0,1,1.772-2.071l.028-.1a2.174,2.174,0,0,1-1.8-2.078,2.212,2.212,0,0,1,2.276-2.126h.67l0-.014H81.025Z" transform="translate(-67.452 -253.556)" fill="#fd4755"/>
      <path id="Trazado_1171040" data-name="Trazado 1171040" d="M292.777,260.254h-2.391V270.2h2.391a3.674,3.674,0,0,0,3.664-3.684v-2.579A3.674,3.674,0,0,0,292.777,260.254Z" transform="translate(-244.14 -192.608)" fill="#766e6e"/>
      <path id="Trazado_1171041" data-name="Trazado 1171041" d="M292.777,260.254h-2.391v3.185h2.391a3.671,3.671,0,0,1,3.65,3.381c.008-.1.013-.2.013-.3v-2.579A3.674,3.674,0,0,0,292.777,260.254Z" transform="translate(-244.14 -192.608)" fill="#5b5555"/>
      <path id="Trazado_1171042" data-name="Trazado 1171042" d="M149.858,199.04v7.6l22.38,12.993V186.047Z" transform="translate(-125.992 -130.219)" fill="#fe646f"/>
      <path id="Trazado_1171043" data-name="Trazado 1171043" d="M149.858,199.04v5.5l22.38-12.993v-5.5Z" transform="translate(-125.992 -130.219)" fill="#fd4755"/>
      <path id="Trazado_1171044" data-name="Trazado 1171044" d="M46.455,264.7h-5.6a.8.8,0,0,0-.8.8v6.939a.8.8,0,0,0,.8.8h5.6Z" transform="translate(-33.679 -196.344)" fill="#766e6e"/>
      <path id="Trazado_1171045" data-name="Trazado 1171045" d="M43.243,272.434V265.5a.8.8,0,0,1,.8-.8H40.854a.8.8,0,0,0-.8.8v6.939a.8.8,0,0,0,.8.8h3.185A.8.8,0,0,1,43.243,272.434Z" transform="translate(-33.679 -196.345)" fill="#5b5555"/>
      <path id="Trazado_1171046" data-name="Trazado 1171046" d="M91.317,259.159a.8.8,0,0,1-.8.8h-9.5a.8.8,0,0,1-.8-.8V246.015a.8.8,0,0,1,.8-.8h9.5a.8.8,0,0,1,.8.8Z" transform="translate(-67.451 -179.967)" fill="#fd8087"/>
      <path id="Trazado_1171047" data-name="Trazado 1171047" d="M84.21,259.159V246.015a.8.8,0,0,1,.8-.8H81.025a.8.8,0,0,0-.8.8v13.143a.8.8,0,0,0,.8.8h3.981A.8.8,0,0,1,84.21,259.159Z" transform="translate(-67.452 -179.967)" fill="#fe646f"/>
      <path id="Trazado_1171048" data-name="Trazado 1171048" d="M118.374,339.96a2.212,2.212,0,0,1-2.276,2.126h-4.145a2.131,2.131,0,1,1,0-4.252H116.1A2.211,2.211,0,0,1,118.374,339.96Z" transform="translate(-92.21 -257.832)" fill="#fed2a4"/>
      <path id="Trazado_1171049" data-name="Trazado 1171049" d="M112.862,339.96a2.212,2.212,0,0,1,2.276-2.126h-3.185a2.131,2.131,0,1,0,0,4.252h3.185A2.212,2.212,0,0,1,112.862,339.96Z" transform="translate(-92.21 -257.832)" fill="#ffbd86"/>
      <path id="Trazado_1171050" data-name="Trazado 1171050" d="M118.374,366.661a2.212,2.212,0,0,1-2.276,2.126h-4.145a2.131,2.131,0,1,1,0-4.252H116.1A2.211,2.211,0,0,1,118.374,366.661Z" transform="translate(-92.21 -280.281)" fill="#fed2a4"/>
      <path id="Trazado_1171051" data-name="Trazado 1171051" d="M112.862,366.661a2.212,2.212,0,0,1,2.276-2.126h-3.185a2.131,2.131,0,1,0,0,4.252h3.185A2.212,2.212,0,0,1,112.862,366.661Z" transform="translate(-92.21 -280.281)" fill="#ffbd86"/>
      <path id="Trazado_1171052" data-name="Trazado 1171052" d="M118.374,393.361a2.212,2.212,0,0,1-2.276,2.126h-4.145a2.131,2.131,0,1,1,0-4.252H116.1A2.211,2.211,0,0,1,118.374,393.361Z" transform="translate(-92.21 -302.729)" fill="#fed2a4"/>
      <path id="Trazado_1171053" data-name="Trazado 1171053" d="M112.862,393.361a2.211,2.211,0,0,1,2.276-2.126h-3.185a2.131,2.131,0,1,0,0,4.252h3.185A2.212,2.212,0,0,1,112.862,393.361Z" transform="translate(-92.21 -302.729)" fill="#ffbd86"/>
      <path id="Trazado_1171054" data-name="Trazado 1171054" d="M118.374,420.059a2.211,2.211,0,0,1-2.276,2.126h-4.145a2.131,2.131,0,1,1,0-4.252H116.1A2.212,2.212,0,0,1,118.374,420.059Z" transform="translate(-92.21 -325.175)" fill="#fed2a4"/>
      <path id="Trazado_1171055" data-name="Trazado 1171055" d="M112.862,420.059a2.212,2.212,0,0,1,2.276-2.126h-3.185a2.131,2.131,0,1,0,0,4.252h3.185A2.211,2.211,0,0,1,112.862,420.059Z" transform="translate(-92.21 -325.175)" fill="#ffbd86"/>
      <path id="Trazado_1171056" data-name="Trazado 1171056" d="M338.193,38.662a14.6,14.6,0,0,0-11.882,22.781l-2.442,6.114c-.188.47.041.7.509.511l6.18-2.5a14.189,14.189,0,0,0,7.635,2.222,14.567,14.567,0,0,0,0-29.132Z" transform="translate(-272.236 -6.306)" fill="#ffdc48"/>
      <path id="Trazado_1171057" data-name="Trazado 1171057" d="M331.09,61.442a14.628,14.628,0,0,1,9.493-22.58,14.318,14.318,0,0,0-2.389-.2,14.6,14.6,0,0,0-11.882,22.781l-2.442,6.114c-.188.47.041.7.508.511l4.847-1.957Z" transform="translate(-272.237 -6.305)" fill="#fac600"/>
      <path id="Trazado_1171058" data-name="Trazado 1171058" d="M339.675,354.458a9.462,9.462,0,0,0-11.287-1.578L323,351.16l1.721,5.39a9.46,9.46,0,1,0,14.956-2.091Z" transform="translate(-271.558 -269.036)" fill="#8bc727"/>
      <path id="Trazado_1171059" data-name="Trazado 1171059" d="M330.278,367.837A9.462,9.462,0,0,1,328.7,356.55l-1.269-3.975L323,351.16l1.721,5.39a9.458,9.458,0,0,0,10.258,13.844A9.41,9.41,0,0,1,330.278,367.837Z" transform="translate(-271.558 -269.036)" fill="#81b823"/>
      <path id="Trazado_1171060" data-name="Trazado 1171060" d="M370.457,100.573v1.6a1.194,1.194,0,0,0,2.389,0v-1.6a1.194,1.194,0,0,0-2.389,0Z" transform="translate(-311.459 -57.353)"/>
      <path id="Trazado_1171061" data-name="Trazado 1171061" d="M442.852,100.573v1.6a1.194,1.194,0,0,0,2.389,0v-1.6a1.194,1.194,0,0,0-2.389,0Z" transform="translate(-372.325 -57.353)"/>
      <path id="Trazado_1171062" data-name="Trazado 1171062" d="M393.082,137.211a1.978,1.978,0,1,1-3.953,0,1.194,1.194,0,0,0-2.389,0,4.366,4.366,0,1,0,8.731,0,1.194,1.194,0,0,0-2.389,0Z" transform="translate(-325.149 -88.156)"/>
      <path id="Trazado_1171063" data-name="Trazado 1171063" d="M362.241,390.118l-4.171,4.171-1.9-1.9a1.194,1.194,0,0,0-1.689,1.689l2.747,2.747a1.195,1.195,0,0,0,1.689,0l5.016-5.016a1.195,1.195,0,1,0-1.69-1.689Z" transform="translate(-297.731 -301.496)"/>
      <path id="Trazado_1171064" data-name="Trazado 1171064" d="M334.214,347.308a10.7,10.7,0,0,0-12.243-2.023l-4.914-1.569a1.194,1.194,0,0,0-1.5,1.5l1.569,4.914a10.649,10.649,0,0,0,14.453,14.175,1.194,1.194,0,1,0-1.1-2.121,8.267,8.267,0,0,1-11.021-11.361,1.194,1.194,0,0,0,.094-.944l-1.017-3.185,3.185,1.017a1.2,1.2,0,0,0,.944-.094,8.267,8.267,0,0,1,11.305,11.126,1.194,1.194,0,1,0,2.105,1.129,10.739,10.739,0,0,0,1.156-6.518,10.564,10.564,0,0,0-3.017-6.047Z" transform="translate(-265.253 -262.731)"/>
      <path id="Trazado_1171065" data-name="Trazado 1171065" d="M342.335,35.229a1.194,1.194,0,0,0-1.612,1.763,13.48,13.48,0,0,1,4.358,9.93,13.3,13.3,0,0,1-13.194,13.371,13.025,13.025,0,0,1-6.994-2.035,1.194,1.194,0,0,0-1.088-.1L319.37,59.95l1.745-4.37a1.194,1.194,0,0,0-.12-1.112,13.407,13.407,0,0,1,10.892-20.917,13,13,0,0,1,4.44.776,1.194,1.194,0,1,0,.813-2.246,15.379,15.379,0,0,0-5.253-.918,15.8,15.8,0,0,0-13.22,24.105l-2.213,5.541a1.611,1.611,0,0,0,.276,1.793,1.458,1.458,0,0,0,1.049.421,1.979,1.979,0,0,0,.74-.152l5.625-2.272a15.406,15.406,0,0,0,7.743,2.084,15.69,15.69,0,0,0,15.583-15.76,15.873,15.873,0,0,0-5.134-11.693Z" transform="translate(-265.93 0)"/>
      <path id="Trazado_1171066" data-name="Trazado 1171066" d="M53.5,176.792v-2.579a4.874,4.874,0,0,0-4.858-4.878h-1.2V154.727a1.194,1.194,0,1,0-2.389,0v3.3L25.06,169.63v-.7a1.993,1.993,0,0,0-1.991-1.991h-9.5a1.993,1.993,0,0,0-1.991,1.991v1.112H7.176a1.993,1.993,0,0,0-1.991,1.991v6.939a1.993,1.993,0,0,0,1.991,1.991h.287v4.209H1.991A1.993,1.993,0,0,0,0,187.162v8.452a1.993,1.993,0,0,0,1.991,1.991H7.647A3.545,3.545,0,0,0,11,200.032h6.211a3.535,3.535,0,0,0,2.534,1.055h4.145a3.4,3.4,0,0,0,3.47-3.321,3.221,3.221,0,0,0-.807-2.126,3.2,3.2,0,0,0,0-4.252,3.2,3.2,0,0,0,0-4.252,3.222,3.222,0,0,0,.807-2.126,3.338,3.338,0,0,0-2.3-3.125v-.51l6.822,3.961a1.194,1.194,0,1,0,1.2-2.066l-8.022-4.657v-6.221l19.991-11.606v29.434l-7.107-4.126a1.194,1.194,0,1,0-1.2,2.066l8.306,4.822v3.3a1.194,1.194,0,0,0,2.389,0V181.67h1.2A4.874,4.874,0,0,0,53.5,176.792ZM7.574,172.431h4.009v6.142H7.574Zm8.7,25.212H11a1.162,1.162,0,0,1-1.147-1.175v-.058a1.194,1.194,0,0,0-1.194-1.194H2.389v-7.656H8.657a1.194,1.194,0,0,0,1.194-1.194v-5.4h1.731v12.492a1.993,1.993,0,0,0,1.991,1.991h2.944a2.058,2.058,0,0,0,.377-.036q.087.12.185.232a3.225,3.225,0,0,0-.8,2Zm0-8.381a3.2,3.2,0,0,0,.641,1.918l-.192.7a3.2,3.2,0,0,0-.415,1.172H13.971v-8.991h2.445a3.175,3.175,0,0,0-.144.946,3.222,3.222,0,0,0,.807,2.126,3.221,3.221,0,0,0-.807,2.126Zm-2.3-7.587V169.329h8.7v12.347ZM23.888,198.7H19.743a.942.942,0,1,1,0-1.863h4.145a.942.942,0,1,1,0,1.863Zm0-4.252H19.743a.942.942,0,1,1,0-1.863h4.145a.942.942,0,1,1,0,1.863Zm0-4.252H19.743a.942.942,0,1,1,0-1.863h4.145a.942.942,0,1,1,0,1.863Zm0-4.252H19.743a.942.942,0,1,1,0-1.864h4.145a.942.942,0,1,1,0,1.864Zm27.218-9.15a2.482,2.482,0,0,1-2.469,2.49h-1.2v-7.558h1.2a2.482,2.482,0,0,1,2.469,2.49Z" transform="translate(0 -102.883)"/>
    </g>
  </g>
</svg>
