<svg xmlns="http://www.w3.org/2000/svg" xmlns:xlink="http://www.w3.org/1999/xlink" width="108" height="110.892" viewBox="0 0 108 110.892">
  <defs>
    <filter id="Trazado_978624" x="0" y="2.892" width="108" height="108" filterUnits="userSpaceOnUse">
      <feOffset dy="3" input="SourceAlpha"/>
      <feGaussianBlur stdDeviation="3" result="blur"/>
      <feFlood flood-opacity="0.161"/>
      <feComposite operator="in" in2="blur"/>
      <feComposite in="SourceGraphic"/>
    </filter>
    <filter id="Trazado_1076716" x="0" y="2.892" width="108" height="108" filterUnits="userSpaceOnUse">
      <feOffset dy="3" input="SourceAlpha"/>
      <feGaussianBlur stdDeviation="3" result="blur-2"/>
      <feFlood flood-opacity="0.161"/>
      <feComposite operator="in" in2="blur-2"/>
      <feComposite in="SourceGraphic"/>
    </filter>
  </defs>
  <g id="Grupo_1221022" data-name="Grupo 1221022" transform="translate(-197 -6788.91)">
    <g id="Grupo_1220131" data-name="Grupo 1220131" transform="translate(206 6797.802)">
      <g id="Grupo_1208078" data-name="Grupo 1208078" transform="translate(0)">
        <g id="Grupo_1181203" data-name="Grupo 1181203">
          <g id="Grupo_1172348" data-name="Grupo 1172348">
            <g id="Grupo_1171897" data-name="Grupo 1171897">
              <g id="Grupo_1171052" data-name="Grupo 1171052">
                <g id="Grupo_1164581" data-name="Grupo 1164581">
                  <g id="Grupo_1144123" data-name="Grupo 1144123">
                    <g transform="matrix(1, 0, 0, 1, -9, -8.89)" filter="url(#Trazado_978624)">
                      <g id="Trazado_978624-2" data-name="Trazado 978624" transform="translate(9 8.89)" fill="#f5faf0">
                        <path d="M 45 88.5 C 39.12687683105469 88.5 33.43022537231445 87.35007476806641 28.06830024719238 85.08217620849609 C 22.88852500915527 82.89131164550781 18.23629951477051 79.75458526611328 14.2408504486084 75.75914764404297 C 10.24541282653809 71.76370239257812 7.108687400817871 67.11147308349609 4.917825222015381 61.93170166015625 C 2.649924993515015 56.56977462768555 1.5 50.87312316894531 1.5 45 C 1.5 39.12687683105469 2.649924993515015 33.43022537231445 4.917825222015381 28.06830024719238 C 7.108687400817871 22.88852500915527 10.24541282653809 18.23629951477051 14.2408504486084 14.2408504486084 C 18.23629951477051 10.24541282653809 22.88852500915527 7.108687400817871 28.06830024719238 4.917825222015381 C 33.43022537231445 2.649924993515015 39.12687683105469 1.5 45 1.5 C 50.87312316894531 1.5 56.56977462768555 2.649924993515015 61.93170166015625 4.917825222015381 C 67.11147308349609 7.108687400817871 71.76370239257812 10.24541282653809 75.75914764404297 14.2408504486084 C 79.75458526611328 18.23629951477051 82.89131164550781 22.88852500915527 85.08217620849609 28.06830024719238 C 87.35007476806641 33.43022537231445 88.5 39.12687683105469 88.5 45 C 88.5 50.87312316894531 87.35007476806641 56.56977462768555 85.08217620849609 61.93170166015625 C 82.89131164550781 67.11147308349609 79.75458526611328 71.76370239257812 75.75914764404297 75.75914764404297 C 71.76370239257812 79.75458526611328 67.11147308349609 82.89131164550781 61.93170166015625 85.08217620849609 C 56.56977462768555 87.35007476806641 50.87312316894531 88.5 45 88.5 Z" stroke="none"/>
                        <path d="M 45 3 C 39.32871246337891 3 33.82865524291992 4.110054016113281 28.65262985229492 6.299339294433594 C 23.65165710449219 8.414573669433594 19.15968322753906 11.44334411621094 15.301513671875 15.301513671875 C 11.44334411621094 19.15968322753906 8.414573669433594 23.65165710449219 6.299339294433594 28.65262985229492 C 4.110054016113281 33.82865524291992 3 39.32871246337891 3 45 C 3 50.67128753662109 4.110054016113281 56.17134475708008 6.299339294433594 61.34737396240234 C 8.414573669433594 66.34834289550781 11.44334411621094 70.84031677246094 15.301513671875 74.698486328125 C 19.15968322753906 78.55665588378906 23.65165710449219 81.58542633056641 28.65262985229492 83.70066070556641 C 33.82865524291992 85.88994598388672 39.32871246337891 87 45 87 C 50.67128753662109 87 56.17134475708008 85.88994598388672 61.34737396240234 83.70066070556641 C 66.34834289550781 81.58542633056641 70.84031677246094 78.55665588378906 74.698486328125 74.698486328125 C 78.55665588378906 70.84031677246094 81.58542633056641 66.34834289550781 83.70066070556641 61.34737396240234 C 85.88994598388672 56.17134475708008 87 50.67128753662109 87 45 C 87 39.32871246337891 85.88994598388672 33.82865524291992 83.70066070556641 28.65262985229492 C 81.58542633056641 23.65165710449219 78.55665588378906 19.15968322753906 74.698486328125 15.301513671875 C 70.84031677246094 11.44334411621094 66.34834289550781 8.414573669433594 61.34737396240234 6.299339294433594 C 56.17134475708008 4.110054016113281 50.67128753662109 3 45 3 M 45 0 C 69.85281372070312 0 90 20.14718627929688 90 45 C 90 69.85281372070312 69.85281372070312 90 45 90 C 20.14718627929688 90 0 69.85281372070312 0 45 C 0 20.14718627929688 20.14718627929688 0 45 0 Z" stroke="none" fill="#5c733e"/>
                      </g>
                    </g>
                    <g transform="matrix(1, 0, 0, 1, -9, -8.89)" filter="url(#Trazado_1076716)">
                      <g id="Trazado_1076716-2" data-name="Trazado 1076716" transform="translate(9 8.89)" fill="#f5faf0">
                        <path d="M 45 88.5 C 39.12687683105469 88.5 33.43022537231445 87.35007476806641 28.06830024719238 85.08217620849609 C 22.88852500915527 82.89131164550781 18.23629951477051 79.75458526611328 14.2408504486084 75.75914764404297 C 10.24541282653809 71.76370239257812 7.108687400817871 67.11147308349609 4.917825222015381 61.93170166015625 C 2.649924993515015 56.56977462768555 1.5 50.87312316894531 1.5 45 C 1.5 39.12687683105469 2.649924993515015 33.43022537231445 4.917825222015381 28.06830024719238 C 7.108687400817871 22.88852500915527 10.24541282653809 18.23629951477051 14.2408504486084 14.2408504486084 C 18.23629951477051 10.24541282653809 22.88852500915527 7.108687400817871 28.06830024719238 4.917825222015381 C 33.43022537231445 2.649924993515015 39.12687683105469 1.5 45 1.5 C 50.87312316894531 1.5 56.56977462768555 2.649924993515015 61.93170166015625 4.917825222015381 C 67.11147308349609 7.108687400817871 71.76370239257812 10.24541282653809 75.75914764404297 14.2408504486084 C 79.75458526611328 18.23629951477051 82.89131164550781 22.88852500915527 85.08217620849609 28.06830024719238 C 87.35007476806641 33.43022537231445 88.5 39.12687683105469 88.5 45 C 88.5 50.87312316894531 87.35007476806641 56.56977462768555 85.08217620849609 61.93170166015625 C 82.89131164550781 67.11147308349609 79.75458526611328 71.76370239257812 75.75914764404297 75.75914764404297 C 71.76370239257812 79.75458526611328 67.11147308349609 82.89131164550781 61.93170166015625 85.08217620849609 C 56.56977462768555 87.35007476806641 50.87312316894531 88.5 45 88.5 Z" stroke="none"/>
                        <path d="M 45 3 C 39.32871246337891 3 33.82865524291992 4.110054016113281 28.65262985229492 6.299339294433594 C 23.65165710449219 8.414573669433594 19.15968322753906 11.44334411621094 15.301513671875 15.301513671875 C 11.44334411621094 19.15968322753906 8.414573669433594 23.65165710449219 6.299339294433594 28.65262985229492 C 4.110054016113281 33.82865524291992 3 39.32871246337891 3 45 C 3 50.67128753662109 4.110054016113281 56.17134475708008 6.299339294433594 61.34737396240234 C 8.414573669433594 66.34834289550781 11.44334411621094 70.84031677246094 15.301513671875 74.698486328125 C 19.15968322753906 78.55665588378906 23.65165710449219 81.58542633056641 28.65262985229492 83.70066070556641 C 33.82865524291992 85.88994598388672 39.32871246337891 87 45 87 C 50.67128753662109 87 56.17134475708008 85.88994598388672 61.34737396240234 83.70066070556641 C 66.34834289550781 81.58542633056641 70.84031677246094 78.55665588378906 74.698486328125 74.698486328125 C 78.55665588378906 70.84031677246094 81.58542633056641 66.34834289550781 83.70066070556641 61.34737396240234 C 85.88994598388672 56.17134475708008 87 50.67128753662109 87 45 C 87 39.32871246337891 85.88994598388672 33.82865524291992 83.70066070556641 28.65262985229492 C 81.58542633056641 23.65165710449219 78.55665588378906 19.15968322753906 74.698486328125 15.301513671875 C 70.84031677246094 11.44334411621094 66.34834289550781 8.414573669433594 61.34737396240234 6.299339294433594 C 56.17134475708008 4.110054016113281 50.67128753662109 3 45 3 M 45 0 C 69.85281372070312 0 90 20.14718627929688 90 45 C 90 69.85281372070312 69.85281372070312 90 45 90 C 20.14718627929688 90 0 69.85281372070312 0 45 C 0 20.14718627929688 20.14718627929688 0 45 0 Z" stroke="none" fill="#5c733e"/>
                      </g>
                    </g>
                  </g>
                </g>
              </g>
            </g>
          </g>
        </g>
      </g>
    </g>
    <g id="estado-animico" transform="translate(176 6788.91)">
      <g id="Grupo_1221021" data-name="Grupo 1221021" transform="translate(46.305 1.305)">
        <g id="Grupo_1221018" data-name="Grupo 1221018" transform="translate(0 35.164)">
          <circle id="Elipse_14408" data-name="Elipse 14408" cx="25.658" cy="25.658" r="25.658" fill="#eaf6ff"/>
          <path id="Trazado_1171067" data-name="Trazado 1171067" d="M187.567,209.586a25.925,25.925,0,0,0-2.61.131,25.66,25.66,0,0,1,0,51.053,25.979,25.979,0,0,0,2.61.131,25.658,25.658,0,0,0,0-51.316Z" transform="translate(-161.909 -209.586)" fill="#d8ecfe"/>
          <g id="Grupo_1221017" data-name="Grupo 1221017" transform="translate(6.288 10.525)">
            <g id="Grupo_1221016" data-name="Grupo 1221016">
              <g id="Grupo_1221014" data-name="Grupo 1221014" transform="translate(19.37)">
                <path id="Trazado_1171068" data-name="Trazado 1171068" d="M199.957,275.841c0-3.184,2.891-5.765,6.457-5.765a6.421,6.421,0,0,1,6.081,3.884.707.707,0,0,0,.637.458c3.384.106,6.2,2.608,6.2,5.746a5.272,5.272,0,0,1-.861,2.877.7.7,0,0,0-.037.7,7.829,7.829,0,0,1,.9,3.629,8.734,8.734,0,0,1-6.212,8.066.685.685,0,0,0-.437.474,6.334,6.334,0,0,1-6.264,4.431c-3.566,0-6.457-2.581-6.457-5.765Z" transform="translate(-199.957 -270.076)" fill="#fdd1d5"/>
                <path id="Trazado_1171069" data-name="Trazado 1171069" d="M236.69,283.042a5.272,5.272,0,0,0,.861-2.877c0-3.138-2.812-5.64-6.2-5.746a.707.707,0,0,1-.637-.458,6.422,6.422,0,0,0-6.081-3.884,7.092,7.092,0,0,0-2.617.5,6.087,6.087,0,0,1,3.478,3.389.707.707,0,0,0,.637.458c3.384.106,6.2,2.608,6.2,5.746a5.272,5.272,0,0,1-.861,2.877.7.7,0,0,0-.037.7,7.829,7.829,0,0,1,.9,3.629,8.734,8.734,0,0,1-6.212,8.066.685.685,0,0,0-.437.474,5.987,5.987,0,0,1-3.656,3.938,7.1,7.1,0,0,0,2.612.493,6.334,6.334,0,0,0,6.264-4.431.685.685,0,0,1,.437-.474,8.734,8.734,0,0,0,6.212-8.066,7.831,7.831,0,0,0-.9-3.629A.7.7,0,0,1,236.69,283.042Z" transform="translate(-218.182 -270.076)" fill="#f6b2bb"/>
              </g>
              <g id="Grupo_1221015" data-name="Grupo 1221015" transform="translate(0 0)">
                <path id="Trazado_1171070" data-name="Trazado 1171070" d="M108.009,275.841c0-3.184-2.891-5.765-6.457-5.765a6.421,6.421,0,0,0-6.081,3.884.707.707,0,0,1-.637.458c-3.384.106-6.2,2.608-6.2,5.746a5.272,5.272,0,0,0,.861,2.877.7.7,0,0,1,.037.7,7.829,7.829,0,0,0-.9,3.629,8.734,8.734,0,0,0,6.212,8.066.685.685,0,0,1,.437.474,6.334,6.334,0,0,0,6.264,4.431c3.566,0,6.457-2.581,6.457-5.765Z" transform="translate(-88.639 -270.076)" fill="#fdd1d5"/>
                <path id="Trazado_1171071" data-name="Trazado 1171071" d="M150.471,270.076a7.031,7.031,0,0,0-2.6.5,5.78,5.78,0,0,1,3.839,5.27v18.736a5.781,5.781,0,0,1-3.844,5.272,7.058,7.058,0,0,0,2.608.493c3.566,0,6.457-2.581,6.457-5.765V275.841C156.928,272.657,154.037,270.076,150.471,270.076Z" transform="translate(-137.558 -270.076)" fill="#f6b2bb"/>
              </g>
            </g>
          </g>
        </g>
        <g id="Grupo_1221020" data-name="Grupo 1221020" transform="translate(21.14)">
          <path id="Trazado_1171072" data-name="Trazado 1171072" d="M218.45,46.943H200.712a1.392,1.392,0,0,0-.984.408L195.9,51.179a1.392,1.392,0,0,1-1.969,0L190.1,47.35a1.392,1.392,0,0,0-.984-.408H179.21a5.22,5.22,0,0,1-5.22-5.22v-29a5.22,5.22,0,0,1,5.22-5.22h39.24a5.22,5.22,0,0,1,5.22,5.22v29a5.22,5.22,0,0,1-5.22,5.22Z" transform="translate(-173.99 -7.5)" fill="#b3dafe"/>
          <g id="Grupo_1221019" data-name="Grupo 1221019" transform="translate(39.24)">
            <path id="Trazado_1171073" data-name="Trazado 1171073" d="M404.72,7.5H399.5a5.22,5.22,0,0,1,5.22,5.22v29a5.22,5.22,0,0,1-5.22,5.22h5.22a5.22,5.22,0,0,0,5.22-5.22v-29A5.22,5.22,0,0,0,404.72,7.5Z" transform="translate(-399.5 -7.5)" fill="#8ac9fe"/>
          </g>
          <circle id="Elipse_14409" data-name="Elipse 14409" cx="14.811" cy="14.811" r="14.811" transform="translate(10.029 5.024)" fill="#fff0ad"/>
          <path id="Trazado_1171074" data-name="Trazado 1171074" d="M304.355,36.371a14.9,14.9,0,0,0-2.61.234,14.808,14.808,0,0,1,0,29.154,14.81,14.81,0,1,0,2.61-29.388Z" transform="translate(-279.515 -31.347)" fill="#ffe177"/>
        </g>
      </g>
      <path id="Trazado_1171075" data-name="Trazado 1171075" d="M78.672,54.632a1.3,1.3,0,0,0-.824,1.651,3.455,3.455,0,0,1-.175,2.723,1.3,1.3,0,0,0,2.311,1.213,6.04,6.04,0,0,0,.34-4.763,1.305,1.305,0,0,0-1.651-.824ZM64.77,65.841a1.305,1.305,0,0,0-.837,1.645,3.453,3.453,0,0,1-.285,2.714,1.305,1.305,0,1,0,2.3,1.231,6.04,6.04,0,0,0,.465-4.752,1.3,1.3,0,0,0-1.645-.837Zm15.223,1.645a1.3,1.3,0,0,0-2.482-.807,6.04,6.04,0,0,0,.465,4.752,1.305,1.305,0,1,0,2.3-1.231,3.457,3.457,0,0,1-.285-2.714ZM65.7,60.768a1.305,1.305,0,0,0,.549-1.762,3.456,3.456,0,0,1-.175-2.723,1.3,1.3,0,0,0-2.475-.827,6.041,6.041,0,0,0,.339,4.763A1.307,1.307,0,0,0,65.7,60.768ZM78.42,45.689a7.982,7.982,0,0,0-6.456,3.151,7.983,7.983,0,0,0-6.457-3.151,7.8,7.8,0,0,0-7.149,4.364,7.314,7.314,0,0,0-7.069,7.029,6.576,6.576,0,0,0,.889,3.29,9.055,9.055,0,0,0-.889,3.916,10.047,10.047,0,0,0,6.784,9.189,7.659,7.659,0,0,0,7.434,5.087,7.983,7.983,0,0,0,6.457-3.151,7.982,7.982,0,0,0,6.456,3.151,7.66,7.66,0,0,0,7.434-5.086,10.047,10.047,0,0,0,6.784-9.189,9.058,9.058,0,0,0-.889-3.916,6.574,6.574,0,0,0,.889-3.29,7.314,7.314,0,0,0-7.069-7.029A7.8,7.8,0,0,0,78.42,45.689ZM70.658,71.495c0,2.459-2.311,4.46-5.152,4.46a5.035,5.035,0,0,1-5.031-3.544,3.557,3.557,0,0,1,1.557-2.833A1.3,1.3,0,0,0,60.5,67.462a6.322,6.322,0,0,0-2.366,3.2A7.191,7.191,0,0,1,53.9,64.289c0-2.617,1.164-4.256,3.086-4.915a1.305,1.305,0,0,0-.845-2.469,7.133,7.133,0,0,0-2.114,1.15,3.88,3.88,0,0,1-.127-.972,4.724,4.724,0,0,1,4.24-4.377,6.136,6.136,0,0,0,1.338,2.559,1.305,1.305,0,1,0,1.967-1.715,3.391,3.391,0,0,1-.859-2.065A5.17,5.17,0,0,1,65.507,48.3c2.841,0,5.152,2,5.152,4.46Zm19.37-14.412a3.879,3.879,0,0,1-.127.972,7.134,7.134,0,0,0-2.114-1.15,1.305,1.305,0,1,0-.845,2.469,4.923,4.923,0,0,1,3.086,4.915,7.19,7.19,0,0,1-4.241,6.377,6.323,6.323,0,0,0-2.366-3.2,1.3,1.3,0,1,0-1.528,2.116A3.557,3.557,0,0,1,83.45,72.41a5.067,5.067,0,0,1-5.031,3.544c-2.84,0-5.151-2-5.151-4.46V52.759c0-2.459,2.311-4.46,5.151-4.46a5.177,5.177,0,0,1,4.922,3.184,3.39,3.39,0,0,1-.859,2.065,1.305,1.305,0,0,0,1.967,1.715,6.136,6.136,0,0,0,1.338-2.559,4.724,4.724,0,0,1,4.24,4.377Zm11.229-38.908a1.305,1.305,0,0,0-1.1-2.365,4.191,4.191,0,0,1-1.723.392,4.118,4.118,0,0,1-1.8-.392,1.3,1.3,0,1,0-1.105,2.364,6.769,6.769,0,0,0,5.734,0Zm2.373,14.411a16.066,16.066,0,1,0-5.539,3.592,1.3,1.3,0,1,0-.94-2.435,13.523,13.523,0,1,1,4.641-3.011,1.305,1.305,0,1,0,1.838,1.853ZM87.785,28.594a8.757,8.757,0,0,0,4.5,1.25,9.419,9.419,0,0,0,4.5-1.25,1.305,1.305,0,1,0-1.343-2.238,6.118,6.118,0,0,1-6.316,0,1.3,1.3,0,1,0-1.342,2.239Zm1.892-12.155a1.3,1.3,0,0,0-1.735-.63,4.158,4.158,0,0,1-3.524,0,1.305,1.305,0,1,0-1.106,2.364,6.768,6.768,0,0,0,5.734,0A1.3,1.3,0,0,0,89.676,16.439ZM111.9,0h-7.262a1.305,1.305,0,1,0,0,2.61H111.9a3.92,3.92,0,0,1,3.915,3.915v29a3.92,3.92,0,0,1-3.915,3.915H94.166a2.681,2.681,0,0,0-1.907.79L89.312,43.18h0l0,0-.878.878a.087.087,0,0,1-.123,0L84.48,40.233a2.68,2.68,0,0,0-1.907-.79H72.665a3.921,3.921,0,0,1-3.915-3.915v-29A3.92,3.92,0,0,1,72.665,2.61H98.553a1.305,1.305,0,0,0,0-2.61H72.665A6.532,6.532,0,0,0,66.14,6.525c0,.21,0,29.068.007,29.27a26.971,26.971,0,1,0,25.9,8.343l2.06-2.06c.054-.06,17.737,0,17.8-.026a6.532,6.532,0,0,0,6.525-6.525v-29A6.532,6.532,0,0,0,111.9,0ZM96.315,62.126a24.349,24.349,0,1,1-29.543-23.8,6.533,6.533,0,0,0,5.892,3.724c.06,0,9.923-.027,9.97.025l3.828,3.828a2.695,2.695,0,0,0,3.73.076,24.183,24.183,0,0,1,6.123,16.143Z"/>
    </g>
  </g>
</svg>
