<svg xmlns="http://www.w3.org/2000/svg" xmlns:xlink="http://www.w3.org/1999/xlink" width="108" height="108" viewBox="0 0 108 108">
  <defs>
    <filter id="Trazado_978624" x="0" y="0" width="108" height="108" filterUnits="userSpaceOnUse">
      <feOffset dy="3" input="SourceAlpha"/>
      <feGaussianBlur stdDeviation="3" result="blur"/>
      <feFlood flood-opacity="0.161"/>
      <feComposite operator="in" in2="blur"/>
      <feComposite in="SourceGraphic"/>
    </filter>
    <filter id="Trazado_1076716" x="0" y="0" width="108" height="108" filterUnits="userSpaceOnUse">
      <feOffset dy="3" input="SourceAlpha"/>
      <feGaussianBlur stdDeviation="3" result="blur-2"/>
      <feFlood flood-opacity="0.161"/>
      <feComposite operator="in" in2="blur-2"/>
      <feComposite in="SourceGraphic"/>
    </filter>
  </defs>
  <g id="Grupo_1220995" data-name="Grupo 1220995" transform="translate(-197 -3830.802)">
    <g id="Grupo_1220073" data-name="Grupo 1220073" transform="translate(206 3836.802)">
      <g id="Grupo_1208078" data-name="Grupo 1208078" transform="translate(0)">
        <g id="Grupo_1181203" data-name="Grupo 1181203">
          <g id="Grupo_1172348" data-name="Grupo 1172348">
            <g id="Grupo_1171897" data-name="Grupo 1171897">
              <g id="Grupo_1171052" data-name="Grupo 1171052">
                <g id="Grupo_1164581" data-name="Grupo 1164581">
                  <g id="Grupo_1144123" data-name="Grupo 1144123">
                    <g transform="matrix(1, 0, 0, 1, -9, -6)" filter="url(#Trazado_978624)">
                      <g id="Trazado_978624-2" data-name="Trazado 978624" transform="translate(9 6)" fill="#f5faf0">
                        <path d="M 45 88.5 C 39.12687683105469 88.5 33.43022537231445 87.35007476806641 28.06830024719238 85.08217620849609 C 22.88852500915527 82.89131164550781 18.23629951477051 79.75458526611328 14.2408504486084 75.75914764404297 C 10.24541282653809 71.76370239257812 7.108687400817871 67.11147308349609 4.917825222015381 61.93170166015625 C 2.649924993515015 56.56977462768555 1.5 50.87312316894531 1.5 45 C 1.5 39.12687683105469 2.649924993515015 33.43022537231445 4.917825222015381 28.06830024719238 C 7.108687400817871 22.88852500915527 10.24541282653809 18.23629951477051 14.2408504486084 14.2408504486084 C 18.23629951477051 10.24541282653809 22.88852500915527 7.108687400817871 28.06830024719238 4.917825222015381 C 33.43022537231445 2.649924993515015 39.12687683105469 1.5 45 1.5 C 50.87312316894531 1.5 56.56977462768555 2.649924993515015 61.93170166015625 4.917825222015381 C 67.11147308349609 7.108687400817871 71.76370239257812 10.24541282653809 75.75914764404297 14.2408504486084 C 79.75458526611328 18.23629951477051 82.89131164550781 22.88852500915527 85.08217620849609 28.06830024719238 C 87.35007476806641 33.43022537231445 88.5 39.12687683105469 88.5 45 C 88.5 50.87312316894531 87.35007476806641 56.56977462768555 85.08217620849609 61.93170166015625 C 82.89131164550781 67.11147308349609 79.75458526611328 71.76370239257812 75.75914764404297 75.75914764404297 C 71.76370239257812 79.75458526611328 67.11147308349609 82.89131164550781 61.93170166015625 85.08217620849609 C 56.56977462768555 87.35007476806641 50.87312316894531 88.5 45 88.5 Z" stroke="none"/>
                        <path d="M 45 3 C 39.32871246337891 3 33.82865524291992 4.110054016113281 28.65262985229492 6.299339294433594 C 23.65165710449219 8.414573669433594 19.15968322753906 11.44334411621094 15.301513671875 15.301513671875 C 11.44334411621094 19.15968322753906 8.414573669433594 23.65165710449219 6.299339294433594 28.65262985229492 C 4.110054016113281 33.82865524291992 3 39.32871246337891 3 45 C 3 50.67128753662109 4.110054016113281 56.17134475708008 6.299339294433594 61.34737396240234 C 8.414573669433594 66.34834289550781 11.44334411621094 70.84031677246094 15.301513671875 74.698486328125 C 19.15968322753906 78.55665588378906 23.65165710449219 81.58542633056641 28.65262985229492 83.70066070556641 C 33.82865524291992 85.88994598388672 39.32871246337891 87 45 87 C 50.67128753662109 87 56.17134475708008 85.88994598388672 61.34737396240234 83.70066070556641 C 66.34834289550781 81.58542633056641 70.84031677246094 78.55665588378906 74.698486328125 74.698486328125 C 78.55665588378906 70.84031677246094 81.58542633056641 66.34834289550781 83.70066070556641 61.34737396240234 C 85.88994598388672 56.17134475708008 87 50.67128753662109 87 45 C 87 39.32871246337891 85.88994598388672 33.82865524291992 83.70066070556641 28.65262985229492 C 81.58542633056641 23.65165710449219 78.55665588378906 19.15968322753906 74.698486328125 15.301513671875 C 70.84031677246094 11.44334411621094 66.34834289550781 8.414573669433594 61.34737396240234 6.299339294433594 C 56.17134475708008 4.110054016113281 50.67128753662109 3 45 3 M 45 0 C 69.85281372070312 0 90 20.14718627929688 90 45 C 90 69.85281372070312 69.85281372070312 90 45 90 C 20.14718627929688 90 0 69.85281372070312 0 45 C 0 20.14718627929688 20.14718627929688 0 45 0 Z" stroke="none" fill="#5c733e"/>
                      </g>
                    </g>
                    <g transform="matrix(1, 0, 0, 1, -9, -6)" filter="url(#Trazado_1076716)">
                      <g id="Trazado_1076716-2" data-name="Trazado 1076716" transform="translate(9 6)" fill="#f5faf0">
                        <path d="M 45 88.5 C 39.12687683105469 88.5 33.43022537231445 87.35007476806641 28.06830024719238 85.08217620849609 C 22.88852500915527 82.89131164550781 18.23629951477051 79.75458526611328 14.2408504486084 75.75914764404297 C 10.24541282653809 71.76370239257812 7.108687400817871 67.11147308349609 4.917825222015381 61.93170166015625 C 2.649924993515015 56.56977462768555 1.5 50.87312316894531 1.5 45 C 1.5 39.12687683105469 2.649924993515015 33.43022537231445 4.917825222015381 28.06830024719238 C 7.108687400817871 22.88852500915527 10.24541282653809 18.23629951477051 14.2408504486084 14.2408504486084 C 18.23629951477051 10.24541282653809 22.88852500915527 7.108687400817871 28.06830024719238 4.917825222015381 C 33.43022537231445 2.649924993515015 39.12687683105469 1.5 45 1.5 C 50.87312316894531 1.5 56.56977462768555 2.649924993515015 61.93170166015625 4.917825222015381 C 67.11147308349609 7.108687400817871 71.76370239257812 10.24541282653809 75.75914764404297 14.2408504486084 C 79.75458526611328 18.23629951477051 82.89131164550781 22.88852500915527 85.08217620849609 28.06830024719238 C 87.35007476806641 33.43022537231445 88.5 39.12687683105469 88.5 45 C 88.5 50.87312316894531 87.35007476806641 56.56977462768555 85.08217620849609 61.93170166015625 C 82.89131164550781 67.11147308349609 79.75458526611328 71.76370239257812 75.75914764404297 75.75914764404297 C 71.76370239257812 79.75458526611328 67.11147308349609 82.89131164550781 61.93170166015625 85.08217620849609 C 56.56977462768555 87.35007476806641 50.87312316894531 88.5 45 88.5 Z" stroke="none"/>
                        <path d="M 45 3 C 39.32871246337891 3 33.82865524291992 4.110054016113281 28.65262985229492 6.299339294433594 C 23.65165710449219 8.414573669433594 19.15968322753906 11.44334411621094 15.301513671875 15.301513671875 C 11.44334411621094 19.15968322753906 8.414573669433594 23.65165710449219 6.299339294433594 28.65262985229492 C 4.110054016113281 33.82865524291992 3 39.32871246337891 3 45 C 3 50.67128753662109 4.110054016113281 56.17134475708008 6.299339294433594 61.34737396240234 C 8.414573669433594 66.34834289550781 11.44334411621094 70.84031677246094 15.301513671875 74.698486328125 C 19.15968322753906 78.55665588378906 23.65165710449219 81.58542633056641 28.65262985229492 83.70066070556641 C 33.82865524291992 85.88994598388672 39.32871246337891 87 45 87 C 50.67128753662109 87 56.17134475708008 85.88994598388672 61.34737396240234 83.70066070556641 C 66.34834289550781 81.58542633056641 70.84031677246094 78.55665588378906 74.698486328125 74.698486328125 C 78.55665588378906 70.84031677246094 81.58542633056641 66.34834289550781 83.70066070556641 61.34737396240234 C 85.88994598388672 56.17134475708008 87 50.67128753662109 87 45 C 87 39.32871246337891 85.88994598388672 33.82865524291992 83.70066070556641 28.65262985229492 C 81.58542633056641 23.65165710449219 78.55665588378906 19.15968322753906 74.698486328125 15.301513671875 C 70.84031677246094 11.44334411621094 66.34834289550781 8.414573669433594 61.34737396240234 6.299339294433594 C 56.17134475708008 4.110054016113281 50.67128753662109 3 45 3 M 45 0 C 69.85281372070312 0 90 20.14718627929688 90 45 C 90 69.85281372070312 69.85281372070312 90 45 90 C 20.14718627929688 90 0 69.85281372070312 0 45 C 0 20.14718627929688 20.14718627929688 0 45 0 Z" stroke="none" fill="#5c733e"/>
                      </g>
                    </g>
                  </g>
                </g>
              </g>
            </g>
          </g>
        </g>
      </g>
    </g>
    <g id="emocion" transform="translate(208.814 3839.198)">
      <g id="Grupo_1220993" data-name="Grupo 1220993" transform="translate(1.234 1.734)">
        <g id="Grupo_1220992" data-name="Grupo 1220992">
          <g id="XMLID_207_" transform="translate(26.097)">
            <g id="Grupo_1220987" data-name="Grupo 1220987">
              <circle id="Elipse_14399" data-name="Elipse 14399" cx="14.937" cy="14.937" r="14.937" fill="#ade194"/>
            </g>
          </g>
          <g id="XMLID_208_" transform="translate(52.03 26.097)">
            <g id="Grupo_1220988" data-name="Grupo 1220988">
              <circle id="Elipse_14400" data-name="Elipse 14400" cx="14.937" cy="14.937" r="14.937" fill="#fef48b"/>
            </g>
          </g>
          <path id="Trazado_1170947" data-name="Trazado 1170947" d="M332.164,181.6a14.944,14.944,0,0,1,10.766-14.346,14.937,14.937,0,1,0,0,28.692A14.944,14.944,0,0,1,332.164,181.6Z" transform="translate(-271.792 -140.566)" fill="#fef056"/>
          <g id="XMLID_210_" transform="translate(26.097 51.866)">
            <g id="Grupo_1220989" data-name="Grupo 1220989">
              <circle id="Elipse_14401" data-name="Elipse 14401" cx="14.937" cy="14.937" r="14.937" fill="#99e6fc"/>
            </g>
          </g>
          <path id="Trazado_1170948" data-name="Trazado 1170948" d="M174.06,22.94A14.946,14.946,0,0,1,185.05,8.531a14.937,14.937,0,1,0,0,28.818A14.946,14.946,0,0,1,174.06,22.94Z" transform="translate(-140.065 -8.003)" fill="#97da7b"/>
          <path id="Trazado_1170949" data-name="Trazado 1170949" d="M174.06,338.26a14.946,14.946,0,0,1,10.989-14.409,14.937,14.937,0,1,0,0,28.818A14.946,14.946,0,0,1,174.06,338.26Z" transform="translate(-140.065 -271.457)" fill="#62dbfb"/>
          <g id="XMLID_211_" transform="translate(0 26.097)">
            <g id="Grupo_1220990" data-name="Grupo 1220990" transform="translate(0 0)">
              <circle id="Elipse_14402" data-name="Elipse 14402" cx="14.937" cy="14.937" r="14.937" fill="#fd8087"/>
            </g>
            <g id="Grupo_1220991" data-name="Grupo 1220991" transform="translate(0)">
              <path id="Trazado_1170950" data-name="Trazado 1170950" d="M15.845,181.6a14.944,14.944,0,0,1,10.766-14.346,14.937,14.937,0,1,0,0,28.692A14.944,14.944,0,0,1,15.845,181.6Z" transform="translate(-7.503 -166.663)" fill="#fe646f"/>
              <path id="Trazado_1170951" data-name="Trazado 1170951" d="M75.618,271.247H74.373a4.388,4.388,0,0,0-4.388,4.388v.162a.947.947,0,0,0,.947.947h8.127a.947.947,0,0,0,.947-.947v-.162A4.388,4.388,0,0,0,75.618,271.247Z" transform="translate(-59.708 -254.044)" fill="#fe646f"/>
            </g>
          </g>
        </g>
      </g>
      <g id="Grupo_1220994" data-name="Grupo 1220994" transform="translate(0 0.5)">
        <path id="Trazado_1170952" data-name="Trazado 1170952" d="M68.2,26.6a16.225,16.225,0,0,0-2.349.171,28.857,28.857,0,0,0-7.606-7.6A16.172,16.172,0,0,0,28.811,7.7a1.234,1.234,0,0,0,2.052,1.37,13.651,13.651,0,1,1-1.935,4.45,1.234,1.234,0,1,0-2.4-.565,16.265,16.265,0,0,0-.236,6.212,28.85,28.85,0,0,0-7.618,7.621A16.177,16.177,0,0,0,0,42.768a16.045,16.045,0,0,0,1.444,6.688A1.234,1.234,0,0,0,3.69,48.435a13.724,13.724,0,1,1,2.746,3.977,1.234,1.234,0,0,0-1.753,1.736,16.182,16.182,0,0,0,13.986,4.6,28.864,28.864,0,0,0,7.578,7.593,16.171,16.171,0,1,0,32.042,0,28.864,28.864,0,0,0,7.563-7.571A16.173,16.173,0,0,0,80,53.828a1.234,1.234,0,0,0-1.8-1.688,13.573,13.573,0,0,1-10,4.332,13.692,13.692,0,1,1,12.631-8.38,1.234,1.234,0,0,0,2.273.959A16.179,16.179,0,0,0,68.2,26.6ZM42.268,82.24a13.7,13.7,0,1,1,13.7-13.7A13.719,13.719,0,0,1,42.268,82.24ZM52.03,42.768a16.2,16.2,0,0,0,11.224,15.4,26.415,26.415,0,0,1-5.547,5.559,16.173,16.173,0,0,0-30.879,0,26.419,26.419,0,0,1-5.579-5.6,16.172,16.172,0,0,0,0-30.705,26.417,26.417,0,0,1,5.665-5.665,16.171,16.171,0,0,0,30.705,0,26.408,26.408,0,0,1,5.633,5.622,16.2,16.2,0,0,0-11.223,15.4Z" transform="translate(0 -0.5)"/>
        <path id="Trazado_1170953" data-name="Trazado 1170953" d="M439.92,218.817V217.37a1.234,1.234,0,0,0-2.467,0v1.448a1.234,1.234,0,0,0,2.467,0Z" transform="translate(-365.498 -180.667)"/>
        <path id="Trazado_1170954" data-name="Trazado 1170954" d="M379.281,218.817V217.37a1.234,1.234,0,0,0-2.467,0v1.448a1.234,1.234,0,0,0,2.467,0Z" transform="translate(-314.834 -180.667)"/>
        <path id="Trazado_1170955" data-name="Trazado 1170955" d="M192.477,110.1a1.234,1.234,0,0,0-.792,1.554,11.234,11.234,0,0,0,21.377,0,1.234,1.234,0,0,0-2.347-.762,8.767,8.767,0,0,1-16.683,0,1.234,1.234,0,0,0-1.554-.792Z" transform="translate(-160.104 -92.02)"/>
        <path id="Trazado_1170956" data-name="Trazado 1170956" d="M220.387,53.672a1.233,1.233,0,0,0,1.234-1.234V50.991a1.234,1.234,0,0,0-2.467,0v1.447A1.234,1.234,0,0,0,220.387,53.672Z" transform="translate(-183.106 -41.655)"/>
        <path id="Trazado_1170957" data-name="Trazado 1170957" d="M282.259,52.438V50.991a1.234,1.234,0,0,0-2.467,0v1.447a1.234,1.234,0,0,0,2.467,0Z" transform="translate(-233.77 -41.655)"/>
        <path id="Trazado_1170958" data-name="Trazado 1170958" d="M356.558,283.63a1.233,1.233,0,0,0,1.234,1.234H374.43a1.234,1.234,0,1,0,0-2.467H357.792A1.233,1.233,0,0,0,356.558,283.63Z" transform="translate(-297.909 -236.028)"/>
        <path id="Trazado_1170959" data-name="Trazado 1170959" d="M207.419,370.816a1.234,1.234,0,0,0-1.7-.4c-1.77,1.094-4.658,2.871-5.112,3.128a1.234,1.234,0,0,0-.086,2.2,1.175,1.175,0,0,0,.58.158,1.746,1.746,0,0,0,.883-.3c.149-.088.908-.547,1.072-.647v.076a1.234,1.234,0,0,0,2.467,0v-1.448a1.254,1.254,0,0,0-.008-.137l1.5-.926a1.233,1.233,0,0,0,.4-1.7Z" transform="translate(-167.011 -309.416)"/>
        <path id="Trazado_1170960" data-name="Trazado 1170960" d="M274.154,373.543c-.453-.257-3.342-2.033-5.112-3.128a1.234,1.234,0,1,0-1.3,2.1l1.5.926a1.261,1.261,0,0,0-.008.137v1.448a1.234,1.234,0,0,0,2.467,0v-.076c.164.1.923.559,1.072.647a1.746,1.746,0,0,0,.883.3,1.175,1.175,0,0,0,.58-.158,1.234,1.234,0,0,0-.086-2.2Z" transform="translate(-223.216 -309.415)"/>
        <path id="Trazado_1170961" data-name="Trazado 1170961" d="M51.369,214.727c-1.917-1.03-4.075-2.2-4.453-2.422a1.234,1.234,0,0,0-1.953,1.019c.01.733.4.949,1.356,1.474l.824.45v1.55a1.234,1.234,0,1,0,2.467,0v-.215l.591.318a1.234,1.234,0,1,0,1.167-2.174Z" transform="translate(-37.568 -177.273)"/>
        <path id="Trazado_1170962" data-name="Trazado 1170962" d="M115.2,212.236a1.233,1.233,0,0,0-1.331.069c-.378.222-2.536,1.392-4.453,2.422a1.234,1.234,0,1,0,1.167,2.174l.591-.318v.215a1.234,1.234,0,0,0,2.467,0v-1.549l.824-.451c.952-.524,1.346-.741,1.356-1.474a1.234,1.234,0,0,0-.622-1.088Z" transform="translate(-90.872 -177.273)"/>
        <path id="Trazado_1170963" data-name="Trazado 1170963" d="M228.5,439.326a11.2,11.2,0,0,0-12.617,0,1.234,1.234,0,1,0,1.389,2.039,8.736,8.736,0,0,1,9.838,0,1.234,1.234,0,0,0,1.39-2.039Z" transform="translate(-179.921 -365.52)"/>
        <path id="Trazado_1170964" data-name="Trazado 1170964" d="M68.106,263.747a5.628,5.628,0,0,0-5.622,5.622v.161a2.183,2.183,0,0,0,2.181,2.181h8.127a2.183,2.183,0,0,0,2.181-2.181v-.161a5.628,5.628,0,0,0-5.621-5.622Zm4.4,5.5H64.954a3.158,3.158,0,0,1,3.152-3.029h1.245A3.158,3.158,0,0,1,72.5,269.244Z" transform="translate(-52.206 -220.447)"/>
      </g>
    </g>
  </g>
</svg>
