<svg xmlns="http://www.w3.org/2000/svg" xmlns:xlink="http://www.w3.org/1999/xlink" width="113" height="113" viewBox="0 0 113 113">
  <defs>
    <filter id="Trazado_982547" x="0" y="0" width="113" height="113" filterUnits="userSpaceOnUse">
      <feOffset dy="3" input="SourceAlpha"/>
      <feGaussianBlur stdDeviation="3" result="blur"/>
      <feFlood flood-opacity="0.161"/>
      <feComposite operator="in" in2="blur"/>
      <feComposite in="SourceGraphic"/>
    </filter>
  </defs>
  <g id="Grupo_1220363" data-name="Grupo 1220363" transform="translate(-742.046 -1440.695)">
    <g id="Grupo_1212633" data-name="Grupo 1212633" transform="translate(0 -6098.948)">
      <g id="Grupo_1209993" data-name="Grupo 1209993" transform="translate(0 10.835)">
        <g id="Grupo_1208706" data-name="Grupo 1208706" transform="translate(-1.454 3213.429)">
          <g id="Grupo_1148634" data-name="Grupo 1148634" transform="translate(488.454 600.047)">
            <g id="Grupo_1148525" data-name="Grupo 1148525" transform="translate(264.046 3721.333)">
              <g transform="matrix(1, 0, 0, 1, -9, -6)" filter="url(#Trazado_982547)">
                <g id="Trazado_982547-2" data-name="Trazado 982547" transform="translate(9 6)" fill="#e4f1d4">
                  <path d="M 47.5 93.5 C 41.28937149047852 93.5 35.26533508300781 92.28397369384766 29.59518623352051 89.88570404052734 C 24.11771965026855 87.56893157958984 19.19813346862793 84.25196075439453 14.97309303283691 80.02691650390625 C 10.74804019927979 75.80186462402344 7.431066513061523 70.88229370117188 5.114293098449707 65.40481567382812 C 2.716026782989502 59.73468017578125 1.5 53.71062850952148 1.5 47.5 C 1.5 41.28937149047852 2.716026782989502 35.26533508300781 5.114293098449707 29.59518623352051 C 7.431066513061523 24.11771965026855 10.74804019927979 19.19813346862793 14.97309303283691 14.97309303283691 C 19.19813346862793 10.74804019927979 24.11771965026855 7.431066513061523 29.59518623352051 5.114293098449707 C 35.26533508300781 2.716026782989502 41.28937149047852 1.5 47.5 1.5 C 53.71062850952148 1.5 59.73468017578125 2.716026782989502 65.40481567382812 5.114293098449707 C 70.88229370117188 7.431066513061523 75.80186462402344 10.74804019927979 80.02691650390625 14.97309303283691 C 84.25196075439453 19.19813346862793 87.56893157958984 24.11771965026855 89.88570404052734 29.59518623352051 C 92.28397369384766 35.26533508300781 93.5 41.28937149047852 93.5 47.5 C 93.5 53.71062850952148 92.28397369384766 59.73468017578125 89.88570404052734 65.40481567382812 C 87.56893157958984 70.88229370117188 84.25196075439453 75.80186462402344 80.02691650390625 80.02691650390625 C 75.80186462402344 84.25196075439453 70.88229370117188 87.56893157958984 65.40481567382812 89.88570404052734 C 59.73468017578125 92.28397369384766 53.71062850952148 93.5 47.5 93.5 Z" stroke="none"/>
                  <path d="M 47.5 3 C 41.49121475219727 3 35.66376876831055 4.176155090332031 30.17950439453125 6.495796203613281 C 24.88084411621094 8.736953735351562 20.12152099609375 11.94598388671875 16.03375244140625 16.03375244140625 C 11.94598388671875 20.12152099609375 8.736953735351562 24.88084411621094 6.495796203613281 30.17950439453125 C 4.176155090332031 35.66376876831055 3 41.49121475219727 3 47.5 C 3 53.50878524780273 4.176155090332031 59.33623123168945 6.495796203613281 64.82049560546875 C 8.736953735351562 70.11915588378906 11.94598388671875 74.87847900390625 16.03375244140625 78.96624755859375 C 20.12152099609375 83.05401611328125 24.88084411621094 86.26304626464844 30.17950439453125 88.50419616699219 C 35.66376876831055 90.82384490966797 41.49121475219727 92 47.5 92 C 53.50878524780273 92 59.33623123168945 90.82384490966797 64.82049560546875 88.50419616699219 C 70.11915588378906 86.26304626464844 74.87847900390625 83.05401611328125 78.96624755859375 78.96624755859375 C 83.05401611328125 74.87847900390625 86.26304626464844 70.11915588378906 88.50419616699219 64.82049560546875 C 90.82384490966797 59.33623123168945 92 53.50878524780273 92 47.5 C 92 41.49121475219727 90.82384490966797 35.66376876831055 88.50419616699219 30.17950439453125 C 86.26304626464844 24.88084411621094 83.05401611328125 20.12152099609375 78.96624755859375 16.03375244140625 C 74.87847900390625 11.94598388671875 70.11915588378906 8.736953735351562 64.82049560546875 6.495796203613281 C 59.33623123168945 4.176155090332031 53.50878524780273 3 47.5 3 M 47.5 0 C 73.7335205078125 0 95 21.2664794921875 95 47.5 C 95 73.7335205078125 73.7335205078125 95 47.5 95 C 21.2664794921875 95 0 73.7335205078125 0 47.5 C 0 21.2664794921875 21.2664794921875 0 47.5 0 Z" stroke="none" fill="#a9d373"/>
                </g>
              </g>
            </g>
          </g>
        </g>
      </g>
    </g>
    <g id="amnesia" transform="translate(768.169 1449.691)">
      <g id="Grupo_1220361" data-name="Grupo 1220361" transform="translate(1.183 1.145)">
        <g id="Grupo_1220357" data-name="Grupo 1220357" transform="translate(0 14.298)">
          <path id="Trazado_1169103" data-name="Trazado 1169103" d="M62.811,121.367c-1.579-10.152-9.728-15.078-18.923-17,0,0,.231.553-.017-.041-.663-.14-1.521-.381-2.4-.5-4.3-.59-9.248-1.137-13.753.075q-1.083.291-2.162.683l.011,0a22.83,22.83,0,0,0-3.366,1.539,17.184,17.184,0,0,0-9.13,14.311c-.147,2.256-1.12,3.346-1.339,4.289-.267,1.146.952,2.323,1.438,3.455a1.668,1.668,0,0,1-.082,1.471A13.378,13.378,0,0,1,9.324,133.8c-.877.675-1.546,1.279-1.544,2.33,0,1.226.77,2.027,2.418,2.534,3.156.971-.66,3.445-.66,3.445a1.051,1.051,0,0,0,.335,1.45,10.884,10.884,0,0,1,1.31,1.213.247.247,0,0,1-.028.355,1.773,1.773,0,0,0-.741,1.47.975.975,0,0,0,.668.867,4.1,4.1,0,0,1,1,.481.908.908,0,0,1,.29,1.124,3.758,3.758,0,0,0-.58,3.118c.58,2.357,2.557,3.228,4.541,3.553,1.392.228,4.273-.255,7.206-.653,5.178-.7,7.558,3.573,9.084,7.252h0a2.266,2.266,0,0,0,.37.755c.582.794,2.31.9,3.329.6l17.046-4.534a2.487,2.487,0,0,0,1.708-3.276c-1.479-3.984-3.068-9.548-1.12-11.8.093-.1.018-.024.217-.223,5.764-5.217,7.964-8.7,8.6-14.051h0a34.331,34.331,0,0,0,.042-8.439Z" transform="translate(-7.78 -102.914)" fill="#fed2a4"/>
          <path id="Trazado_1169104" data-name="Trazado 1169104" d="M163.117,139.8a24.005,24.005,0,0,0,3.677-4.765c1.883-3.214,2.258-7.242,2.285-11.183a22.425,22.425,0,0,0-.851-6.538,18.973,18.973,0,0,0-6.9-9.7h0a30.392,30.392,0,0,0-12.122-5.262,0,0,0,0,1,0,0c-.662-.141-1.69-.328-2.566-.451a32.843,32.843,0,0,0-14.356.866,35.111,35.111,0,0,1,11.4-.126c.877.123,1.9.311,2.566.451a0,0,0,0,0,0,0c9.194,1.925,18.016,7.374,19.6,17.527a27.308,27.308,0,0,1,.271,3.975c0,1.618-.115,3.187-.254,4.624a16.639,16.639,0,0,1-3.14,8.292,46.8,46.8,0,0,1-3.613,3.584,5.2,5.2,0,0,0-.373.382c-2.016,2.327-1.732,6.863.868,13.869a.635.635,0,0,1-.032.522.626.626,0,0,1-.4.318l-20.61,5.492a2.711,2.711,0,0,0,2.1,1.122,2.072,2.072,0,0,0,.585-.083l18.385-4.74a2.487,2.487,0,0,0,1.708-3.276c-1.479-3.984-3.154-9.763-1.206-12.012l.038-.043C160.729,142.067,160.671,142.283,163.117,139.8Z" transform="translate(-113.352 -101.503)" fill="#ffbd86"/>
        </g>
        <g id="Grupo_1220359" data-name="Grupo 1220359" transform="translate(11.546 21.716)">
          <path id="Trazado_1169105" data-name="Trazado 1169105" d="M224.312,292.948a4.427,4.427,0,0,0-3.417.838,3.349,3.349,0,1,0-.857,6.35.15.15,0,0,1,.14.052,4.44,4.44,0,0,0,7.4-.931c.177-.368-.4-.887-.332-1.311C227.65,295.528,226.73,293.357,224.312,292.948Z" transform="translate(-196 -271.195)" fill="#dc4955"/>
          <path id="Trazado_1169106" data-name="Trazado 1169106" d="M227.95,298.063a4.39,4.39,0,0,1-.379,1.191,8.6,8.6,0,0,1-6.545-1.235,7.573,7.573,0,0,1-4.013,1.058,3.349,3.349,0,0,1,3.039-5.552,3.386,3.386,0,0,1,.841.259,4.439,4.439,0,0,1,7.056,4.279Z" transform="translate(-195.998 -271.192)" fill="#d82f3c"/>
          <path id="Trazado_1169107" data-name="Trazado 1169107" d="M186.44,314.519l-2.279.058a1.185,1.185,0,0,1-1.14-.855l-.678-.806-3.422-8.978,5.027-1.371,3.418,10.9A.824.824,0,0,1,186.44,314.519Z" transform="translate(-164.437 -279.403)" fill="#df646e"/>
          <path id="Trazado_1169108" data-name="Trazado 1169108" d="M205.817,314.356l-2.665.012a1.846,1.846,0,0,1-1.41-1.142l-.325-.82,2.756,0a.412.412,0,0,0,.464-.523l-2.841-9.495,1.56-.425,3.388,11.343A.825.825,0,0,1,205.817,314.356Z" transform="translate(-183.511 -278.894)" fill="#dc4955"/>
          <path id="Trazado_1169109" data-name="Trazado 1169109" d="M118.9,166.6a.412.412,0,0,1,.075-.511A5.36,5.36,0,0,0,120.6,163a5.536,5.536,0,0,0-3.826-6.478q-.112-.028-.227-.051a.4.4,0,0,1-.3-.28,5.607,5.607,0,0,0-8.711-2.944.411.411,0,0,1-.581-.1,6.623,6.623,0,0,0-10.458-.571.273.273,0,0,1-.327.071A5.042,5.042,0,0,0,89,156.009a.278.278,0,0,1-.217.211,5.945,5.945,0,0,0-4.158,8.466.276.276,0,0,1-.02.281,5.192,5.192,0,0,0,6.99,7.365c.2-.12.449-.521.628-.666a.272.272,0,0,1,.435.146,4.2,4.2,0,0,0,4.791,3.134.4.4,0,0,1,.376.135,3.284,3.284,0,0,0,1.99,1.046,3.13,3.13,0,0,0,2.612-.7.413.413,0,0,1,.479-.042,4.93,4.93,0,0,0,1.625.683,4.5,4.5,0,0,0,4.275-1.363,6.65,6.65,0,0,0,.956.779,6.158,6.158,0,0,0,2.769.671,6.372,6.372,0,0,0,7.16-4.854,6.289,6.289,0,0,0-.792-4.708Z" transform="translate(-83.692 -150.277)" fill="#df646e"/>
          <g id="Grupo_1220358" data-name="Grupo 1220358" transform="translate(8.897 6.227)">
            <path id="Trazado_1169110" data-name="Trazado 1169110" d="M265.253,206.208a6.664,6.664,0,0,1-10.182,3.993,6.563,6.563,0,0,0,.854.176,6.661,6.661,0,0,0,6.64-10,.407.407,0,0,1,.073-.508,5.587,5.587,0,0,0,1.686-3.149,5.664,5.664,0,0,0-2.293-5.505,5.652,5.652,0,0,1,4.231,6.389,5.586,5.586,0,0,1-1.686,3.149.407.407,0,0,0-.073.508,6.636,6.636,0,0,1,.75,4.944Z" transform="translate(-237.901 -191.218)" fill="#dc4955"/>
            <path id="Trazado_1169111" data-name="Trazado 1169111" d="M142.187,284.042a4.215,4.215,0,0,0,4.8,3.121.4.4,0,0,1,.375.136,3.309,3.309,0,0,0,4.648.378.413.413,0,0,1,.477-.042,4.638,4.638,0,0,0,1.6.588,4.7,4.7,0,0,0,3.937-1.169,4.372,4.372,0,0,0,.46-.484,7.673,7.673,0,0,0,1.236-1.554l-.56-.46c-.267.493-.869.953-1.361,1.62-1.108,1.03-4.212.181-5.351-.477a.941.941,0,0,0-.958.012,3.746,3.746,0,0,1-2.416.6,3.513,3.513,0,0,1-1.815-.869.957.957,0,0,0-.9-.253,1.892,1.892,0,0,1-1.08-.072,3.6,3.6,0,0,1-2.776-2.788Z" transform="translate(-142.187 -268.467)" fill="#dc4955"/>
          </g>
        </g>
        <g id="Grupo_1220360" data-name="Grupo 1220360" transform="translate(30.682)">
          <path id="Trazado_1169112" data-name="Trazado 1169112" d="M253.806,94.379c0-1.113-.156-2.065-1.078-2.548a2.891,2.891,0,0,0-4.228,2.562,2.91,2.91,0,0,0,.032.432,2.615,2.615,0,0,0,2.874,2.091A2.225,2.225,0,0,0,253.806,94.379Z" transform="translate(-242.568 -78.727)" fill="#faf8f8"/>
          <circle id="Elipse_14350" data-name="Elipse 14350" cx="3.943" cy="3.943" r="3.943" transform="translate(13.257 25.401)" fill="#faf8f8"/>
          <path id="Trazado_1169113" data-name="Trazado 1169113" d="M450.317,119.541c0-1.272-.167-2.279-1.153-2.932a3.653,3.653,0,0,0-5.549,3.96c.406,1.574,2.147,2.351,3.847,2.351C449.479,122.92,450.317,121.557,450.317,119.541Z" transform="translate(-407.908 -99.501)" fill="#faf8f8"/>
          <path id="Trazado_1169114" data-name="Trazado 1169114" d="M321.411,107.628a2.877,2.877,0,0,0-1.25-2.717,3.12,3.12,0,0,0-4.607,3.29c.272,1.445,1.769,2.068,3.292,2.068A2.311,2.311,0,0,0,321.411,107.628Z" transform="translate(-299.377 -89.749)" fill="#faf8f8"/>
          <path id="Trazado_1169115" data-name="Trazado 1169115" d="M381.282,156.541c0-1.161-.18-2.092-1.12-2.629a3.12,3.12,0,0,0-4.607,3.29c.272,1.445,1.951,1.93,3.475,1.93C380.751,159.132,381.282,158.263,381.282,156.541Z" transform="translate(-350.251 -131.297)" fill="#faf8f8"/>
          <path id="Trazado_1169116" data-name="Trazado 1169116" d="M295.683,32.12a3.312,3.312,0,0,0-1.373-2.98,3.729,3.729,0,0,0-5.684,4.054,3.64,3.64,0,0,0,3.756,2.421A3.193,3.193,0,0,0,295.683,32.12Z" transform="translate(-276.484 -25.31)" fill="#faf8f8"/>
          <path id="Trazado_1169117" data-name="Trazado 1169117" d="M466.155,10.962a3.33,3.33,0,0,0-1.319-2.873,3.424,3.424,0,0,0-5.248,3.611,3.483,3.483,0,0,0,3.577,2.37A2.82,2.82,0,0,0,466.155,10.962Z" transform="translate(-421.474 -7.504)" fill="#faf8f8"/>
          <path id="Trazado_1169118" data-name="Trazado 1169118" d="M409.749,228.851a2.127,2.127,0,0,0-1.2-2.215,2.283,2.283,0,0,0-3.049,2.149,2.32,2.32,0,0,0,2.513,2.066C409.274,230.852,409.749,230.111,409.749,228.851Z" transform="translate(-375.689 -193.193)" fill="#faf8f8"/>
          <path id="Trazado_1169119" data-name="Trazado 1169119" d="M213.838,43.739a2.039,2.039,0,0,0-1.3-2.1,2.283,2.283,0,0,0-3.042,2.152c0,.007,0,.014,0,.021a2.209,2.209,0,0,0,2.448,1.977A1.785,1.785,0,0,0,213.838,43.739Z" transform="translate(-209.5 -36.332)" fill="#faf8f8"/>
          <path id="Trazado_1169120" data-name="Trazado 1169120" d="M384.729,65.027c-.164-.164-.231-.45-.414-.579a3.932,3.932,0,0,0-6.036,4.309c.178.619.845,1.1,1.332,1.589,1.535,1.535,3.539,1.325,5.074-.21A3.41,3.41,0,0,0,384.729,65.027Z" transform="translate(-352.477 -55.183)" fill="#faf8f8"/>
          <path id="Trazado_1169121" data-name="Trazado 1169121" d="M232.971,161.938a2.269,2.269,0,0,0-1.278-2.282,2.359,2.359,0,0,0-3.193,2.205c0,.025,0,.051,0,.076a2.291,2.291,0,0,0,2.508,2.021A1.781,1.781,0,0,0,232.971,161.938Z" transform="translate(-225.61 -136.384)" fill="#faf8f8"/>
        </g>
        <path id="Trazado_1169122" data-name="Trazado 1169122" d="M254.458,96.225a2.89,2.89,0,0,1-5.748.432,2.892,2.892,0,0,0,4.195-2.993A2.887,2.887,0,0,1,254.458,96.225Z" transform="translate(-212.064 -80.559)" fill="#f0e9e6"/>
        <path id="Trazado_1169123" data-name="Trazado 1169123" d="M305.25,182.1a3.942,3.942,0,0,1-7.759.987,3.94,3.94,0,0,0,6.116-3.287,3.833,3.833,0,0,0-.127-.987,3.931,3.931,0,0,1,1.769,3.287Z" transform="translate(-253.425 -152.756)" fill="#f0e9e6"/>
        <path id="Trazado_1169124" data-name="Trazado 1169124" d="M451.454,123.038a3.65,3.65,0,0,1-7.184.914,3.648,3.648,0,0,0,5.663-3.044,3.552,3.552,0,0,0-.117-.914A3.64,3.64,0,0,1,451.454,123.038Z" transform="translate(-377.878 -102.884)" fill="#f0e9e6"/>
        <path id="Trazado_1169125" data-name="Trazado 1169125" d="M322.042,109.9a3.118,3.118,0,0,1-6.181.58,3.117,3.117,0,0,0,4.66-2.709,3.034,3.034,0,0,0-.055-.58A3.113,3.113,0,0,1,322.042,109.9Z" transform="translate(-269 -92.031)" fill="#f0e9e6"/>
        <path id="Trazado_1169126" data-name="Trazado 1169126" d="M382.041,158.9a3.118,3.118,0,0,1-6.181.58,3.117,3.117,0,0,0,4.66-2.709,3.034,3.034,0,0,0-.055-.58A3.113,3.113,0,0,1,382.041,158.9Z" transform="translate(-319.874 -133.578)" fill="#f0e9e6"/>
        <path id="Trazado_1169127" data-name="Trazado 1169127" d="M296.657,35.758a3.727,3.727,0,0,1-7.327.964,3.728,3.728,0,0,0,5.68-4.058A3.727,3.727,0,0,1,296.657,35.758Z" transform="translate(-246.505 -28.837)" fill="#f0e9e6"/>
        <path id="Trazado_1169128" data-name="Trazado 1169128" d="M466.836,13.826a3.422,3.422,0,0,1-6.757.773,3.423,3.423,0,0,0,5.147-3.675A3.415,3.415,0,0,1,466.836,13.826Z" transform="translate(-391.284 -10.404)" fill="#f0e9e6"/>
        <path id="Trazado_1169129" data-name="Trazado 1169129" d="M410.063,229.515a2.282,2.282,0,0,1-4.563.021,2.258,2.258,0,0,0,.761.131,2.282,2.282,0,0,0,2.281-2.282v-.021A2.281,2.281,0,0,1,410.063,229.515Z" transform="translate(-345.005 -193.923)" fill="#f0e9e6"/>
        <path id="Trazado_1169130" data-name="Trazado 1169130" d="M214.063,44.515a2.282,2.282,0,0,1-4.563.021,2.257,2.257,0,0,0,.76.131,2.282,2.282,0,0,0,2.282-2.282v-.021A2.281,2.281,0,0,1,214.063,44.515Z" transform="translate(-178.818 -37.062)" fill="#f0e9e6"/>
        <path id="Trazado_1169131" data-name="Trazado 1169131" d="M385.7,74.423a3.931,3.931,0,0,1-6.557-1.691,3.931,3.931,0,0,0,6.034-4.308,3.823,3.823,0,0,1,.523.438A3.934,3.934,0,0,1,385.7,74.423Z" transform="translate(-322.655 -59.158)" fill="#f0e9e6"/>
        <path id="Trazado_1169132" data-name="Trazado 1169132" d="M233.224,162.709a2.357,2.357,0,0,1-4.714.076,2.359,2.359,0,0,0,3.193-2.206c0-.026,0-.05,0-.076A2.359,2.359,0,0,1,233.224,162.709Z" transform="translate(-194.936 -137.232)" fill="#f0e9e6"/>
      </g>
      <g id="Grupo_1220362" data-name="Grupo 1220362" transform="translate(0 0.004)">
        <path id="Trazado_1169133" data-name="Trazado 1169133" d="M313.313,246.234a1.141,1.141,0,0,0-1.161,1.12c-.132,7.208-1.357,10.673-8.347,16.987-1.29,1.165-1.73,3.142-1.346,6.045a1.141,1.141,0,0,0,2.262-.3c-.266-2.015-.049-3.455.613-4.053,3.75-3.387,5.907-6,7.211-8.73,1.26-2.638,1.806-5.508,1.887-9.908A1.141,1.141,0,0,0,313.313,246.234Z" transform="translate(-256.34 -208.781)"/>
        <path id="Trazado_1169134" data-name="Trazado 1169134" d="M49.607,189.663a1.141,1.141,0,1,0-2.168.711c.213.648.452,1.33.71,2.026a1.345,1.345,0,0,1-.926,1.774L28.8,198.913a1.353,1.353,0,0,1-1.587-.8c-1.118-2.748-3.736-9.186-10.444-8.277-1.87.258-5.813.865-6.882.657-2.764-.452-3.393-1.757-3.626-2.7a2.8,2.8,0,0,1,.469-2.287,2.045,2.045,0,0,0-.637-2.62,5.139,5.139,0,0,0-1.167-.584,1.126,1.126,0,0,1,.458-.525,1.141,1.141,0,0,0,.238-1.621,10.169,10.169,0,0,0-1.61-1.558c.83-.629,2.111-1.836,1.922-3.193-.088-.633-.513-1.486-2.04-1.954-1.614-.5-1.616-1.114-1.617-1.446,0-.452.236-.758,1.1-1.423a14.611,14.611,0,0,0,4.072-4.5,2.817,2.817,0,0,0,.136-2.482,9.294,9.294,0,0,0-.714-1.272c-.328-.519-.736-1.164-.664-1.473a4.849,4.849,0,0,1,.33-.795,9.384,9.384,0,0,0,1.039-3.68,15.929,15.929,0,0,1,3.376-9.045,1.141,1.141,0,1,0-1.788-1.417,18.168,18.168,0,0,0-3.865,10.313,7.189,7.189,0,0,1-.824,2.851,6.306,6.306,0,0,0-.49,1.254,4.269,4.269,0,0,0,.958,3.211,7.551,7.551,0,0,1,.546.955.523.523,0,0,1-.029.46,12.122,12.122,0,0,1-3.474,3.813A4.044,4.044,0,0,0,0,172.015c0,1.747,1.09,2.966,3.229,3.622a2.177,2.177,0,0,1,.39.155,5.009,5.009,0,0,1-1.336,1.242,1.141,1.141,0,0,0-.317.306,2.183,2.183,0,0,0,.562,2.994c.235.187.436.361.606.515a2.684,2.684,0,0,0-.067,3.015c.333.452.735.416,1.535.782a4.676,4.676,0,0,0-.552,3.7c.6,2.428,2.44,3.91,5.473,4.406,1.5.267,4.917-.287,7.556-.648,4.355-.589,6.431,2.956,8.025,6.876a3.637,3.637,0,0,0,4.269,2.145l18.42-4.739a3.627,3.627,0,0,0,2.5-4.778c-.248-.668-.478-1.322-.681-1.942Z" transform="translate(0 -123.361)"/>
        <path id="Trazado_1169135" data-name="Trazado 1169135" d="M85.365,100.5a1.135,1.135,0,0,0,.648-.2,25.143,25.143,0,0,1,14.2-4.016c.685,0,1.383.019,2.075.055a1.141,1.141,0,1,0,.121-2.278c-.731-.039-1.47-.059-2.2-.059a27.433,27.433,0,0,0-15.5,4.421,1.141,1.141,0,0,0,.65,2.079Z" transform="translate(-71.412 -79.706)"/>
        <path id="Trazado_1169136" data-name="Trazado 1169136" d="M132.01,244.587a5.606,5.606,0,0,0,.878.069,5.686,5.686,0,0,0,3.474-1.185,5.613,5.613,0,0,0,2.167-3.942s0,0,0-.006a8,8,0,0,0,1.188-.714,7.865,7.865,0,0,0,3.166-5.167,1.141,1.141,0,0,0-2.253-.357,5.633,5.633,0,0,1-8.723,3.786,5.923,5.923,0,0,0,.407-.916,1.141,1.141,0,0,0-2.157-.745,3.606,3.606,0,0,1-5.412,1.815,1.141,1.141,0,0,0-1.454.153,2.226,2.226,0,0,1-3.377-.2,1.141,1.141,0,0,0-1.178-.42,3.127,3.127,0,0,1-1.231.049,3.159,3.159,0,0,1-2.644-3.355,1.141,1.141,0,0,0-.878-1.2,1.577,1.577,0,0,1-.694-2.706,1.769,1.769,0,0,1,1.376-.374,1.141,1.141,0,0,0,1.337-.852,2.648,2.648,0,0,1,4.03-1.592,1.141,1.141,0,0,0,1.053.106,3.9,3.9,0,0,1,3.729.453,4.206,4.206,0,0,0-.468,1.372,1.141,1.141,0,1,0,2.253.357,1.922,1.922,0,0,1,3.663-.461,1.141,1.141,0,0,0,2.093-.907,4.2,4.2,0,0,0-5.919-1.994,6.191,6.191,0,0,0-5.662-1.125,4.931,4.931,0,0,0-6.672,2.336,3.86,3.86,0,0,0-1.756,7.155,4.1,4.1,0,0,1-2.3.7h0a1.141,1.141,0,0,0,0,2.282h0a6.371,6.371,0,0,0,3.132-.82,5.418,5.418,0,0,0,5.4,2.914,4.472,4.472,0,0,0,1.145.795l2.47,7.731a2.561,2.561,0,0,0,2.447,1.787H127.4a2.053,2.053,0,0,0,1.97-2.632l-1.091-3.714a2.345,2.345,0,0,1,1.177.43A5.663,5.663,0,0,0,132.01,244.587Zm-7.369,2.536a.287.287,0,0,1-.274-.2l-2.116-6.623a4.523,4.523,0,0,0,1.984-.749,5.782,5.782,0,0,0,.715.28l2.143,7.292h-2.452Zm3.748-6.35a2.266,2.266,0,0,1-.884-.341l-.1-.352a5.879,5.879,0,0,0,3.031-1.255,7.875,7.875,0,0,0,3.393,1.4,8.01,8.01,0,0,0,1.255.1,7.893,7.893,0,0,0,.945-.057,3.378,3.378,0,0,1-5.183,1.415,4.618,4.618,0,0,0-2.337-.891Z" transform="translate(-92.34 -189.933)"/>
        <path id="Trazado_1169137" data-name="Trazado 1169137" d="M76.094,164.116a1.141,1.141,0,0,0,.966-1.745,4.139,4.139,0,0,1-.577-2.841,4.1,4.1,0,0,1,.724-1.765,1.141,1.141,0,0,0,.076-1.21,4.86,4.86,0,0,1-.534-3.107,4.912,4.912,0,0,1,3.98-4.063,1.141,1.141,0,0,0,.921-.918,3.989,3.989,0,0,1,5.823-2.789,1.141,1.141,0,0,0,1.437-.294,5.612,5.612,0,0,1,5.264-2.053,1.141,1.141,0,1,0,.357-2.253,7.9,7.9,0,0,0-6.81,2.217,6.271,6.271,0,0,0-8.131,4.017,7.2,7.2,0,0,0-5.094,5.779,7.115,7.115,0,0,0,.482,3.932,6.356,6.356,0,0,0-.748,2.15,6.422,6.422,0,0,0,.9,4.407,1.14,1.14,0,0,0,.968.536Z" transform="translate(-62.873 -119.538)"/>
        <path id="Trazado_1169138" data-name="Trazado 1169138" d="M245.031,92.065A4.031,4.031,0,1,0,241,88.035,4.035,4.035,0,0,0,245.031,92.065Zm0-5.78a1.749,1.749,0,1,1-1.749,1.749A1.751,1.751,0,0,1,245.031,86.286Z" transform="translate(-204.343 -71.227)"/>
        <path id="Trazado_1169139" data-name="Trazado 1169139" d="M302.583,171.8a4.791,4.791,0,1,0-4.791,4.791A4.8,4.8,0,0,0,302.583,171.8Zm-4.791,2.51a2.51,2.51,0,1,1,2.51-2.51A2.513,2.513,0,0,1,297.791,174.3Z" transform="translate(-248.434 -141.603)"/>
        <path id="Trazado_1169140" data-name="Trazado 1169140" d="M440.791,108.5a4.791,4.791,0,1,0,4.791,4.791A4.8,4.8,0,0,0,440.791,108.5Zm0,7.3a2.51,2.51,0,1,1,2.51-2.51A2.513,2.513,0,0,1,440.791,115.8Z" transform="translate(-369.683 -92.001)"/>
        <path id="Trazado_1169141" data-name="Trazado 1169141" d="M308,101.263A4.259,4.259,0,1,0,312.259,97,4.264,4.264,0,0,0,308,101.263Zm6.236,0a1.977,1.977,0,1,1-1.977-1.977A1.98,1.98,0,0,1,314.236,101.263Z" transform="translate(-261.152 -82.25)"/>
        <path id="Trazado_1169142" data-name="Trazado 1169142" d="M376.518,150.263a4.259,4.259,0,1,0-4.259,4.259A4.264,4.264,0,0,0,376.518,150.263Zm-4.259,1.977a1.977,1.977,0,1,1,1.977-1.977A1.98,1.98,0,0,1,372.259,152.24Z" transform="translate(-312.026 -123.797)"/>
        <path id="Trazado_1169143" data-name="Trazado 1169143" d="M285.867,30.739A4.867,4.867,0,1,0,281,25.871,4.873,4.873,0,0,0,285.867,30.739Zm0-7.453a2.586,2.586,0,1,1-2.586,2.586A2.589,2.589,0,0,1,285.867,23.286Z" transform="translate(-238.259 -17.81)"/>
        <path id="Trazado_1169144" data-name="Trazado 1169144" d="M456.563,0a4.563,4.563,0,1,0,4.563,4.563A4.568,4.568,0,0,0,456.563,0Zm0,6.845a2.282,2.282,0,1,1,2.282-2.282A2.284,2.284,0,0,1,456.563,6.849Z" transform="translate(-383.249 -0.004)"/>
        <path id="Trazado_1169145" data-name="Trazado 1169145" d="M401.422,219a3.422,3.422,0,1,0,3.422,3.422A3.426,3.426,0,0,0,401.422,219Zm0,4.563a1.141,1.141,0,1,1,1.141-1.141A1.142,1.142,0,0,1,401.422,223.567Z" transform="translate(-337.463 -185.693)"/>
        <path id="Trazado_1169146" data-name="Trazado 1169146" d="M205.422,40.849A3.422,3.422,0,1,0,202,37.426,3.426,3.426,0,0,0,205.422,40.849Zm0-4.563a1.141,1.141,0,1,1-1.141,1.141A1.142,1.142,0,0,1,205.422,36.286Z" transform="translate(-171.275 -28.832)"/>
        <path id="Trazado_1169147" data-name="Trazado 1169147" d="M375.711,66.394a5.072,5.072,0,1,0-3.587-1.486A5.039,5.039,0,0,0,375.711,66.394Zm-1.973-7.046a2.791,2.791,0,1,1,0,3.947A2.782,2.782,0,0,1,373.738,59.348Z" transform="translate(-314.266 -47.696)"/>
        <path id="Trazado_1169148" data-name="Trazado 1169148" d="M228,155.5a3.5,3.5,0,1,0-3.5,3.5A3.5,3.5,0,0,0,228,155.5Zm-4.715,0a1.217,1.217,0,1,1,1.217,1.217A1.218,1.218,0,0,1,223.282,155.5Z" transform="translate(-187.385 -128.884)"/>
      </g>
    </g>
  </g>
</svg>
