<svg xmlns="http://www.w3.org/2000/svg" xmlns:xlink="http://www.w3.org/1999/xlink" width="113" height="113" viewBox="0 0 113 113">
  <defs>
    <filter id="Trazado_982547" x="0" y="0" width="113" height="113" filterUnits="userSpaceOnUse">
      <feOffset dy="3" input="SourceAlpha"/>
      <feGaussianBlur stdDeviation="3" result="blur"/>
      <feFlood flood-opacity="0.161"/>
      <feComposite operator="in" in2="blur"/>
      <feComposite in="SourceGraphic"/>
    </filter>
  </defs>
  <g id="Grupo_1220380" data-name="Grupo 1220380" transform="translate(-1163 -1441.052)">
    <g id="Grupo_1212634" data-name="Grupo 1212634" transform="translate(0 -6098.948)">
      <g id="Grupo_1209994" data-name="Grupo 1209994" transform="translate(0.5 11.192)">
        <g id="Grupo_1208707" data-name="Grupo 1208707" transform="translate(-1.454 3213.429)">
          <g id="Grupo_1148635" data-name="Grupo 1148635" transform="translate(908.908 600.047)">
            <g id="Grupo_1148525" data-name="Grupo 1148525" transform="translate(264.046 3721.333)">
              <g transform="matrix(1, 0, 0, 1, -9, -6)" filter="url(#Trazado_982547)">
                <g id="Trazado_982547-2" data-name="Trazado 982547" transform="translate(9 6)" fill="#e4f1d4">
                  <path d="M 47.5 93.5 C 41.28937149047852 93.5 35.26533508300781 92.28397369384766 29.59518623352051 89.88570404052734 C 24.11771965026855 87.56893157958984 19.19813346862793 84.25196075439453 14.97309303283691 80.02691650390625 C 10.74804019927979 75.80186462402344 7.431066513061523 70.88229370117188 5.114293098449707 65.40481567382812 C 2.716026782989502 59.73468017578125 1.5 53.71062850952148 1.5 47.5 C 1.5 41.28937149047852 2.716026782989502 35.26533508300781 5.114293098449707 29.59518623352051 C 7.431066513061523 24.11771965026855 10.74804019927979 19.19813346862793 14.97309303283691 14.97309303283691 C 19.19813346862793 10.74804019927979 24.11771965026855 7.431066513061523 29.59518623352051 5.114293098449707 C 35.26533508300781 2.716026782989502 41.28937149047852 1.5 47.5 1.5 C 53.71062850952148 1.5 59.73468017578125 2.716026782989502 65.40481567382812 5.114293098449707 C 70.88229370117188 7.431066513061523 75.80186462402344 10.74804019927979 80.02691650390625 14.97309303283691 C 84.25196075439453 19.19813346862793 87.56893157958984 24.11771965026855 89.88570404052734 29.59518623352051 C 92.28397369384766 35.26533508300781 93.5 41.28937149047852 93.5 47.5 C 93.5 53.71062850952148 92.28397369384766 59.73468017578125 89.88570404052734 65.40481567382812 C 87.56893157958984 70.88229370117188 84.25196075439453 75.80186462402344 80.02691650390625 80.02691650390625 C 75.80186462402344 84.25196075439453 70.88229370117188 87.56893157958984 65.40481567382812 89.88570404052734 C 59.73468017578125 92.28397369384766 53.71062850952148 93.5 47.5 93.5 Z" stroke="none"/>
                  <path d="M 47.5 3 C 41.49121475219727 3 35.66376876831055 4.176155090332031 30.17950439453125 6.495796203613281 C 24.88084411621094 8.736953735351562 20.12152099609375 11.94598388671875 16.03375244140625 16.03375244140625 C 11.94598388671875 20.12152099609375 8.736953735351562 24.88084411621094 6.495796203613281 30.17950439453125 C 4.176155090332031 35.66376876831055 3 41.49121475219727 3 47.5 C 3 53.50878524780273 4.176155090332031 59.33623123168945 6.495796203613281 64.82049560546875 C 8.736953735351562 70.11915588378906 11.94598388671875 74.87847900390625 16.03375244140625 78.96624755859375 C 20.12152099609375 83.05401611328125 24.88084411621094 86.26304626464844 30.17950439453125 88.50419616699219 C 35.66376876831055 90.82384490966797 41.49121475219727 92 47.5 92 C 53.50878524780273 92 59.33623123168945 90.82384490966797 64.82049560546875 88.50419616699219 C 70.11915588378906 86.26304626464844 74.87847900390625 83.05401611328125 78.96624755859375 78.96624755859375 C 83.05401611328125 74.87847900390625 86.26304626464844 70.11915588378906 88.50419616699219 64.82049560546875 C 90.82384490966797 59.33623123168945 92 53.50878524780273 92 47.5 C 92 41.49121475219727 90.82384490966797 35.66376876831055 88.50419616699219 30.17950439453125 C 86.26304626464844 24.88084411621094 83.05401611328125 20.12152099609375 78.96624755859375 16.03375244140625 C 74.87847900390625 11.94598388671875 70.11915588378906 8.736953735351562 64.82049560546875 6.495796203613281 C 59.33623123168945 4.176155090332031 53.50878524780273 3 47.5 3 M 47.5 0 C 73.7335205078125 0 95 21.2664794921875 95 47.5 C 95 73.7335205078125 73.7335205078125 95 47.5 95 C 21.2664794921875 95 0 73.7335205078125 0 47.5 C 0 21.2664794921875 21.2664794921875 0 47.5 0 Z" stroke="none" fill="#a9d373"/>
                </g>
              </g>
            </g>
          </g>
        </g>
      </g>
    </g>
    <g id="motivacion_2_" data-name="motivacion (2)" transform="translate(1161.568 1452.527)">
      <g id="Grupo_1220378" data-name="Grupo 1220378" transform="translate(17.878 1.311)">
        <path id="Trazado_1169149" data-name="Trazado 1169149" d="M186.879,41.976l2.8,5.677a2.409,2.409,0,0,0,1.813,1.318l6.265.91a2.409,2.409,0,0,1,1.335,4.108l-4.533,4.419a2.408,2.408,0,0,0-.693,2.132l1.07,6.24a2.409,2.409,0,0,1-3.495,2.539l-5.6-2.946a2.408,2.408,0,0,0-2.242,0l-5.6,2.946A2.409,2.409,0,0,1,174.5,66.78l1.07-6.24a2.408,2.408,0,0,0-.693-2.132l-4.533-4.419a2.409,2.409,0,0,1,1.335-4.108l6.265-.91a2.409,2.409,0,0,0,1.813-1.318l2.8-5.677a2.408,2.408,0,0,1,4.319,0Z" transform="translate(-144.165 -34.84)" fill="#ffe177"/>
        <g id="Grupo_1220371" data-name="Grupo 1220371" transform="translate(0)">
          <g id="Grupo_1220364" data-name="Grupo 1220364" transform="translate(5.793 0)">
            <path id="Trazado_1169150" data-name="Trazado 1169150" d="M62.993,16.191a2.887,2.887,0,0,1-2.048-.849l-2.9-2.9a2.9,2.9,0,1,1,4.1-4.1l2.9,2.9a2.9,2.9,0,0,1-2.048,4.945Z" transform="translate(-57.2 -7.5)" fill="#01d0fb"/>
          </g>
          <g id="Grupo_1220365" data-name="Grupo 1220365" transform="translate(66.625)">
            <path id="Trazado_1169151" data-name="Trazado 1169151" d="M408,16.19a2.887,2.887,0,0,0,2.048-.849l2.9-2.9a2.9,2.9,0,1,0-4.1-4.1l-2.9,2.9A2.9,2.9,0,0,0,408,16.19Z" transform="translate(-405.1 -7.499)" fill="#01d0fb"/>
          </g>
          <g id="Grupo_1220366" data-name="Grupo 1220366" transform="translate(66.625 49.244)">
            <path id="Trazado_1169152" data-name="Trazado 1169152" d="M408,289.133a2.887,2.887,0,0,1,2.048.848l2.9,2.9a2.9,2.9,0,1,1-4.1,4.1l-2.9-2.9A2.9,2.9,0,0,1,408,289.133Z" transform="translate(-405.1 -289.133)" fill="#01d0fb"/>
          </g>
          <g id="Grupo_1220368" data-name="Grupo 1220368" transform="translate(5.793 49.244)">
            <g id="Grupo_1220367" data-name="Grupo 1220367">
              <path id="Trazado_1169153" data-name="Trazado 1169153" d="M62.993,289.133a2.887,2.887,0,0,0-2.048.848l-2.9,2.9a2.9,2.9,0,1,0,4.1,4.1l2.9-2.9a2.9,2.9,0,0,0-2.048-4.945Z" transform="translate(-57.2 -289.133)" fill="#01d0fb"/>
            </g>
          </g>
          <g id="Grupo_1220369" data-name="Grupo 1220369" transform="translate(0 26.071)">
            <path id="Trazado_1169154" data-name="Trazado 1169154" d="M29.86,162.393h-2.9a2.9,2.9,0,1,1,0-5.793h2.9a2.9,2.9,0,1,1,0,5.793Z" transform="translate(-24.066 -156.6)" fill="#01d0fb"/>
          </g>
          <g id="Grupo_1220370" data-name="Grupo 1220370" transform="translate(72.418 26.071)">
            <path id="Trazado_1169155" data-name="Trazado 1169155" d="M444.027,162.393h-2.9a2.9,2.9,0,1,1,0-5.793h2.9a2.9,2.9,0,1,1,0,5.793Z" transform="translate(-438.233 -156.6)" fill="#01d0fb"/>
          </g>
        </g>
        <path id="Trazado_1169156" data-name="Trazado 1169156" d="M248.141,47.039a2.409,2.409,0,0,0,1.813,1.318l3.767.547a2.408,2.408,0,0,1-1.5-1.249l-2.8-5.677a2.411,2.411,0,0,0-4.012-.477Z" transform="translate(-206.706 -34.842)" fill="#facb5f"/>
        <path id="Trazado_1169157" data-name="Trazado 1169157" d="M294.129,95.056a2.409,2.409,0,0,0-1.335-4.108l-3.753-.545a2.409,2.409,0,0,1,1.008,4.038l-4.533,4.419a2.408,2.408,0,0,0-.693,2.132l1.07,6.24a2.38,2.38,0,0,1-.949,2.348l1.535.807a2.408,2.408,0,0,0,3.495-2.539l-1.07-6.24a2.409,2.409,0,0,1,.693-2.132Z" transform="translate(-239.2 -75.906)" fill="#facb5f"/>
        <g id="Grupo_1220377" data-name="Grupo 1220377" transform="translate(23.898 40.554)">
          <path id="Trazado_1169158" data-name="Trazado 1169158" d="M212.3,297.417s-10.138,14.328-10.138,15.208v19.553a1.448,1.448,0,0,0,1.448,1.448h15.932a1.448,1.448,0,0,0,1.448-1.448v-8.746a2.9,2.9,0,0,1,1.087-2.262,16.4,16.4,0,0,0,6.155-12.806v-9.5Z" transform="translate(-194.917 -287.278)" fill="#eaa998"/>
          <path id="Trazado_1169159" data-name="Trazado 1169159" d="M245.425,297.417v2.173a7.641,7.641,0,0,0,11.263,6.729,7.631,7.631,0,0,0,7.242,0v-7.453L248,297.417Z" transform="translate(-230.618 -287.278)" fill="#e49280"/>
          <path id="Trazado_1169160" data-name="Trazado 1169160" d="M287.249,303.609v9.864a16.4,16.4,0,0,1-6.155,12.806,2.9,2.9,0,0,0-1.087,2.262v8.746a1.448,1.448,0,0,1-1.448,1.448h4.022a1.448,1.448,0,0,0,1.448-1.448v-8.746a2.9,2.9,0,0,1,1.087-2.262,16.4,16.4,0,0,0,6.155-12.806v-9.5Z" transform="translate(-257.958 -292.388)" fill="#e49280"/>
          <path id="Trazado_1169161" data-name="Trazado 1169161" d="M211.083,243.781a3.618,3.618,0,0,0-3.241,1.743.284.284,0,0,1-.242.14.281.281,0,0,1-.281-.281v-2.239a3.68,3.68,0,0,0-3.529-3.71,3.62,3.62,0,0,0-3.319,1.978.441.441,0,0,1-.784,0,3.618,3.618,0,0,0-6.822,1.219.264.264,0,0,1-.264.231.269.269,0,0,1-.234-.14,3.616,3.616,0,0,0-3.163-1.845,3.68,3.68,0,0,0-3.61,3.711v5.853h7.242l7.242.574v.636a3.716,3.716,0,0,0,3.583,3.709,3.619,3.619,0,0,0,3.246-1.942.468.468,0,0,1,.826,0,3.62,3.62,0,0,0,3.246,1.942,3.716,3.716,0,0,0,3.583-3.709v-4.17a3.678,3.678,0,0,0-3.477-3.7Z" transform="translate(-181.248 -239.433)" fill="#eaa998"/>
          <g id="Grupo_1220372" data-name="Grupo 1220372" transform="translate(10.275 0.743)">
            <path id="Trazado_1169162" data-name="Trazado 1169162" d="M219.508,245.677V254.4h1.311l1.311.1V244.23a3.615,3.615,0,0,0-1.283,2.363.264.264,0,0,1-.264.231.269.269,0,0,1-.234-.14A3.645,3.645,0,0,0,219.508,245.677Z" transform="translate(-219.508 -244.135)" fill="#e49280"/>
            <path id="Trazado_1169163" data-name="Trazado 1169163" d="M263.548,258.419V244.2a3.636,3.636,0,0,0-.918,1.146.441.441,0,0,1-.784,0,3.638,3.638,0,0,0-.92-1.151v10.65l1.311.1v.636A3.769,3.769,0,0,0,263.548,258.419Z" transform="translate(-253.683 -244.106)" fill="#e49280"/>
            <path id="Trazado_1169164" data-name="Trazado 1169164" d="M304.131,257.911v-9.663a3.637,3.637,0,0,0-.642.783.284.284,0,0,1-.242.14.281.281,0,0,1-.281-.281v-2.239a3.753,3.753,0,0,0-1.457-2.968v14.468a3.634,3.634,0,0,0,1.044-1.221.468.468,0,0,1,.826,0A3.643,3.643,0,0,0,304.131,257.911Z" transform="translate(-287.17 -243.684)" fill="#e49280"/>
          </g>
          <g id="Grupo_1220374" data-name="Grupo 1220374" transform="translate(10.746 15.808)">
            <g id="Grupo_1220373" data-name="Grupo 1220373">
              <path id="Trazado_1169165" data-name="Trazado 1169165" d="M230.282,342.864a1.311,1.311,0,0,1-1.311-1.311,10.067,10.067,0,0,0-5.99-9.2,1.311,1.311,0,0,1,1.062-2.4,12.691,12.691,0,0,1,7.552,11.6A1.312,1.312,0,0,1,230.282,342.864Z" transform="translate(-222.2 -329.842)" fill="#e49280"/>
            </g>
          </g>
          <path id="Trazado_1169166" data-name="Trazado 1169166" d="M173.835,305.478a6.68,6.68,0,0,0,5.735-6.613,1.448,1.448,0,0,0-1.448-1.448H167.561a5.794,5.794,0,0,0-5.379,3.642l-.363.907a15.06,15.06,0,0,0,4.575,17.353l.5.4a2.9,2.9,0,0,1,1.087,2.262l8.567-.025Z" transform="translate(-160.742 -287.278)" fill="#eaa998"/>
          <g id="Grupo_1220376" data-name="Grupo 1220376" transform="translate(4.345 7.516)">
            <g id="Grupo_1220375" data-name="Grupo 1220375">
              <path id="Trazado_1169167" data-name="Trazado 1169167" d="M188.066,282.416a8.478,8.478,0,0,0-2.474.367V285.6a5.783,5.783,0,0,1,2.474-.556h10.561a1.44,1.44,0,0,1,1.448,1.418,6.68,6.68,0,0,1-5.735,6.643l-3.128.447a1.311,1.311,0,0,0,.37,2.6l3.129-.447a9.3,9.3,0,0,0,7.987-9.3,4.054,4.054,0,0,0-4.071-3.984H188.066Z" transform="translate(-185.592 -282.416)" fill="#e49280"/>
            </g>
          </g>
        </g>
      </g>
      <g id="Grupo_1220379" data-name="Grupo 1220379" transform="translate(16.567)">
        <path id="Trazado_1169168" data-name="Trazado 1169168" d="M184.244,236.278a4.9,4.9,0,0,0-2.31.576,4.929,4.929,0,0,0-8.553-3.333,4.925,4.925,0,0,0-7.883.866,4.929,4.929,0,0,0-7.912,3.927v4.316a7.116,7.116,0,0,0-4.345,6.547v5.154a17.624,17.624,0,0,0,6.647,13.83,1.577,1.577,0,0,1,.595,1.238v8.746a2.763,2.763,0,0,0,2.76,2.76h2.382a1.311,1.311,0,1,0,0-2.623h-2.382a.137.137,0,0,1-.137-.137V269.4a4.188,4.188,0,0,0-1.579-3.286,15.013,15.013,0,0,1-5.663-11.781v-5.153a4.487,4.487,0,0,1,4.482-4.482h11.587a.137.137,0,0,1,.137.137V247a2.312,2.312,0,0,1-2.309,2.309h-7.966a1.311,1.311,0,0,0,0,2.623h1.585v2.338a2.041,2.041,0,0,0,1.876,2.028,7.406,7.406,0,0,1,6.814,7.358,1.311,1.311,0,1,0,2.623,0,10.044,10.044,0,0,0-8.69-9.916v-1.808h3.758a4.934,4.934,0,0,0,4.262-2.454,4.921,4.921,0,0,0,6.6-.582,4.921,4.921,0,0,0,5.93,1.012v4.418a15.014,15.014,0,0,1-5.662,11.781,4.188,4.188,0,0,0-1.579,3.286v8.746a.137.137,0,0,1-.137.137h-7.43a1.311,1.311,0,0,0,0,2.623h7.43a2.763,2.763,0,0,0,2.76-2.76V269.4a1.577,1.577,0,0,1,.6-1.238,17.623,17.623,0,0,0,6.647-13.829V241.21A4.938,4.938,0,0,0,184.244,236.278Zm-24.035,5.8v-3.761a2.31,2.31,0,0,1,4.619,0v3.758h-4.482C160.3,242.072,160.255,242.074,160.209,242.075Zm11.724,0h-4.482v-5.206a2.309,2.309,0,0,1,4.619,0v5.213C172.024,242.076,171.979,242.072,171.933,242.072ZM177,247.865a2.312,2.312,0,0,1-2.31-2.309v-8.69a2.31,2.31,0,0,1,4.619,0v8.69A2.312,2.312,0,0,1,177,247.865Zm7.242,0a2.312,2.312,0,0,1-2.309-2.309V241.21a2.31,2.31,0,0,1,4.619,0v4.345A2.312,2.312,0,0,1,184.244,247.865Z" transform="translate(-129.343 -191.379)"/>
        <path id="Trazado_1169169" data-name="Trazado 1169169" d="M167.772,53.157a1.1,1.1,0,0,1,.315.971l-1.07,6.24a3.715,3.715,0,0,0,5.4,3.921l5.6-2.946a1.1,1.1,0,0,1,1.021,0l5.6,2.946a3.72,3.72,0,0,0,5.4-3.921l-1.07-6.24a1.1,1.1,0,0,1,.316-.971l4.534-4.419a3.72,3.72,0,0,0-2.062-6.345l-6.265-.91a1.1,1.1,0,0,1-.826-.6l-2.8-5.677a3.72,3.72,0,0,0-6.671,0l-2.8,5.677a1.1,1.1,0,0,1-.826.6l-6.265.91a3.72,3.72,0,0,0-2.062,6.345Zm-2.98-7.422a1.07,1.07,0,0,1,.886-.747l6.265-.91a3.718,3.718,0,0,0,2.8-2.035l2.8-5.677a1.1,1.1,0,0,1,1.967,0l2.8,5.677a3.719,3.719,0,0,0,2.8,2.035l6.265.91a1.1,1.1,0,0,1,.608,1.871l-4.534,4.419a3.719,3.719,0,0,0-1.07,3.292l1.07,6.24a1.1,1.1,0,0,1-1.592,1.156l-5.6-2.946a3.72,3.72,0,0,0-3.462,0l-5.6,2.946a1.1,1.1,0,0,1-1.592-1.156l1.07-6.24a3.72,3.72,0,0,0-1.07-3.293l-4.534-4.419a1.069,1.069,0,0,1-.277-1.125Z" transform="translate(-136.664 -27.338)"/>
        <path id="Trazado_1169170" data-name="Trazado 1169170" d="M56.883,1.233a4.208,4.208,0,1,0-5.951,5.951l2.9,2.9A4.208,4.208,0,1,0,59.78,4.129Zm1.042,6.993a1.585,1.585,0,0,1-2.242,0l-2.9-2.9a1.585,1.585,0,1,1,2.242-2.242l2.9,2.9A1.587,1.587,0,0,1,57.925,8.226Z" transform="translate(-43.906)"/>
        <path id="Trazado_1169171" data-name="Trazado 1169171" d="M401.807,11.323a4.181,4.181,0,0,0,2.976-1.233l2.9-2.9a4.208,4.208,0,0,0-5.951-5.951l-2.9,2.9a4.208,4.208,0,0,0,2.975,7.184Zm-1.121-5.329,2.9-2.9a1.585,1.585,0,0,1,2.242,2.242l-2.9,2.9a1.585,1.585,0,1,1-2.242-2.242Z" transform="translate(-330.974 -0.01)"/>
        <path id="Trazado_1169172" data-name="Trazado 1169172" d="M404.783,282.866a4.208,4.208,0,1,0-5.951,5.951l2.9,2.9a4.208,4.208,0,1,0,5.951-5.951Zm1.042,6.993a1.585,1.585,0,0,1-2.242,0l-2.9-2.9a1.585,1.585,0,0,1,2.242-2.242l2.9,2.9a1.585,1.585,0,0,1,0,2.242Z" transform="translate(-330.974 -232.389)"/>
        <path id="Trazado_1169173" data-name="Trazado 1169173" d="M56.8,281.633a4.181,4.181,0,0,0-2.976,1.233l-2.9,2.9a4.208,4.208,0,1,0,5.951,5.951l2.9-2.9a4.208,4.208,0,0,0-2.976-7.184Zm1.121,5.329-2.9,2.9a1.585,1.585,0,1,1-2.242-2.242l2.9-2.9a1.585,1.585,0,0,1,2.242,2.242Z" transform="translate(-43.906 -232.389)"/>
        <path id="Trazado_1169174" data-name="Trazado 1169174" d="M27.88,153.308a4.213,4.213,0,0,0-4.208-4.208h-2.9a4.208,4.208,0,0,0,0,8.416h2.9A4.213,4.213,0,0,0,27.88,153.308Zm-8.69,0a1.587,1.587,0,0,1,1.585-1.585h2.9a1.585,1.585,0,0,1,0,3.171h-2.9a1.587,1.587,0,0,1-1.585-1.585Z" transform="translate(-16.567 -123.029)"/>
        <path id="Trazado_1169175" data-name="Trazado 1169175" d="M437.839,149.1h-2.9a4.208,4.208,0,1,0,0,8.416h2.9a4.208,4.208,0,0,0,0-8.416Zm0,5.793h-2.9a1.585,1.585,0,1,1,0-3.171h2.9a1.585,1.585,0,0,1,0,3.171Z" transform="translate(-358.316 -123.029)"/>
      </g>
    </g>
  </g>
</svg>
