<svg xmlns="http://www.w3.org/2000/svg" width="32.835" height="33.966" viewBox="0 0 32.835 33.966">
  <g id="investigar" transform="translate(-2 -0.003)">
    <path id="Trazado_1169219" data-name="Trazado 1169219" d="M20.566,23a.566.566,0,0,0,0,1.132A1.132,1.132,0,0,1,21.7,25.264a.566.566,0,0,0,.566.566C23.449,25.831,22.725,23,20.566,23Z" transform="translate(-7.81 -9.978)"/>
    <path id="Trazado_1169220" data-name="Trazado 1169220" d="M34.566,28.132A1.132,1.132,0,0,1,35.7,29.264a.566.566,0,0,0,.566.566c1.184,0,.461-2.831-1.7-2.831a.566.566,0,0,0,0,1.132Z" transform="translate(-13.884 -11.713)"/>
    <path id="Trazado_1169221" data-name="Trazado 1169221" d="M21.566,8a.566.566,0,0,0,0,1.132A1.132,1.132,0,0,1,22.7,10.264a.566.566,0,0,0,.566.566C24.449,10.831,23.725,8,21.566,8Z" transform="translate(-8.244 -3.47)"/>
    <path id="Trazado_1169222" data-name="Trazado 1169222" d="M14.566,17.83a.566.566,0,0,0,.566-.566,1.132,1.132,0,0,1,1.132-1.132.566.566,0,0,0,.566-.566c0-1.184-2.831-.461-2.831,1.7A.566.566,0,0,0,14.566,17.83Z" transform="translate(-5.207 -6.507)"/>
    <path id="Trazado_1169223" data-name="Trazado 1169223" d="M20.566,47a.566.566,0,1,0,0,1.132A1.132,1.132,0,0,1,21.7,49.264a.566.566,0,0,0,.566.566C23.449,49.831,22.725,47,20.566,47Z" transform="translate(-7.81 -20.391)"/>
    <path id="Trazado_1169224" data-name="Trazado 1169224" d="M17.084,38.565a1.12,1.12,0,0,1,.879-.433.566.566,0,1,0,0-1.132,2.259,2.259,0,0,0-1.594.667,2.8,2.8,0,0,0-1.8-.667.566.566,0,1,0,0,1.132,1.7,1.7,0,0,1,1.7,1.7.566.566,0,1,0,1.132,0A2.8,2.8,0,0,0,17.084,38.565Z" transform="translate(-5.207 -16.052)"/>
    <path id="Trazado_1169225" data-name="Trazado 1169225" d="M8.566,27a.566.566,0,1,0,0,1.132,1.7,1.7,0,0,1,1.7,1.7.566.566,0,0,0,1.132,0A2.834,2.834,0,0,0,8.566,27Z" transform="translate(-2.603 -11.713)"/>
    <path id="Trazado_1169226" data-name="Trazado 1169226" d="M35,20.264a.566.566,0,1,0,1.132,0,1.132,1.132,0,0,1,1.132-1.132.566.566,0,0,0,.566-.566C37.831,17.382,35,18.105,35,20.264Z" transform="translate(-14.318 -7.808)"/>
    <path id="Trazado_1169227" data-name="Trazado 1169227" d="M34.566,11.83a.566.566,0,0,0,.566-.566,1.132,1.132,0,0,1,1.132-1.132.566.566,0,0,0,.566-.566c0-1.184-2.831-.461-2.831,1.7A.566.566,0,0,0,34.566,11.83Z" transform="translate(-13.884 -3.903)"/>
    <path id="Trazado_1169228" data-name="Trazado 1169228" d="M44.566,22.132A1.132,1.132,0,0,1,45.7,23.264a.566.566,0,0,0,.566.566c1.184,0,.461-2.831-1.7-2.831a.566.566,0,0,0,0,1.132Z" transform="translate(-18.223 -9.11)"/>
    <path id="Trazado_1169229" data-name="Trazado 1169229" d="M41.792,36.829a3.967,3.967,0,0,0-3.963,3.963.566.566,0,0,0,1.132,0,2.834,2.834,0,0,1,2.831-2.831.566.566,0,1,0,0-1.132Z" transform="translate(-15.545 -15.978)"/>
    <path id="Trazado_1169230" data-name="Trazado 1169230" d="M31.717,27.786a6.178,6.178,0,0,0,.416-4.986,3.384,3.384,0,0,0,.554-3.9,3.712,3.712,0,0,0-.989-5.845,3.4,3.4,0,0,0-1.886-3.9,3.417,3.417,0,0,0-2.484-3.986,3.1,3.1,0,0,0-3.517-3.246,3.448,3.448,0,0,0-5.959-.391,3.447,3.447,0,0,0-5.958.391A3.109,3.109,0,0,0,8.374,5.153a3.468,3.468,0,0,0-2.482,4A3.41,3.41,0,0,0,4,13.032a3.971,3.971,0,0,0-2,3.319A3.691,3.691,0,0,0,3.019,18.9a3.408,3.408,0,0,0,1.124,4.377A3.73,3.73,0,0,0,7.1,28.243a3.114,3.114,0,0,0,3.982,3.077,3.761,3.761,0,0,0,6.774.89,3.76,3.76,0,0,0,3.187,1.759,2.563,2.563,0,0,0,2.335-1.493,2.1,2.1,0,0,0,2.84-1.436,6.129,6.129,0,0,0,2.223-.4l2.836,2.836a1.693,1.693,0,0,0,1.2.5c.852,0,1.23-.526,1.864-1.16a1.7,1.7,0,0,0,0-2.4ZM21.151,24.814a5.1,5.1,0,1,1,5.1,5.1,5.1,5.1,0,0,1-5.1-5.1ZM14.67,32.837a2.614,2.614,0,0,1-2.6-2.362.566.566,0,0,0-.308-.458c-.5-.255-.609.3-1.547.3A1.962,1.962,0,0,1,8.3,27.85a.555.555,0,0,0-.636-.7,2.6,2.6,0,0,1-2.3-3.834.566.566,0,0,0-.258-.79A2.272,2.272,0,0,1,4.2,19.137a.566.566,0,0,0-.1-.777,2.567,2.567,0,0,1-.967-2.01,2.714,2.714,0,0,1,1.695-2.43.566.566,0,0,0,.383-.3c.212-.412-.164-.537-.164-1.379a2.27,2.27,0,0,1,1.69-2.193.566.566,0,0,0,.364-.3c.194-.4-.146-.506-.146-1.3A2.3,2.3,0,0,1,9.037,6.2a.566.566,0,0,0,.441-.226c.241-.32.023-.5.023-.985a1.981,1.981,0,0,1,2.565-1.874.566.566,0,0,0,.716-.37,2.305,2.305,0,0,1,4.5.665V30.244a2.608,2.608,0,0,1-2.615,2.593Zm10.014-1.472a1.9,1.9,0,0,1-1.44-.141.566.566,0,0,0-.864.481c0,.793-.888,1.132-1.342,1.132a2.61,2.61,0,0,1-2.621-2.593V3.409a2.305,2.305,0,0,1,4.5-.664.566.566,0,0,0,.712.371,1.966,1.966,0,0,1,2.5,2.37.566.566,0,0,0,.5.712,2.274,2.274,0,0,1,1.957,3.087.566.566,0,0,0,.376.77,2.268,2.268,0,0,1,1.509,3.086.566.566,0,0,0,.333.76,2.583,2.583,0,0,1,.793,4.458.566.566,0,0,0-.1.777,2.213,2.213,0,0,1,.09,2.5,6.223,6.223,0,1,0-6.526,9.287.761.761,0,0,1-.38.439Zm8.853.644-.663.663a.566.566,0,0,1-.8,0L29.51,30.108a6.261,6.261,0,0,0,1.563-1.365l2.464,2.464a.566.566,0,0,1,0,.8Z"/>
  </g>
</svg>
